# vtk DataFile Version 4.0
vtk output
ASCII
DATASET UNSTRUCTURED_GRID
POINTS 263 float
1.5000000e-03 -2.0000001e-03 2.4999999e-03 
1.5000000e-03 2.0000001e-03 2.4999999e-03 
-1.5000000e-03 2.0000001e-03 2.4999999e-03 
-1.5000000e-03 -2.0000001e-03 2.4999999e-03 
1.5000000e-03 2.0000001e-03 -2.4999999e-03 
1.5000000e-03 -2.0000001e-03 -2.4999999e-03 
-1.5000000e-03 -2.0000001e-03 -2.4999999e-03 
-1.5000000e-03 2.0000001e-03 -2.4999999e-03 
1.5000000e-03 -1.2000001e-03 2.4999999e-03 
1.5000000e-03 -3.9999999e-04 2.4999999e-03 
1.5000000e-03 3.9999999e-04 2.4999999e-03 
1.5000000e-03 1.2000001e-03 2.4999999e-03 
7.5000001e-04 2.0000001e-03 2.4999999e-03 
1.7618285e-19 2.0000001e-03 2.4999999e-03 
-7.5000001e-04 2.0000001e-03 2.4999999e-03 
-1.5000000e-03 1.2000001e-03 2.4999999e-03 
-1.5000000e-03 3.9999999e-04 2.4999999e-03 
-1.5000000e-03 -3.9999999e-04 2.4999999e-03 
-1.5000000e-03 -1.2000001e-03 2.4999999e-03 
-7.5000001e-04 -2.0000001e-03 2.4999999e-03 
-1.7618285e-19 -2.0000001e-03 2.4999999e-03 
7.5000001e-04 -2.0000001e-03 2.4999999e-03 
1.5000000e-03 1.2000001e-03 -2.4999999e-03 
1.5000000e-03 3.9999999e-04 -2.4999999e-03 
1.5000000e-03 -3.9999999e-04 -2.4999999e-03 
1.5000000e-03 -1.2000001e-03 -2.4999999e-03 
7.5000001e-04 -2.0000001e-03 -2.4999999e-03 
1.7618285e-19 -2.0000001e-03 -2.4999999e-03 
-7.5000001e-04 -2.0000001e-03 -2.4999999e-03 
-1.5000000e-03 -1.2000001e-03 -2.4999999e-03 
-1.5000000e-03 -3.9999999e-04 -2.4999999e-03 
-1.5000000e-03 3.9999999e-04 -2.4999999e-03 
-1.5000000e-03 1.2000001e-03 -2.4999999e-03 
-7.5000001e-04 2.0000001e-03 -2.4999999e-03 
-1.7618285e-19 2.0000001e-03 -2.4999999e-03 
7.5000001e-04 2.0000001e-03 -2.4999999e-03 
-1.5000000e-03 -2.0000001e-03 1.7857143e-03 
-1.5000000e-03 -2.0000001e-03 1.0714285e-03 
-1.5000000e-03 -2.0000001e-03 3.5714285e-04 
-1.5000000e-03 -2.0000001e-03 -3.5714285e-04 
-1.5000000e-03 -2.0000001e-03 -1.0714285e-03 
-1.5000000e-03 -2.0000001e-03 -1.7857143e-03 
1.5000000e-03 -2.0000001e-03 1.7857143e-03 
1.5000000e-03 -2.0000001e-03 1.0714285e-03 
1.5000000e-03 -2.0000001e-03 3.5714285e-04 
1.5000000e-03 -2.0000001e-03 -3.5714285e-04 
1.5000000e-03 -2.0000001e-03 -1.0714285e-03 
1.5000000e-03 -2.0000001e-03 -1.7857143e-03 
-1.5000000e-03 2.0000001e-03 1.7857143e-03 
-1.5000000e-03 2.0000001e-03 1.0714285e-03 
-1.5000000e-03 2.0000001e-03 3.5714285e-04 
-1.5000000e-03 2.0000001e-03 -3.5714285e-04 
-1.5000000e-03 2.0000001e-03 -1.0714285e-03 
-1.5000000e-03 2.0000001e-03 -1.7857143e-03 
1.5000000e-03 2.0000001e-03 1.7857143e-03 
1.5000000e-03 2.0000001e-03 1.0714285e-03 
1.5000000e-03 2.0000001e-03 3.5714285e-04 
1.5000000e-03 2.0000001e-03 -3.5714285e-04 
1.5000000e-03 2.0000001e-03 -1.0714285e-03 
1.5000000e-03 2.0000001e-03 -1.7857143e-03 
-7.3543942e-04 8.6819591e-07 2.4999999e-03 
7.5612980e-04 -8.2355231e-04 2.4999999e-03 
7.5611280e-04 8.2621543e-04 2.4999999e-03 
-3.5879298e-04 1.4214875e-03 2.4999999e-03 
-3.5877313e-04 -1.4209964e-03 2.4999999e-03 
7.9469354e-04 1.3120473e-06 2.4999999e-03 
2.0998194e-05 -3.5349559e-04 2.4999999e-03 
3.1486641e-06 3.6291283e-04 2.4999999e-03 
-7.1922340e-04 8.2576566e-04 2.4999999e-03 
-7.1665365e-04 -8.2368118e-04 2.4999999e-03 
3.5451652e-04 -1.4398448e-03 2.4999999e-03 
3.5449053e-04 1.4408617e-03 2.4999999e-03 
-9.6408365e-04 1.4769160e-03 2.4999999e-03 
-9.6508535e-04 -1.4889356e-03 2.4999999e-03 
9.6621196e-04 -1.4642542e-03 2.4999999e-03 
9.6620887e-04 1.4645224e-03 2.4999999e-03 
1.1243535e-05 -9.7231404e-04 2.4999999e-03 
7.1471190e-06 9.7544864e-04 2.4999999e-03 
7.3543942e-04 -8.6819591e-07 -2.4999999e-03 
-7.5611280e-04 -8.2621543e-04 -2.4999999e-03 
-7.5612980e-04 8.2355231e-04 -2.4999999e-03 
3.5877313e-04 1.4209964e-03 -2.4999999e-03 
3.5879298e-04 -1.4214875e-03 -2.4999999e-03 
-7.9469354e-04 -1.3120473e-06 -2.4999999e-03 
-2.0998194e-05 3.5349559e-04 -2.4999999e-03 
-3.1486641e-06 -3.6291283e-04 -2.4999999e-03 
7.1665365e-04 8.2368118e-04 -2.4999999e-03 
7.1922340e-04 -8.2576566e-04 -2.4999999e-03 
-3.5449053e-04 -1.4408617e-03 -2.4999999e-03 
-3.5451652e-04 1.4398448e-03 -2.4999999e-03 
9.6408365e-04 -1.4769160e-03 -2.4999999e-03 
9.6508535e-04 1.4889356e-03 -2.4999999e-03 
-9.6620887e-04 -1.4645224e-03 -2.4999999e-03 
-9.6621196e-04 1.4642542e-03 -2.4999999e-03 
-1.1243535e-05 9.7231404e-04 -2.4999999e-03 
-7.1471190e-06 -9.7544864e-04 -2.4999999e-03 
-8.3804398e-04 -2.0000001e-03 -1.2110851e-07 
9.0874633e-04 -2.0000001e-03 6.7574281e-04 
9.0848608e-04 -2.0000001e-03 -6.7636976e-04 
-3.4299013e-04 -2.0000001e-03 -1.8724526e-03 
-3.4208564e-04 -2.0000001e-03 1.8715934e-03 
3.7738073e-04 -2.0000001e-03 1.9094062e-03 
3.6877434e-05 -2.0000001e-03 1.3079009e-03 
-7.9758681e-04 -2.0000001e-03 1.3183753e-03 
-2.9943659e-04 -2.0000001e-03 6.4300792e-04 
3.7719778e-04 -2.0000001e-03 -1.9106299e-03 
3.6625410e-05 -2.0000001e-03 -1.3090657e-03 
-7.9745066e-04 -2.0000001e-03 -1.3187325e-03 
-2.9931037e-04 -2.0000001e-03 -6.4339337e-04 
8.8789419e-04 -2.0000001e-03 -3.8080170e-08 
3.2813384e-04 -2.0000001e-03 3.0464670e-04 
3.3454126e-04 -2.0000001e-03 -3.1380748e-04 
8.0984883e-04 -2.0000001e-03 -1.3702139e-03 
8.0975558e-04 -2.0000001e-03 1.3694454e-03 
-1.8562774e-04 -2.0000001e-03 -9.4058839e-07 
-9.6760603e-04 -2.0000001e-03 -6.5100135e-04 
-9.6836314e-04 -2.0000001e-03 6.5144722e-04 
-9.4533601e-04 -2.0000001e-03 -1.9542100e-03 
-9.4533601e-04 -2.0000001e-03 1.9542100e-03 
9.5965352e-04 -2.0000001e-03 1.9692434e-03 
9.6129795e-04 -2.0000001e-03 -1.9709701e-03 
3.8533472e-04 -2.0000001e-03 -8.6731900e-04 
3.8563120e-04 -2.0000001e-03 8.6668169e-04 
-1.5000000e-03 -1.3951480e-03 4.1601161e-05 
-1.5000000e-03 1.4084603e-03 -7.1263214e-04 
-1.5000000e-03 1.3814104e-03 7.1428571e-04 
-1.5000000e-03 1.6044731e-05 1.8110229e-03 
-1.5000000e-03 -6.8007848e-06 -1.8672068e-03 
-1.5000000e-03 -1.4042128e-03 -1.4421269e-03 
-1.5000000e-03 -1.4192601e-03 1.4007947e-03 
-1.5000000e-03 8.3106483e-04 1.7776581e-03 
-1.5000000e-03 3.6454113e-04 1.1317794e-03 
-1.5000000e-03 -3.2770584e-04 1.1294091e-03 
-1.5000000e-03 2.3266497e-05 5.0075457e-04 
-1.5000000e-03 -7.4674370e-04 4.4028834e-04 
-1.5000000e-03 -3.1143133e-04 -1.6015767e-04 
-1.5000000e-03 2.7971869e-04 -5.7620902e-05 
-1.5000000e-03 9.8202188e-05 -7.2570733e-04 
-1.5000000e-03 -6.3866499e-04 -7.4401178e-04 
-1.5000000e-03 7.8779977e-04 -1.8059626e-03 
-1.5000000e-03 1.4065779e-03 2.2513443e-05 
-1.5000000e-03 -1.3845287e-03 7.1428571e-04 
-1.5000000e-03 -8.1851927e-04 1.7721232e-03 
-1.5000000e-03 -8.0970337e-04 -1.8371143e-03 
-1.5000000e-03 1.4384218e-03 1.4020153e-03 
-1.5000000e-03 -1.3115286e-03 -7.2848506e-04 
-1.5000000e-03 7.6226954e-04 4.3220757e-04 
-1.5000000e-03 1.4021243e-03 -1.4059570e-03 
-1.5000000e-03 7.9411134e-04 -1.0556064e-03 
-1.5000000e-03 -3.3081110e-04 -1.2909659e-03 
-1.5000000e-03 8.7810552e-04 -3.5434819e-04 
-1.5000000e-03 -9.3935151e-04 1.0913801e-03 
-1.5000000e-03 -8.8023994e-04 -2.3365083e-04 
-1.5000000e-03 1.4734466e-03 -1.9963507e-03 
-1.5000000e-03 -1.4672505e-03 -1.9941777e-03 
-1.5000000e-03 -1.4875558e-03 1.9917265e-03 
-1.5000000e-03 1.4938973e-03 1.9930776e-03 
-1.5000000e-03 9.5471257e-04 1.0856733e-03 
-1.5000000e-03 2.3569351e-04 -1.2878646e-03 
-1.5000000e-03 -8.9898420e-04 -1.2085409e-03 
-8.3804398e-04 2.0000001e-03 1.2110851e-07 
9.0874633e-04 2.0000001e-03 -6.7574281e-04 
9.0848608e-04 2.0000001e-03 6.7636976e-04 
-3.4299013e-04 2.0000001e-03 1.8724526e-03 
-3.4208564e-04 2.0000001e-03 -1.8715934e-03 
3.7719778e-04 2.0000001e-03 1.9106299e-03 
3.6625410e-05 2.0000001e-03 1.3090657e-03 
-7.9745066e-04 2.0000001e-03 1.3187325e-03 
-2.9931037e-04 2.0000001e-03 6.4339337e-04 
3.7738073e-04 2.0000001e-03 -1.9094062e-03 
3.6877434e-05 2.0000001e-03 -1.3079009e-03 
-7.9758681e-04 2.0000001e-03 -1.3183753e-03 
-2.9943659e-04 2.0000001e-03 -6.4300792e-04 
8.8789419e-04 2.0000001e-03 3.8080170e-08 
3.2813384e-04 2.0000001e-03 -3.0464670e-04 
3.3454126e-04 2.0000001e-03 3.1380748e-04 
8.0984883e-04 2.0000001e-03 1.3702139e-03 
8.0975558e-04 2.0000001e-03 -1.3694454e-03 
-1.8562774e-04 2.0000001e-03 9.4058839e-07 
-9.6760603e-04 2.0000001e-03 6.5100135e-04 
-9.6836314e-04 2.0000001e-03 -6.5144722e-04 
-9.4533601e-04 2.0000001e-03 -1.9542100e-03 
-9.4533601e-04 2.0000001e-03 1.9542100e-03 
9.5965352e-04 2.0000001e-03 -1.9692434e-03 
9.6129795e-04 2.0000001e-03 1.9709701e-03 
3.8533472e-04 2.0000001e-03 8.6731900e-04 
3.8563120e-04 2.0000001e-03 -8.6668169e-04 
1.5000000e-03 -1.3951480e-03 -4.1601161e-05 
1.5000000e-03 1.3814104e-03 -7.1428571e-04 
1.5000000e-03 1.4084603e-03 7.1263214e-04 
1.5000000e-03 1.6044731e-05 -1.8110229e-03 
1.5000000e-03 -6.8007848e-06 1.8672068e-03 
1.5000000e-03 -1.4042128e-03 1.4421269e-03 
1.5000000e-03 -1.4192601e-03 -1.4007947e-03 
1.5000000e-03 8.3106483e-04 -1.7776581e-03 
1.5000000e-03 3.6454113e-04 -1.1317794e-03 
1.5000000e-03 -3.2770584e-04 -1.1294091e-03 
1.5000000e-03 2.3266497e-05 -5.0075457e-04 
1.5000000e-03 -7.4674370e-04 -4.4028834e-04 
1.5000000e-03 -3.1143133e-04 1.6015767e-04 
1.5000000e-03 2.7971869e-04 5.7620902e-05 
1.5000000e-03 9.8202188e-05 7.2570733e-04 
1.5000000e-03 -6.3866499e-04 7.4401178e-04 
1.5000000e-03 7.8779977e-04 1.8059626e-03 
1.5000000e-03 1.4065779e-03 -2.2513443e-05 
1.5000000e-03 -1.3845287e-03 -7.1428571e-04 
1.5000000e-03 -8.1851927e-04 -1.7721232e-03 
1.5000000e-03 -8.0970337e-04 1.8371143e-03 
1.5000000e-03 1.4384218e-03 -1.4020153e-03 
1.5000000e-03 -1.3115286e-03 7.2848506e-04 
1.5000000e-03 7.6226954e-04 -4.3220757e-04 
1.5000000e-03 1.4021243e-03 1.4059570e-03 
1.5000000e-03 7.9411134e-04 1.0556064e-03 
1.5000000e-03 -3.3081110e-04 1.2909659e-03 
1.5000000e-03 8.7810552e-04 3.5434819e-04 
1.5000000e-03 -9.3935151e-04 -1.0913801e-03 
1.5000000e-03 -8.8023994e-04 2.3365083e-04 
1.5000000e-03 1.4734466e-03 1.9963507e-03 
1.5000000e-03 -1.4875558e-03 -1.9917265e-03 
1.5000000e-03 -1.4672505e-03 1.9941777e-03 
1.5000000e-03 1.4938973e-03 -1.9930776e-03 
1.5000000e-03 9.5471257e-04 -1.0856733e-03 
1.5000000e-03 2.3569351e-04 1.2878646e-03 
1.5000000e-03 -8.9898420e-04 1.2085409e-03 
8.1427470e-06 4.9594144e-04 -2.1197378e-04 
2.5471784e-06 -5.4300192e-04 8.7904168e-04 
-1.4473312e-04 -5.8977993e-04 -1.0766118e-03 
2.0372006e-04 7.2784239e-04 1.0500625e-03 
3.1990022e-04 8.1884762e-04 -1.3410717e-03 
4.2146252e-04 -8.8612462e-04 -1.1770611e-04 
-5.5084360e-04 -6.2505517e-04 2.9243693e-05 
-5.2408857e-04 3.4501514e-04 -1.0558543e-03 
5.7619403e-04 -1.0489479e-03 1.5473593e-03 
-6.0245342e-04 -1.0410488e-03 1.4605268e-03 
6.3893676e-04 1.1354958e-03 -4.5812593e-04 
-5.3255167e-04 2.4404732e-04 5.8558182e-04 
5.8380299e-04 1.9534345e-05 -8.4303512e-04 
6.1074592e-04 -1.0649287e-03 -1.4234887e-03 
5.7881838e-04 -5.7129113e-05 1.5162925e-03 
-6.1149668e-04 1.0548113e-03 1.4605990e-03 
-5.1216304e-04 1.1415333e-03 2.6102440e-04 
5.9313304e-04 -4.9432132e-05 3.1188293e-04 
-4.1110395e-04 5.9198588e-05 1.5583772e-03 
-5.3949456e-04 1.1066955e-03 -1.6209855e-03 
6.6132244e-04 1.1789826e-03 4.3207034e-04 
-6.3667767e-04 1.1725558e-03 -7.3350029e-04 
-7.1349985e-04 -1.0475989e-03 -1.5502770e-03 
6.1519397e-04 -1.1767313e-03 6.8355614e-04 
2.3287097e-04 -2.2880296e-05 -1.6855116e-03 
-6.3350552e-04 -1.1862991e-03 -6.4304192e-04 
-6.7634968e-04 -1.2053335e-03 6.3308887e-04 
6.9212355e-04 1.2198598e-03 1.7193601e-03 
-7.2287081e-04 1.1856024e-04 -2.8670777e-04 
-5.9768028e-04 -2.1527581e-04 -1.6942634e-03 
8.0970436e-04 1.2858406e-03 -1.7144707e-03 
-1.6052827e-05 -1.3325211e-03 2.9863406e-04 
8.1426761e-04 4.2624027e-04 -2.4105438e-04 
1.4544245e-04 -1.2541084e-03 -7.6085341e-04 
1.5152235e-05 -2.6944847e-04 -3.7961829e-04 
2.0712456e-05 -1.3327776e-03 -1.8234669e-03 
-4.5877812e-05 1.3716262e-03 -3.4877661e-04 
-7.7793089e-04 -4.5566048e-04 8.4642041e-04 
-8.3750294e-04 -3.2956732e-04 -9.3015085e-04 

CELLS 814 4070
4 0 119 74 219
4 1 12 184 75
4 2 72 156 182
4 3 155 118 36
4 5 47 218 120
4 6 117 154 41
4 7 153 32 93
4 7 181 153 93
4 8 0 74 219
4 9 8 61 207
4 9 10 191 65
4 10 11 203 62
4 11 203 62 75
4 12 71 165 184
4 12 71 184 75
4 14 72 182 63
4 19 3 73 118
4 20 19 64 100
4 21 20 70 101
4 21 74 101 70
4 25 5 218 90
4 25 206 87 90
4 26 82 105 90
4 27 26 82 105
4 28 99 27 88
4 28 117 99 88
4 29 154 92 143
4 31 139 80 32
4 32 139 80 93
4 32 153 139 93
4 33 164 89 34
4 34 164 89 81
4 38 116 96 123
4 39 96 115 123
4 40 107 128 145
4 40 145 39 115
4 41 107 128 40
4 43 192 113 42
4 44 97 209 187
4 45 109 44 187
4 46 47 112 193
4 47 112 193 120
4 49 125 50 179
4 49 167 48 144
4 51 124 180 140
4 51 160 50 140
4 52 147 171 124
4 53 147 181 171
4 54 211 184 176
4 55 211 176 189
4 56 189 162 204
4 57 56 173 204
4 58 161 177 208
4 58 177 59 208
4 58 188 57 161
4 59 4 220 183
4 60 17 16 126
4 60 69 142 242
4 60 126 68 242
4 61 65 207 238
4 61 74 70 232
4 61 207 232 238
4 62 75 203 251
4 63 71 77 251
4 63 77 68 239
4 63 163 13 71
4 64 19 118 100
4 64 69 76 233
4 64 70 100 232
4 64 73 69 233
4 64 76 70 232
4 64 76 232 233
4 64 118 73 233
4 64 232 100 233
4 65 10 203 62
4 65 66 67 238
4 66 60 67 242
4 66 61 76 232
4 66 61 232 238
4 66 65 61 238
4 66 67 238 242
4 66 76 69 233
4 66 232 76 233
4 66 232 233 242
4 66 238 232 242
4 67 62 65 238
4 67 62 238 251
4 67 77 62 251
4 67 77 227 242
4 67 227 77 251
4 67 227 238 242
4 67 238 227 251
4 68 15 72 130
4 68 16 15 130
4 68 60 16 126
4 68 67 60 242
4 69 60 66 242
4 69 66 233 242
4 69 233 142 242
4 70 20 100 101
4 70 74 101 232
4 70 76 61 232
4 71 13 12 165
4 71 62 77 251
4 71 75 62 251
4 71 163 13 165
4 71 163 165 251
4 71 165 184 251
4 71 184 75 251
4 72 2 14 182
4 72 15 2 156
4 72 63 68 239
4 72 68 130 239
4 72 130 156 239
4 72 156 182 239
4 72 182 63 239
4 73 3 155 118
4 73 118 155 233
4 73 142 18 69
4 73 155 142 233
4 74 61 8 207
4 74 61 207 232
4 74 207 219 232
4 74 219 119 232
4 77 239 63 251
4 77 239 227 242
4 79 29 92 143
4 79 30 143 253
4 79 83 30 253
4 79 246 88 259
4 80 93 139 243
4 80 243 139 253
4 81 94 86 254
4 82 27 105 259
4 82 87 95 259
4 82 88 27 259
4 82 90 87 237
4 82 105 237 259
4 82 237 87 259
4 83 31 139 80
4 83 80 139 253
4 83 127 30 253
4 84 80 83 253
4 84 86 94 228
4 84 94 80 243
4 84 228 94 243
4 84 228 243 248
4 84 243 80 253
4 84 248 243 253
4 85 78 84 248
4 85 79 95 253
4 85 83 79 253
4 85 84 83 253
4 85 87 78 248
4 85 248 84 253
4 85 248 253 259
4 85 253 95 259
4 86 22 91 254
4 86 23 22 194
4 86 78 190 248
4 86 84 78 248
4 86 190 194 248
4 86 194 22 254
4 86 194 228 248
4 86 228 84 248
4 86 228 194 254
4 87 90 206 237
4 87 206 24 78
4 87 206 78 248
4 87 237 206 248
4 88 79 92 246
4 88 82 95 259
4 88 99 27 259
4 88 246 99 259
4 89 80 94 243
4 89 81 164 243
4 89 93 80 243
4 89 164 33 181
4 89 181 93 243
4 90 5 218 120
4 90 26 5 120
4 90 105 26 120
4 90 120 218 237
4 91 22 4 220
4 91 81 86 254
4 91 169 81 254
4 91 183 35 169
4 91 183 169 254
4 91 220 183 254
4 92 6 117 154
4 92 79 143 246
4 92 117 6 28
4 92 117 28 88
4 92 143 154 246
4 94 81 89 243
4 94 228 86 254
4 95 79 88 259
4 96 39 38 123
4 96 255 104 114
4 97 43 44 209
4 97 44 109 187
4 97 109 110 247
4 98 109 45 187
4 98 111 229 257
4 98 112 121 237
4 98 121 111 257
4 98 193 237 205
4 98 205 46 193
4 98 205 237 257
4 98 229 205 257
4 98 237 121 257
4 99 105 27 259
4 100 64 20 70
4 100 70 101 232
4 100 101 102 232
4 100 102 103 233
4 100 232 102 233
4 101 74 21 119
4 101 113 102 232
4 102 113 122 232
4 102 122 104 255
4 102 232 122 247
4 102 233 232 247
4 102 247 122 255
4 103 36 118 129
4 103 118 100 233
4 103 129 141 37
4 103 233 102 250
4 104 103 102 250
4 104 122 110 255
4 104 250 102 255
4 104 255 96 250
4 105 90 82 237
4 105 99 106 259
4 105 120 90 237
4 106 112 105 259
4 106 237 112 259
4 106 246 107 249
4 107 99 117 246
4 107 99 246 259
4 107 106 99 259
4 107 115 108 249
4 107 117 128 246
4 107 128 117 41
4 107 145 115 249
4 107 246 106 259
4 107 246 128 249
4 108 106 107 249
4 108 106 249 257
4 108 115 96 249
4 108 121 106 257
4 109 97 187 247
4 109 98 111 229
4 109 187 98 229
4 109 187 229 247
4 109 229 110 247
4 110 109 111 229
4 110 111 114 255
4 110 122 97 247
4 110 229 111 255
4 110 247 229 255
4 111 121 108 257
4 112 98 46 193
4 112 120 105 237
4 112 237 105 259
4 114 104 110 255
4 114 108 96 249
4 114 108 249 257
4 114 111 108 257
4 114 249 96 255
4 114 249 255 257
4 114 255 111 257
4 115 123 96 249
4 115 145 39 123
4 115 145 123 249
4 116 96 123 250
4 116 103 104 250
4 116 103 141 37
4 116 104 96 250
4 116 123 141 250
4 116 141 103 250
4 117 88 92 246
4 117 92 154 246
4 117 99 88 246
4 117 154 128 246
4 118 64 100 233
4 118 73 19 64
4 118 103 129 233
4 118 129 155 233
4 119 0 42 219
4 119 21 0 74
4 119 42 192 219
4 119 101 74 232
4 119 113 101 232
4 119 219 192 232
4 121 112 106 237
4 121 237 106 257
4 122 113 97 247
4 122 232 113 247
4 122 247 110 255
4 123 96 249 250
4 123 134 141 250
4 123 152 134 230
4 123 230 134 250
4 123 249 230 250
4 124 140 150 245
4 124 150 148 245
4 125 140 50 179
4 125 140 179 240
4 125 144 157 239
4 125 239 157 240
4 126 16 68 130
4 126 60 17 142
4 126 130 68 242
4 126 131 130 242
4 127 83 30 31
4 127 83 31 139
4 127 83 139 253
4 127 139 158 253
4 127 158 149 253
4 128 154 117 41
4 128 154 143 246
4 128 249 159 145
4 129 103 36 37
4 129 233 103 250
4 130 239 68 242
4 131 126 132 242
4 131 235 239 242
4 131 235 242 261
4 131 239 130 242
4 131 242 132 261
4 132 134 133 261
4 132 233 151 261
4 132 242 233 261
4 133 131 132 261
4 133 146 131 235
4 133 235 131 261
4 133 235 230 252
4 134 132 151 261
4 134 135 133 230
4 134 151 250 261
4 134 230 133 261
4 135 133 230 252
4 135 134 152 230
4 135 136 133 252
4 135 137 136 252
4 135 137 252 262
4 135 138 137 262
4 135 252 230 262
4 136 235 133 252
4 137 150 136 252
4 138 149 137 262
4 139 148 158 231
4 139 231 158 253
4 139 243 231 253
4 140 240 150 245
4 141 116 37 38
4 141 116 38 123
4 141 129 103 250
4 141 151 129 250
4 142 17 18 69
4 142 60 17 69
4 142 69 73 233
4 142 126 60 242
4 142 129 151 233
4 142 132 126 242
4 142 233 132 242
4 143 30 127 253
4 143 79 29 30
4 143 127 149 253
4 143 149 246 253
4 143 246 79 253
4 145 40 107 115
4 145 107 128 249
4 146 125 157 240
4 146 133 136 235
4 146 140 125 240
4 146 157 131 235
4 146 157 235 240
4 146 235 136 252
4 146 240 235 252
4 147 124 148 245
4 147 148 139 243
4 147 148 243 245
4 147 171 124 245
4 147 243 171 245
4 148 137 158 231
4 148 137 231 252
4 148 150 137 252
4 148 231 139 243
4 148 231 150 252
4 149 138 159 262
4 149 159 246 262
4 149 246 253 262
4 150 140 146 240
4 150 231 148 245
4 150 231 245 252
4 150 245 240 252
4 151 132 142 233
4 151 141 134 250
4 151 233 129 250
4 152 123 145 249
4 152 135 230 262
4 152 138 135 262
4 152 145 138 249
4 152 230 123 249
4 152 230 249 262
4 152 249 138 262
4 153 139 93 243
4 153 147 139 243
4 153 181 7 53
4 154 92 6 29
4 155 18 3 73
4 155 118 36 129
4 155 129 142 233
4 155 142 18 73
4 156 48 2 182
4 156 72 15 130
4 156 130 144 239
4 156 144 48 182
4 157 130 131 239
4 157 131 235 239
4 157 144 130 239
4 157 239 235 240
4 158 137 149 262
4 158 149 253 262
4 158 231 137 262
4 158 253 231 262
4 159 128 143 246
4 159 138 145 249
4 159 138 249 262
4 159 143 149 246
4 159 249 128 246
4 159 249 246 262
4 160 50 140 179
4 160 51 180 140
4 160 140 180 245
4 160 168 179 240
4 160 179 140 240
4 160 240 140 245
4 161 58 188 208
4 161 208 254 177
4 161 234 254 188
4 162 55 189 56
4 162 204 189 244
4 163 13 14 63
4 163 14 182 63
4 163 63 239 251
4 163 71 63 251
4 163 182 167 239
4 163 239 166 251
4 164 34 169 81
4 164 170 171 243
4 164 171 181 243
4 164 181 89 243
4 165 163 166 251
4 165 176 184 251
4 166 176 165 251
4 166 239 227 251
4 167 48 144 182
4 167 49 125 144
4 167 144 125 239
4 167 166 163 239
4 167 168 166 239
4 168 160 178 240
4 168 175 185 244
4 168 185 166 227
4 168 185 227 244
4 168 227 166 239
4 168 227 239 240
4 168 227 240 244
4 168 240 175 244
4 169 34 35 81
4 169 35 91 81
4 169 164 81 243
4 169 177 170 254
4 169 183 177 254
4 169 243 81 254
4 170 164 169 243
4 170 243 228 245
4 170 245 228 260
4 171 53 147 52
4 171 170 172 245
4 171 172 180 245
4 171 180 52 124
4 171 180 124 245
4 171 243 170 245
4 172 160 180 245
4 172 160 245 260
4 172 174 178 260
4 172 178 160 260
4 172 245 170 260
4 173 56 162 204
4 173 57 204 161
4 173 204 162 244
4 173 234 204 244
4 174 161 173 234
4 174 234 173 244
4 174 244 175 260
4 175 173 162 244
4 175 174 173 244
4 175 244 240 260
4 176 54 211 55
4 176 162 55 189
4 176 162 189 244
4 176 185 162 244
4 176 185 244 251
4 177 59 208 183
4 178 174 175 260
4 178 175 168 240
4 178 175 240 260
4 178 240 160 260
4 179 49 125 167
4 179 167 125 239
4 179 168 167 239
4 179 168 239 240
4 179 239 125 240
4 180 52 124 51
4 180 140 124 245
4 181 7 33 93
4 181 33 89 93
4 181 147 153 243
4 181 153 93 243
4 181 153 147 53
4 181 171 147 243
4 182 144 167 239
4 182 156 144 239
4 182 163 63 239
4 183 4 91 35
4 183 208 177 254
4 183 220 208 254
4 184 211 217 251
4 184 217 75 251
4 184 217 211 54
4 185 166 227 251
4 185 175 162 244
4 185 176 166 251
4 186 161 174 234
4 186 161 254 177
4 186 170 177 254
4 186 170 228 260
4 186 172 170 260
4 186 174 172 260
4 186 228 170 254
4 186 228 234 260
4 186 234 174 260
4 186 234 228 254
4 187 45 98 205
4 187 205 98 229
4 188 204 57 161
4 188 208 221 254
4 188 221 234 254
4 190 23 24 78
4 190 78 206 248
4 190 86 23 78
4 190 196 236 248
4 191 65 203 238
4 191 207 9 65
4 192 113 42 119
4 192 113 119 232
4 192 113 232 247
4 192 207 223 232
4 192 209 43 113
4 192 209 113 247
4 192 219 207 232
4 192 223 209 247
4 192 232 223 247
4 193 120 112 237
4 194 86 23 190
4 195 190 196 236
4 195 190 236 248
4 195 196 197 236
4 195 236 197 256
4 195 236 228 248
4 196 198 197 236
4 196 215 198 236
4 196 237 236 248
4 196 248 206 237
4 198 187 216 229
4 198 205 187 229
4 198 216 199 229
4 198 229 199 241
4 198 236 229 241
4 199 198 256 197
4 199 216 202 241
4 199 229 216 241
4 199 256 198 241
4 200 197 199 256
4 200 199 241 256
4 200 210 197 256
4 200 241 214 256
4 201 200 199 241
4 201 238 227 241
4 201 241 227 244
4 202 201 199 241
4 203 11 217 75
4 203 65 62 238
4 203 191 10 65
4 203 212 222 251
4 203 222 238 251
4 203 238 62 251
4 204 161 188 234
4 204 173 161 234
4 204 188 210 234
4 204 234 214 244
4 205 45 98 46
4 205 229 198 237
4 206 24 25 87
4 206 25 218 90
4 206 190 24 78
4 206 193 215 237
4 206 248 196 190
4 207 61 9 65
4 207 65 191 238
4 207 191 213 238
4 207 213 223 232
4 207 213 232 238
4 209 97 43 113
4 209 97 113 247
4 209 187 97 247
4 210 188 221 234
4 210 195 197 256
4 210 200 214 256
4 210 214 234 256
4 210 221 195 256
4 210 234 221 256
4 211 176 189 244
4 211 176 244 251
4 211 184 176 251
4 211 189 212 244
4 211 212 203 251
4 211 244 212 251
4 212 189 214 244
4 212 201 227 244
4 212 214 201 244
4 212 238 222 251
4 212 244 227 251
4 213 201 202 241
4 213 202 232 238
4 213 202 238 241
4 213 238 201 241
4 214 189 204 244
4 214 200 201 241
4 214 204 210 234
4 214 241 201 244
4 214 244 234 256
4 215 193 205 237
4 215 196 206 237
4 215 198 236 237
4 215 205 198 237
4 215 236 196 237
4 216 187 209 247
4 216 202 241 247
4 216 209 202 247
4 216 229 187 247
4 216 241 229 247
4 217 1 184 75
4 217 11 1 75
4 217 184 1 54
4 217 203 75 251
4 217 211 203 251
4 218 47 193 120
4 218 120 193 237
4 218 193 206 237
4 218 206 90 237
4 219 74 8 207
4 220 4 91 183
4 220 22 194 254
4 220 91 22 254
4 220 194 208 254
4 220 208 59 183
4 221 194 195 228
4 221 194 228 254
4 221 208 194 254
4 221 228 195 236
4 221 228 234 254
4 221 234 228 236
4 221 234 236 256
4 221 236 195 256
4 222 191 203 238
4 222 201 213 238
4 222 213 191 238
4 223 202 209 247
4 223 213 202 232
4 223 232 202 247
4 224 227 241 244
4 224 228 245 260
4 224 231 228 236
4 224 231 236 258
4 224 234 228 260
4 224 234 244 256
4 224 235 227 240
4 224 236 234 256
4 224 236 256 258
4 224 240 245 252
4 224 241 235 258
4 224 244 241 256
4 224 245 231 252
4 224 245 240 260
4 224 252 231 258
4 224 256 241 258
4 225 229 247 255
4 225 230 229 255
4 225 230 250 261
4 225 232 238 242
4 225 233 232 242
4 225 233 250 255
4 225 235 227 241
4 225 235 230 261
4 225 238 232 247
4 225 241 238 247
4 225 242 235 261
4 225 247 233 255
4 225 250 230 255
4 225 250 233 261
4 226 231 248 253
4 226 236 231 258
4 226 237 236 257
4 226 237 257 259
4 226 248 237 259
4 226 249 246 257
4 226 253 246 262
4 226 253 248 259
4 226 257 246 259
4 226 258 231 262
4 227 224 240 244
4 227 225 238 242
4 227 235 224 241
4 227 235 225 242
4 227 238 212 251
4 227 238 225 241
4 227 239 77 251
4 227 244 185 251
4 228 231 224 245
4 228 234 224 236
4 228 236 231 248
4 228 243 231 245
4 229 111 255 257
4 229 225 241 258
4 229 230 225 258
4 229 236 198 237
4 229 237 205 257
4 229 241 225 247
4 229 241 236 258
4 229 257 230 258
4 230 134 250 261
4 230 235 133 261
4 230 235 225 258
4 230 250 249 255
4 230 252 235 258
4 230 257 249 258
4 231 236 226 248
4 231 243 148 245
4 231 243 228 248
4 231 252 137 262
4 231 253 226 262
4 231 258 252 262
4 232 233 225 247
4 232 238 202 247
4 233 102 250 255
4 233 242 225 261
4 233 247 102 255
4 233 250 151 261
4 234 224 244 260
4 234 244 174 260
4 235 227 239 242
4 235 239 227 240
4 235 240 224 252
4 235 241 225 258
4 235 252 224 258
4 236 198 256 241
4 236 237 226 248
4 236 237 229 257
4 236 256 198 197
4 237 106 257 259
4 237 193 98 112
4 238 201 212 222
4 238 212 201 227
4 238 241 202 247
4 240 244 224 260
4 240 245 160 260
4 241 244 214 256
4 241 256 236 258
4 242 68 77 239
4 242 77 68 67
4 243 248 231 253
4 246 249 106 257
4 246 249 226 262
4 246 253 226 259
4 246 257 106 259
4 248 194 195 190
4 248 195 194 228
4 249 250 96 255
4 249 257 226 258
4 249 258 262 230
4 252 146 150 136
4 252 150 146 240
4 252 258 230 262
4 254 94 243 81
4 254 161 186 234
4 254 170 243 228
4 254 208 161 188
4 254 243 94 228
4 254 243 170 169
4 257 230 255 229
4 257 255 230 249
4 258 236 257 226
4 258 257 236 229
4 259 79 253 95
4 259 85 87 95
4 259 87 85 248
4 259 87 248 237
4 259 253 79 246
4 262 258 249 226

CELL_TYPES 814
10
10
10
10
10
10
10
10
10
10
10
10
10
10
10
10
10
10
10
10
10
10
10
10
10
10
10
10
10
10
10
10
10
10
10
10
10
10
10
10
10
10
10
10
10
10
10
10
10
10
10
10
10
10
10
10
10
10
10
10
10
10
10
10
10
10
10
10
10
10
10
10
10
10
10
10
10
10
10
10
10
10
10
10
10
10
10
10
10
10
10
10
10
10
10
10
10
10
10
10
10
10
10
10
10
10
10
10
10
10
10
10
10
10
10
10
10
10
10
10
10
10
10
10
10
10
10
10
10
10
10
10
10
10
10
10
10
10
10
10
10
10
10
10
10
10
10
10
10
10
10
10
10
10
10
10
10
10
10
10
10
10
10
10
10
10
10
10
10
10
10
10
10
10
10
10
10
10
10
10
10
10
10
10
10
10
10
10
10
10
10
10
10
10
10
10
10
10
10
10
10
10
10
10
10
10
10
10
10
10
10
10
10
10
10
10
10
10
10
10
10
10
10
10
10
10
10
10
10
10
10
10
10
10
10
10
10
10
10
10
10
10
10
10
10
10
10
10
10
10
10
10
10
10
10
10
10
10
10
10
10
10
10
10
10
10
10
10
10
10
10
10
10
10
10
10
10
10
10
10
10
10
10
10
10
10
10
10
10
10
10
10
10
10
10
10
10
10
10
10
10
10
10
10
10
10
10
10
10
10
10
10
10
10
10
10
10
10
10
10
10
10
10
10
10
10
10
10
10
10
10
10
10
10
10
10
10
10
10
10
10
10
10
10
10
10
10
10
10
10
10
10
10
10
10
10
10
10
10
10
10
10
10
10
10
10
10
10
10
10
10
10
10
10
10
10
10
10
10
10
10
10
10
10
10
10
10
10
10
10
10
10
10
10
10
10
10
10
10
10
10
10
10
10
10
10
10
10
10
10
10
10
10
10
10
10
10
10
10
10
10
10
10
10
10
10
10
10
10
10
10
10
10
10
10
10
10
10
10
10
10
10
10
10
10
10
10
10
10
10
10
10
10
10
10
10
10
10
10
10
10
10
10
10
10
10
10
10
10
10
10
10
10
10
10
10
10
10
10
10
10
10
10
10
10
10
10
10
10
10
10
10
10
10
10
10
10
10
10
10
10
10
10
10
10
10
10
10
10
10
10
10
10
10
10
10
10
10
10
10
10
10
10
10
10
10
10
10
10
10
10
10
10
10
10
10
10
10
10
10
10
10
10
10
10
10
10
10
10
10
10
10
10
10
10
10
10
10
10
10
10
10
10
10
10
10
10
10
10
10
10
10
10
10
10
10
10
10
10
10
10
10
10
10
10
10
10
10
10
10
10
10
10
10
10
10
10
10
10
10
10
10
10
10
10
10
10
10
10
10
10
10
10
10
10
10
10
10
10
10
10
10
10
10
10
10
10
10
10
10
10
10
10
10
10
10
10
10
10
10
10
10
10
10
10
10
10
10
10
10
10
10
10
10
10
10
10
10
10
10
10
10
10
10
10
10
10
10
10
10
10
10
10
10
10
10
10
10
10
10
10
10
10
10
10
10
10
10
10
10
10
10
10
10
10
10
10
10
10
10
10
10
10
10
10
10
10
10
10
10
10
10
10
10
10
10
10
10
10
10
10
10
10
10
10
10
10
10
10
10
10
10
10
10
10
10
10
10
10
10
10
10
10
10
10
10
10
10
10
10
10
10
10
10
10
10
10
10
10
10
10
10
10
10
10
10
10
10
10
10
10
10
10
10
10
10
10
10
10
10
10
10
10
10
10
10
10
10
10
10
10
10
10
10
10
10
10
10
10
10
10
10
10
10
10
10
10
10
10
10
10
10
10
10
POINT_DATA 263
FIELD FieldData 1
TEMPERATURE 1 263  float
4.0000000e+02
4.0000000e+02
3.0000000e+02
3.0000000e+02
4.0000000e+02
4.0000000e+02
3.0000000e+02
3.0000000e+02
4.0000000e+02
4.0000000e+02
4.0000000e+02
4.0000000e+02
3.7500000e+02
3.5000000e+02
3.2500000e+02
3.0000000e+02
3.0000000e+02
3.0000000e+02
3.0000000e+02
3.2500000e+02
3.5000000e+02
3.7500000e+02
4.0000000e+02
4.0000000e+02
4.0000000e+02
4.0000000e+02
3.7500000e+02
3.5000000e+02
3.2500000e+02
3.0000000e+02
3.0000000e+02
3.0000000e+02
3.0000000e+02
3.2500000e+02
3.5000000e+02
3.7500000e+02
3.0000000e+02
3.0000000e+02
3.0000000e+02
3.0000000e+02
3.0000000e+02
3.0000000e+02
4.0000000e+02
4.0000000e+02
4.0000000e+02
4.0000000e+02
4.0000000e+02
4.0000000e+02
3.0000000e+02
3.0000000e+02
3.0000000e+02
3.0000000e+02
3.0000000e+02
3.0000000e+02
4.0000000e+02
4.0000000e+02
4.0000000e+02
4.0000000e+02
4.0000000e+02
4.0000000e+02
3.2548535e+02
3.7520432e+02
3.7520377e+02
3.3804022e+02
3.3804089e+02
3.7648978e+02
3.5069995e+02
3.5010495e+02
3.2602588e+02
3.2611154e+02
3.6181723e+02
3.6181635e+02
3.1786389e+02
3.1783047e+02
3.8220706e+02
3.8220697e+02
3.5037479e+02
3.5023825e+02
3.7451465e+02
3.2479623e+02
3.2479568e+02
3.6195911e+02
3.6195978e+02
3.2351022e+02
3.4930005e+02
3.4989505e+02
3.7388846e+02
3.7397412e+02
3.3818365e+02
3.3818277e+02
3.8213611e+02
3.8216953e+02
3.1779303e+02
3.1779294e+02
3.4962521e+02
3.4976175e+02
3.2206519e+02
3.8029153e+02
3.8028287e+02
3.3856699e+02
3.3859714e+02
3.6257935e+02
3.5122925e+02
3.2341379e+02
3.4001877e+02
3.6257327e+02
3.5122086e+02
3.2341830e+02
3.4002298e+02
3.7959647e+02
3.6093781e+02
3.6115137e+02
3.7699496e+02
3.7699185e+02
3.4381241e+02
3.1774646e+02
3.1772122e+02
3.1848880e+02
3.1848880e+02
3.8198846e+02
3.8204327e+02
3.6284448e+02
3.6285437e+02
3.0000000e+02
3.0000000e+02
3.0000000e+02
3.0000000e+02
3.0000000e+02
3.0000000e+02
3.0000000e+02
3.0000000e+02
3.0000000e+02
3.0000000e+02
3.0000000e+02
3.0000000e+02
3.0000000e+02
3.0000000e+02
3.0000000e+02
3.0000000e+02
3.0000000e+02
3.0000000e+02
3.0000000e+02
3.0000000e+02
3.0000000e+02
3.0000000e+02
3.0000000e+02
3.0000000e+02
3.0000000e+02
3.0000000e+02
3.0000000e+02
3.0000000e+02
3.0000000e+02
3.0000000e+02
3.0000000e+02
3.0000000e+02
3.0000000e+02
3.0000000e+02
3.0000000e+02
3.0000000e+02
3.0000000e+02
3.2206519e+02
3.8029153e+02
3.8028287e+02
3.3856699e+02
3.3859714e+02
3.6257327e+02
3.5122086e+02
3.2341830e+02
3.4002298e+02
3.6257935e+02
3.5122925e+02
3.2341379e+02
3.4001877e+02
3.7959647e+02
3.6093781e+02
3.6115137e+02
3.7699496e+02
3.7699185e+02
3.4381241e+02
3.1774646e+02
3.1772122e+02
3.1848880e+02
3.1848880e+02
3.8198846e+02
3.8204327e+02
3.6284448e+02
3.6285437e+02
4.0000000e+02
4.0000000e+02
4.0000000e+02
4.0000000e+02
4.0000000e+02
4.0000000e+02
4.0000000e+02
4.0000000e+02
4.0000000e+02
4.0000000e+02
4.0000000e+02
4.0000000e+02
4.0000000e+02
4.0000000e+02
4.0000000e+02
4.0000000e+02
4.0000000e+02
4.0000000e+02
4.0000000e+02
4.0000000e+02
4.0000000e+02
4.0000000e+02
4.0000000e+02
4.0000000e+02
4.0000000e+02
4.0000000e+02
4.0000000e+02
4.0000000e+02
4.0000000e+02
4.0000000e+02
4.0000000e+02
4.0000000e+02
4.0000000e+02
4.0000000e+02
4.0000000e+02
4.0000000e+02
4.0000000e+02
3.5027142e+02
3.5008490e+02
3.4517557e+02
3.5679068e+02
3.6066333e+02
3.6404874e+02
3.3163855e+02
3.3253040e+02
3.6920648e+02
3.2991821e+02
3.7129788e+02
3.3224829e+02
3.6946011e+02
3.7035818e+02
3.6929395e+02
3.2961679e+02
3.3292789e+02
3.6977109e+02
3.3629654e+02
3.3201685e+02
3.7204407e+02
3.2877740e+02
3.2621667e+02
3.7050647e+02
3.5776236e+02
3.2888315e+02
3.2745502e+02
3.7307077e+02
3.2590430e+02
3.3007733e+02
3.7699014e+02
3.4946490e+02
3.7714224e+02
3.5484808e+02
3.5050507e+02
3.5069043e+02
3.4847073e+02
3.2406897e+02
3.2208322e+02
CELL_DATA 814
FIELD FieldData 0
