# vtk DataFile Version 4.0
vtk output
ASCII
DATASET UNSTRUCTURED_GRID
POINTS 150 float
0.0000000e+00 0.0000000e+00 0.0000000e+00 
4.0000000e+00 0.0000000e+00 0.0000000e+00 
4.0000000e+00 1.0000000e+00 0.0000000e+00 
0.0000000e+00 1.0000000e+00 0.0000000e+00 
2.0000000e-01 0.0000000e+00 0.0000000e+00 
4.0000001e-01 0.0000000e+00 0.0000000e+00 
6.0000002e-01 0.0000000e+00 0.0000000e+00 
8.0000001e-01 0.0000000e+00 0.0000000e+00 
1.0000000e+00 0.0000000e+00 0.0000000e+00 
1.2000000e+00 0.0000000e+00 0.0000000e+00 
1.4000000e+00 0.0000000e+00 0.0000000e+00 
1.6000000e+00 0.0000000e+00 0.0000000e+00 
1.8000000e+00 0.0000000e+00 0.0000000e+00 
2.0000000e+00 0.0000000e+00 0.0000000e+00 
2.2000000e+00 0.0000000e+00 0.0000000e+00 
2.4000001e+00 0.0000000e+00 0.0000000e+00 
2.5999999e+00 0.0000000e+00 0.0000000e+00 
2.8000000e+00 0.0000000e+00 0.0000000e+00 
3.0000000e+00 0.0000000e+00 0.0000000e+00 
3.2000000e+00 0.0000000e+00 0.0000000e+00 
3.4000001e+00 0.0000000e+00 0.0000000e+00 
3.5999999e+00 0.0000000e+00 0.0000000e+00 
3.8000000e+00 0.0000000e+00 0.0000000e+00 
4.0000000e+00 2.0000000e-01 0.0000000e+00 
4.0000000e+00 4.0000001e-01 0.0000000e+00 
4.0000000e+00 6.0000002e-01 0.0000000e+00 
4.0000000e+00 8.0000001e-01 0.0000000e+00 
3.8000000e+00 1.0000000e+00 0.0000000e+00 
3.5999999e+00 1.0000000e+00 0.0000000e+00 
3.4000001e+00 1.0000000e+00 0.0000000e+00 
3.2000000e+00 1.0000000e+00 0.0000000e+00 
3.0000000e+00 1.0000000e+00 0.0000000e+00 
2.8000000e+00 1.0000000e+00 0.0000000e+00 
2.5999999e+00 1.0000000e+00 0.0000000e+00 
2.4000001e+00 1.0000000e+00 0.0000000e+00 
2.2000000e+00 1.0000000e+00 0.0000000e+00 
2.0000000e+00 1.0000000e+00 0.0000000e+00 
1.8000000e+00 1.0000000e+00 0.0000000e+00 
1.6000000e+00 1.0000000e+00 0.0000000e+00 
1.4000000e+00 1.0000000e+00 0.0000000e+00 
1.2000000e+00 1.0000000e+00 0.0000000e+00 
1.0000000e+00 1.0000000e+00 0.0000000e+00 
8.0000001e-01 1.0000000e+00 0.0000000e+00 
6.0000002e-01 1.0000000e+00 0.0000000e+00 
4.0000001e-01 1.0000000e+00 0.0000000e+00 
2.0000000e-01 1.0000000e+00 0.0000000e+00 
0.0000000e+00 8.0000001e-01 0.0000000e+00 
0.0000000e+00 6.0000002e-01 0.0000000e+00 
0.0000000e+00 4.0000001e-01 0.0000000e+00 
0.0000000e+00 2.0000000e-01 0.0000000e+00 
2.3000000e+00 8.2679492e-01 0.0000000e+00 
2.7026610e+00 1.6839939e-01 0.0000000e+00 
3.2973390e+00 8.3160061e-01 0.0000000e+00 
1.4973390e+00 8.3160061e-01 0.0000000e+00 
6.9999999e-01 8.2679492e-01 0.0000000e+00 
1.1000000e+00 8.2679492e-01 0.0000000e+00 
1.9000000e+00 8.2679492e-01 0.0000000e+00 
3.5000000e+00 1.7320511e-01 0.0000000e+00 
5.1031393e-01 1.6354990e-01 0.0000000e+00 
2.0999999e+00 1.7320511e-01 0.0000000e+00 
2.9000001e+00 8.2679492e-01 0.0000000e+00 
3.0999999e+00 1.7320511e-01 0.0000000e+00 
8.9999998e-01 1.7320511e-01 0.0000000e+00 
1.3026609e+00 1.6839939e-01 0.0000000e+00 
1.7000000e+00 1.7320511e-01 0.0000000e+00 
3.8372450e+00 5.0966787e-01 0.0000000e+00 
1.6370660e-01 4.8866510e-01 0.0000000e+00 
3.6861150e+00 8.0809802e-01 0.0000000e+00 
3.0084750e-01 8.3064562e-01 0.0000000e+00 
2.5000000e+00 8.2679492e-01 0.0000000e+00 
2.4000001e+00 6.5686482e-01 0.0000000e+00 
2.5999999e+00 6.5413558e-01 0.0000000e+00 
2.1973391e+00 6.6568738e-01 0.0000000e+00 
2.4980991e+00 4.8908681e-01 0.0000000e+00 
2.7023439e+00 4.9347210e-01 0.0000000e+00 
2.4977820e+00 1.6759840e-01 0.0000000e+00 
3.6991520e+00 1.6935439e-01 0.0000000e+00 
3.6035600e+00 3.2941931e-01 0.0000000e+00 
3.4005930e+00 3.4357831e-01 0.0000000e+00 
3.5158091e+00 5.1572138e-01 0.0000000e+00 
3.3000519e+00 5.1056743e-01 0.0000000e+00 
2.2969689e+00 1.7073420e-01 0.0000000e+00 
2.1941719e+00 3.3966190e-01 0.0000000e+00 
1.9963670e+00 3.4374899e-01 0.0000000e+00 
1.8993950e+00 1.7276150e-01 0.0000000e+00 
2.7000000e+00 8.2688588e-01 0.0000000e+00 
1.5031050e+00 1.7086761e-01 0.0000000e+00 
1.6031790e+00 3.4448409e-01 0.0000000e+00 
1.2968950e+00 8.2913238e-01 0.0000000e+00 
1.1968210e+00 6.5551591e-01 0.0000000e+00 
9.9947017e-01 6.5391088e-01 0.0000000e+00 
1.1000000e+00 4.8038480e-01 0.0000000e+00 
8.9999998e-01 4.8038480e-01 0.0000000e+00 
1.2996221e+00 4.9228981e-01 0.0000000e+00 
7.9991168e-01 6.5364343e-01 0.0000000e+00 
6.9999999e-01 4.8038480e-01 0.0000000e+00 
5.9998530e-01 6.5359873e-01 0.0000000e+00 
4.8479331e-01 4.8141760e-01 0.0000000e+00 
3.9391199e-01 6.7074132e-01 0.0000000e+00 
1.8000000e+00 3.4641021e-01 0.0000000e+00 
1.7000000e+00 5.1961517e-01 0.0000000e+00 
1.5003330e+00 5.0912750e-01 0.0000000e+00 
1.8991500e+00 5.1739931e-01 0.0000000e+00 
6.9999999e-01 1.7320511e-01 0.0000000e+00 
1.6998380e+00 8.2946962e-01 0.0000000e+00 
3.4885681e+00 8.3318800e-01 0.0000000e+00 
4.9912411e-01 8.3029681e-01 0.0000000e+00 
1.1001620e+00 1.7053039e-01 0.0000000e+00 
2.0998850e+00 8.2817233e-01 0.0000000e+00 
8.9989698e-01 8.2685733e-01 0.0000000e+00 
1.6938210e-01 3.0011359e-01 0.0000000e+00 
2.9031050e+00 1.7086761e-01 0.0000000e+00 
3.0008280e+00 3.4420681e-01 0.0000000e+00 
3.0968950e+00 8.2913238e-01 0.0000000e+00 
2.9991720e+00 6.5579319e-01 0.0000000e+00 
2.8001289e+00 6.5661508e-01 0.0000000e+00 
3.3000989e+00 1.7273310e-01 0.0000000e+00 
3.2002621e+00 3.4070939e-01 0.0000000e+00 
3.8118999e+00 3.1613931e-01 0.0000000e+00 
3.8409591e+00 6.9520658e-01 0.0000000e+00 
3.1562439e-01 1.8911870e-01 0.0000000e+00 
1.8788280e-01 6.8363428e-01 0.0000000e+00 
3.1598091e-01 3.8581169e-01 0.0000000e+00 
3.6863050e+00 6.1217362e-01 0.0000000e+00 
2.3978369e+00 3.3231840e-01 0.0000000e+00 
2.8014901e+00 3.3396250e-01 0.0000000e+00 
3.1989100e+00 6.6671067e-01 0.0000000e+00 
2.0978379e+00 5.0662857e-01 0.0000000e+00 
1.4056220e+00 3.3585981e-01 0.0000000e+00 
1.3943681e+00 6.6447759e-01 0.0000000e+00 
3.3914380e+00 6.7400211e-01 0.0000000e+00 
1.5986460e+00 6.7124927e-01 0.0000000e+00 
2.6000249e+00 3.2966021e-01 0.0000000e+00 
1.7996060e+00 6.7296129e-01 0.0000000e+00 
1.2000000e+00 3.2679489e-01 0.0000000e+00 
1.0000000e+00 3.2679489e-01 0.0000000e+00 
8.0000001e-01 3.2679489e-01 0.0000000e+00 
6.0786378e-01 3.2318491e-01 0.0000000e+00 
2.2982481e+00 4.9884880e-01 0.0000000e+00 
2.9000001e+00 5.0003427e-01 0.0000000e+00 
3.0999999e+00 4.9996570e-01 0.0000000e+00 
2.0000000e+00 6.7323941e-01 0.0000000e+00 
1.4641020e-01 8.5358977e-01 0.0000000e+00 
3.8535900e+00 8.5358977e-01 0.0000000e+00 
3.8535900e+00 1.4641020e-01 0.0000000e+00 
1.4641020e-01 1.4641020e-01 0.0000000e+00 
3.5479529e+00 6.8622428e-01 0.0000000e+00 
4.4691530e-01 3.0861649e-01 0.0000000e+00 
3.0925509e-01 5.4205400e-01 0.0000000e+00 
3.6897500e+00 4.5812321e-01 0.0000000e+00 

CELLS 248 992
3 0 145 49
3 1 144 22
3 2 143 26
3 3 142 45
3 4 145 0
3 5 120 4
3 6 58 5
3 6 103 58
3 7 103 6
3 8 62 7
3 8 107 62
3 9 107 8
3 10 63 9
3 10 86 63
3 11 86 10
3 12 64 11
3 12 84 64
3 13 84 12
3 14 59 13
3 14 81 59
3 15 81 14
3 16 75 15
3 17 51 16
3 17 111 51
3 18 111 17
3 19 61 18
3 19 116 61
3 20 116 19
3 21 57 20
3 21 76 57
3 22 76 21
3 22 144 76
3 23 144 1
3 24 118 23
3 25 65 24
3 25 119 65
3 26 119 25
3 26 143 119
3 27 143 2
3 28 67 27
3 28 105 67
3 29 105 28
3 30 52 29
3 30 113 52
3 31 113 30
3 32 60 31
3 32 85 60
3 33 85 32
3 34 69 33
3 35 50 34
3 35 108 50
3 36 108 35
3 37 56 36
3 37 104 56
3 38 104 37
3 39 53 38
3 39 88 53
3 40 88 39
3 41 55 40
3 41 109 55
3 42 109 41
3 43 54 42
3 43 106 54
3 44 106 43
3 45 68 44
3 45 142 68
3 46 142 3
3 47 121 46
3 48 66 47
3 48 110 66
3 49 110 48
3 49 145 110
3 50 69 34
3 50 70 69
3 50 72 70
3 50 108 72
3 51 75 16
3 51 132 75
3 52 105 29
3 52 130 105
3 53 104 38
3 53 131 104
3 54 96 94
3 54 106 96
3 54 109 42
3 55 88 40
3 55 89 88
3 55 90 89
3 55 109 90
3 56 108 36
3 56 141 108
3 57 116 20
3 58 120 5
3 58 147 120
3 59 84 13
3 60 113 31
3 60 114 113
3 60 115 114
3 61 111 18
3 61 112 111
3 61 117 112
3 62 103 7
3 62 136 103
3 63 107 9
3 63 134 107
3 64 86 11
3 64 87 86
3 64 99 87
3 65 118 24
3 65 149 118
3 66 121 47
3 66 148 121
3 67 123 119
3 67 143 27
3 67 146 123
3 68 106 44
3 68 121 98
3 68 142 121
3 69 85 33
3 70 71 69
3 70 73 71
3 70 138 73
3 71 85 69
3 71 115 85
3 72 138 70
3 72 141 127
3 73 74 71
3 73 132 74
3 73 138 124
3 74 115 71
3 74 132 125
3 74 139 115
3 75 81 15
3 75 124 81
3 75 132 124
3 76 77 57
3 76 118 77
3 76 144 118
3 77 78 57
3 77 79 78
3 77 149 79
3 78 116 57
3 78 117 116
3 79 80 78
3 79 130 80
3 79 146 130
3 79 149 123
3 80 117 78
3 80 130 126
3 80 140 117
3 81 82 59
3 81 124 82
3 82 83 59
3 82 127 83
3 82 138 127
3 83 84 59
3 83 99 84
3 83 102 99
3 83 127 102
3 84 99 64
3 85 115 60
3 86 128 63
3 87 128 86
3 88 129 53
3 89 129 88
3 90 91 89
3 90 92 91
3 90 94 92
3 90 109 94
3 91 93 89
3 91 134 93
3 91 135 134
3 92 135 91
3 92 136 135
3 93 128 101
3 93 129 89
3 93 134 128
3 94 95 92
3 94 96 95
3 94 109 54
3 95 136 92
3 95 137 136
3 96 97 95
3 96 98 97
3 96 106 98
3 97 137 95
3 97 147 137
3 97 148 122
3 98 106 68
3 98 148 97
3 99 100 87
3 99 102 100
3 100 101 87
3 100 131 101
3 100 133 131
3 101 128 87
3 101 129 93
3 101 131 129
3 102 133 100
3 102 141 133
3 103 137 58
3 104 133 56
3 105 146 67
3 107 135 62
3 108 141 72
3 110 122 66
3 110 145 120
3 111 125 51
3 112 125 111
3 112 139 125
3 112 140 139
3 113 126 52
3 114 126 113
3 114 140 126
3 115 139 114
3 116 117 61
3 117 140 112
3 118 144 23
3 118 149 77
3 119 123 65
3 119 143 67
3 120 122 110
3 120 145 4
3 120 147 122
3 121 142 46
3 121 148 98
3 122 147 97
3 122 148 66
3 123 146 79
3 123 149 65
3 124 132 73
3 124 138 82
3 125 132 51
3 125 139 74
3 126 130 52
3 126 140 80
3 127 138 72
3 127 141 102
3 128 134 63
3 129 131 53
3 130 146 105
3 131 133 104
3 133 141 56
3 134 135 107
3 135 136 62
3 136 137 103
3 137 147 58
3 139 140 114

CELL_TYPES 248
5
5
5
5
5
5
5
5
5
5
5
5
5
5
5
5
5
5
5
5
5
5
5
5
5
5
5
5
5
5
5
5
5
5
5
5
5
5
5
5
5
5
5
5
5
5
5
5
5
5
5
5
5
5
5
5
5
5
5
5
5
5
5
5
5
5
5
5
5
5
5
5
5
5
5
5
5
5
5
5
5
5
5
5
5
5
5
5
5
5
5
5
5
5
5
5
5
5
5
5
5
5
5
5
5
5
5
5
5
5
5
5
5
5
5
5
5
5
5
5
5
5
5
5
5
5
5
5
5
5
5
5
5
5
5
5
5
5
5
5
5
5
5
5
5
5
5
5
5
5
5
5
5
5
5
5
5
5
5
5
5
5
5
5
5
5
5
5
5
5
5
5
5
5
5
5
5
5
5
5
5
5
5
5
5
5
5
5
5
5
5
5
5
5
5
5
5
5
5
5
5
5
5
5
5
5
5
5
5
5
5
5
5
5
5
5
5
5
5
5
5
5
5
5
5
5
5
5
5
5
5
5
5
5
5
5
5
5
5
5
5
5
5
5
5
5
5
5
POINT_DATA 150
FIELD FieldData 2
VELOCITY 3 150  float
1.0000000e+00 0.0000000e+00 0.0000000e+00 
1.0000000e+00 0.0000000e+00 0.0000000e+00 
1.0000000e+00 0.0000000e+00 0.0000000e+00 
1.0000000e+00 0.0000000e+00 0.0000000e+00 
1.0000000e+00 0.0000000e+00 0.0000000e+00 
1.0000000e+00 0.0000000e+00 0.0000000e+00 
1.0000000e+00 0.0000000e+00 0.0000000e+00 
1.0000000e+00 0.0000000e+00 0.0000000e+00 
1.0000000e+00 0.0000000e+00 0.0000000e+00 
1.0000000e+00 0.0000000e+00 0.0000000e+00 
1.0000000e+00 0.0000000e+00 0.0000000e+00 
1.0000000e+00 0.0000000e+00 0.0000000e+00 
1.0000000e+00 0.0000000e+00 0.0000000e+00 
1.0000000e+00 0.0000000e+00 0.0000000e+00 
1.0000000e+00 0.0000000e+00 0.0000000e+00 
1.0000000e+00 0.0000000e+00 0.0000000e+00 
1.0000000e+00 0.0000000e+00 0.0000000e+00 
1.0000000e+00 0.0000000e+00 0.0000000e+00 
1.0000000e+00 0.0000000e+00 0.0000000e+00 
1.0000000e+00 0.0000000e+00 0.0000000e+00 
1.0000000e+00 0.0000000e+00 0.0000000e+00 
1.0000000e+00 0.0000000e+00 0.0000000e+00 
1.0000000e+00 0.0000000e+00 0.0000000e+00 
1.0000000e+00 9.9662823e-18 0.0000000e+00 
1.0000000e+00 -2.3520815e-17 0.0000000e+00 
1.0000000e+00 -1.2028768e-16 0.0000000e+00 
1.0000000e+00 4.3361417e-17 0.0000000e+00 
1.0000000e+00 0.0000000e+00 0.0000000e+00 
1.0000000e+00 0.0000000e+00 0.0000000e+00 
1.0000000e+00 0.0000000e+00 0.0000000e+00 
1.0000000e+00 0.0000000e+00 0.0000000e+00 
1.0000000e+00 0.0000000e+00 0.0000000e+00 
1.0000000e+00 0.0000000e+00 0.0000000e+00 
1.0000000e+00 0.0000000e+00 0.0000000e+00 
1.0000000e+00 0.0000000e+00 0.0000000e+00 
1.0000000e+00 0.0000000e+00 0.0000000e+00 
1.0000000e+00 0.0000000e+00 0.0000000e+00 
1.0000000e+00 0.0000000e+00 0.0000000e+00 
1.0000000e+00 0.0000000e+00 0.0000000e+00 
1.0000000e+00 0.0000000e+00 0.0000000e+00 
1.0000000e+00 0.0000000e+00 0.0000000e+00 
1.0000000e+00 0.0000000e+00 0.0000000e+00 
1.0000000e+00 0.0000000e+00 0.0000000e+00 
1.0000000e+00 0.0000000e+00 0.0000000e+00 
1.0000000e+00 0.0000000e+00 0.0000000e+00 
1.0000000e+00 0.0000000e+00 0.0000000e+00 
1.0000000e+00 0.0000000e+00 0.0000000e+00 
1.0000000e+00 0.0000000e+00 0.0000000e+00 
1.0000000e+00 0.0000000e+00 0.0000000e+00 
1.0000000e+00 0.0000000e+00 0.0000000e+00 
1.0000000e+00 -1.8201620e-15 0.0000000e+00 
1.0000000e+00 -2.3520636e-16 0.0000000e+00 
1.0000000e+00 -7.3858584e-16 0.0000000e+00 
1.0000000e+00 -2.6212055e-15 0.0000000e+00 
1.0000000e+00 1.0702642e-15 0.0000000e+00 
1.0000000e+00 4.1855778e-16 0.0000000e+00 
1.0000000e+00 1.5770373e-15 0.0000000e+00 
1.0000000e+00 -2.3715938e-16 0.0000000e+00 
1.0000000e+00 -2.0443258e-17 0.0000000e+00 
1.0000000e+00 5.5038560e-16 0.0000000e+00 
1.0000000e+00 7.6212775e-17 0.0000000e+00 
1.0000000e+00 -1.6316404e-16 0.0000000e+00 
1.0000000e+00 -3.1772606e-15 0.0000000e+00 
1.0000000e+00 -1.3094867e-15 0.0000000e+00 
1.0000000e+00 8.2833824e-16 0.0000000e+00 
1.0000000e+00 -1.0817789e-16 0.0000000e+00 
1.0000000e+00 -1.8761056e-15 0.0000000e+00 
1.0000000e+00 1.5932059e-17 0.0000000e+00 
1.0000000e+00 1.9185451e-15 0.0000000e+00 
1.0000000e+00 -6.7376034e-16 0.0000000e+00 
1.0000000e+00 -8.3961040e-16 0.0000000e+00 
1.0000000e+00 -6.2471502e-16 0.0000000e+00 
1.0000000e+00 -5.9725966e-16 0.0000000e+00 
1.0000000e+00 9.2078464e-16 0.0000000e+00 
1.0000000e+00 -1.2977308e-15 0.0000000e+00 
1.0000000e+00 -2.6532828e-16 0.0000000e+00 
1.0000000e+00 7.7891701e-17 0.0000000e+00 
1.0000000e+00 1.0983350e-16 0.0000000e+00 
1.0000000e+00 -9.4137369e-17 0.0000000e+00 
1.0000000e+00 -1.0630099e-16 0.0000000e+00 
1.0000000e+00 3.8143169e-16 0.0000000e+00 
1.0000000e+00 7.7310719e-16 0.0000000e+00 
1.0000000e+00 -4.5484166e-16 0.0000000e+00 
1.0000000e+00 -3.0626001e-16 0.0000000e+00 
1.0000000e+00 -5.5441133e-16 0.0000000e+00 
1.0000000e+00 3.7494281e-16 0.0000000e+00 
1.0000000e+00 2.3906642e-16 0.0000000e+00 
1.0000000e+00 -5.4017499e-16 0.0000000e+00 
1.0000000e+00 4.1839833e-16 0.0000000e+00 
1.0000000e+00 -1.7408781e-15 0.0000000e+00 
1.0000000e+00 3.1390408e-15 0.0000000e+00 
1.0000000e+00 -1.7456006e-15 0.0000000e+00 
1.0000000e+00 7.9770710e-16 0.0000000e+00 
1.0000000e+00 1.6447477e-16 0.0000000e+00 
1.0000000e+00 -6.7064114e-16 0.0000000e+00 
1.0000000e+00 2.3145408e-15 0.0000000e+00 
1.0000000e+00 -2.3377427e-15 0.0000000e+00 
1.0000000e+00 -2.6575483e-15 0.0000000e+00 
1.0000000e+00 6.4418616e-17 0.0000000e+00 
1.0000000e+00 6.7971419e-16 0.0000000e+00 
1.0000000e+00 1.3400341e-15 0.0000000e+00 
1.0000000e+00 -7.2509213e-16 0.0000000e+00 
1.0000000e+00 -8.2730306e-16 0.0000000e+00 
1.0000000e+00 1.6765889e-15 0.0000000e+00 
1.0000000e+00 2.6747052e-15 0.0000000e+00 
1.0000000e+00 -4.8457844e-16 0.0000000e+00 
1.0000000e+00 -2.5013880e-15 0.0000000e+00 
1.0000000e+00 -1.0910572e-15 0.0000000e+00 
1.0000000e+00 -1.5579172e-15 0.0000000e+00 
1.0000000e+00 2.3460204e-15 0.0000000e+00 
1.0000000e+00 6.5295441e-16 0.0000000e+00 
1.0000000e+00 2.9553183e-16 0.0000000e+00 
1.0000000e+00 -1.4847938e-16 0.0000000e+00 
1.0000000e+00 -2.6915020e-16 0.0000000e+00 
1.0000000e+00 4.2714519e-16 0.0000000e+00 
1.0000000e+00 -4.0813859e-17 0.0000000e+00 
1.0000000e+00 1.3399452e-17 0.0000000e+00 
1.0000000e+00 2.9419487e-16 0.0000000e+00 
1.0000000e+00 -2.5908240e-17 0.0000000e+00 
1.0000000e+00 -4.7991163e-17 0.0000000e+00 
1.0000000e+00 4.1965934e-15 0.0000000e+00 
1.0000000e+00 -1.2735445e-15 0.0000000e+00 
1.0000000e+00 -7.6952763e-16 0.0000000e+00 
1.0000000e+00 1.6118309e-16 0.0000000e+00 
1.0000000e+00 9.0078725e-16 0.0000000e+00 
1.0000000e+00 -6.3823964e-16 0.0000000e+00 
1.0000000e+00 1.5562655e-16 0.0000000e+00 
1.0000000e+00 -1.2204282e-16 0.0000000e+00 
1.0000000e+00 2.5047912e-15 0.0000000e+00 
1.0000000e+00 1.9871243e-15 0.0000000e+00 
1.0000000e+00 -2.6102245e-17 0.0000000e+00 
1.0000000e+00 -1.6246559e-16 0.0000000e+00 
1.0000000e+00 1.7834434e-16 0.0000000e+00 
1.0000000e+00 -1.3294271e-15 0.0000000e+00 
1.0000000e+00 1.3106095e-15 0.0000000e+00 
1.0000000e+00 -1.9706690e-15 0.0000000e+00 
1.0000000e+00 -2.4531715e-16 0.0000000e+00 
1.0000000e+00 3.3208223e-15 0.0000000e+00 
1.0000000e+00 -1.0254867e-15 0.0000000e+00 
1.0000000e+00 -1.4021253e-15 0.0000000e+00 
1.0000000e+00 9.8720769e-16 0.0000000e+00 
1.0000000e+00 1.2106737e-15 0.0000000e+00 
1.0000000e+00 -3.6523184e-15 0.0000000e+00 
1.0000000e+00 1.7297269e-16 0.0000000e+00 
1.0000000e+00 -3.5726299e-18 0.0000000e+00 
1.0000000e+00 -3.9896272e-15 0.0000000e+00 
1.0000000e+00 -1.1970094e-16 0.0000000e+00 
1.0000000e+00 -1.1812439e-15 0.0000000e+00 
1.0000000e+00 -1.3143327e-15 0.0000000e+00 
1.0000000e+00 -8.9880592e-17 0.0000000e+00 
PRESSURE 1 150  float
-3.1250000e+04
0.0000000e+00
0.0000000e+00
-3.1250000e+04
-2.9687500e+04
-2.8125000e+04
-2.6562500e+04
-2.5000000e+04
-2.3437500e+04
-2.1875000e+04
-2.0312500e+04
-1.8750000e+04
-1.7187500e+04
-1.5625000e+04
-1.4062500e+04
-1.2500000e+04
-1.0937500e+04
-9.3750000e+03
-7.8125000e+03
-6.2500000e+03
-4.6875000e+03
-3.1250000e+03
-1.5625000e+03
0.0000000e+00
0.0000000e+00
0.0000000e+00
0.0000000e+00
-1.5625000e+03
-3.1250000e+03
-4.6875000e+03
-6.2500000e+03
-7.8125000e+03
-9.3750000e+03
-1.0937500e+04
-1.2500000e+04
-1.4062500e+04
-1.5625000e+04
-1.7187500e+04
-1.8750000e+04
-2.0312500e+04
-2.1875000e+04
-2.3437500e+04
-2.5000000e+04
-2.6562500e+04
-2.8125000e+04
-2.9687500e+04
-3.1250000e+04
-3.1250000e+04
-3.1250000e+04
-3.1250000e+04
-1.3281250e+04
-1.0135461e+04
-5.4895391e+03
-1.9552039e+04
-2.5781250e+04
-2.2656250e+04
-1.6406250e+04
-3.9062500e+03
-2.7263172e+04
-1.4843750e+04
-8.5937500e+03
-7.0312500e+03
-2.4218750e+04
-2.1072961e+04
-1.7968750e+04
-1.2715234e+03
-2.9971043e+04
-2.4522266e+03
-2.8899629e+04
-1.1718750e+04
-1.2500000e+04
-1.0937500e+04
-1.4083289e+04
-1.1733602e+04
-1.0137938e+04
-1.1736078e+04
-2.3503750e+03
-3.0971875e+03
-4.6828672e+03
-3.7827422e+03
-5.4683438e+03
-1.3304930e+04
-1.4108031e+04
-1.5653383e+04
-1.6410977e+04
-1.0156250e+04
-1.9506992e+04
-1.8725164e+04
-2.1118008e+04
-2.1899836e+04
-2.3441639e+04
-2.2656250e+04
-2.4218750e+04
-2.1096703e+04
-2.5000689e+04
-2.5781250e+04
-2.6562615e+04
-2.7462553e+04
-2.8172562e+04
-1.7187500e+04
-1.7968750e+04
-1.9528648e+04
-1.6412891e+04
-2.5781250e+04
-1.7970016e+04
-3.9955625e+03
-2.7350594e+04
-2.2654984e+04
-1.4844648e+04
-2.4219555e+04
-2.9926703e+04
-8.5694922e+03
-7.8060312e+03
-7.0555078e+03
-7.8189688e+03
-9.3739922e+03
-5.4679766e+03
-6.2479531e+03
-1.4695312e+03
-1.2425078e+03
-2.8784184e+04
-2.9782166e+04
-2.8781398e+04
-2.4507422e+03
-1.2516898e+04
-9.3633594e+03
-6.2585156e+03
-1.4860641e+04
-2.0268578e+04
-2.0356500e+04
-4.7543906e+03
-1.8760578e+04
-1.0937305e+04
-1.7190578e+04
-2.1875000e+04
-2.3437500e+04
-2.5000000e+04
-2.6501064e+04
-1.3294938e+04
-8.5937500e+03
-7.0312500e+03
-1.5625000e+04
-3.0106170e+04
-1.1438281e+03
-1.1438281e+03
-3.0106170e+04
-3.5316172e+03
-2.7758475e+04
-2.8833945e+04
-2.4238281e+03
CELL_DATA 248
FIELD FieldData 0
