# vtk DataFile Version 4.0
vtk output
ASCII
DATASET UNSTRUCTURED_GRID
POINTS 150 float
0.0000000e+00 0.0000000e+00 0.0000000e+00 
4.0000000e+00 0.0000000e+00 0.0000000e+00 
4.0000000e+00 1.0000000e+00 0.0000000e+00 
0.0000000e+00 1.0000000e+00 0.0000000e+00 
2.0000000e-01 0.0000000e+00 0.0000000e+00 
4.0000001e-01 0.0000000e+00 0.0000000e+00 
6.0000002e-01 0.0000000e+00 0.0000000e+00 
8.0000001e-01 0.0000000e+00 0.0000000e+00 
1.0000000e+00 0.0000000e+00 0.0000000e+00 
1.2000000e+00 0.0000000e+00 0.0000000e+00 
1.4000000e+00 0.0000000e+00 0.0000000e+00 
1.6000000e+00 0.0000000e+00 0.0000000e+00 
1.8000000e+00 0.0000000e+00 0.0000000e+00 
2.0000000e+00 0.0000000e+00 0.0000000e+00 
2.2000000e+00 0.0000000e+00 0.0000000e+00 
2.4000001e+00 0.0000000e+00 0.0000000e+00 
2.5999999e+00 0.0000000e+00 0.0000000e+00 
2.8000000e+00 0.0000000e+00 0.0000000e+00 
3.0000000e+00 0.0000000e+00 0.0000000e+00 
3.2000000e+00 0.0000000e+00 0.0000000e+00 
3.4000001e+00 0.0000000e+00 0.0000000e+00 
3.5999999e+00 0.0000000e+00 0.0000000e+00 
3.8000000e+00 0.0000000e+00 0.0000000e+00 
4.0000000e+00 2.0000000e-01 0.0000000e+00 
4.0000000e+00 4.0000001e-01 0.0000000e+00 
4.0000000e+00 6.0000002e-01 0.0000000e+00 
4.0000000e+00 8.0000001e-01 0.0000000e+00 
3.8000000e+00 1.0000000e+00 0.0000000e+00 
3.5999999e+00 1.0000000e+00 0.0000000e+00 
3.4000001e+00 1.0000000e+00 0.0000000e+00 
3.2000000e+00 1.0000000e+00 0.0000000e+00 
3.0000000e+00 1.0000000e+00 0.0000000e+00 
2.8000000e+00 1.0000000e+00 0.0000000e+00 
2.5999999e+00 1.0000000e+00 0.0000000e+00 
2.4000001e+00 1.0000000e+00 0.0000000e+00 
2.2000000e+00 1.0000000e+00 0.0000000e+00 
2.0000000e+00 1.0000000e+00 0.0000000e+00 
1.8000000e+00 1.0000000e+00 0.0000000e+00 
1.6000000e+00 1.0000000e+00 0.0000000e+00 
1.4000000e+00 1.0000000e+00 0.0000000e+00 
1.2000000e+00 1.0000000e+00 0.0000000e+00 
1.0000000e+00 1.0000000e+00 0.0000000e+00 
8.0000001e-01 1.0000000e+00 0.0000000e+00 
6.0000002e-01 1.0000000e+00 0.0000000e+00 
4.0000001e-01 1.0000000e+00 0.0000000e+00 
2.0000000e-01 1.0000000e+00 0.0000000e+00 
0.0000000e+00 8.0000001e-01 0.0000000e+00 
0.0000000e+00 6.0000002e-01 0.0000000e+00 
0.0000000e+00 4.0000001e-01 0.0000000e+00 
0.0000000e+00 2.0000000e-01 0.0000000e+00 
2.3000000e+00 8.2679492e-01 0.0000000e+00 
2.7026610e+00 1.6839939e-01 0.0000000e+00 
3.2973390e+00 8.3160061e-01 0.0000000e+00 
1.4973390e+00 8.3160061e-01 0.0000000e+00 
6.9999999e-01 8.2679492e-01 0.0000000e+00 
1.1000000e+00 8.2679492e-01 0.0000000e+00 
1.9000000e+00 8.2679492e-01 0.0000000e+00 
3.5000000e+00 1.7320511e-01 0.0000000e+00 
5.1031393e-01 1.6354990e-01 0.0000000e+00 
2.0999999e+00 1.7320511e-01 0.0000000e+00 
2.9000001e+00 8.2679492e-01 0.0000000e+00 
3.0999999e+00 1.7320511e-01 0.0000000e+00 
8.9999998e-01 1.7320511e-01 0.0000000e+00 
1.3026609e+00 1.6839939e-01 0.0000000e+00 
1.7000000e+00 1.7320511e-01 0.0000000e+00 
3.8372450e+00 5.0966787e-01 0.0000000e+00 
1.6370660e-01 4.8866510e-01 0.0000000e+00 
3.6861150e+00 8.0809802e-01 0.0000000e+00 
3.0084750e-01 8.3064562e-01 0.0000000e+00 
2.5000000e+00 8.2679492e-01 0.0000000e+00 
2.4000001e+00 6.5686482e-01 0.0000000e+00 
2.5999999e+00 6.5413558e-01 0.0000000e+00 
2.1973391e+00 6.6568738e-01 0.0000000e+00 
2.4980991e+00 4.8908681e-01 0.0000000e+00 
2.7023439e+00 4.9347210e-01 0.0000000e+00 
2.4977820e+00 1.6759840e-01 0.0000000e+00 
3.6991520e+00 1.6935439e-01 0.0000000e+00 
3.6035600e+00 3.2941931e-01 0.0000000e+00 
3.4005930e+00 3.4357831e-01 0.0000000e+00 
3.5158091e+00 5.1572138e-01 0.0000000e+00 
3.3000519e+00 5.1056743e-01 0.0000000e+00 
2.2969689e+00 1.7073420e-01 0.0000000e+00 
2.1941719e+00 3.3966190e-01 0.0000000e+00 
1.9963670e+00 3.4374899e-01 0.0000000e+00 
1.8993950e+00 1.7276150e-01 0.0000000e+00 
2.7000000e+00 8.2688588e-01 0.0000000e+00 
1.5031050e+00 1.7086761e-01 0.0000000e+00 
1.6031790e+00 3.4448409e-01 0.0000000e+00 
1.2968950e+00 8.2913238e-01 0.0000000e+00 
1.1968210e+00 6.5551591e-01 0.0000000e+00 
9.9947017e-01 6.5391088e-01 0.0000000e+00 
1.1000000e+00 4.8038480e-01 0.0000000e+00 
8.9999998e-01 4.8038480e-01 0.0000000e+00 
1.2996221e+00 4.9228981e-01 0.0000000e+00 
7.9991168e-01 6.5364343e-01 0.0000000e+00 
6.9999999e-01 4.8038480e-01 0.0000000e+00 
5.9998530e-01 6.5359873e-01 0.0000000e+00 
4.8479331e-01 4.8141760e-01 0.0000000e+00 
3.9391199e-01 6.7074132e-01 0.0000000e+00 
1.8000000e+00 3.4641021e-01 0.0000000e+00 
1.7000000e+00 5.1961517e-01 0.0000000e+00 
1.5003330e+00 5.0912750e-01 0.0000000e+00 
1.8991500e+00 5.1739931e-01 0.0000000e+00 
6.9999999e-01 1.7320511e-01 0.0000000e+00 
1.6998380e+00 8.2946962e-01 0.0000000e+00 
3.4885681e+00 8.3318800e-01 0.0000000e+00 
4.9912411e-01 8.3029681e-01 0.0000000e+00 
1.1001620e+00 1.7053039e-01 0.0000000e+00 
2.0998850e+00 8.2817233e-01 0.0000000e+00 
8.9989698e-01 8.2685733e-01 0.0000000e+00 
1.6938210e-01 3.0011359e-01 0.0000000e+00 
2.9031050e+00 1.7086761e-01 0.0000000e+00 
3.0008280e+00 3.4420681e-01 0.0000000e+00 
3.0968950e+00 8.2913238e-01 0.0000000e+00 
2.9991720e+00 6.5579319e-01 0.0000000e+00 
2.8001289e+00 6.5661508e-01 0.0000000e+00 
3.3000989e+00 1.7273310e-01 0.0000000e+00 
3.2002621e+00 3.4070939e-01 0.0000000e+00 
3.8118999e+00 3.1613931e-01 0.0000000e+00 
3.8409591e+00 6.9520658e-01 0.0000000e+00 
3.1562439e-01 1.8911870e-01 0.0000000e+00 
1.8788280e-01 6.8363428e-01 0.0000000e+00 
3.1598091e-01 3.8581169e-01 0.0000000e+00 
3.6863050e+00 6.1217362e-01 0.0000000e+00 
2.3978369e+00 3.3231840e-01 0.0000000e+00 
2.8014901e+00 3.3396250e-01 0.0000000e+00 
3.1989100e+00 6.6671067e-01 0.0000000e+00 
2.0978379e+00 5.0662857e-01 0.0000000e+00 
1.4056220e+00 3.3585981e-01 0.0000000e+00 
1.3943681e+00 6.6447759e-01 0.0000000e+00 
3.3914380e+00 6.7400211e-01 0.0000000e+00 
1.5986460e+00 6.7124927e-01 0.0000000e+00 
2.6000249e+00 3.2966021e-01 0.0000000e+00 
1.7996060e+00 6.7296129e-01 0.0000000e+00 
1.2000000e+00 3.2679489e-01 0.0000000e+00 
1.0000000e+00 3.2679489e-01 0.0000000e+00 
8.0000001e-01 3.2679489e-01 0.0000000e+00 
6.0786378e-01 3.2318491e-01 0.0000000e+00 
2.2982481e+00 4.9884880e-01 0.0000000e+00 
2.9000001e+00 5.0003427e-01 0.0000000e+00 
3.0999999e+00 4.9996570e-01 0.0000000e+00 
2.0000000e+00 6.7323941e-01 0.0000000e+00 
1.4641020e-01 8.5358977e-01 0.0000000e+00 
3.8535900e+00 8.5358977e-01 0.0000000e+00 
3.8535900e+00 1.4641020e-01 0.0000000e+00 
1.4641020e-01 1.4641020e-01 0.0000000e+00 
3.5479529e+00 6.8622428e-01 0.0000000e+00 
4.4691530e-01 3.0861649e-01 0.0000000e+00 
3.0925509e-01 5.4205400e-01 0.0000000e+00 
3.6897500e+00 4.5812321e-01 0.0000000e+00 

CELLS 248 992
3 0 145 49
3 1 144 22
3 2 143 26
3 3 142 45
3 4 145 0
3 5 120 4
3 6 58 5
3 6 103 58
3 7 103 6
3 8 62 7
3 8 107 62
3 9 107 8
3 10 63 9
3 10 86 63
3 11 86 10
3 12 64 11
3 12 84 64
3 13 84 12
3 14 59 13
3 14 81 59
3 15 81 14
3 16 75 15
3 17 51 16
3 17 111 51
3 18 111 17
3 19 61 18
3 19 116 61
3 20 116 19
3 21 57 20
3 21 76 57
3 22 76 21
3 22 144 76
3 23 144 1
3 24 118 23
3 25 65 24
3 25 119 65
3 26 119 25
3 26 143 119
3 27 143 2
3 28 67 27
3 28 105 67
3 29 105 28
3 30 52 29
3 30 113 52
3 31 113 30
3 32 60 31
3 32 85 60
3 33 85 32
3 34 69 33
3 35 50 34
3 35 108 50
3 36 108 35
3 37 56 36
3 37 104 56
3 38 104 37
3 39 53 38
3 39 88 53
3 40 88 39
3 41 55 40
3 41 109 55
3 42 109 41
3 43 54 42
3 43 106 54
3 44 106 43
3 45 68 44
3 45 142 68
3 46 142 3
3 47 121 46
3 48 66 47
3 48 110 66
3 49 110 48
3 49 145 110
3 50 69 34
3 50 70 69
3 50 72 70
3 50 108 72
3 51 75 16
3 51 132 75
3 52 105 29
3 52 130 105
3 53 104 38
3 53 131 104
3 54 96 94
3 54 106 96
3 54 109 42
3 55 88 40
3 55 89 88
3 55 90 89
3 55 109 90
3 56 108 36
3 56 141 108
3 57 116 20
3 58 120 5
3 58 147 120
3 59 84 13
3 60 113 31
3 60 114 113
3 60 115 114
3 61 111 18
3 61 112 111
3 61 117 112
3 62 103 7
3 62 136 103
3 63 107 9
3 63 134 107
3 64 86 11
3 64 87 86
3 64 99 87
3 65 118 24
3 65 149 118
3 66 121 47
3 66 148 121
3 67 123 119
3 67 143 27
3 67 146 123
3 68 106 44
3 68 121 98
3 68 142 121
3 69 85 33
3 70 71 69
3 70 73 71
3 70 138 73
3 71 85 69
3 71 115 85
3 72 138 70
3 72 141 127
3 73 74 71
3 73 132 74
3 73 138 124
3 74 115 71
3 74 132 125
3 74 139 115
3 75 81 15
3 75 124 81
3 75 132 124
3 76 77 57
3 76 118 77
3 76 144 118
3 77 78 57
3 77 79 78
3 77 149 79
3 78 116 57
3 78 117 116
3 79 80 78
3 79 130 80
3 79 146 130
3 79 149 123
3 80 117 78
3 80 130 126
3 80 140 117
3 81 82 59
3 81 124 82
3 82 83 59
3 82 127 83
3 82 138 127
3 83 84 59
3 83 99 84
3 83 102 99
3 83 127 102
3 84 99 64
3 85 115 60
3 86 128 63
3 87 128 86
3 88 129 53
3 89 129 88
3 90 91 89
3 90 92 91
3 90 94 92
3 90 109 94
3 91 93 89
3 91 134 93
3 91 135 134
3 92 135 91
3 92 136 135
3 93 128 101
3 93 129 89
3 93 134 128
3 94 95 92
3 94 96 95
3 94 109 54
3 95 136 92
3 95 137 136
3 96 97 95
3 96 98 97
3 96 106 98
3 97 137 95
3 97 147 137
3 97 148 122
3 98 106 68
3 98 148 97
3 99 100 87
3 99 102 100
3 100 101 87
3 100 131 101
3 100 133 131
3 101 128 87
3 101 129 93
3 101 131 129
3 102 133 100
3 102 141 133
3 103 137 58
3 104 133 56
3 105 146 67
3 107 135 62
3 108 141 72
3 110 122 66
3 110 145 120
3 111 125 51
3 112 125 111
3 112 139 125
3 112 140 139
3 113 126 52
3 114 126 113
3 114 140 126
3 115 139 114
3 116 117 61
3 117 140 112
3 118 144 23
3 118 149 77
3 119 123 65
3 119 143 67
3 120 122 110
3 120 145 4
3 120 147 122
3 121 142 46
3 121 148 98
3 122 147 97
3 122 148 66
3 123 146 79
3 123 149 65
3 124 132 73
3 124 138 82
3 125 132 51
3 125 139 74
3 126 130 52
3 126 140 80
3 127 138 72
3 127 141 102
3 128 134 63
3 129 131 53
3 130 146 105
3 131 133 104
3 133 141 56
3 134 135 107
3 135 136 62
3 136 137 103
3 137 147 58
3 139 140 114

CELL_TYPES 248
5
5
5
5
5
5
5
5
5
5
5
5
5
5
5
5
5
5
5
5
5
5
5
5
5
5
5
5
5
5
5
5
5
5
5
5
5
5
5
5
5
5
5
5
5
5
5
5
5
5
5
5
5
5
5
5
5
5
5
5
5
5
5
5
5
5
5
5
5
5
5
5
5
5
5
5
5
5
5
5
5
5
5
5
5
5
5
5
5
5
5
5
5
5
5
5
5
5
5
5
5
5
5
5
5
5
5
5
5
5
5
5
5
5
5
5
5
5
5
5
5
5
5
5
5
5
5
5
5
5
5
5
5
5
5
5
5
5
5
5
5
5
5
5
5
5
5
5
5
5
5
5
5
5
5
5
5
5
5
5
5
5
5
5
5
5
5
5
5
5
5
5
5
5
5
5
5
5
5
5
5
5
5
5
5
5
5
5
5
5
5
5
5
5
5
5
5
5
5
5
5
5
5
5
5
5
5
5
5
5
5
5
5
5
5
5
5
5
5
5
5
5
5
5
5
5
5
5
5
5
5
5
5
5
5
5
5
5
5
5
5
5
5
5
5
5
5
5
POINT_DATA 150
FIELD FieldData 2
VELOCITY 3 150  float
1.0000000e+00 0.0000000e+00 0.0000000e+00 
1.0000000e+00 0.0000000e+00 0.0000000e+00 
1.0000000e+00 0.0000000e+00 0.0000000e+00 
1.0000000e+00 0.0000000e+00 0.0000000e+00 
1.0000000e+00 0.0000000e+00 0.0000000e+00 
1.0000000e+00 0.0000000e+00 0.0000000e+00 
1.0000000e+00 0.0000000e+00 0.0000000e+00 
1.0000000e+00 0.0000000e+00 0.0000000e+00 
1.0000000e+00 0.0000000e+00 0.0000000e+00 
1.0000000e+00 0.0000000e+00 0.0000000e+00 
1.0000000e+00 0.0000000e+00 0.0000000e+00 
1.0000000e+00 0.0000000e+00 0.0000000e+00 
1.0000000e+00 0.0000000e+00 0.0000000e+00 
1.0000000e+00 0.0000000e+00 0.0000000e+00 
1.0000000e+00 0.0000000e+00 0.0000000e+00 
1.0000000e+00 0.0000000e+00 0.0000000e+00 
1.0000000e+00 0.0000000e+00 0.0000000e+00 
1.0000000e+00 0.0000000e+00 0.0000000e+00 
1.0000000e+00 0.0000000e+00 0.0000000e+00 
1.0000000e+00 0.0000000e+00 0.0000000e+00 
1.0000000e+00 0.0000000e+00 0.0000000e+00 
1.0000000e+00 0.0000000e+00 0.0000000e+00 
1.0000000e+00 0.0000000e+00 0.0000000e+00 
1.0000000e+00 3.0702459e-17 0.0000000e+00 
1.0000000e+00 -5.3487785e-17 0.0000000e+00 
1.0000000e+00 -1.2002002e-16 0.0000000e+00 
1.0000000e+00 1.0738412e-16 0.0000000e+00 
1.0000000e+00 0.0000000e+00 0.0000000e+00 
1.0000000e+00 0.0000000e+00 0.0000000e+00 
1.0000000e+00 0.0000000e+00 0.0000000e+00 
1.0000000e+00 0.0000000e+00 0.0000000e+00 
1.0000000e+00 0.0000000e+00 0.0000000e+00 
1.0000000e+00 0.0000000e+00 0.0000000e+00 
1.0000000e+00 0.0000000e+00 0.0000000e+00 
1.0000000e+00 0.0000000e+00 0.0000000e+00 
1.0000000e+00 0.0000000e+00 0.0000000e+00 
1.0000000e+00 0.0000000e+00 0.0000000e+00 
1.0000000e+00 0.0000000e+00 0.0000000e+00 
1.0000000e+00 0.0000000e+00 0.0000000e+00 
1.0000000e+00 0.0000000e+00 0.0000000e+00 
1.0000000e+00 0.0000000e+00 0.0000000e+00 
1.0000000e+00 0.0000000e+00 0.0000000e+00 
1.0000000e+00 0.0000000e+00 0.0000000e+00 
1.0000000e+00 0.0000000e+00 0.0000000e+00 
1.0000000e+00 0.0000000e+00 0.0000000e+00 
1.0000000e+00 0.0000000e+00 0.0000000e+00 
1.0000000e+00 0.0000000e+00 0.0000000e+00 
1.0000000e+00 0.0000000e+00 0.0000000e+00 
1.0000000e+00 0.0000000e+00 0.0000000e+00 
1.0000000e+00 0.0000000e+00 0.0000000e+00 
1.0000000e+00 -1.8671558e-15 0.0000000e+00 
1.0000000e+00 -2.0883662e-17 0.0000000e+00 
1.0000000e+00 -4.1441045e-16 0.0000000e+00 
1.0000000e+00 -2.0807945e-15 0.0000000e+00 
1.0000000e+00 1.0031351e-15 0.0000000e+00 
1.0000000e+00 5.7822074e-16 0.0000000e+00 
1.0000000e+00 1.5270783e-15 0.0000000e+00 
1.0000000e+00 -3.4489308e-16 0.0000000e+00 
1.0000000e+00 1.6797092e-16 0.0000000e+00 
1.0000000e+00 4.1867388e-16 0.0000000e+00 
1.0000000e+00 6.5036169e-16 0.0000000e+00 
1.0000000e+00 3.1642408e-17 0.0000000e+00 
1.0000000e+00 -1.3071930e-15 0.0000000e+00 
1.0000000e+00 -5.6270929e-16 0.0000000e+00 
1.0000000e+00 2.7913322e-16 0.0000000e+00 
1.0000000e+00 -7.9698475e-17 0.0000000e+00 
1.0000000e+00 -8.5195940e-16 0.0000000e+00 
1.0000000e+00 8.4437412e-17 0.0000000e+00 
1.0000000e+00 1.1482390e-15 0.0000000e+00 
1.0000000e+00 -9.4405157e-16 0.0000000e+00 
1.0000000e+00 -8.8740815e-16 0.0000000e+00 
1.0000000e+00 -4.7749682e-16 0.0000000e+00 
1.0000000e+00 -6.5969077e-17 0.0000000e+00 
1.0000000e+00 1.2864232e-15 0.0000000e+00 
1.0000000e+00 -6.1877943e-16 0.0000000e+00 
1.0000000e+00 -3.0936708e-16 0.0000000e+00 
1.0000000e+00 7.0348634e-17 0.0000000e+00 
1.0000000e+00 1.2334070e-16 0.0000000e+00 
1.0000000e+00 3.1925743e-18 0.0000000e+00 
1.0000000e+00 -2.7551530e-17 0.0000000e+00 
1.0000000e+00 5.0062209e-16 0.0000000e+00 
1.0000000e+00 1.2188698e-16 0.0000000e+00 
1.0000000e+00 -6.9193338e-16 0.0000000e+00 
1.0000000e+00 -2.5356252e-16 0.0000000e+00 
1.0000000e+00 7.1676749e-17 0.0000000e+00 
1.0000000e+00 3.4529915e-16 0.0000000e+00 
1.0000000e+00 8.0661333e-16 0.0000000e+00 
1.0000000e+00 -3.4592640e-16 0.0000000e+00 
1.0000000e+00 5.7847316e-16 0.0000000e+00 
1.0000000e+00 -1.6811011e-15 0.0000000e+00 
1.0000000e+00 3.4619880e-15 0.0000000e+00 
1.0000000e+00 -7.9112570e-16 0.0000000e+00 
1.0000000e+00 7.8071461e-16 0.0000000e+00 
1.0000000e+00 -4.0017675e-16 0.0000000e+00 
1.0000000e+00 -8.7283696e-16 0.0000000e+00 
1.0000000e+00 1.2714713e-15 0.0000000e+00 
1.0000000e+00 -8.6455811e-16 0.0000000e+00 
1.0000000e+00 -2.2275234e-15 0.0000000e+00 
1.0000000e+00 -2.7168685e-16 0.0000000e+00 
1.0000000e+00 7.8668249e-16 0.0000000e+00 
1.0000000e+00 1.0018307e-15 0.0000000e+00 
1.0000000e+00 4.8461222e-16 0.0000000e+00 
1.0000000e+00 -6.8776037e-16 0.0000000e+00 
1.0000000e+00 2.0917195e-15 0.0000000e+00 
1.0000000e+00 1.3992475e-15 0.0000000e+00 
1.0000000e+00 -2.3901928e-16 0.0000000e+00 
1.0000000e+00 -1.8903770e-15 0.0000000e+00 
1.0000000e+00 -1.2859521e-15 0.0000000e+00 
1.0000000e+00 -1.6897692e-16 0.0000000e+00 
1.0000000e+00 1.8174828e-15 0.0000000e+00 
1.0000000e+00 -1.8452501e-15 0.0000000e+00 
1.0000000e+00 -7.7098924e-17 0.0000000e+00 
1.0000000e+00 -6.7240181e-16 0.0000000e+00 
1.0000000e+00 5.6598682e-17 0.0000000e+00 
1.0000000e+00 6.2629309e-16 0.0000000e+00 
1.0000000e+00 1.5556855e-16 0.0000000e+00 
1.0000000e+00 1.5668324e-18 0.0000000e+00 
1.0000000e+00 3.0833722e-16 0.0000000e+00 
1.0000000e+00 5.9103663e-17 0.0000000e+00 
1.0000000e+00 2.7091692e-17 0.0000000e+00 
1.0000000e+00 2.5819436e-15 0.0000000e+00 
1.0000000e+00 -1.0021179e-15 0.0000000e+00 
1.0000000e+00 -9.9706591e-17 0.0000000e+00 
1.0000000e+00 9.2015690e-17 0.0000000e+00 
1.0000000e+00 8.8647890e-16 0.0000000e+00 
1.0000000e+00 -5.0971918e-16 0.0000000e+00 
1.0000000e+00 2.3687433e-16 0.0000000e+00 
1.0000000e+00 2.2306404e-16 0.0000000e+00 
1.0000000e+00 2.0196474e-15 0.0000000e+00 
1.0000000e+00 1.5313515e-15 0.0000000e+00 
1.0000000e+00 1.4540230e-16 0.0000000e+00 
1.0000000e+00 6.8693938e-18 0.0000000e+00 
1.0000000e+00 5.6007036e-16 0.0000000e+00 
1.0000000e+00 -8.8509612e-16 0.0000000e+00 
1.0000000e+00 -1.9465916e-17 0.0000000e+00 
1.0000000e+00 -1.9195708e-15 0.0000000e+00 
1.0000000e+00 5.5593218e-16 0.0000000e+00 
1.0000000e+00 1.5254519e-15 0.0000000e+00 
1.0000000e+00 -2.4403167e-16 0.0000000e+00 
1.0000000e+00 -1.3382402e-15 0.0000000e+00 
1.0000000e+00 6.6103605e-16 0.0000000e+00 
1.0000000e+00 1.4195445e-15 0.0000000e+00 
1.0000000e+00 -1.8264148e-15 0.0000000e+00 
1.0000000e+00 1.2902623e-16 0.0000000e+00 
1.0000000e+00 2.4231791e-17 0.0000000e+00 
1.0000000e+00 -4.1045180e-15 0.0000000e+00 
1.0000000e+00 -8.5857615e-17 0.0000000e+00 
1.0000000e+00 -4.6907806e-16 0.0000000e+00 
1.0000000e+00 -9.4194013e-16 0.0000000e+00 
1.0000000e+00 -5.9457537e-17 0.0000000e+00 
PRESSURE 1 150  float
7.8125000e+03
0.0000000e+00
0.0000000e+00
7.8125000e+03
7.4218750e+03
7.0312500e+03
6.6406250e+03
6.2500000e+03
5.8593750e+03
5.4687500e+03
5.0781250e+03
4.6875000e+03
4.2968750e+03
3.9062500e+03
3.5156250e+03
3.1250000e+03
2.7343750e+03
2.3437500e+03
1.9531250e+03
1.5625000e+03
1.1718750e+03
7.8125000e+02
3.9062500e+02
0.0000000e+00
0.0000000e+00
0.0000000e+00
0.0000000e+00
3.9062500e+02
7.8125000e+02
1.1718750e+03
1.5625000e+03
1.9531250e+03
2.3437500e+03
2.7343750e+03
3.1250000e+03
3.5156250e+03
3.9062500e+03
4.2968750e+03
4.6875000e+03
5.0781250e+03
5.4687500e+03
5.8593750e+03
6.2500000e+03
6.6406250e+03
7.0312500e+03
7.4218750e+03
7.8125000e+03
7.8125000e+03
7.8125000e+03
7.8125000e+03
3.3203125e+03
2.5338652e+03
1.3723848e+03
4.8880098e+03
6.4453125e+03
5.6640625e+03
4.1015625e+03
9.7656250e+02
6.8157930e+03
3.7109375e+03
2.1484375e+03
1.7578125e+03
6.0546875e+03
5.2682402e+03
4.4921875e+03
3.1788086e+02
7.4927607e+03
6.1305664e+02
7.2249072e+03
2.9296875e+03
3.1250000e+03
2.7343750e+03
3.5208223e+03
2.9334004e+03
2.5344844e+03
2.9340195e+03
5.8759375e+02
7.7429688e+02
1.1707168e+03
9.4568555e+02
1.3670859e+03
3.3262324e+03
3.5270078e+03
3.9133457e+03
4.1027441e+03
2.5390625e+03
4.8767480e+03
4.6812910e+03
5.2795020e+03
5.4749590e+03
5.8604097e+03
5.6640625e+03
6.0546875e+03
5.2741758e+03
6.2501724e+03
6.4453125e+03
6.6406538e+03
6.8656382e+03
7.0431406e+03
4.2968750e+03
4.4921875e+03
4.8821621e+03
4.1032227e+03
6.4453125e+03
4.4925039e+03
9.9889062e+02
6.8376484e+03
5.6637461e+03
3.7111621e+03
6.0548887e+03
7.4816758e+03
2.1423730e+03
1.9515078e+03
1.7638770e+03
1.9547422e+03
2.3434980e+03
1.3669941e+03
1.5619883e+03
3.6738281e+02
3.1062695e+02
7.1960459e+03
7.4455415e+03
7.1953496e+03
6.1268555e+02
3.1292246e+03
2.3408398e+03
1.5646289e+03
3.7151602e+03
5.0671445e+03
5.0891250e+03
1.1885977e+03
4.6901445e+03
2.7343262e+03
4.2976445e+03
5.4687500e+03
5.8593750e+03
6.2500000e+03
6.6252661e+03
3.3237344e+03
2.1484375e+03
1.7578125e+03
3.9062500e+03
7.5265425e+03
2.8595703e+02
2.8595703e+02
7.5265425e+03
8.8290430e+02
6.9396187e+03
7.2084863e+03
6.0595703e+02
CELL_DATA 248
FIELD FieldData 0
