# vtk DataFile Version 4.0
vtk output
ASCII
DATASET UNSTRUCTURED_GRID
POINTS 150 float
0.0000000e+00 0.0000000e+00 0.0000000e+00 
4.0000000e+00 0.0000000e+00 0.0000000e+00 
4.0000000e+00 1.0000000e+00 0.0000000e+00 
0.0000000e+00 1.0000000e+00 0.0000000e+00 
2.0000000e-01 0.0000000e+00 0.0000000e+00 
4.0000001e-01 0.0000000e+00 0.0000000e+00 
6.0000002e-01 0.0000000e+00 0.0000000e+00 
8.0000001e-01 0.0000000e+00 0.0000000e+00 
1.0000000e+00 0.0000000e+00 0.0000000e+00 
1.2000000e+00 0.0000000e+00 0.0000000e+00 
1.4000000e+00 0.0000000e+00 0.0000000e+00 
1.6000000e+00 0.0000000e+00 0.0000000e+00 
1.8000000e+00 0.0000000e+00 0.0000000e+00 
2.0000000e+00 0.0000000e+00 0.0000000e+00 
2.2000000e+00 0.0000000e+00 0.0000000e+00 
2.4000001e+00 0.0000000e+00 0.0000000e+00 
2.5999999e+00 0.0000000e+00 0.0000000e+00 
2.8000000e+00 0.0000000e+00 0.0000000e+00 
3.0000000e+00 0.0000000e+00 0.0000000e+00 
3.2000000e+00 0.0000000e+00 0.0000000e+00 
3.4000001e+00 0.0000000e+00 0.0000000e+00 
3.5999999e+00 0.0000000e+00 0.0000000e+00 
3.8000000e+00 0.0000000e+00 0.0000000e+00 
4.0000000e+00 2.0000000e-01 0.0000000e+00 
4.0000000e+00 4.0000001e-01 0.0000000e+00 
4.0000000e+00 6.0000002e-01 0.0000000e+00 
4.0000000e+00 8.0000001e-01 0.0000000e+00 
3.8000000e+00 1.0000000e+00 0.0000000e+00 
3.5999999e+00 1.0000000e+00 0.0000000e+00 
3.4000001e+00 1.0000000e+00 0.0000000e+00 
3.2000000e+00 1.0000000e+00 0.0000000e+00 
3.0000000e+00 1.0000000e+00 0.0000000e+00 
2.8000000e+00 1.0000000e+00 0.0000000e+00 
2.5999999e+00 1.0000000e+00 0.0000000e+00 
2.4000001e+00 1.0000000e+00 0.0000000e+00 
2.2000000e+00 1.0000000e+00 0.0000000e+00 
2.0000000e+00 1.0000000e+00 0.0000000e+00 
1.8000000e+00 1.0000000e+00 0.0000000e+00 
1.6000000e+00 1.0000000e+00 0.0000000e+00 
1.4000000e+00 1.0000000e+00 0.0000000e+00 
1.2000000e+00 1.0000000e+00 0.0000000e+00 
1.0000000e+00 1.0000000e+00 0.0000000e+00 
8.0000001e-01 1.0000000e+00 0.0000000e+00 
6.0000002e-01 1.0000000e+00 0.0000000e+00 
4.0000001e-01 1.0000000e+00 0.0000000e+00 
2.0000000e-01 1.0000000e+00 0.0000000e+00 
0.0000000e+00 8.0000001e-01 0.0000000e+00 
0.0000000e+00 6.0000002e-01 0.0000000e+00 
0.0000000e+00 4.0000001e-01 0.0000000e+00 
0.0000000e+00 2.0000000e-01 0.0000000e+00 
2.3000000e+00 8.2679492e-01 0.0000000e+00 
2.7026610e+00 1.6839939e-01 0.0000000e+00 
3.2973390e+00 8.3160061e-01 0.0000000e+00 
1.4973390e+00 8.3160061e-01 0.0000000e+00 
6.9999999e-01 8.2679492e-01 0.0000000e+00 
1.1000000e+00 8.2679492e-01 0.0000000e+00 
1.9000000e+00 8.2679492e-01 0.0000000e+00 
3.5000000e+00 1.7320511e-01 0.0000000e+00 
5.1031393e-01 1.6354990e-01 0.0000000e+00 
2.0999999e+00 1.7320511e-01 0.0000000e+00 
2.9000001e+00 8.2679492e-01 0.0000000e+00 
3.0999999e+00 1.7320511e-01 0.0000000e+00 
8.9999998e-01 1.7320511e-01 0.0000000e+00 
1.3026609e+00 1.6839939e-01 0.0000000e+00 
1.7000000e+00 1.7320511e-01 0.0000000e+00 
3.8372450e+00 5.0966787e-01 0.0000000e+00 
1.6370660e-01 4.8866510e-01 0.0000000e+00 
3.6861150e+00 8.0809802e-01 0.0000000e+00 
3.0084750e-01 8.3064562e-01 0.0000000e+00 
2.5000000e+00 8.2679492e-01 0.0000000e+00 
2.4000001e+00 6.5686482e-01 0.0000000e+00 
2.5999999e+00 6.5413558e-01 0.0000000e+00 
2.1973391e+00 6.6568738e-01 0.0000000e+00 
2.4980991e+00 4.8908681e-01 0.0000000e+00 
2.7023439e+00 4.9347210e-01 0.0000000e+00 
2.4977820e+00 1.6759840e-01 0.0000000e+00 
3.6991520e+00 1.6935439e-01 0.0000000e+00 
3.6035600e+00 3.2941931e-01 0.0000000e+00 
3.4005930e+00 3.4357831e-01 0.0000000e+00 
3.5158091e+00 5.1572138e-01 0.0000000e+00 
3.3000519e+00 5.1056743e-01 0.0000000e+00 
2.2969689e+00 1.7073420e-01 0.0000000e+00 
2.1941719e+00 3.3966190e-01 0.0000000e+00 
1.9963670e+00 3.4374899e-01 0.0000000e+00 
1.8993950e+00 1.7276150e-01 0.0000000e+00 
2.7000000e+00 8.2688588e-01 0.0000000e+00 
1.5031050e+00 1.7086761e-01 0.0000000e+00 
1.6031790e+00 3.4448409e-01 0.0000000e+00 
1.2968950e+00 8.2913238e-01 0.0000000e+00 
1.1968210e+00 6.5551591e-01 0.0000000e+00 
9.9947017e-01 6.5391088e-01 0.0000000e+00 
1.1000000e+00 4.8038480e-01 0.0000000e+00 
8.9999998e-01 4.8038480e-01 0.0000000e+00 
1.2996221e+00 4.9228981e-01 0.0000000e+00 
7.9991168e-01 6.5364343e-01 0.0000000e+00 
6.9999999e-01 4.8038480e-01 0.0000000e+00 
5.9998530e-01 6.5359873e-01 0.0000000e+00 
4.8479331e-01 4.8141760e-01 0.0000000e+00 
3.9391199e-01 6.7074132e-01 0.0000000e+00 
1.8000000e+00 3.4641021e-01 0.0000000e+00 
1.7000000e+00 5.1961517e-01 0.0000000e+00 
1.5003330e+00 5.0912750e-01 0.0000000e+00 
1.8991500e+00 5.1739931e-01 0.0000000e+00 
6.9999999e-01 1.7320511e-01 0.0000000e+00 
1.6998380e+00 8.2946962e-01 0.0000000e+00 
3.4885681e+00 8.3318800e-01 0.0000000e+00 
4.9912411e-01 8.3029681e-01 0.0000000e+00 
1.1001620e+00 1.7053039e-01 0.0000000e+00 
2.0998850e+00 8.2817233e-01 0.0000000e+00 
8.9989698e-01 8.2685733e-01 0.0000000e+00 
1.6938210e-01 3.0011359e-01 0.0000000e+00 
2.9031050e+00 1.7086761e-01 0.0000000e+00 
3.0008280e+00 3.4420681e-01 0.0000000e+00 
3.0968950e+00 8.2913238e-01 0.0000000e+00 
2.9991720e+00 6.5579319e-01 0.0000000e+00 
2.8001289e+00 6.5661508e-01 0.0000000e+00 
3.3000989e+00 1.7273310e-01 0.0000000e+00 
3.2002621e+00 3.4070939e-01 0.0000000e+00 
3.8118999e+00 3.1613931e-01 0.0000000e+00 
3.8409591e+00 6.9520658e-01 0.0000000e+00 
3.1562439e-01 1.8911870e-01 0.0000000e+00 
1.8788280e-01 6.8363428e-01 0.0000000e+00 
3.1598091e-01 3.8581169e-01 0.0000000e+00 
3.6863050e+00 6.1217362e-01 0.0000000e+00 
2.3978369e+00 3.3231840e-01 0.0000000e+00 
2.8014901e+00 3.3396250e-01 0.0000000e+00 
3.1989100e+00 6.6671067e-01 0.0000000e+00 
2.0978379e+00 5.0662857e-01 0.0000000e+00 
1.4056220e+00 3.3585981e-01 0.0000000e+00 
1.3943681e+00 6.6447759e-01 0.0000000e+00 
3.3914380e+00 6.7400211e-01 0.0000000e+00 
1.5986460e+00 6.7124927e-01 0.0000000e+00 
2.6000249e+00 3.2966021e-01 0.0000000e+00 
1.7996060e+00 6.7296129e-01 0.0000000e+00 
1.2000000e+00 3.2679489e-01 0.0000000e+00 
1.0000000e+00 3.2679489e-01 0.0000000e+00 
8.0000001e-01 3.2679489e-01 0.0000000e+00 
6.0786378e-01 3.2318491e-01 0.0000000e+00 
2.2982481e+00 4.9884880e-01 0.0000000e+00 
2.9000001e+00 5.0003427e-01 0.0000000e+00 
3.0999999e+00 4.9996570e-01 0.0000000e+00 
2.0000000e+00 6.7323941e-01 0.0000000e+00 
1.4641020e-01 8.5358977e-01 0.0000000e+00 
3.8535900e+00 8.5358977e-01 0.0000000e+00 
3.8535900e+00 1.4641020e-01 0.0000000e+00 
1.4641020e-01 1.4641020e-01 0.0000000e+00 
3.5479529e+00 6.8622428e-01 0.0000000e+00 
4.4691530e-01 3.0861649e-01 0.0000000e+00 
3.0925509e-01 5.4205400e-01 0.0000000e+00 
3.6897500e+00 4.5812321e-01 0.0000000e+00 

CELLS 248 992
3 0 145 49
3 1 144 22
3 2 143 26
3 3 142 45
3 4 145 0
3 5 120 4
3 6 58 5
3 6 103 58
3 7 103 6
3 8 62 7
3 8 107 62
3 9 107 8
3 10 63 9
3 10 86 63
3 11 86 10
3 12 64 11
3 12 84 64
3 13 84 12
3 14 59 13
3 14 81 59
3 15 81 14
3 16 75 15
3 17 51 16
3 17 111 51
3 18 111 17
3 19 61 18
3 19 116 61
3 20 116 19
3 21 57 20
3 21 76 57
3 22 76 21
3 22 144 76
3 23 144 1
3 24 118 23
3 25 65 24
3 25 119 65
3 26 119 25
3 26 143 119
3 27 143 2
3 28 67 27
3 28 105 67
3 29 105 28
3 30 52 29
3 30 113 52
3 31 113 30
3 32 60 31
3 32 85 60
3 33 85 32
3 34 69 33
3 35 50 34
3 35 108 50
3 36 108 35
3 37 56 36
3 37 104 56
3 38 104 37
3 39 53 38
3 39 88 53
3 40 88 39
3 41 55 40
3 41 109 55
3 42 109 41
3 43 54 42
3 43 106 54
3 44 106 43
3 45 68 44
3 45 142 68
3 46 142 3
3 47 121 46
3 48 66 47
3 48 110 66
3 49 110 48
3 49 145 110
3 50 69 34
3 50 70 69
3 50 72 70
3 50 108 72
3 51 75 16
3 51 132 75
3 52 105 29
3 52 130 105
3 53 104 38
3 53 131 104
3 54 96 94
3 54 106 96
3 54 109 42
3 55 88 40
3 55 89 88
3 55 90 89
3 55 109 90
3 56 108 36
3 56 141 108
3 57 116 20
3 58 120 5
3 58 147 120
3 59 84 13
3 60 113 31
3 60 114 113
3 60 115 114
3 61 111 18
3 61 112 111
3 61 117 112
3 62 103 7
3 62 136 103
3 63 107 9
3 63 134 107
3 64 86 11
3 64 87 86
3 64 99 87
3 65 118 24
3 65 149 118
3 66 121 47
3 66 148 121
3 67 123 119
3 67 143 27
3 67 146 123
3 68 106 44
3 68 121 98
3 68 142 121
3 69 85 33
3 70 71 69
3 70 73 71
3 70 138 73
3 71 85 69
3 71 115 85
3 72 138 70
3 72 141 127
3 73 74 71
3 73 132 74
3 73 138 124
3 74 115 71
3 74 132 125
3 74 139 115
3 75 81 15
3 75 124 81
3 75 132 124
3 76 77 57
3 76 118 77
3 76 144 118
3 77 78 57
3 77 79 78
3 77 149 79
3 78 116 57
3 78 117 116
3 79 80 78
3 79 130 80
3 79 146 130
3 79 149 123
3 80 117 78
3 80 130 126
3 80 140 117
3 81 82 59
3 81 124 82
3 82 83 59
3 82 127 83
3 82 138 127
3 83 84 59
3 83 99 84
3 83 102 99
3 83 127 102
3 84 99 64
3 85 115 60
3 86 128 63
3 87 128 86
3 88 129 53
3 89 129 88
3 90 91 89
3 90 92 91
3 90 94 92
3 90 109 94
3 91 93 89
3 91 134 93
3 91 135 134
3 92 135 91
3 92 136 135
3 93 128 101
3 93 129 89
3 93 134 128
3 94 95 92
3 94 96 95
3 94 109 54
3 95 136 92
3 95 137 136
3 96 97 95
3 96 98 97
3 96 106 98
3 97 137 95
3 97 147 137
3 97 148 122
3 98 106 68
3 98 148 97
3 99 100 87
3 99 102 100
3 100 101 87
3 100 131 101
3 100 133 131
3 101 128 87
3 101 129 93
3 101 131 129
3 102 133 100
3 102 141 133
3 103 137 58
3 104 133 56
3 105 146 67
3 107 135 62
3 108 141 72
3 110 122 66
3 110 145 120
3 111 125 51
3 112 125 111
3 112 139 125
3 112 140 139
3 113 126 52
3 114 126 113
3 114 140 126
3 115 139 114
3 116 117 61
3 117 140 112
3 118 144 23
3 118 149 77
3 119 123 65
3 119 143 67
3 120 122 110
3 120 145 4
3 120 147 122
3 121 142 46
3 121 148 98
3 122 147 97
3 122 148 66
3 123 146 79
3 123 149 65
3 124 132 73
3 124 138 82
3 125 132 51
3 125 139 74
3 126 130 52
3 126 140 80
3 127 138 72
3 127 141 102
3 128 134 63
3 129 131 53
3 130 146 105
3 131 133 104
3 133 141 56
3 134 135 107
3 135 136 62
3 136 137 103
3 137 147 58
3 139 140 114

CELL_TYPES 248
5
5
5
5
5
5
5
5
5
5
5
5
5
5
5
5
5
5
5
5
5
5
5
5
5
5
5
5
5
5
5
5
5
5
5
5
5
5
5
5
5
5
5
5
5
5
5
5
5
5
5
5
5
5
5
5
5
5
5
5
5
5
5
5
5
5
5
5
5
5
5
5
5
5
5
5
5
5
5
5
5
5
5
5
5
5
5
5
5
5
5
5
5
5
5
5
5
5
5
5
5
5
5
5
5
5
5
5
5
5
5
5
5
5
5
5
5
5
5
5
5
5
5
5
5
5
5
5
5
5
5
5
5
5
5
5
5
5
5
5
5
5
5
5
5
5
5
5
5
5
5
5
5
5
5
5
5
5
5
5
5
5
5
5
5
5
5
5
5
5
5
5
5
5
5
5
5
5
5
5
5
5
5
5
5
5
5
5
5
5
5
5
5
5
5
5
5
5
5
5
5
5
5
5
5
5
5
5
5
5
5
5
5
5
5
5
5
5
5
5
5
5
5
5
5
5
5
5
5
5
5
5
5
5
5
5
5
5
5
5
5
5
5
5
5
5
5
5
POINT_DATA 150
FIELD FieldData 2
VELOCITY 3 150  float
1.0000000e+00 0.0000000e+00 0.0000000e+00 
1.0000000e+00 0.0000000e+00 0.0000000e+00 
1.0000000e+00 0.0000000e+00 0.0000000e+00 
1.0000000e+00 0.0000000e+00 0.0000000e+00 
1.0000000e+00 0.0000000e+00 0.0000000e+00 
1.0000000e+00 0.0000000e+00 0.0000000e+00 
1.0000000e+00 0.0000000e+00 0.0000000e+00 
1.0000000e+00 0.0000000e+00 0.0000000e+00 
1.0000000e+00 0.0000000e+00 0.0000000e+00 
1.0000000e+00 0.0000000e+00 0.0000000e+00 
1.0000000e+00 0.0000000e+00 0.0000000e+00 
1.0000000e+00 0.0000000e+00 0.0000000e+00 
1.0000000e+00 0.0000000e+00 0.0000000e+00 
1.0000000e+00 0.0000000e+00 0.0000000e+00 
1.0000000e+00 0.0000000e+00 0.0000000e+00 
1.0000000e+00 0.0000000e+00 0.0000000e+00 
1.0000000e+00 0.0000000e+00 0.0000000e+00 
1.0000000e+00 0.0000000e+00 0.0000000e+00 
1.0000000e+00 0.0000000e+00 0.0000000e+00 
1.0000000e+00 0.0000000e+00 0.0000000e+00 
1.0000000e+00 0.0000000e+00 0.0000000e+00 
1.0000000e+00 0.0000000e+00 0.0000000e+00 
1.0000000e+00 0.0000000e+00 0.0000000e+00 
1.0000000e+00 -1.5154694e-16 0.0000000e+00 
1.0000000e+00 -6.5892407e-17 0.0000000e+00 
1.0000000e+00 -7.4635130e-17 0.0000000e+00 
1.0000000e+00 -3.5273556e-17 0.0000000e+00 
1.0000000e+00 0.0000000e+00 0.0000000e+00 
1.0000000e+00 0.0000000e+00 0.0000000e+00 
1.0000000e+00 0.0000000e+00 0.0000000e+00 
1.0000000e+00 0.0000000e+00 0.0000000e+00 
1.0000000e+00 0.0000000e+00 0.0000000e+00 
1.0000000e+00 0.0000000e+00 0.0000000e+00 
1.0000000e+00 0.0000000e+00 0.0000000e+00 
1.0000000e+00 0.0000000e+00 0.0000000e+00 
1.0000000e+00 0.0000000e+00 0.0000000e+00 
1.0000000e+00 0.0000000e+00 0.0000000e+00 
1.0000000e+00 0.0000000e+00 0.0000000e+00 
1.0000000e+00 0.0000000e+00 0.0000000e+00 
1.0000000e+00 0.0000000e+00 0.0000000e+00 
1.0000000e+00 0.0000000e+00 0.0000000e+00 
1.0000000e+00 0.0000000e+00 0.0000000e+00 
1.0000000e+00 0.0000000e+00 0.0000000e+00 
1.0000000e+00 0.0000000e+00 0.0000000e+00 
1.0000000e+00 0.0000000e+00 0.0000000e+00 
1.0000000e+00 0.0000000e+00 0.0000000e+00 
1.0000000e+00 0.0000000e+00 0.0000000e+00 
1.0000000e+00 0.0000000e+00 0.0000000e+00 
1.0000000e+00 0.0000000e+00 0.0000000e+00 
1.0000000e+00 0.0000000e+00 0.0000000e+00 
1.0000000e+00 1.5782503e-16 0.0000000e+00 
1.0000000e+00 1.1094432e-16 0.0000000e+00 
1.0000000e+00 -1.3710295e-16 0.0000000e+00 
1.0000000e+00 -5.0052860e-16 0.0000000e+00 
1.0000000e+00 -1.4866627e-16 0.0000000e+00 
1.0000000e+00 -2.0503948e-18 0.0000000e+00 
1.0000000e+00 3.0375372e-16 0.0000000e+00 
1.0000000e+00 1.9725511e-16 0.0000000e+00 
1.0000000e+00 -1.6928902e-16 0.0000000e+00 
1.0000000e+00 -5.9174364e-17 0.0000000e+00 
1.0000000e+00 4.3009331e-16 0.0000000e+00 
1.0000000e+00 2.3081179e-16 0.0000000e+00 
1.0000000e+00 -4.0009996e-16 0.0000000e+00 
1.0000000e+00 -8.4862171e-18 0.0000000e+00 
1.0000000e+00 3.2529220e-16 0.0000000e+00 
1.0000000e+00 -1.5231623e-16 0.0000000e+00 
1.0000000e+00 -2.5997757e-17 0.0000000e+00 
1.0000000e+00 1.7413014e-17 0.0000000e+00 
1.0000000e+00 -1.0624854e-17 0.0000000e+00 
1.0000000e+00 1.7755842e-16 0.0000000e+00 
1.0000000e+00 1.0354947e-16 0.0000000e+00 
1.0000000e+00 2.9424257e-16 0.0000000e+00 
1.0000000e+00 2.9532611e-16 0.0000000e+00 
1.0000000e+00 2.0645345e-16 0.0000000e+00 
1.0000000e+00 3.2232060e-16 0.0000000e+00 
1.0000000e+00 1.3356352e-16 0.0000000e+00 
1.0000000e+00 1.0739345e-16 0.0000000e+00 
1.0000000e+00 1.4082938e-16 0.0000000e+00 
1.0000000e+00 3.9741325e-16 0.0000000e+00 
1.0000000e+00 9.4984369e-17 0.0000000e+00 
1.0000000e+00 3.4259669e-16 0.0000000e+00 
1.0000000e+00 -6.1337057e-17 0.0000000e+00 
1.0000000e+00 -1.7776695e-16 0.0000000e+00 
1.0000000e+00 -5.9796906e-17 0.0000000e+00 
1.0000000e+00 1.1786546e-16 0.0000000e+00 
1.0000000e+00 3.8846456e-16 0.0000000e+00 
1.0000000e+00 3.8097210e-16 0.0000000e+00 
1.0000000e+00 2.6556318e-17 0.0000000e+00 
1.0000000e+00 -4.0838100e-16 0.0000000e+00 
1.0000000e+00 -2.8296020e-16 0.0000000e+00 
1.0000000e+00 1.0499109e-16 0.0000000e+00 
1.0000000e+00 -2.0398977e-16 0.0000000e+00 
1.0000000e+00 1.7905677e-16 0.0000000e+00 
1.0000000e+00 -5.3343763e-16 0.0000000e+00 
1.0000000e+00 9.1292622e-17 0.0000000e+00 
1.0000000e+00 1.7759102e-16 0.0000000e+00 
1.0000000e+00 -4.6629495e-17 0.0000000e+00 
1.0000000e+00 1.4568068e-16 0.0000000e+00 
1.0000000e+00 -8.9181128e-17 0.0000000e+00 
1.0000000e+00 1.3599805e-16 0.0000000e+00 
1.0000000e+00 -2.3807132e-16 0.0000000e+00 
1.0000000e+00 -5.4404217e-16 0.0000000e+00 
1.0000000e+00 7.4285670e-17 0.0000000e+00 
1.0000000e+00 -2.3688661e-16 0.0000000e+00 
1.0000000e+00 -8.7451180e-18 0.0000000e+00 
1.0000000e+00 -5.9854399e-17 0.0000000e+00 
1.0000000e+00 -1.5354326e-16 0.0000000e+00 
1.0000000e+00 -2.8528408e-16 0.0000000e+00 
1.0000000e+00 4.6413403e-16 0.0000000e+00 
1.0000000e+00 4.5658917e-17 0.0000000e+00 
1.0000000e+00 5.8114997e-17 0.0000000e+00 
1.0000000e+00 2.0693686e-16 0.0000000e+00 
1.0000000e+00 3.6254355e-16 0.0000000e+00 
1.0000000e+00 -2.4828251e-17 0.0000000e+00 
1.0000000e+00 3.6710731e-16 0.0000000e+00 
1.0000000e+00 4.2470319e-16 0.0000000e+00 
1.0000000e+00 2.6517896e-16 0.0000000e+00 
1.0000000e+00 4.5410294e-16 0.0000000e+00 
1.0000000e+00 -7.4454368e-17 0.0000000e+00 
1.0000000e+00 -7.9622871e-17 0.0000000e+00 
1.0000000e+00 2.9151234e-17 0.0000000e+00 
1.0000000e+00 7.6336403e-17 0.0000000e+00 
1.0000000e+00 1.0840847e-16 0.0000000e+00 
1.0000000e+00 -2.0841734e-16 0.0000000e+00 
1.0000000e+00 6.1082669e-17 0.0000000e+00 
1.0000000e+00 3.1438779e-16 0.0000000e+00 
1.0000000e+00 7.7384057e-17 0.0000000e+00 
1.0000000e+00 -5.7747800e-19 0.0000000e+00 
1.0000000e+00 -2.7781932e-16 0.0000000e+00 
1.0000000e+00 -6.5964988e-16 0.0000000e+00 
1.0000000e+00 -8.3284912e-17 0.0000000e+00 
1.0000000e+00 -4.7787169e-16 0.0000000e+00 
1.0000000e+00 2.1137314e-16 0.0000000e+00 
1.0000000e+00 1.6873655e-16 0.0000000e+00 
1.0000000e+00 -4.2333995e-16 0.0000000e+00 
1.0000000e+00 -2.3914056e-16 0.0000000e+00 
1.0000000e+00 -8.9423823e-17 0.0000000e+00 
1.0000000e+00 -8.2470536e-18 0.0000000e+00 
1.0000000e+00 1.0228620e-16 0.0000000e+00 
1.0000000e+00 3.4775406e-16 0.0000000e+00 
1.0000000e+00 4.6398538e-16 0.0000000e+00 
1.0000000e+00 4.8030103e-16 0.0000000e+00 
1.0000000e+00 -7.6594021e-18 0.0000000e+00 
1.0000000e+00 -1.0201654e-16 0.0000000e+00 
1.0000000e+00 1.0499625e-16 0.0000000e+00 
1.0000000e+00 -6.1699911e-17 0.0000000e+00 
1.0000000e+00 -1.7792243e-17 0.0000000e+00 
1.0000000e+00 2.7844233e-17 0.0000000e+00 
1.0000000e+00 -1.5340483e-17 0.0000000e+00 
1.0000000e+00 -7.9894861e-17 0.0000000e+00 
PRESSURE 1 150  float
1.8189892e-06
0.0000000e+00
0.0000000e+00
1.8189892e-06
1.7280395e-06
1.6370902e-06
1.5461409e-06
1.4551915e-06
1.3642419e-06
1.2732925e-06
1.1823427e-06
1.0913934e-06
1.0004436e-06
9.0949385e-07
8.1854427e-07
7.2759445e-07
6.3664498e-07
5.4569546e-07
4.5474641e-07
3.6379669e-07
2.7284759e-07
1.8189860e-07
9.0949392e-08
0.0000000e+00
0.0000000e+00
0.0000000e+00
0.0000000e+00
9.0949051e-08
1.8189822e-07
2.7284736e-07
3.6379683e-07
4.5474610e-07
5.4569597e-07
6.3664504e-07
7.2759445e-07
8.1854404e-07
9.0949396e-07
1.0004436e-06
1.0913932e-06
1.1823431e-06
1.2732927e-06
1.3642424e-06
1.4551918e-06
1.5461410e-06
1.6370905e-06
1.7280398e-06
1.8189892e-06
1.8189891e-06
1.8189891e-06
1.8189892e-06
7.7306925e-07
5.8996017e-07
3.1953232e-07
1.1380783e-06
1.5006661e-06
1.3187674e-06
9.5496887e-07
2.2737305e-07
1.5869252e-06
8.6401906e-07
5.0022112e-07
4.0927148e-07
1.4097167e-06
1.2266072e-06
1.0459186e-06
7.4012071e-08
1.7445439e-06
1.4273780e-07
1.6821797e-06
6.8211978e-07
7.2759445e-07
6.3664521e-07
8.1975395e-07
6.8298425e-07
5.9010438e-07
6.8312841e-07
1.3680962e-07
1.8027940e-07
2.7257806e-07
2.2018384e-07
3.1829862e-07
7.7444764e-07
8.2119453e-07
9.1114583e-07
9.5524388e-07
5.9117048e-07
1.1354559e-06
1.0899475e-06
1.2292297e-06
1.2747383e-06
1.3644830e-06
1.3187671e-06
1.4097166e-06
1.2279896e-06
1.4552314e-06
1.5006659e-06
1.5461477e-06
1.5985307e-06
1.6398587e-06
1.0004434e-06
1.0459185e-06
1.1367165e-06
9.5535518e-07
1.5006661e-06
1.0459922e-06
2.3257151e-07
1.5920141e-06
1.3186935e-06
8.6407130e-07
1.4097637e-06
1.7419629e-06
4.9880896e-07
4.5436983e-07
4.1068347e-07
4.5512274e-07
5.4563714e-07
3.1827710e-07
3.6367771e-07
8.5537771e-08
7.2323004e-08
1.6754598e-06
1.7335500e-06
1.6752975e-06
1.4265130e-07
7.2857819e-07
5.4501783e-07
3.6429250e-07
8.6500228e-07
1.1797861e-06
1.1849041e-06
2.7674110e-07
1.0920090e-06
6.3663373e-07
1.0006227e-06
1.2732924e-06
1.3642419e-06
1.4551913e-06
1.5425647e-06
7.7386602e-07
5.0022084e-07
4.0927179e-07
9.0949379e-07
1.7524095e-06
6.6579013e-08
6.6579524e-08
1.7524094e-06
2.0556632e-07
1.6157557e-06
1.6783561e-06
1.4108470e-07
CELL_DATA 248
FIELD FieldData 0
