# vtk DataFile Version 4.0
vtk output
ASCII
DATASET UNSTRUCTURED_GRID
POINTS 55 float
0.0000000e+00 0.0000000e+00 0.0000000e+00 
1.0000000e-01 0.0000000e+00 0.0000000e+00 
2.0000000e-01 0.0000000e+00 0.0000000e+00 
3.0000001e-01 0.0000000e+00 0.0000000e+00 
4.0000001e-01 0.0000000e+00 0.0000000e+00 
5.0000000e-01 0.0000000e+00 0.0000000e+00 
6.0000002e-01 0.0000000e+00 0.0000000e+00 
6.9999999e-01 0.0000000e+00 0.0000000e+00 
8.0000001e-01 0.0000000e+00 0.0000000e+00 
8.9999998e-01 0.0000000e+00 0.0000000e+00 
1.0000000e+00 0.0000000e+00 0.0000000e+00 
0.0000000e+00 5.0000001e-02 0.0000000e+00 
1.0000000e-01 5.0000001e-02 0.0000000e+00 
2.0000000e-01 5.0000001e-02 0.0000000e+00 
3.0000001e-01 5.0000001e-02 0.0000000e+00 
4.0000001e-01 5.0000001e-02 0.0000000e+00 
5.0000000e-01 5.0000001e-02 0.0000000e+00 
6.0000002e-01 5.0000001e-02 0.0000000e+00 
6.9999999e-01 5.0000001e-02 0.0000000e+00 
8.0000001e-01 5.0000001e-02 0.0000000e+00 
8.9999998e-01 5.0000001e-02 0.0000000e+00 
1.0000000e+00 5.0000001e-02 0.0000000e+00 
0.0000000e+00 1.0000000e-01 0.0000000e+00 
1.0000000e-01 1.0000000e-01 0.0000000e+00 
2.0000000e-01 1.0000000e-01 0.0000000e+00 
3.0000001e-01 1.0000000e-01 0.0000000e+00 
4.0000001e-01 1.0000000e-01 0.0000000e+00 
5.0000000e-01 1.0000000e-01 0.0000000e+00 
6.0000002e-01 1.0000000e-01 0.0000000e+00 
6.9999999e-01 1.0000000e-01 0.0000000e+00 
8.0000001e-01 1.0000000e-01 0.0000000e+00 
8.9999998e-01 1.0000000e-01 0.0000000e+00 
1.0000000e+00 1.0000000e-01 0.0000000e+00 
0.0000000e+00 1.5000001e-01 0.0000000e+00 
1.0000000e-01 1.5000001e-01 0.0000000e+00 
2.0000000e-01 1.5000001e-01 0.0000000e+00 
3.0000001e-01 1.5000001e-01 0.0000000e+00 
4.0000001e-01 1.5000001e-01 0.0000000e+00 
5.0000000e-01 1.5000001e-01 0.0000000e+00 
6.0000002e-01 1.5000001e-01 0.0000000e+00 
6.9999999e-01 1.5000001e-01 0.0000000e+00 
8.0000001e-01 1.5000001e-01 0.0000000e+00 
8.9999998e-01 1.5000001e-01 0.0000000e+00 
1.0000000e+00 1.5000001e-01 0.0000000e+00 
0.0000000e+00 2.0000000e-01 0.0000000e+00 
1.0000000e-01 2.0000000e-01 0.0000000e+00 
2.0000000e-01 2.0000000e-01 0.0000000e+00 
3.0000001e-01 2.0000000e-01 0.0000000e+00 
4.0000001e-01 2.0000000e-01 0.0000000e+00 
5.0000000e-01 2.0000000e-01 0.0000000e+00 
6.0000002e-01 2.0000000e-01 0.0000000e+00 
6.9999999e-01 2.0000000e-01 0.0000000e+00 
8.0000001e-01 2.0000000e-01 0.0000000e+00 
8.9999998e-01 2.0000000e-01 0.0000000e+00 
1.0000000e+00 2.0000000e-01 0.0000000e+00 

CELLS 40 200
4 0 1 12 11
4 1 2 13 12
4 2 3 14 13
4 3 4 15 14
4 4 5 16 15
4 5 6 17 16
4 6 7 18 17
4 7 8 19 18
4 8 9 20 19
4 9 10 21 20
4 11 12 23 22
4 12 13 24 23
4 13 14 25 24
4 14 15 26 25
4 15 16 27 26
4 16 17 28 27
4 17 18 29 28
4 18 19 30 29
4 19 20 31 30
4 20 21 32 31
4 22 23 34 33
4 23 24 35 34
4 24 25 36 35
4 25 26 37 36
4 26 27 38 37
4 27 28 39 38
4 28 29 40 39
4 29 30 41 40
4 30 31 42 41
4 31 32 43 42
4 33 34 45 44
4 34 35 46 45
4 35 36 47 46
4 36 37 48 47
4 37 38 49 48
4 38 39 50 49
4 39 40 51 50
4 40 41 52 51
4 41 42 53 52
4 42 43 54 53

CELL_TYPES 40
9
9
9
9
9
9
9
9
9
9
9
9
9
9
9
9
9
9
9
9
9
9
9
9
9
9
9
9
9
9
9
9
9
9
9
9
9
9
9
9
POINT_DATA 55
FIELD FieldData 2
DISPLACEMENT 3 55  float
0.0000000e+00 0.0000000e+00 0.0000000e+00 
-2.1381469e-05 -1.6541850e-05 0.0000000e+00 
-4.1386196e-05 -4.9489812e-05 0.0000000e+00 
-5.9105172e-05 -1.0196929e-04 0.0000000e+00 
-7.4449286e-05 -1.7089745e-04 0.0000000e+00 
-8.7428867e-05 -2.5399850e-04 0.0000000e+00 
-9.8050798e-05 -3.4889783e-04 0.0000000e+00 
-1.0631202e-04 -4.5323922e-04 0.0000000e+00 
-1.1220962e-04 -5.6466478e-04 0.0000000e+00 
-1.1575609e-04 -6.8076496e-04 0.0000000e+00 
-1.1704612e-04 -7.9957047e-04 0.0000000e+00 
0.0000000e+00 0.0000000e+00 0.0000000e+00 
-9.9229301e-06 -1.2461517e-05 0.0000000e+00 
-2.0405356e-05 -4.6556488e-05 0.0000000e+00 
-2.9190795e-05 -9.9296980e-05 0.0000000e+00 
-3.6864967e-05 -1.6862524e-04 0.0000000e+00 
-4.3356722e-05 -2.5210087e-04 0.0000000e+00 
-4.8667018e-05 -3.4738070e-04 0.0000000e+00 
-5.2796982e-05 -4.5210173e-04 0.0000000e+00 
-5.5753804e-05 -5.6390080e-04 0.0000000e+00 
-5.7489327e-05 -6.8042724e-04 0.0000000e+00 
-5.8121059e-05 -7.9934200e-04 0.0000000e+00 
0.0000000e+00 0.0000000e+00 0.0000000e+00 
6.8868540e-19 -1.1202816e-05 0.0000000e+00 
-5.3464368e-18 -4.5505007e-05 0.0000000e+00 
-2.7031650e-17 -9.8432043e-05 0.0000000e+00 
1.0464922e-16 -1.6786106e-04 0.0000000e+00 
6.7963404e-16 -2.5146981e-04 0.0000000e+00 
-1.5981140e-15 -3.4687491e-04 0.0000000e+00 
-1.9029496e-14 -4.5172186e-04 0.0000000e+00 
3.1060840e-14 -5.6364620e-04 0.0000000e+00 
4.1084557e-13 -6.8032934e-04 0.0000000e+00 
1.6971344e-14 -7.9920352e-04 0.0000000e+00 
0.0000000e+00 0.0000000e+00 0.0000000e+00 
9.9229301e-06 -1.2461517e-05 0.0000000e+00 
2.0405356e-05 -4.6556488e-05 0.0000000e+00 
2.9190795e-05 -9.9296980e-05 0.0000000e+00 
3.6864967e-05 -1.6862524e-04 0.0000000e+00 
4.3356722e-05 -2.5210087e-04 0.0000000e+00 
4.8667018e-05 -3.4738070e-04 0.0000000e+00 
5.2796982e-05 -4.5210173e-04 0.0000000e+00 
5.5753804e-05 -5.6390080e-04 0.0000000e+00 
5.7489327e-05 -6.8042724e-04 0.0000000e+00 
5.8121059e-05 -7.9934200e-04 0.0000000e+00 
0.0000000e+00 0.0000000e+00 0.0000000e+00 
2.1381469e-05 -1.6541850e-05 0.0000000e+00 
4.1386196e-05 -4.9489812e-05 0.0000000e+00 
5.9105172e-05 -1.0196929e-04 0.0000000e+00 
7.4449286e-05 -1.7089745e-04 0.0000000e+00 
8.7428867e-05 -2.5399850e-04 0.0000000e+00 
9.8050798e-05 -3.4889783e-04 0.0000000e+00 
1.0631202e-04 -4.5323922e-04 0.0000000e+00 
1.1220962e-04 -5.6466478e-04 0.0000000e+00 
1.1575609e-04 -6.8076496e-04 0.0000000e+00 
1.1704612e-04 -7.9957047e-04 0.0000000e+00 
REACTION 3 55  float
1.3947162e+06 6.3884919e+05 0.0000000e+00 
-2.3283064e-10 -6.1118044e-10 0.0000000e+00 
-1.1641532e-09 1.8408173e-09 0.0000000e+00 
-1.2805685e-09 1.8189894e-11 0.0000000e+00 
3.2596290e-09 3.1250238e-09 0.0000000e+00 
-2.5611371e-09 -2.3035682e-08 0.0000000e+00 
-3.1432137e-09 -4.2007741e-08 0.0000000e+00 
6.9849193e-09 8.4110070e-09 0.0000000e+00 
2.3865141e-09 1.4340912e-08 0.0000000e+00 
-2.3865141e-09 -8.3222403e-08 0.0000000e+00 
-3.7061909e-09 1.4028820e-01 0.0000000e+00 
1.2105682e+06 -2.9122312e+05 0.0000000e+00 
-1.3969839e-09 -1.3533281e-09 0.0000000e+00 
2.3283064e-09 -6.9849193e-10 0.0000000e+00 
-2.5611371e-09 -8.8621164e-09 0.0000000e+00 
1.1059456e-09 5.9226295e-09 0.0000000e+00 
-4.9476512e-09 2.2409949e-08 0.0000000e+00 
1.7462298e-10 -1.8044375e-09 0.0000000e+00 
1.2223609e-09 -3.1643140e-08 0.0000000e+00 
-3.2014214e-09 1.0222720e-08 0.0000000e+00 
-1.9645086e-08 -3.5186531e-08 0.0000000e+00 
6.6065695e-09 2.3483777e-01 0.0000000e+00 
-6.7295332e-08 -2.9525209e+05 0.0000000e+00 
1.1641532e-10 -2.3283064e-10 0.0000000e+00 
-0.0000000e+00 -4.5547495e-09 0.0000000e+00 
-1.9499566e-09 1.4406396e-09 0.0000000e+00 
5.8207661e-11 9.7788870e-09 0.0000000e+00 
-2.5320332e-09 -1.2412784e-08 0.0000000e+00 
4.8312359e-09 -1.2660166e-08 0.0000000e+00 
-9.2695700e-09 -5.5442797e-09 0.0000000e+00 
-1.1292286e-08 -1.3096724e-09 0.0000000e+00 
3.3178367e-09 1.1670636e-08 0.0000000e+00 
8.6729415e-09 5.0674021e-02 0.0000000e+00 
-1.2105682e+06 -2.9122312e+05 0.0000000e+00 
8.1490725e-10 9.0221874e-10 0.0000000e+00 
7.5669959e-10 -2.6338967e-09 0.0000000e+00 
-3.4924597e-10 1.4901161e-08 0.0000000e+00 
-2.4447218e-09 -1.8211722e-08 0.0000000e+00 
1.1350494e-08 -6.5556378e-09 0.0000000e+00 
-3.2596290e-09 -2.2700988e-08 0.0000000e+00 
3.6234269e-09 -1.3009412e-08 0.0000000e+00 
-3.2159733e-09 2.2511813e-08 0.0000000e+00 
-1.2303644e-08 -8.0202881e-08 0.0000000e+00 
9.5460564e-09 -1.3207994e-01 0.0000000e+00 
-1.3947162e+06 6.3884919e+05 0.0000000e+00 
2.3283064e-10 -4.8021320e-10 0.0000000e+00 
-1.3969839e-09 2.7503120e-09 0.0000000e+00 
1.3969839e-09 -4.8021320e-09 0.0000000e+00 
-8.1490725e-10 1.9965228e-08 0.0000000e+00 
1.1757948e-08 -1.3751560e-08 0.0000000e+00 
9.3132257e-10 8.0399332e-09 0.0000000e+00 
1.4842954e-08 9.9462341e-09 0.0000000e+00 
-1.1990778e-08 3.4477125e-08 0.0000000e+00 
-8.7311491e-10 -7.2559487e-09 0.0000000e+00 
-2.4028850e-09 -8.8204429e-02 0.0000000e+00 
CELL_DATA 40
FIELD FieldData 0
