# vtk DataFile Version 4.0
vtk output
ASCII
DATASET UNSTRUCTURED_GRID
POINTS 121 float
0.0000000e+00 0.0000000e+00 0.0000000e+00 
1.0000000e-01 0.0000000e+00 0.0000000e+00 
2.0000000e-01 0.0000000e+00 0.0000000e+00 
3.0000001e-01 0.0000000e+00 0.0000000e+00 
4.0000001e-01 0.0000000e+00 0.0000000e+00 
5.0000000e-01 0.0000000e+00 0.0000000e+00 
6.0000002e-01 0.0000000e+00 0.0000000e+00 
6.9999999e-01 0.0000000e+00 0.0000000e+00 
8.0000001e-01 0.0000000e+00 0.0000000e+00 
8.9999998e-01 0.0000000e+00 0.0000000e+00 
1.0000000e+00 0.0000000e+00 0.0000000e+00 
0.0000000e+00 1.0000000e-01 0.0000000e+00 
1.0000000e-01 1.0000000e-01 0.0000000e+00 
2.0000000e-01 1.0000000e-01 0.0000000e+00 
3.0000001e-01 1.0000000e-01 0.0000000e+00 
4.0000001e-01 1.0000000e-01 0.0000000e+00 
5.0000000e-01 1.0000000e-01 0.0000000e+00 
6.0000002e-01 1.0000000e-01 0.0000000e+00 
6.9999999e-01 1.0000000e-01 0.0000000e+00 
8.0000001e-01 1.0000000e-01 0.0000000e+00 
8.9999998e-01 1.0000000e-01 0.0000000e+00 
1.0000000e+00 1.0000000e-01 0.0000000e+00 
0.0000000e+00 2.0000000e-01 0.0000000e+00 
1.0000000e-01 2.0000000e-01 0.0000000e+00 
2.0000000e-01 2.0000000e-01 0.0000000e+00 
3.0000001e-01 2.0000000e-01 0.0000000e+00 
4.0000001e-01 2.0000000e-01 0.0000000e+00 
5.0000000e-01 2.0000000e-01 0.0000000e+00 
6.0000002e-01 2.0000000e-01 0.0000000e+00 
6.9999999e-01 2.0000000e-01 0.0000000e+00 
8.0000001e-01 2.0000000e-01 0.0000000e+00 
8.9999998e-01 2.0000000e-01 0.0000000e+00 
1.0000000e+00 2.0000000e-01 0.0000000e+00 
0.0000000e+00 3.0000001e-01 0.0000000e+00 
1.0000000e-01 3.0000001e-01 0.0000000e+00 
2.0000000e-01 3.0000001e-01 0.0000000e+00 
3.0000001e-01 3.0000001e-01 0.0000000e+00 
4.0000001e-01 3.0000001e-01 0.0000000e+00 
5.0000000e-01 3.0000001e-01 0.0000000e+00 
6.0000002e-01 3.0000001e-01 0.0000000e+00 
6.9999999e-01 3.0000001e-01 0.0000000e+00 
8.0000001e-01 3.0000001e-01 0.0000000e+00 
8.9999998e-01 3.0000001e-01 0.0000000e+00 
1.0000000e+00 3.0000001e-01 0.0000000e+00 
0.0000000e+00 4.0000001e-01 0.0000000e+00 
1.0000000e-01 4.0000001e-01 0.0000000e+00 
2.0000000e-01 4.0000001e-01 0.0000000e+00 
3.0000001e-01 4.0000001e-01 0.0000000e+00 
4.0000001e-01 4.0000001e-01 0.0000000e+00 
5.0000000e-01 4.0000001e-01 0.0000000e+00 
6.0000002e-01 4.0000001e-01 0.0000000e+00 
6.9999999e-01 4.0000001e-01 0.0000000e+00 
8.0000001e-01 4.0000001e-01 0.0000000e+00 
8.9999998e-01 4.0000001e-01 0.0000000e+00 
1.0000000e+00 4.0000001e-01 0.0000000e+00 
0.0000000e+00 5.0000000e-01 0.0000000e+00 
1.0000000e-01 5.0000000e-01 0.0000000e+00 
2.0000000e-01 5.0000000e-01 0.0000000e+00 
3.0000001e-01 5.0000000e-01 0.0000000e+00 
4.0000001e-01 5.0000000e-01 0.0000000e+00 
5.0000000e-01 5.0000000e-01 0.0000000e+00 
6.0000002e-01 5.0000000e-01 0.0000000e+00 
6.9999999e-01 5.0000000e-01 0.0000000e+00 
8.0000001e-01 5.0000000e-01 0.0000000e+00 
8.9999998e-01 5.0000000e-01 0.0000000e+00 
1.0000000e+00 5.0000000e-01 0.0000000e+00 
0.0000000e+00 6.0000002e-01 0.0000000e+00 
1.0000000e-01 6.0000002e-01 0.0000000e+00 
2.0000000e-01 6.0000002e-01 0.0000000e+00 
3.0000001e-01 6.0000002e-01 0.0000000e+00 
4.0000001e-01 6.0000002e-01 0.0000000e+00 
5.0000000e-01 6.0000002e-01 0.0000000e+00 
6.0000002e-01 6.0000002e-01 0.0000000e+00 
6.9999999e-01 6.0000002e-01 0.0000000e+00 
8.0000001e-01 6.0000002e-01 0.0000000e+00 
8.9999998e-01 6.0000002e-01 0.0000000e+00 
1.0000000e+00 6.0000002e-01 0.0000000e+00 
0.0000000e+00 6.9999999e-01 0.0000000e+00 
1.0000000e-01 6.9999999e-01 0.0000000e+00 
2.0000000e-01 6.9999999e-01 0.0000000e+00 
3.0000001e-01 6.9999999e-01 0.0000000e+00 
4.0000001e-01 6.9999999e-01 0.0000000e+00 
5.0000000e-01 6.9999999e-01 0.0000000e+00 
6.0000002e-01 6.9999999e-01 0.0000000e+00 
6.9999999e-01 6.9999999e-01 0.0000000e+00 
8.0000001e-01 6.9999999e-01 0.0000000e+00 
8.9999998e-01 6.9999999e-01 0.0000000e+00 
1.0000000e+00 6.9999999e-01 0.0000000e+00 
0.0000000e+00 8.0000001e-01 0.0000000e+00 
1.0000000e-01 8.0000001e-01 0.0000000e+00 
2.0000000e-01 8.0000001e-01 0.0000000e+00 
3.0000001e-01 8.0000001e-01 0.0000000e+00 
4.0000001e-01 8.0000001e-01 0.0000000e+00 
5.0000000e-01 8.0000001e-01 0.0000000e+00 
6.0000002e-01 8.0000001e-01 0.0000000e+00 
6.9999999e-01 8.0000001e-01 0.0000000e+00 
8.0000001e-01 8.0000001e-01 0.0000000e+00 
8.9999998e-01 8.0000001e-01 0.0000000e+00 
1.0000000e+00 8.0000001e-01 0.0000000e+00 
0.0000000e+00 8.9999998e-01 0.0000000e+00 
1.0000000e-01 8.9999998e-01 0.0000000e+00 
2.0000000e-01 8.9999998e-01 0.0000000e+00 
3.0000001e-01 8.9999998e-01 0.0000000e+00 
4.0000001e-01 8.9999998e-01 0.0000000e+00 
5.0000000e-01 8.9999998e-01 0.0000000e+00 
6.0000002e-01 8.9999998e-01 0.0000000e+00 
6.9999999e-01 8.9999998e-01 0.0000000e+00 
8.0000001e-01 8.9999998e-01 0.0000000e+00 
8.9999998e-01 8.9999998e-01 0.0000000e+00 
1.0000000e+00 8.9999998e-01 0.0000000e+00 
0.0000000e+00 1.0000000e+00 0.0000000e+00 
1.0000000e-01 1.0000000e+00 0.0000000e+00 
2.0000000e-01 1.0000000e+00 0.0000000e+00 
3.0000001e-01 1.0000000e+00 0.0000000e+00 
4.0000001e-01 1.0000000e+00 0.0000000e+00 
5.0000000e-01 1.0000000e+00 0.0000000e+00 
6.0000002e-01 1.0000000e+00 0.0000000e+00 
6.9999999e-01 1.0000000e+00 0.0000000e+00 
8.0000001e-01 1.0000000e+00 0.0000000e+00 
8.9999998e-01 1.0000000e+00 0.0000000e+00 
1.0000000e+00 1.0000000e+00 0.0000000e+00 

CELLS 200 800
3 0 1 12
3 0 12 11
3 1 2 13
3 1 13 12
3 2 3 14
3 2 14 13
3 3 4 15
3 3 15 14
3 4 5 16
3 4 16 15
3 5 6 17
3 5 17 16
3 6 7 18
3 6 18 17
3 7 8 19
3 7 19 18
3 8 9 20
3 8 20 19
3 9 10 21
3 9 21 20
3 11 12 23
3 11 23 22
3 12 13 24
3 12 24 23
3 13 14 25
3 13 25 24
3 14 15 26
3 14 26 25
3 15 16 27
3 15 27 26
3 16 17 28
3 16 28 27
3 17 18 29
3 17 29 28
3 18 19 30
3 18 30 29
3 19 20 31
3 19 31 30
3 20 21 32
3 20 32 31
3 22 23 34
3 22 34 33
3 23 24 35
3 23 35 34
3 24 25 36
3 24 36 35
3 25 26 37
3 25 37 36
3 26 27 38
3 26 38 37
3 27 28 39
3 27 39 38
3 28 29 40
3 28 40 39
3 29 30 41
3 29 41 40
3 30 31 42
3 30 42 41
3 31 32 43
3 31 43 42
3 33 34 45
3 33 45 44
3 34 35 46
3 34 46 45
3 35 36 47
3 35 47 46
3 36 37 48
3 36 48 47
3 37 38 49
3 37 49 48
3 38 39 50
3 38 50 49
3 39 40 51
3 39 51 50
3 40 41 52
3 40 52 51
3 41 42 53
3 41 53 52
3 42 43 54
3 42 54 53
3 44 45 56
3 44 56 55
3 45 46 57
3 45 57 56
3 46 47 58
3 46 58 57
3 47 48 59
3 47 59 58
3 48 49 60
3 48 60 59
3 49 50 61
3 49 61 60
3 50 51 62
3 50 62 61
3 51 52 63
3 51 63 62
3 52 53 64
3 52 64 63
3 53 54 65
3 53 65 64
3 55 56 67
3 55 67 66
3 56 57 68
3 56 68 67
3 57 58 69
3 57 69 68
3 58 59 70
3 58 70 69
3 59 60 71
3 59 71 70
3 60 61 72
3 60 72 71
3 61 62 73
3 61 73 72
3 62 63 74
3 62 74 73
3 63 64 75
3 63 75 74
3 64 65 76
3 64 76 75
3 66 67 78
3 66 78 77
3 67 68 79
3 67 79 78
3 68 69 80
3 68 80 79
3 69 70 81
3 69 81 80
3 70 71 82
3 70 82 81
3 71 72 83
3 71 83 82
3 72 73 84
3 72 84 83
3 73 74 85
3 73 85 84
3 74 75 86
3 74 86 85
3 75 76 87
3 75 87 86
3 77 78 89
3 77 89 88
3 78 79 90
3 78 90 89
3 79 80 91
3 79 91 90
3 80 81 92
3 80 92 91
3 81 82 93
3 81 93 92
3 82 83 94
3 82 94 93
3 83 84 95
3 83 95 94
3 84 85 96
3 84 96 95
3 85 86 97
3 85 97 96
3 86 87 98
3 86 98 97
3 88 89 100
3 88 100 99
3 89 90 101
3 89 101 100
3 90 91 102
3 90 102 101
3 91 92 103
3 91 103 102
3 92 93 104
3 92 104 103
3 93 94 105
3 93 105 104
3 94 95 106
3 94 106 105
3 95 96 107
3 95 107 106
3 96 97 108
3 96 108 107
3 97 98 109
3 97 109 108
3 99 100 111
3 99 111 110
3 100 101 112
3 100 112 111
3 101 102 113
3 101 113 112
3 102 103 114
3 102 114 113
3 103 104 115
3 103 115 114
3 104 105 116
3 104 116 115
3 105 106 117
3 105 117 116
3 106 107 118
3 106 118 117
3 107 108 119
3 107 119 118
3 108 109 120
3 108 120 119

CELL_TYPES 200
5
5
5
5
5
5
5
5
5
5
5
5
5
5
5
5
5
5
5
5
5
5
5
5
5
5
5
5
5
5
5
5
5
5
5
5
5
5
5
5
5
5
5
5
5
5
5
5
5
5
5
5
5
5
5
5
5
5
5
5
5
5
5
5
5
5
5
5
5
5
5
5
5
5
5
5
5
5
5
5
5
5
5
5
5
5
5
5
5
5
5
5
5
5
5
5
5
5
5
5
5
5
5
5
5
5
5
5
5
5
5
5
5
5
5
5
5
5
5
5
5
5
5
5
5
5
5
5
5
5
5
5
5
5
5
5
5
5
5
5
5
5
5
5
5
5
5
5
5
5
5
5
5
5
5
5
5
5
5
5
5
5
5
5
5
5
5
5
5
5
5
5
5
5
5
5
5
5
5
5
5
5
5
5
5
5
5
5
5
5
5
5
5
5
5
5
5
5
5
5
POINT_DATA 121
FIELD FieldData 2
VELOCITY 3 121  float
0.0000000e+00 0.0000000e+00 0.0000000e+00 
0.0000000e+00 0.0000000e+00 0.0000000e+00 
0.0000000e+00 0.0000000e+00 0.0000000e+00 
0.0000000e+00 0.0000000e+00 0.0000000e+00 
0.0000000e+00 0.0000000e+00 0.0000000e+00 
0.0000000e+00 0.0000000e+00 0.0000000e+00 
0.0000000e+00 0.0000000e+00 0.0000000e+00 
0.0000000e+00 0.0000000e+00 0.0000000e+00 
0.0000000e+00 0.0000000e+00 0.0000000e+00 
0.0000000e+00 0.0000000e+00 0.0000000e+00 
0.0000000e+00 0.0000000e+00 0.0000000e+00 
0.0000000e+00 0.0000000e+00 0.0000000e+00 
-4.8828200e-03 4.7501903e-03 0.0000000e+00 
-1.5308893e-02 7.5516915e-03 0.0000000e+00 
-2.7612163e-02 7.4347989e-03 0.0000000e+00 
-3.7732583e-02 4.9357866e-03 0.0000000e+00 
-4.2284802e-02 6.0512248e-04 0.0000000e+00 
-3.9252896e-02 -4.3927315e-03 0.0000000e+00 
-2.9110756e-02 -8.0550574e-03 0.0000000e+00 
-1.5446355e-02 -8.2955323e-03 0.0000000e+00 
-4.1314210e-03 -4.5162612e-03 0.0000000e+00 
0.0000000e+00 0.0000000e+00 0.0000000e+00 
0.0000000e+00 0.0000000e+00 0.0000000e+00 
-9.4936183e-03 1.6269609e-02 0.0000000e+00 
-2.7727444e-02 2.4077857e-02 0.0000000e+00 
-4.8283320e-02 2.3390612e-02 0.0000000e+00 
-6.5304533e-02 1.5582829e-02 0.0000000e+00 
-7.3719174e-02 2.2320924e-03 0.0000000e+00 
-6.9972098e-02 -1.3291168e-02 0.0000000e+00 
-5.3893235e-02 -2.5224648e-02 0.0000000e+00 
-3.0364225e-02 -2.7325666e-02 0.0000000e+00 
-9.0789953e-03 -1.6893990e-02 0.0000000e+00 
0.0000000e+00 0.0000000e+00 0.0000000e+00 
0.0000000e+00 0.0000000e+00 0.0000000e+00 
-1.2487235e-02 3.3598445e-02 0.0000000e+00 
-3.6148403e-02 4.7748987e-02 0.0000000e+00 
-6.2621564e-02 4.6206590e-02 0.0000000e+00 
-8.5545242e-02 3.1849097e-02 0.0000000e+00 
-9.9250846e-02 6.7854580e-03 0.0000000e+00 
-9.8267794e-02 -2.3842283e-02 0.0000000e+00 
-7.9648137e-02 -4.9550794e-02 0.0000000e+00 
-4.7332045e-02 -5.7141501e-02 0.0000000e+00 
-1.4809212e-02 -3.8296606e-02 0.0000000e+00 
0.0000000e+00 0.0000000e+00 0.0000000e+00 
0.0000000e+00 0.0000000e+00 0.0000000e+00 
-1.3701003e-02 5.4496258e-02 0.0000000e+00 
-3.9626360e-02 7.5786121e-02 0.0000000e+00 
-6.8794377e-02 7.3756918e-02 0.0000000e+00 
-9.5647834e-02 5.3672746e-02 0.0000000e+00 
-1.1551800e-01 1.7169615e-02 0.0000000e+00 
-1.2187742e-01 -3.1332254e-02 0.0000000e+00 
-1.0677667e-01 -7.7725142e-02 0.0000000e+00 
-6.8689466e-02 -9.8241270e-02 0.0000000e+00 
-2.2983402e-02 -7.1583517e-02 0.0000000e+00 
0.0000000e+00 0.0000000e+00 0.0000000e+00 
0.0000000e+00 0.0000000e+00 0.0000000e+00 
-1.3280802e-02 7.6104052e-02 0.0000000e+00 
-3.7281435e-02 1.0396025e-01 0.0000000e+00 
-6.3692361e-02 1.0183214e-01 0.0000000e+00 
-8.9103244e-02 7.8394242e-02 0.0000000e+00 
-1.1173738e-01 3.4469120e-02 0.0000000e+00 
-1.2729818e-01 -2.9516803e-02 0.0000000e+00 
-1.2475341e-01 -1.0179038e-01 0.0000000e+00 
-9.1115482e-02 -1.4759755e-01 0.0000000e+00 
-3.4595855e-02 -1.2027203e-01 0.0000000e+00 
0.0000000e+00 0.0000000e+00 0.0000000e+00 
0.0000000e+00 0.0000000e+00 0.0000000e+00 
-1.2082488e-02 9.5209703e-02 0.0000000e+00 
-2.9063422e-02 1.2620428e-01 0.0000000e+00 
-4.4866994e-02 1.2306741e-01 0.0000000e+00 
-5.9594791e-02 9.8629817e-02 0.0000000e+00 
-7.5517125e-02 5.3501628e-02 0.0000000e+00 
-9.3570843e-02 -1.6018692e-02 0.0000000e+00 
-1.0830388e-01 -1.0852958e-01 0.0000000e+00 
-9.8915175e-02 -1.9162281e-01 0.0000000e+00 
-4.7374453e-02 -1.8288732e-01 0.0000000e+00 
0.0000000e+00 0.0000000e+00 0.0000000e+00 
0.0000000e+00 0.0000000e+00 0.0000000e+00 
-1.0476707e-02 1.0811173e-01 0.0000000e+00 
-1.3665768e-02 1.3455401e-01 0.0000000e+00 
-8.9948168e-03 1.2754166e-01 0.0000000e+00 
-1.6920434e-03 1.0345464e-01 0.0000000e+00 
1.9276878e-03 6.2992275e-02 0.0000000e+00 
-4.5288475e-03 5.8766420e-04 0.0000000e+00 
-2.6255567e-02 -8.9769147e-02 0.0000000e+00 
-5.7347108e-02 -2.0135091e-01 0.0000000e+00 
-4.8947196e-02 -2.3957041e-01 0.0000000e+00 
0.0000000e+00 0.0000000e+00 0.0000000e+00 
0.0000000e+00 0.0000000e+00 0.0000000e+00 
5.8133905e-03 1.0653021e-01 0.0000000e+00 
3.1498563e-02 1.1725818e-01 0.0000000e+00 
6.9482252e-02 1.0336474e-01 0.0000000e+00 
1.0922018e-01 8.1178255e-02 0.0000000e+00 
1.4142790e-01 5.0838437e-02 0.0000000e+00 
1.5635468e-01 7.4146166e-03 0.0000000e+00 
1.4163618e-01 -5.5963378e-02 0.0000000e+00 
8.5073203e-02 -1.4613536e-01 0.0000000e+00 
1.5540111e-03 -2.3137723e-01 0.0000000e+00 
0.0000000e+00 0.0000000e+00 0.0000000e+00 
0.0000000e+00 0.0000000e+00 0.0000000e+00 
1.5127619e-01 5.6429181e-02 0.0000000e+00 
2.3869340e-01 5.2576557e-02 0.0000000e+00 
3.1537160e-01 4.1025005e-02 0.0000000e+00 
3.7875146e-01 3.0225389e-02 0.0000000e+00 
4.2427927e-01 1.8759953e-02 0.0000000e+00 
4.4583181e-01 4.1455361e-03 0.0000000e+00 
4.3348518e-01 -1.5928067e-02 0.0000000e+00 
3.7149754e-01 -4.3190308e-02 0.0000000e+00 
2.3443300e-01 -7.2157875e-02 0.0000000e+00 
0.0000000e+00 0.0000000e+00 0.0000000e+00 
1.0000000e+00 0.0000000e+00 0.0000000e+00 
1.0000000e+00 0.0000000e+00 0.0000000e+00 
1.0000000e+00 0.0000000e+00 0.0000000e+00 
1.0000000e+00 0.0000000e+00 0.0000000e+00 
1.0000000e+00 0.0000000e+00 0.0000000e+00 
1.0000000e+00 0.0000000e+00 0.0000000e+00 
1.0000000e+00 0.0000000e+00 0.0000000e+00 
1.0000000e+00 0.0000000e+00 0.0000000e+00 
1.0000000e+00 0.0000000e+00 0.0000000e+00 
1.0000000e+00 0.0000000e+00 0.0000000e+00 
1.0000000e+00 0.0000000e+00 0.0000000e+00 
PRESSURE 1 121  float
0.0000000e+00
-7.7670790e-02
-1.3181701e-01
-9.0663068e-02
5.2674200e-02
2.6950616e-01
4.9870509e-01
6.6233164e-01
7.0736712e-01
6.5094817e-01
5.8785659e-01
7.5972036e-02
-6.9098547e-03
-5.2716780e-02
-2.3589090e-02
8.3117127e-02
2.5088063e-01
4.3837506e-01
5.8400041e-01
6.3711268e-01
5.9453756e-01
5.2476501e-01
1.3175033e-01
2.0253774e-02
-3.6378942e-02
-2.5304666e-02
4.9386535e-02
1.8664838e-01
3.6242792e-01
5.1792735e-01
5.8554381e-01
5.3141588e-01
4.1338694e-01
5.7668105e-02
-8.0182701e-02
-1.6036358e-01
-1.7971812e-01
-1.3869512e-01
-1.2802279e-02
1.9741668e-01
4.2624378e-01
5.6079388e-01
5.0569028e-01
3.1227407e-01
-2.0559654e-01
-3.6118919e-01
-4.6794021e-01
-5.3374976e-01
-5.5193084e-01
-4.5660901e-01
-1.8660036e-01
2.0964099e-01
5.3272617e-01
5.4736263e-01
2.7058557e-01
-6.8446165e-01
-8.4473825e-01
-9.6654755e-01
-1.0872374e+00
-1.2041688e+00
-1.2080040e+00
-9.1980821e-01
-2.5946581e-01
4.7421312e-01
7.4432284e-01
4.2876410e-01
-1.4062089e+00
-1.5261345e+00
-1.6014733e+00
-1.7421330e+00
-1.9665221e+00
-2.1277843e+00
-1.9245324e+00
-1.0001830e+00
4.4158360e-01
1.3838012e+00
1.2419881e+00
-2.5244167e+00
-2.4055123e+00
-2.2489855e+00
-2.2876718e+00
-2.5478382e+00
-2.8136058e+00
-2.6875031e+00
-1.6010737e+00
8.0669469e-01
3.3031569e+00
3.8758516e+00
-4.4902244e+00
-3.5514669e+00
-2.7703977e+00
-2.5131948e+00
-2.6931307e+00
-2.9430063e+00
-2.6984630e+00
-1.1945138e+00
2.3964355e+00
8.0600290e+00
1.0355825e+01
-6.2309284e+00
-5.5570278e+00
-3.3538141e+00
-2.5185716e+00
-2.4673536e+00
-2.5057094e+00
-1.8831652e+00
3.6240429e-01
5.3871365e+00
1.3952353e+01
2.1551607e+01
-6.0429482e+00
-5.8549685e+00
-1.7912163e+00
-6.1944497e-01
-7.5020736e-01
-1.0058645e+00
-5.8076847e-01
1.3963691e+00
5.9070215e+00
1.3583150e+01
2.2982695e+01
CELL_DATA 200
FIELD FieldData 0
