<?xml version="1.0" encoding="UTF-8"?>
<svg xmlns="http://www.w3.org/2000/svg" xmlns:xlink="http://www.w3.org/1999/xlink" width="74.497pt" height="63.159pt" viewBox="0 0 74.497 63.159">
<path fill="none" stroke-width="0.79701" stroke-linecap="round" stroke-linejoin="round" stroke="rgb(0%, 0%, 0%)" stroke-opacity="1" stroke-miterlimit="10" d="M -31.180055 25.511981 L 25.510203 25.511981 C 28.64119 25.511981 31.182395 22.974734 31.182395 19.843747 L 31.182395 -5.671223 C 31.182395 -8.80221 28.64119 -11.339457 25.510203 -11.339457 L -2.834926 -11.339457 " transform="matrix(0.986859, 0, 0, -0.986859, 37.000798, 31.165019)"/>
<path fill="none" stroke-width="0.79701" stroke-linecap="round" stroke-linejoin="round" stroke="rgb(0%, 0%, 0%)" stroke-opacity="1" stroke-miterlimit="10" d="M -2.834926 -11.339457 L -17.00947 -25.510043 L -17.00947 -11.339457 " transform="matrix(0.986859, 0, 0, -0.986859, 37.000798, 31.165019)"/>
<path fill="none" stroke-width="0.79701" stroke-linecap="round" stroke-linejoin="round" stroke="rgb(0%, 0%, 0%)" stroke-opacity="1" stroke-miterlimit="10" d="M -17.00947 -11.339457 L -25.511821 -11.339457 C -28.642808 -11.339457 -31.180055 -8.80221 -31.180055 -5.671223 L -31.180055 25.511981 " transform="matrix(0.986859, 0, 0, -0.986859, 37.000798, 31.165019)"/>
<path fill-rule="nonzero" fill="rgb(0%, 0%, 0%)" fill-opacity="1" d="M 26.089844 24.171875 C 26.089844 22.472656 24.714844 21.09375 23.015625 21.09375 C 21.3125 21.09375 19.9375 22.472656 19.9375 24.171875 C 19.9375 25.871094 21.3125 27.25 23.015625 27.25 C 24.714844 27.25 26.089844 25.871094 26.089844 24.171875 Z M 26.089844 24.171875 "/>
<path fill-rule="nonzero" fill="rgb(0%, 0%, 0%)" fill-opacity="1" d="M 40.078125 24.171875 C 40.078125 22.472656 38.699219 21.09375 37 21.09375 C 35.300781 21.09375 33.921875 22.472656 33.921875 24.171875 C 33.921875 25.871094 35.300781 27.25 37 27.25 C 38.699219 27.25 40.078125 25.871094 40.078125 24.171875 Z M 40.078125 24.171875 "/>
<path fill-rule="nonzero" fill="rgb(0%, 0%, 0%)" fill-opacity="1" d="M 54.066406 24.171875 C 54.066406 22.472656 52.6875 21.09375 50.988281 21.09375 C 49.289062 21.09375 47.910156 22.472656 47.910156 24.171875 C 47.910156 25.871094 49.289062 27.25 50.988281 27.25 C 52.6875 27.25 54.066406 25.871094 54.066406 24.171875 Z M 54.066406 24.171875 "/>
</svg>
