<?xml version="1.0" encoding="UTF-8"?>
<svg xmlns="http://www.w3.org/2000/svg" xmlns:xlink="http://www.w3.org/1999/xlink" width="37.65pt" height="65.39pt" viewBox="0 0 37.65 65.39">
<path fill="none" stroke-width="0.79701" stroke-linecap="round" stroke-linejoin="round" stroke="rgb(0%, 0%, 0%)" stroke-opacity="1" stroke-miterlimit="10" d="M -12.756412 14.172178 C -12.756412 21.217765 -7.043454 26.930723 -0.00180959 26.930723 C 7.043777 26.930723 12.756735 21.217765 12.756735 14.172178 C 12.756735 7.126591 7.043777 1.417576 -0.00180959 1.417576 L -0.00180959 -8.502232 " transform="matrix(0.990758, 0, 0, -0.990758, 18.65023, 32.68963)"/>
<path fill-rule="nonzero" fill="rgb(0%, 0%, 0%)" fill-opacity="1" stroke-width="1.29515" stroke-linecap="round" stroke-linejoin="round" stroke="rgb(0%, 0%, 0%)" stroke-opacity="1" stroke-miterlimit="10" d="M 3.400732 -22.676203 C 3.400732 -20.799483 1.878854 -19.277604 -0.00180959 -19.277604 C -1.87853 -19.277604 -3.400408 -20.799483 -3.400408 -22.676203 C -3.400408 -24.556866 -1.87853 -26.078744 -0.00180959 -26.078744 C 1.878854 -26.078744 3.400732 -24.556866 3.400732 -22.676203 Z M 3.400732 -22.676203 " transform="matrix(0.990758, 0, 0, -0.990758, 18.65023, 32.68963)"/>
</svg>
