<?xml version="1.0" encoding="UTF-8"?>
<svg xmlns="http://www.w3.org/2000/svg" xmlns:xlink="http://www.w3.org/1999/xlink" width="46.251" height="46.251" viewBox="0 0 46.251 46.251">
<path fill="none" stroke-width="0.79701" stroke-linecap="round" stroke-linejoin="round" stroke="rgb(0%, 0%, 0%)" stroke-opacity="1" stroke-miterlimit="10" d="M -17.007987 -22.675734 L -17.007987 -0.00189956 L 5.669817 -0.00189956 L 5.669817 -22.675734 Z M -17.007987 -22.675734 " transform="matrix(0.984064, 0, 0, -0.984064, 22.756476, 17.177818)"/>
<path fill="none" stroke-width="0.79701" stroke-linecap="round" stroke-linejoin="round" stroke="rgb(0%, 0%, 0%)" stroke-opacity="1" stroke-miterlimit="10" d="M -17.007987 -0.00189956 L 5.669817 -0.00189956 L 17.006734 11.338987 L -5.67107 11.338987 Z M -17.007987 -0.00189956 " transform="matrix(0.984064, 0, 0, -0.984064, 22.756476, 17.177818)"/>
<path fill="none" stroke-width="0.79701" stroke-linecap="round" stroke-linejoin="round" stroke="rgb(0%, 0%, 0%)" stroke-opacity="1" stroke-miterlimit="10" d="M 5.669817 -22.675734 L 17.006734 -11.338817 L 17.006734 11.338987 L 5.669817 -0.00189956 Z M 5.669817 -22.675734 " transform="matrix(0.984064, 0, 0, -0.984064, 22.756476, 17.177818)"/>
<path fill="none" stroke-width="0.89664" stroke-linecap="round" stroke-linejoin="round" stroke="rgb(0%, 0%, 0%)" stroke-opacity="1" stroke-miterlimit="10" d="M -17.007987 -22.675734 L 5.669817 -0.00189956 " transform="matrix(0.984064, 0, 0, -0.984064, 22.756476, 17.177818)"/>
<path fill="none" stroke-width="0.89664" stroke-linecap="round" stroke-linejoin="round" stroke="rgb(0%, 0%, 0%)" stroke-opacity="1" stroke-miterlimit="10" d="M -17.007987 -11.338817 L 5.669817 -11.338817 " transform="matrix(0.984064, 0, 0, -0.984064, 22.756476, 17.177818)"/>
<path fill="none" stroke-width="0.89664" stroke-linecap="round" stroke-linejoin="round" stroke="rgb(0%, 0%, 0%)" stroke-opacity="1" stroke-miterlimit="10" d="M -5.67107 -22.675734 L -5.67107 -0.00189956 " transform="matrix(0.984064, 0, 0, -0.984064, 22.756476, 17.177818)"/>
<path fill="none" stroke-width="0.89664" stroke-linecap="round" stroke-linejoin="round" stroke="rgb(0%, 0%, 0%)" stroke-opacity="1" stroke-miterlimit="10" d="M -17.007987 -0.00189956 L 17.006734 11.338987 " transform="matrix(0.984064, 0, 0, -0.984064, 22.756476, 17.177818)"/>
<path fill="none" stroke-width="0.89664" stroke-linecap="round" stroke-linejoin="round" stroke="rgb(0%, 0%, 0%)" stroke-opacity="1" stroke-miterlimit="10" d="M 5.669817 -22.675734 L 17.006734 11.338987 " transform="matrix(0.984064, 0, 0, -0.984064, 22.756476, 17.177818)"/>
</svg>
