<?xml version="1.0" encoding="UTF-8"?>
<svg xmlns="http://www.w3.org/2000/svg" xmlns:xlink="http://www.w3.org/1999/xlink" width="63.16pt" height="57.99pt" viewBox="0 0 63.16 57.99">
<path fill="none" stroke-width="0.79701" stroke-linecap="round" stroke-linejoin="round" stroke="rgb(0%, 0%, 0%)" stroke-opacity="1" stroke-miterlimit="10" d="M -25.511527 17.007341 L 25.513647 17.007341 " transform="matrix(0.986875, 0, 0, -0.986875, 31.16497, 28.991151)"/>
<path fill-rule="nonzero" fill="rgb(0%, 0%, 0%)" fill-opacity="1" stroke-width="1.29515" stroke-linecap="round" stroke-linejoin="round" stroke="rgb(0%, 0%, 0%)" stroke-opacity="1" stroke-miterlimit="10" d="M -2.834991 17.007341 C -2.834991 20.138279 -5.372199 22.675486 -8.503136 22.675486 C -11.634073 22.675486 -14.175238 20.138279 -14.175238 17.007341 C -14.175238 13.876404 -11.634073 11.339197 -8.503136 11.339197 C -5.372199 11.339197 -2.834991 13.876404 -2.834991 17.007341 Z M -2.834991 17.007341 " transform="matrix(0.986875, 0, 0, -0.986875, 31.16497, 28.991151)"/>
<path fill="none" stroke-width="0.79701" stroke-linecap="round" stroke-linejoin="round" stroke="rgb(0%, 0%, 0%)" stroke-opacity="1" stroke-miterlimit="10" d="M -25.511527 -0.00105009 L 25.513647 -0.00105009 " transform="matrix(0.986875, 0, 0, -0.986875, 31.16497, 28.991151)"/>
<path fill-rule="nonzero" fill="rgb(0%, 0%, 0%)" fill-opacity="1" stroke-width="1.29515" stroke-linecap="round" stroke-linejoin="round" stroke="rgb(0%, 0%, 0%)" stroke-opacity="1" stroke-miterlimit="10" d="M 17.007472 -0.00105009 C 17.007472 3.129887 14.470265 5.671053 11.339328 5.671053 C 8.20839 5.671053 5.671183 3.129887 5.671183 -0.00105009 C 5.671183 -3.131987 8.20839 -5.669194 11.339328 -5.669194 C 14.470265 -5.669194 17.007472 -3.131987 17.007472 -0.00105009 Z M 17.007472 -0.00105009 " transform="matrix(0.986875, 0, 0, -0.986875, 31.16497, 28.991151)"/>
<path fill="none" stroke-width="0.79701" stroke-linecap="round" stroke-linejoin="round" stroke="rgb(0%, 0%, 0%)" stroke-opacity="1" stroke-miterlimit="10" d="M -25.511527 -17.009441 L 25.513647 -17.009441 " transform="matrix(0.986875, 0, 0, -0.986875, 31.16497, 28.991151)"/>
<path fill-rule="nonzero" fill="rgb(0%, 0%, 0%)" fill-opacity="1" stroke-width="1.29515" stroke-linecap="round" stroke-linejoin="round" stroke="rgb(0%, 0%, 0%)" stroke-opacity="1" stroke-miterlimit="10" d="M 2.833153 -17.009441 C 2.833153 -13.878504 0.295946 -11.337339 -2.834991 -11.337339 C -5.965929 -11.337339 -8.503136 -13.878504 -8.503136 -17.009441 C -8.503136 -20.140379 -5.965929 -22.677586 -2.834991 -22.677586 C 0.295946 -22.677586 2.833153 -20.140379 2.833153 -17.009441 Z M 2.833153 -17.009441 " transform="matrix(0.986875, 0, 0, -0.986875, 31.16497, 28.991151)"/>
</svg>
