# vtk DataFile Version 4.0
vtk output
ASCII
DATASET UNSTRUCTURED_GRID
POINTS 150 float
0.0000000e+00 0.0000000e+00 0.0000000e+00 
4.0000000e+00 0.0000000e+00 0.0000000e+00 
4.0000000e+00 1.0000000e+00 0.0000000e+00 
0.0000000e+00 1.0000000e+00 0.0000000e+00 
2.0000000e-01 0.0000000e+00 0.0000000e+00 
4.0000001e-01 0.0000000e+00 0.0000000e+00 
6.0000002e-01 0.0000000e+00 0.0000000e+00 
8.0000001e-01 0.0000000e+00 0.0000000e+00 
1.0000000e+00 0.0000000e+00 0.0000000e+00 
1.2000000e+00 0.0000000e+00 0.0000000e+00 
1.4000000e+00 0.0000000e+00 0.0000000e+00 
1.6000000e+00 0.0000000e+00 0.0000000e+00 
1.8000000e+00 0.0000000e+00 0.0000000e+00 
2.0000000e+00 0.0000000e+00 0.0000000e+00 
2.2000000e+00 0.0000000e+00 0.0000000e+00 
2.4000001e+00 0.0000000e+00 0.0000000e+00 
2.5999999e+00 0.0000000e+00 0.0000000e+00 
2.8000000e+00 0.0000000e+00 0.0000000e+00 
3.0000000e+00 0.0000000e+00 0.0000000e+00 
3.2000000e+00 0.0000000e+00 0.0000000e+00 
3.4000001e+00 0.0000000e+00 0.0000000e+00 
3.5999999e+00 0.0000000e+00 0.0000000e+00 
3.8000000e+00 0.0000000e+00 0.0000000e+00 
4.0000000e+00 2.0000000e-01 0.0000000e+00 
4.0000000e+00 4.0000001e-01 0.0000000e+00 
4.0000000e+00 6.0000002e-01 0.0000000e+00 
4.0000000e+00 8.0000001e-01 0.0000000e+00 
3.8000000e+00 1.0000000e+00 0.0000000e+00 
3.5999999e+00 1.0000000e+00 0.0000000e+00 
3.4000001e+00 1.0000000e+00 0.0000000e+00 
3.2000000e+00 1.0000000e+00 0.0000000e+00 
3.0000000e+00 1.0000000e+00 0.0000000e+00 
2.8000000e+00 1.0000000e+00 0.0000000e+00 
2.5999999e+00 1.0000000e+00 0.0000000e+00 
2.4000001e+00 1.0000000e+00 0.0000000e+00 
2.2000000e+00 1.0000000e+00 0.0000000e+00 
2.0000000e+00 1.0000000e+00 0.0000000e+00 
1.8000000e+00 1.0000000e+00 0.0000000e+00 
1.6000000e+00 1.0000000e+00 0.0000000e+00 
1.4000000e+00 1.0000000e+00 0.0000000e+00 
1.2000000e+00 1.0000000e+00 0.0000000e+00 
1.0000000e+00 1.0000000e+00 0.0000000e+00 
8.0000001e-01 1.0000000e+00 0.0000000e+00 
6.0000002e-01 1.0000000e+00 0.0000000e+00 
4.0000001e-01 1.0000000e+00 0.0000000e+00 
2.0000000e-01 1.0000000e+00 0.0000000e+00 
0.0000000e+00 8.0000001e-01 0.0000000e+00 
0.0000000e+00 6.0000002e-01 0.0000000e+00 
0.0000000e+00 4.0000001e-01 0.0000000e+00 
0.0000000e+00 2.0000000e-01 0.0000000e+00 
2.3000000e+00 8.2679492e-01 0.0000000e+00 
2.7026613e+00 1.6839938e-01 0.0000000e+00 
3.2973387e+00 8.3160061e-01 0.0000000e+00 
1.4973388e+00 8.3160061e-01 0.0000000e+00 
6.9999999e-01 8.2679492e-01 0.0000000e+00 
1.1000000e+00 8.2679492e-01 0.0000000e+00 
1.9000000e+00 8.2679492e-01 0.0000000e+00 
3.5000000e+00 1.7320508e-01 0.0000000e+00 
5.1031393e-01 1.6354993e-01 0.0000000e+00 
2.0999999e+00 1.7320508e-01 0.0000000e+00 
2.9000001e+00 8.2679492e-01 0.0000000e+00 
3.0999999e+00 1.7320508e-01 0.0000000e+00 
8.9999998e-01 1.7320508e-01 0.0000000e+00 
1.3026613e+00 1.6839938e-01 0.0000000e+00 
1.7000000e+00 1.7320508e-01 0.0000000e+00 
3.8372447e+00 5.0966793e-01 0.0000000e+00 
1.6370662e-01 4.8866507e-01 0.0000000e+00 
3.6861150e+00 8.0809796e-01 0.0000000e+00 
3.0084747e-01 8.3064556e-01 0.0000000e+00 
2.5000000e+00 8.2679492e-01 0.0000000e+00 
2.4000001e+00 6.5686476e-01 0.0000000e+00 
2.5999999e+00 6.5413564e-01 0.0000000e+00 
2.1973388e+00 6.6568744e-01 0.0000000e+00 
2.4980991e+00 4.8908678e-01 0.0000000e+00 
2.7023444e+00 4.9347213e-01 0.0000000e+00 
2.4977822e+00 1.6759844e-01 0.0000000e+00 
3.6991525e+00 1.6935441e-01 0.0000000e+00 
3.6035600e+00 3.2941929e-01 0.0000000e+00 
3.4005933e+00 3.4357834e-01 0.0000000e+00 
3.5158086e+00 5.1572138e-01 0.0000000e+00 
3.3000517e+00 5.1056737e-01 0.0000000e+00 
2.2969692e+00 1.7073415e-01 0.0000000e+00 
2.1941724e+00 3.3966187e-01 0.0000000e+00 
1.9963675e+00 3.4374896e-01 0.0000000e+00 
1.8993946e+00 1.7276154e-01 0.0000000e+00 
2.7000000e+00 8.2688588e-01 0.0000000e+00 
1.5031048e+00 1.7086764e-01 0.0000000e+00 
1.6031787e+00 3.4448409e-01 0.0000000e+00 
1.2968951e+00 8.2913238e-01 0.0000000e+00 
1.1968212e+00 6.5551591e-01 0.0000000e+00 
9.9947023e-01 6.5391088e-01 0.0000000e+00 
1.1000000e+00 4.8038477e-01 0.0000000e+00 
8.9999998e-01 4.8038477e-01 0.0000000e+00 
1.2996216e+00 4.9228978e-01 0.0000000e+00 
7.9991168e-01 6.5364337e-01 0.0000000e+00 
6.9999999e-01 4.8038477e-01 0.0000000e+00 
5.9998530e-01 6.5359873e-01 0.0000000e+00 
4.8479331e-01 4.8141763e-01 0.0000000e+00 
3.9391196e-01 6.7074126e-01 0.0000000e+00 
1.8000000e+00 3.4641016e-01 0.0000000e+00 
1.7000000e+00 5.1961523e-01 0.0000000e+00 
1.5003334e+00 5.0912750e-01 0.0000000e+00 
1.8991497e+00 5.1739931e-01 0.0000000e+00 
6.9999999e-01 1.7320508e-01 0.0000000e+00 
1.6998384e+00 8.2946962e-01 0.0000000e+00 
3.4885678e+00 8.3318800e-01 0.0000000e+00 
4.9912411e-01 8.3029675e-01 0.0000000e+00 
1.1001617e+00 1.7053038e-01 0.0000000e+00 
2.0998845e+00 8.2817227e-01 0.0000000e+00 
8.9989698e-01 8.2685733e-01 0.0000000e+00 
1.6938214e-01 3.0011359e-01 0.0000000e+00 
2.9031048e+00 1.7086764e-01 0.0000000e+00 
3.0008276e+00 3.4420678e-01 0.0000000e+00 
3.0968952e+00 8.2913238e-01 0.0000000e+00 
2.9991724e+00 6.5579319e-01 0.0000000e+00 
2.8001289e+00 6.5661508e-01 0.0000000e+00 
3.3000989e+00 1.7273311e-01 0.0000000e+00 
3.2002618e+00 3.4070939e-01 0.0000000e+00 
3.8118997e+00 3.1613928e-01 0.0000000e+00 
3.8409591e+00 6.9520664e-01 0.0000000e+00 
3.1562445e-01 1.8911865e-01 0.0000000e+00 
1.8788275e-01 6.8363428e-01 0.0000000e+00 
3.1598091e-01 3.8581166e-01 0.0000000e+00 
3.6863050e+00 6.1217356e-01 0.0000000e+00 
2.3978372e+00 3.3231843e-01 0.0000000e+00 
2.8014896e+00 3.3396253e-01 0.0000000e+00 
3.1989098e+00 6.6671073e-01 0.0000000e+00 
2.0978379e+00 5.0662857e-01 0.0000000e+00 
1.4056216e+00 3.3585981e-01 0.0000000e+00 
1.3943676e+00 6.6447765e-01 0.0000000e+00 
3.3914382e+00 6.7400205e-01 0.0000000e+00 
1.5986463e+00 6.7124927e-01 0.0000000e+00 
2.6000254e+00 3.2966018e-01 0.0000000e+00 
1.7996057e+00 6.7296129e-01 0.0000000e+00 
1.2000000e+00 3.2679492e-01 0.0000000e+00 
1.0000000e+00 3.2679492e-01 0.0000000e+00 
8.0000001e-01 3.2679492e-01 0.0000000e+00 
6.0786384e-01 3.2318488e-01 0.0000000e+00 
2.2982483e+00 4.9884883e-01 0.0000000e+00 
2.9000001e+00 5.0003433e-01 0.0000000e+00 
3.0999999e+00 4.9996570e-01 0.0000000e+00 
2.0000000e+00 6.7323941e-01 0.0000000e+00 
1.4641017e-01 8.5358983e-01 0.0000000e+00 
3.8535898e+00 8.5358983e-01 0.0000000e+00 
3.8535898e+00 1.4641017e-01 0.0000000e+00 
1.4641017e-01 1.4641017e-01 0.0000000e+00 
3.5479531e+00 6.8622428e-01 0.0000000e+00 
4.4691527e-01 3.0861655e-01 0.0000000e+00 
3.0925509e-01 5.4205400e-01 0.0000000e+00 
3.6897502e+00 4.5812324e-01 0.0000000e+00 

CELLS 248 992
3 0 145 49
3 1 144 22
3 2 143 26
3 3 142 45
3 4 145 0
3 5 120 4
3 6 58 5
3 6 103 58
3 7 103 6
3 8 62 7
3 8 107 62
3 9 107 8
3 10 63 9
3 10 86 63
3 11 86 10
3 12 64 11
3 12 84 64
3 13 84 12
3 14 59 13
3 14 81 59
3 15 81 14
3 16 75 15
3 17 51 16
3 17 111 51
3 18 111 17
3 19 61 18
3 19 116 61
3 20 116 19
3 21 57 20
3 21 76 57
3 22 76 21
3 22 144 76
3 23 144 1
3 24 118 23
3 25 65 24
3 25 119 65
3 26 119 25
3 26 143 119
3 27 143 2
3 28 67 27
3 28 105 67
3 29 105 28
3 30 52 29
3 30 113 52
3 31 113 30
3 32 60 31
3 32 85 60
3 33 85 32
3 34 69 33
3 35 50 34
3 35 108 50
3 36 108 35
3 37 56 36
3 37 104 56
3 38 104 37
3 39 53 38
3 39 88 53
3 40 88 39
3 41 55 40
3 41 109 55
3 42 109 41
3 43 54 42
3 43 106 54
3 44 106 43
3 45 68 44
3 45 142 68
3 46 142 3
3 47 121 46
3 48 66 47
3 48 110 66
3 49 110 48
3 49 145 110
3 50 69 34
3 50 70 69
3 50 72 70
3 50 108 72
3 51 75 16
3 51 132 75
3 52 105 29
3 52 130 105
3 53 104 38
3 53 131 104
3 54 96 94
3 54 106 96
3 54 109 42
3 55 88 40
3 55 89 88
3 55 90 89
3 55 109 90
3 56 108 36
3 56 141 108
3 57 116 20
3 58 120 5
3 58 147 120
3 59 84 13
3 60 113 31
3 60 114 113
3 60 115 114
3 61 111 18
3 61 112 111
3 61 117 112
3 62 103 7
3 62 136 103
3 63 107 9
3 63 134 107
3 64 86 11
3 64 87 86
3 64 99 87
3 65 118 24
3 65 149 118
3 66 121 47
3 66 148 121
3 67 123 119
3 67 143 27
3 67 146 123
3 68 106 44
3 68 121 98
3 68 142 121
3 69 85 33
3 70 71 69
3 70 73 71
3 70 138 73
3 71 85 69
3 71 115 85
3 72 138 70
3 72 141 127
3 73 74 71
3 73 132 74
3 73 138 124
3 74 115 71
3 74 132 125
3 74 139 115
3 75 81 15
3 75 124 81
3 75 132 124
3 76 77 57
3 76 118 77
3 76 144 118
3 77 78 57
3 77 79 78
3 77 149 79
3 78 116 57
3 78 117 116
3 79 80 78
3 79 130 80
3 79 146 130
3 79 149 123
3 80 117 78
3 80 130 126
3 80 140 117
3 81 82 59
3 81 124 82
3 82 83 59
3 82 127 83
3 82 138 127
3 83 84 59
3 83 99 84
3 83 102 99
3 83 127 102
3 84 99 64
3 85 115 60
3 86 128 63
3 87 128 86
3 88 129 53
3 89 129 88
3 90 91 89
3 90 92 91
3 90 94 92
3 90 109 94
3 91 93 89
3 91 134 93
3 91 135 134
3 92 135 91
3 92 136 135
3 93 128 101
3 93 129 89
3 93 134 128
3 94 95 92
3 94 96 95
3 94 109 54
3 95 136 92
3 95 137 136
3 96 97 95
3 96 98 97
3 96 106 98
3 97 137 95
3 97 147 137
3 97 148 122
3 98 106 68
3 98 148 97
3 99 100 87
3 99 102 100
3 100 101 87
3 100 131 101
3 100 133 131
3 101 128 87
3 101 129 93
3 101 131 129
3 102 133 100
3 102 141 133
3 103 137 58
3 104 133 56
3 105 146 67
3 107 135 62
3 108 141 72
3 110 122 66
3 110 145 120
3 111 125 51
3 112 125 111
3 112 139 125
3 112 140 139
3 113 126 52
3 114 126 113
3 114 140 126
3 115 139 114
3 116 117 61
3 117 140 112
3 118 144 23
3 118 149 77
3 119 123 65
3 119 143 67
3 120 122 110
3 120 145 4
3 120 147 122
3 121 142 46
3 121 148 98
3 122 147 97
3 122 148 66
3 123 146 79
3 123 149 65
3 124 132 73
3 124 138 82
3 125 132 51
3 125 139 74
3 126 130 52
3 126 140 80
3 127 138 72
3 127 141 102
3 128 134 63
3 129 131 53
3 130 146 105
3 131 133 104
3 133 141 56
3 134 135 107
3 135 136 62
3 136 137 103
3 137 147 58
3 139 140 114

CELL_TYPES 248
5
5
5
5
5
5
5
5
5
5
5
5
5
5
5
5
5
5
5
5
5
5
5
5
5
5
5
5
5
5
5
5
5
5
5
5
5
5
5
5
5
5
5
5
5
5
5
5
5
5
5
5
5
5
5
5
5
5
5
5
5
5
5
5
5
5
5
5
5
5
5
5
5
5
5
5
5
5
5
5
5
5
5
5
5
5
5
5
5
5
5
5
5
5
5
5
5
5
5
5
5
5
5
5
5
5
5
5
5
5
5
5
5
5
5
5
5
5
5
5
5
5
5
5
5
5
5
5
5
5
5
5
5
5
5
5
5
5
5
5
5
5
5
5
5
5
5
5
5
5
5
5
5
5
5
5
5
5
5
5
5
5
5
5
5
5
5
5
5
5
5
5
5
5
5
5
5
5
5
5
5
5
5
5
5
5
5
5
5
5
5
5
5
5
5
5
5
5
5
5
5
5
5
5
5
5
5
5
5
5
5
5
5
5
5
5
5
5
5
5
5
5
5
5
5
5
5
5
5
5
5
5
5
5
5
5
5
5
5
5
5
5
5
5
5
5
5
5
POINT_DATA 150
FIELD FieldData 3
HEIGHT 1 150  float
1.0000000e+00
1.0000000e+00
1.0000000e+00
1.0000000e+00
1.0000000e+00
1.0000000e+00
1.0000000e+00
1.0000000e+00
1.0000000e+00
1.0000000e+00
1.0000000e+00
1.0000000e+00
1.0000000e+00
1.0000000e+00
1.0000000e+00
1.0000000e+00
1.0000000e+00
1.0000000e+00
1.0000000e+00
1.0000000e+00
1.0000000e+00
1.0000000e+00
1.0000000e+00
1.0000000e+00
1.0000000e+00
1.0000000e+00
1.0000000e+00
1.0000000e+00
1.0000000e+00
1.0000000e+00
1.0000000e+00
1.0000000e+00
1.0000000e+00
1.0000000e+00
1.0000000e+00
1.0000000e+00
1.0000000e+00
1.0000000e+00
1.0000000e+00
1.0000000e+00
1.0000000e+00
1.0000000e+00
1.0000000e+00
1.0000000e+00
1.0000000e+00
1.0000000e+00
1.0000000e+00
1.0000000e+00
1.0000000e+00
1.0000000e+00
1.0000000e+00
1.0000000e+00
1.0000000e+00
1.0000000e+00
1.0000000e+00
1.0000000e+00
1.0000000e+00
1.0000000e+00
1.0000000e+00
1.0000000e+00
1.0000000e+00
1.0000000e+00
1.0000000e+00
1.0000000e+00
1.0000000e+00
1.0000000e+00
1.0000000e+00
1.0000000e+00
1.0000000e+00
1.0000000e+00
1.0000000e+00
1.0000000e+00
1.0000000e+00
1.0000000e+00
1.0000000e+00
1.0000000e+00
1.0000000e+00
1.0000000e+00
1.0000000e+00
1.0000000e+00
1.0000000e+00
1.0000000e+00
1.0000000e+00
1.0000000e+00
1.0000000e+00
1.0000000e+00
1.0000000e+00
1.0000000e+00
1.0000000e+00
1.0000000e+00
1.0000000e+00
1.0000000e+00
1.0000000e+00
1.0000000e+00
1.0000000e+00
1.0000000e+00
1.0000000e+00
1.0000000e+00
1.0000000e+00
1.0000000e+00
1.0000000e+00
1.0000000e+00
1.0000000e+00
1.0000000e+00
1.0000000e+00
1.0000000e+00
1.0000000e+00
1.0000000e+00
1.0000000e+00
1.0000000e+00
1.0000000e+00
1.0000000e+00
1.0000000e+00
1.0000000e+00
1.0000000e+00
1.0000000e+00
1.0000000e+00
1.0000000e+00
1.0000000e+00
1.0000000e+00
1.0000000e+00
1.0000000e+00
1.0000000e+00
1.0000000e+00
1.0000000e+00
1.0000000e+00
1.0000000e+00
1.0000000e+00
1.0000000e+00
1.0000000e+00
1.0000000e+00
1.0000000e+00
1.0000000e+00
1.0000000e+00
1.0000000e+00
1.0000000e+00
1.0000000e+00
1.0000000e+00
1.0000000e+00
1.0000000e+00
1.0000000e+00
1.0000000e+00
1.0000000e+00
1.0000000e+00
1.0000000e+00
1.0000000e+00
1.0000000e+00
1.0000000e+00
1.0000000e+00
1.0000000e+00
MOMENTUM 3 150  float
-2.3410982e-16 2.3410982e-16 0.0000000e+00 
-1.4569335e-16 -1.4569335e-16 0.0000000e+00 
-2.7203403e-17 2.7203403e-17 0.0000000e+00 
2.8806834e-16 2.8806834e-16 0.0000000e+00 
-1.8661807e-16 0.0000000e+00 0.0000000e+00 
5.8297340e-17 0.0000000e+00 0.0000000e+00 
8.4131799e-17 0.0000000e+00 0.0000000e+00 
-7.4669958e-17 0.0000000e+00 0.0000000e+00 
1.2760619e-16 0.0000000e+00 0.0000000e+00 
1.1408565e-16 0.0000000e+00 0.0000000e+00 
1.8411120e-16 0.0000000e+00 0.0000000e+00 
1.7049823e-16 0.0000000e+00 0.0000000e+00 
-2.2288214e-16 0.0000000e+00 0.0000000e+00 
6.0035624e-17 0.0000000e+00 0.0000000e+00 
5.6479522e-17 0.0000000e+00 0.0000000e+00 
-3.1577478e-16 0.0000000e+00 0.0000000e+00 
2.2751239e-16 0.0000000e+00 0.0000000e+00 
3.2013033e-16 0.0000000e+00 0.0000000e+00 
2.1180429e-16 0.0000000e+00 0.0000000e+00 
-3.9992094e-16 0.0000000e+00 0.0000000e+00 
3.3756449e-16 0.0000000e+00 0.0000000e+00 
-4.5089957e-16 0.0000000e+00 0.0000000e+00 
5.9711492e-16 0.0000000e+00 0.0000000e+00 
0.0000000e+00 -3.3768888e-16 0.0000000e+00 
0.0000000e+00 -1.1599963e-16 0.0000000e+00 
0.0000000e+00 2.9669245e-16 0.0000000e+00 
0.0000000e+00 1.4414175e-16 0.0000000e+00 
-3.0308181e-16 0.0000000e+00 0.0000000e+00 
1.5384735e-16 0.0000000e+00 0.0000000e+00 
2.8760429e-16 0.0000000e+00 0.0000000e+00 
-1.5383151e-16 0.0000000e+00 0.0000000e+00 
3.1053350e-16 0.0000000e+00 0.0000000e+00 
4.0581980e-17 0.0000000e+00 0.0000000e+00 
-2.1458104e-17 0.0000000e+00 0.0000000e+00 
-1.7140421e-17 0.0000000e+00 0.0000000e+00 
2.6353445e-16 0.0000000e+00 0.0000000e+00 
-1.4498269e-16 0.0000000e+00 0.0000000e+00 
-3.8438514e-17 0.0000000e+00 0.0000000e+00 
-6.5233348e-16 0.0000000e+00 0.0000000e+00 
-1.5061653e-16 0.0000000e+00 0.0000000e+00 
6.2481625e-18 0.0000000e+00 0.0000000e+00 
-5.6361784e-17 0.0000000e+00 0.0000000e+00 
-2.4603104e-16 0.0000000e+00 0.0000000e+00 
1.3095739e-17 0.0000000e+00 0.0000000e+00 
-1.1203395e-16 0.0000000e+00 0.0000000e+00 
-1.5002785e-16 0.0000000e+00 0.0000000e+00 
0.0000000e+00 1.7075423e-16 0.0000000e+00 
0.0000000e+00 -3.6466722e-16 0.0000000e+00 
0.0000000e+00 2.3100028e-16 0.0000000e+00 
0.0000000e+00 -5.1896523e-16 0.0000000e+00 
1.3080770e-16 1.1795896e-16 0.0000000e+00 
-4.3337993e-16 1.1473752e-16 0.0000000e+00 
-2.6011903e-16 2.9604443e-17 0.0000000e+00 
3.4079500e-16 9.8503665e-17 0.0000000e+00 
1.3514772e-16 -8.5306078e-17 0.0000000e+00 
1.0894134e-16 -1.8461031e-16 0.0000000e+00 
1.8618171e-16 1.2934467e-16 0.0000000e+00 
1.7285023e-17 -3.1654323e-16 0.0000000e+00 
-1.7516121e-16 2.7631189e-16 0.0000000e+00 
-1.2693817e-16 -6.7633040e-17 0.0000000e+00 
-1.9762741e-16 7.8307063e-18 0.0000000e+00 
2.4974830e-16 -1.5503920e-16 0.0000000e+00 
1.3954184e-16 1.4907936e-16 0.0000000e+00 
4.7338247e-16 6.5935506e-17 0.0000000e+00 
-1.7588508e-16 -2.0972410e-16 0.0000000e+00 
2.8367239e-16 -3.9490367e-16 0.0000000e+00 
-2.4513263e-16 -1.6558510e-17 0.0000000e+00 
3.1431032e-16 -2.7211039e-16 0.0000000e+00 
1.5390274e-16 2.2031761e-16 0.0000000e+00 
-2.0234973e-16 1.6133615e-16 0.0000000e+00 
9.1733265e-17 -1.0975875e-16 0.0000000e+00 
-1.6427158e-16 -5.2204388e-16 0.0000000e+00 
9.8506133e-17 3.0440569e-16 0.0000000e+00 
7.4042565e-17 5.3722392e-16 0.0000000e+00 
3.7008619e-16 1.4649489e-16 0.0000000e+00 
4.4739364e-16 4.8107687e-18 0.0000000e+00 
1.2852567e-16 4.4892942e-16 0.0000000e+00 
3.6894090e-16 -3.4549886e-16 0.0000000e+00 
1.5945351e-17 -2.8904533e-16 0.0000000e+00 
-4.0300247e-16 1.7776416e-17 0.0000000e+00 
-6.0070478e-17 -1.2521028e-16 0.0000000e+00 
1.3884475e-16 2.0563399e-17 0.0000000e+00 
-4.5678065e-17 3.0411474e-16 0.0000000e+00 
6.4258183e-17 -2.3090319e-16 0.0000000e+00 
-4.3773816e-17 3.4584842e-16 0.0000000e+00 
4.2102878e-17 2.0486799e-16 0.0000000e+00 
-4.8127719e-16 8.8090268e-17 0.0000000e+00 
4.7309220e-16 9.9959337e-17 0.0000000e+00 
-3.9331401e-16 1.0104066e-16 0.0000000e+00 
-9.0212311e-17 1.0253765e-16 0.0000000e+00 
2.0973649e-17 -4.6584620e-16 0.0000000e+00 
2.2576266e-16 1.1871202e-16 0.0000000e+00 
2.7336871e-16 -3.5324066e-18 0.0000000e+00 
1.2085302e-16 4.6561729e-16 0.0000000e+00 
2.7691413e-16 3.5065195e-16 0.0000000e+00 
6.9616209e-17 -3.4487523e-16 0.0000000e+00 
4.4017825e-16 -5.2305079e-16 0.0000000e+00 
-2.8985524e-17 1.2820634e-16 0.0000000e+00 
-2.9144437e-16 4.3609710e-17 0.0000000e+00 
1.3123039e-16 9.5197710e-18 0.0000000e+00 
1.5600568e-16 -3.2135707e-16 0.0000000e+00 
-9.9746798e-17 -2.3489187e-16 0.0000000e+00 
-2.5258229e-16 1.9013476e-16 0.0000000e+00 
-8.1785915e-17 -4.5339520e-17 0.0000000e+00 
3.5512799e-16 3.4509816e-16 0.0000000e+00 
-6.4811275e-17 -4.1810753e-16 0.0000000e+00 
-1.0087037e-17 4.9940917e-17 0.0000000e+00 
-4.9367621e-16 -2.8531553e-16 0.0000000e+00 
-2.0923313e-16 -4.0257054e-16 0.0000000e+00 
1.8922712e-16 1.9249431e-16 0.0000000e+00 
-3.6469192e-17 -2.5845463e-16 0.0000000e+00 
6.8624876e-17 -2.3732770e-16 0.0000000e+00 
1.7006413e-17 1.7371842e-16 0.0000000e+00 
4.8787171e-16 -1.6708233e-16 0.0000000e+00 
5.6897900e-18 -4.0938293e-16 0.0000000e+00 
-7.6933230e-17 -1.8258318e-16 0.0000000e+00 
-1.5015795e-17 4.2116942e-16 0.0000000e+00 
-3.0367219e-16 2.3326229e-16 0.0000000e+00 
-1.3509699e-16 7.5136343e-16 0.0000000e+00 
-6.5493170e-17 3.3360239e-16 0.0000000e+00 
1.9422119e-16 2.8525084e-16 0.0000000e+00 
-2.0112190e-16 8.0135617e-17 0.0000000e+00 
-4.8364456e-17 -3.4281054e-16 0.0000000e+00 
4.2072389e-16 -1.5676198e-16 0.0000000e+00 
-2.9286937e-16 -1.1501604e-16 0.0000000e+00 
1.4492011e-16 -7.7784407e-16 0.0000000e+00 
-3.0081404e-16 8.0567147e-17 0.0000000e+00 
-5.7729570e-17 2.1466241e-16 0.0000000e+00 
-2.7997920e-16 -2.1587703e-16 0.0000000e+00 
-1.5651836e-16 3.5574846e-16 0.0000000e+00 
4.6680145e-16 4.0738430e-17 0.0000000e+00 
2.6220134e-18 5.7273128e-16 0.0000000e+00 
5.6185575e-17 -1.5765627e-16 0.0000000e+00 
2.3827100e-16 -2.6412724e-16 0.0000000e+00 
-2.7399655e-16 1.4387466e-16 0.0000000e+00 
6.2909939e-18 -2.8785631e-16 0.0000000e+00 
-2.5998350e-16 1.9038273e-16 0.0000000e+00 
5.5903539e-16 -4.2165912e-17 0.0000000e+00 
-1.7871922e-17 -1.2659282e-15 0.0000000e+00 
1.1295442e-16 -3.4777788e-16 0.0000000e+00 
2.6842839e-16 -2.2299839e-16 0.0000000e+00 
2.6777536e-16 -1.0766867e-16 0.0000000e+00 
-2.7299035e-16 -3.3257330e-16 0.0000000e+00 
5.5890768e-17 -4.3196081e-16 0.0000000e+00 
-2.4828254e-16 -1.1888804e-16 0.0000000e+00 
1.3135113e-16 2.4685473e-16 0.0000000e+00 
-2.2503950e-16 4.8087675e-16 0.0000000e+00 
1.9933780e-16 2.3682978e-16 0.0000000e+00 
3.6372323e-16 2.2502095e-16 0.0000000e+00 
-3.7605449e-16 -1.3351520e-16 0.0000000e+00 
VELOCITY 3 150  float
-1.0754439e-16 1.1389794e-16 0.0000000e+00 
-6.0277942e-17 -1.4477979e-16 0.0000000e+00 
-3.7514236e-17 -7.6370787e-17 0.0000000e+00 
5.7033104e-17 8.2235127e-17 0.0000000e+00 
-5.3698021e-17 1.0819342e-16 0.0000000e+00 
2.3784809e-17 9.3593792e-17 0.0000000e+00 
-2.1230064e-18 3.8495398e-17 0.0000000e+00 
-1.0064159e-17 1.7289974e-17 0.0000000e+00 
8.0653410e-18 -2.2706028e-17 0.0000000e+00 
7.9636979e-17 -3.6563339e-17 0.0000000e+00 
1.1445514e-16 2.5670961e-17 0.0000000e+00 
-2.7508839e-17 -2.0272306e-17 0.0000000e+00 
-1.2883972e-16 2.2687389e-17 0.0000000e+00 
-1.2301070e-17 4.6369234e-17 0.0000000e+00 
8.9125973e-18 -7.8449404e-18 0.0000000e+00 
-3.6514995e-17 4.2290279e-18 0.0000000e+00 
1.1645477e-16 1.9924715e-17 0.0000000e+00 
1.3588238e-16 -2.0431699e-17 0.0000000e+00 
1.5231513e-16 -6.5394484e-17 0.0000000e+00 
-1.1505765e-16 4.4355036e-17 0.0000000e+00 
9.8258747e-17 1.7437697e-17 0.0000000e+00 
-1.2325806e-16 2.2064363e-17 0.0000000e+00 
2.2888191e-16 4.2865783e-17 0.0000000e+00 
-7.6037698e-17 -8.5239625e-17 0.0000000e+00 
2.4762566e-17 -2.0062244e-18 0.0000000e+00 
3.6363204e-17 1.4047452e-16 0.0000000e+00 
-3.8673498e-18 8.2669132e-17 0.0000000e+00 
-7.9287062e-17 -1.1507825e-16 0.0000000e+00 
1.1721705e-16 -1.1503633e-16 0.0000000e+00 
8.9648412e-17 -6.4750520e-17 0.0000000e+00 
1.0887842e-17 -2.2912981e-17 0.0000000e+00 
1.9420335e-16 -2.6541936e-17 0.0000000e+00 
1.8459852e-17 3.5449785e-17 0.0000000e+00 
-3.5483398e-17 6.1034024e-17 0.0000000e+00 
-3.2085168e-19 4.6549185e-17 0.0000000e+00 
1.0518607e-16 -4.7435261e-17 0.0000000e+00 
-5.7575251e-17 -4.5537643e-17 0.0000000e+00 
4.5560107e-18 7.9073801e-17 0.0000000e+00 
-2.2593415e-16 7.3933635e-17 0.0000000e+00 
-1.3790187e-16 3.3257389e-17 0.0000000e+00 
-6.1519560e-17 -1.3928276e-17 0.0000000e+00 
1.5319435e-18 1.3139987e-18 0.0000000e+00 
-7.2558550e-17 1.7864706e-17 0.0000000e+00 
-2.4474318e-18 -5.8941933e-18 0.0000000e+00 
-4.3458700e-17 4.5043088e-17 0.0000000e+00 
-8.0192328e-17 5.2964147e-18 0.0000000e+00 
-5.5013013e-17 3.6920932e-17 0.0000000e+00 
-7.4375753e-17 -1.3825788e-16 0.0000000e+00 
-4.6933636e-17 -3.9714182e-18 0.0000000e+00 
-3.6954964e-18 -2.2265677e-16 0.0000000e+00 
6.7491400e-17 5.5097194e-17 0.0000000e+00 
-1.1129273e-16 -3.9966019e-17 0.0000000e+00 
-6.9824460e-17 -2.3854804e-17 0.0000000e+00 
8.7478135e-17 1.6380339e-16 0.0000000e+00 
1.2284862e-16 -3.6816674e-17 0.0000000e+00 
2.7517404e-17 -9.8119622e-17 0.0000000e+00 
1.3213419e-16 2.8899980e-17 0.0000000e+00 
4.0730929e-17 -1.3864206e-16 0.0000000e+00 
-3.1441410e-18 1.7437055e-16 0.0000000e+00 
-4.4288567e-17 2.8187639e-18 0.0000000e+00 
-3.1326485e-17 -4.2266352e-17 0.0000000e+00 
8.9776374e-17 -2.8284402e-17 0.0000000e+00 
5.0860528e-18 3.8862295e-17 0.0000000e+00 
1.3413021e-16 1.0532116e-17 0.0000000e+00 
-8.5701900e-17 -5.9577234e-17 0.0000000e+00 
1.2884280e-16 -1.1617005e-16 0.0000000e+00 
-1.1608568e-16 -4.4093885e-17 0.0000000e+00 
1.5515775e-16 -1.4979456e-16 0.0000000e+00 
-9.5240856e-18 9.6918218e-17 0.0000000e+00 
-9.6027047e-17 5.4920104e-17 0.0000000e+00 
3.9105231e-17 -1.1046666e-16 0.0000000e+00 
-5.7245630e-17 -1.9789019e-16 0.0000000e+00 
6.6376546e-17 2.2760784e-17 0.0000000e+00 
4.0603964e-17 9.9952925e-17 0.0000000e+00 
1.9728459e-16 -4.7642672e-17 0.0000000e+00 
1.7207338e-16 -9.0422314e-18 0.0000000e+00 
7.6684639e-17 2.2200081e-16 0.0000000e+00 
1.2177062e-16 -1.3283564e-16 0.0000000e+00 
-2.4988575e-17 -1.5410969e-16 0.0000000e+00 
-1.5784073e-16 -2.8855825e-17 0.0000000e+00 
-5.1394697e-17 -7.4246759e-17 0.0000000e+00 
4.6306778e-17 2.0804737e-17 0.0000000e+00 
-4.7197874e-17 3.1702819e-17 0.0000000e+00 
-8.2686773e-19 -3.2397667e-17 0.0000000e+00 
-4.4402006e-17 1.3136250e-16 0.0000000e+00 
-3.0786733e-17 5.7812315e-17 0.0000000e+00 
-1.7020359e-16 2.2402943e-17 0.0000000e+00 
1.7407508e-16 -2.3707001e-17 0.0000000e+00 
-1.9177056e-16 8.1535286e-17 0.0000000e+00 
-5.1214633e-17 8.3823988e-17 0.0000000e+00 
9.2486958e-17 -1.8490200e-16 0.0000000e+00 
1.1765445e-16 5.5588900e-17 0.0000000e+00 
1.6498219e-16 -3.8335457e-17 0.0000000e+00 
4.2022963e-18 2.5531730e-16 0.0000000e+00 
2.3249969e-16 7.2816273e-17 0.0000000e+00 
1.3985206e-16 -1.6406329e-16 0.0000000e+00 
2.3268588e-16 -2.4967310e-16 0.0000000e+00 
7.7798812e-17 1.0714451e-17 0.0000000e+00 
-8.5921374e-17 3.6852405e-17 0.0000000e+00 
8.4041431e-17 -5.7436010e-18 0.0000000e+00 
1.1907671e-16 -1.2956804e-16 0.0000000e+00 
-2.3533788e-17 -3.7710737e-17 0.0000000e+00 
-5.9640225e-17 3.6744544e-17 0.0000000e+00 
-1.8151761e-17 2.5130913e-17 0.0000000e+00 
1.8398880e-16 2.1725344e-16 0.0000000e+00 
2.9044770e-17 -1.8579467e-16 0.0000000e+00 
2.3193658e-17 -3.7320052e-18 0.0000000e+00 
-1.9792889e-16 -1.3673833e-16 0.0000000e+00 
-3.7798005e-17 -1.6428188e-16 0.0000000e+00 
1.1457889e-16 6.4154600e-17 0.0000000e+00 
-1.5561660e-17 -1.3882969e-16 0.0000000e+00 
7.6831566e-17 -1.7236614e-16 0.0000000e+00 
5.3586868e-17 -3.8784534e-17 0.0000000e+00 
1.9425512e-16 -1.0782289e-16 0.0000000e+00 
2.7334881e-17 -2.7402847e-16 0.0000000e+00 
-2.4388755e-17 -1.6795918e-16 0.0000000e+00 
-1.4428726e-17 1.6663759e-16 0.0000000e+00 
-1.1216592e-16 1.0018069e-16 0.0000000e+00 
-5.6348357e-17 3.0442708e-16 0.0000000e+00 
5.6803194e-17 9.8892645e-17 0.0000000e+00 
9.2994404e-17 1.5396337e-16 0.0000000e+00 
-1.2141390e-16 3.6203773e-17 0.0000000e+00 
1.3042343e-17 -1.2138071e-16 0.0000000e+00 
1.7106137e-16 -7.5737127e-17 0.0000000e+00 
-9.2024968e-17 -1.0391400e-16 0.0000000e+00 
8.8416515e-17 -4.1457297e-16 0.0000000e+00 
-7.4690194e-17 -3.0910681e-17 0.0000000e+00 
-1.9330834e-17 4.0177463e-17 0.0000000e+00 
-1.2229733e-16 -5.5556408e-17 0.0000000e+00 
-8.8176103e-17 2.7000245e-16 0.0000000e+00 
1.2391266e-16 2.5828127e-17 0.0000000e+00 
7.0805549e-17 2.8461350e-16 0.0000000e+00 
5.3942221e-17 -8.6294221e-17 0.0000000e+00 
1.7872971e-16 -6.4706693e-17 0.0000000e+00 
-1.3261213e-16 6.0371989e-17 0.0000000e+00 
-2.9269760e-17 -1.1782809e-16 0.0000000e+00 
-4.9486150e-17 4.7300527e-17 0.0000000e+00 
2.5643750e-16 1.5710042e-17 0.0000000e+00 
-1.9935547e-17 -5.3832814e-16 0.0000000e+00 
1.1724368e-16 -2.7993854e-16 0.0000000e+00 
9.0138685e-17 -1.4440113e-16 0.0000000e+00 
1.3417218e-16 -3.9513521e-17 0.0000000e+00 
-1.2741305e-16 -9.0359066e-17 0.0000000e+00 
1.9798580e-17 -1.9269670e-16 0.0000000e+00 
-7.9656242e-17 1.2247043e-17 0.0000000e+00 
3.9377973e-17 9.7621447e-17 0.0000000e+00 
-3.9117553e-17 1.6159188e-16 0.0000000e+00 
1.4974343e-16 1.4889415e-16 0.0000000e+00 
1.0035672e-16 1.0176873e-16 0.0000000e+00 
-1.3450349e-16 -7.9560071e-17 0.0000000e+00 
CELL_DATA 248
FIELD FieldData 0
