# vtk DataFile Version 4.0
vtk output
ASCII
DATASET UNSTRUCTURED_GRID
POINTS 150 float
0.0000000e+00 0.0000000e+00 0.0000000e+00 
4.0000000e+00 0.0000000e+00 0.0000000e+00 
4.0000000e+00 1.0000000e+00 0.0000000e+00 
0.0000000e+00 1.0000000e+00 0.0000000e+00 
2.0000000e-01 0.0000000e+00 0.0000000e+00 
4.0000001e-01 0.0000000e+00 0.0000000e+00 
6.0000002e-01 0.0000000e+00 0.0000000e+00 
8.0000001e-01 0.0000000e+00 0.0000000e+00 
1.0000000e+00 0.0000000e+00 0.0000000e+00 
1.2000000e+00 0.0000000e+00 0.0000000e+00 
1.4000000e+00 0.0000000e+00 0.0000000e+00 
1.6000000e+00 0.0000000e+00 0.0000000e+00 
1.8000000e+00 0.0000000e+00 0.0000000e+00 
2.0000000e+00 0.0000000e+00 0.0000000e+00 
2.2000000e+00 0.0000000e+00 0.0000000e+00 
2.4000001e+00 0.0000000e+00 0.0000000e+00 
2.5999999e+00 0.0000000e+00 0.0000000e+00 
2.8000000e+00 0.0000000e+00 0.0000000e+00 
3.0000000e+00 0.0000000e+00 0.0000000e+00 
3.2000000e+00 0.0000000e+00 0.0000000e+00 
3.4000001e+00 0.0000000e+00 0.0000000e+00 
3.5999999e+00 0.0000000e+00 0.0000000e+00 
3.8000000e+00 0.0000000e+00 0.0000000e+00 
4.0000000e+00 2.0000000e-01 0.0000000e+00 
4.0000000e+00 4.0000001e-01 0.0000000e+00 
4.0000000e+00 6.0000002e-01 0.0000000e+00 
4.0000000e+00 8.0000001e-01 0.0000000e+00 
3.8000000e+00 1.0000000e+00 0.0000000e+00 
3.5999999e+00 1.0000000e+00 0.0000000e+00 
3.4000001e+00 1.0000000e+00 0.0000000e+00 
3.2000000e+00 1.0000000e+00 0.0000000e+00 
3.0000000e+00 1.0000000e+00 0.0000000e+00 
2.8000000e+00 1.0000000e+00 0.0000000e+00 
2.5999999e+00 1.0000000e+00 0.0000000e+00 
2.4000001e+00 1.0000000e+00 0.0000000e+00 
2.2000000e+00 1.0000000e+00 0.0000000e+00 
2.0000000e+00 1.0000000e+00 0.0000000e+00 
1.8000000e+00 1.0000000e+00 0.0000000e+00 
1.6000000e+00 1.0000000e+00 0.0000000e+00 
1.4000000e+00 1.0000000e+00 0.0000000e+00 
1.2000000e+00 1.0000000e+00 0.0000000e+00 
1.0000000e+00 1.0000000e+00 0.0000000e+00 
8.0000001e-01 1.0000000e+00 0.0000000e+00 
6.0000002e-01 1.0000000e+00 0.0000000e+00 
4.0000001e-01 1.0000000e+00 0.0000000e+00 
2.0000000e-01 1.0000000e+00 0.0000000e+00 
0.0000000e+00 8.0000001e-01 0.0000000e+00 
0.0000000e+00 6.0000002e-01 0.0000000e+00 
0.0000000e+00 4.0000001e-01 0.0000000e+00 
0.0000000e+00 2.0000000e-01 0.0000000e+00 
2.3000000e+00 8.2679492e-01 0.0000000e+00 
2.7026613e+00 1.6839938e-01 0.0000000e+00 
3.2973387e+00 8.3160061e-01 0.0000000e+00 
1.4973388e+00 8.3160061e-01 0.0000000e+00 
6.9999999e-01 8.2679492e-01 0.0000000e+00 
1.1000000e+00 8.2679492e-01 0.0000000e+00 
1.9000000e+00 8.2679492e-01 0.0000000e+00 
3.5000000e+00 1.7320508e-01 0.0000000e+00 
5.1031393e-01 1.6354993e-01 0.0000000e+00 
2.0999999e+00 1.7320508e-01 0.0000000e+00 
2.9000001e+00 8.2679492e-01 0.0000000e+00 
3.0999999e+00 1.7320508e-01 0.0000000e+00 
8.9999998e-01 1.7320508e-01 0.0000000e+00 
1.3026613e+00 1.6839938e-01 0.0000000e+00 
1.7000000e+00 1.7320508e-01 0.0000000e+00 
3.8372447e+00 5.0966793e-01 0.0000000e+00 
1.6370662e-01 4.8866507e-01 0.0000000e+00 
3.6861150e+00 8.0809796e-01 0.0000000e+00 
3.0084747e-01 8.3064556e-01 0.0000000e+00 
2.5000000e+00 8.2679492e-01 0.0000000e+00 
2.4000001e+00 6.5686476e-01 0.0000000e+00 
2.5999999e+00 6.5413564e-01 0.0000000e+00 
2.1973388e+00 6.6568744e-01 0.0000000e+00 
2.4980991e+00 4.8908678e-01 0.0000000e+00 
2.7023444e+00 4.9347213e-01 0.0000000e+00 
2.4977822e+00 1.6759844e-01 0.0000000e+00 
3.6991525e+00 1.6935441e-01 0.0000000e+00 
3.6035600e+00 3.2941929e-01 0.0000000e+00 
3.4005933e+00 3.4357834e-01 0.0000000e+00 
3.5158086e+00 5.1572138e-01 0.0000000e+00 
3.3000517e+00 5.1056737e-01 0.0000000e+00 
2.2969692e+00 1.7073415e-01 0.0000000e+00 
2.1941724e+00 3.3966187e-01 0.0000000e+00 
1.9963675e+00 3.4374896e-01 0.0000000e+00 
1.8993946e+00 1.7276154e-01 0.0000000e+00 
2.7000000e+00 8.2688588e-01 0.0000000e+00 
1.5031048e+00 1.7086764e-01 0.0000000e+00 
1.6031787e+00 3.4448409e-01 0.0000000e+00 
1.2968951e+00 8.2913238e-01 0.0000000e+00 
1.1968212e+00 6.5551591e-01 0.0000000e+00 
9.9947023e-01 6.5391088e-01 0.0000000e+00 
1.1000000e+00 4.8038477e-01 0.0000000e+00 
8.9999998e-01 4.8038477e-01 0.0000000e+00 
1.2996216e+00 4.9228978e-01 0.0000000e+00 
7.9991168e-01 6.5364337e-01 0.0000000e+00 
6.9999999e-01 4.8038477e-01 0.0000000e+00 
5.9998530e-01 6.5359873e-01 0.0000000e+00 
4.8479331e-01 4.8141763e-01 0.0000000e+00 
3.9391196e-01 6.7074126e-01 0.0000000e+00 
1.8000000e+00 3.4641016e-01 0.0000000e+00 
1.7000000e+00 5.1961523e-01 0.0000000e+00 
1.5003334e+00 5.0912750e-01 0.0000000e+00 
1.8991497e+00 5.1739931e-01 0.0000000e+00 
6.9999999e-01 1.7320508e-01 0.0000000e+00 
1.6998384e+00 8.2946962e-01 0.0000000e+00 
3.4885678e+00 8.3318800e-01 0.0000000e+00 
4.9912411e-01 8.3029675e-01 0.0000000e+00 
1.1001617e+00 1.7053038e-01 0.0000000e+00 
2.0998845e+00 8.2817227e-01 0.0000000e+00 
8.9989698e-01 8.2685733e-01 0.0000000e+00 
1.6938214e-01 3.0011359e-01 0.0000000e+00 
2.9031048e+00 1.7086764e-01 0.0000000e+00 
3.0008276e+00 3.4420678e-01 0.0000000e+00 
3.0968952e+00 8.2913238e-01 0.0000000e+00 
2.9991724e+00 6.5579319e-01 0.0000000e+00 
2.8001289e+00 6.5661508e-01 0.0000000e+00 
3.3000989e+00 1.7273311e-01 0.0000000e+00 
3.2002618e+00 3.4070939e-01 0.0000000e+00 
3.8118997e+00 3.1613928e-01 0.0000000e+00 
3.8409591e+00 6.9520664e-01 0.0000000e+00 
3.1562445e-01 1.8911865e-01 0.0000000e+00 
1.8788275e-01 6.8363428e-01 0.0000000e+00 
3.1598091e-01 3.8581166e-01 0.0000000e+00 
3.6863050e+00 6.1217356e-01 0.0000000e+00 
2.3978372e+00 3.3231843e-01 0.0000000e+00 
2.8014896e+00 3.3396253e-01 0.0000000e+00 
3.1989098e+00 6.6671073e-01 0.0000000e+00 
2.0978379e+00 5.0662857e-01 0.0000000e+00 
1.4056216e+00 3.3585981e-01 0.0000000e+00 
1.3943676e+00 6.6447765e-01 0.0000000e+00 
3.3914382e+00 6.7400205e-01 0.0000000e+00 
1.5986463e+00 6.7124927e-01 0.0000000e+00 
2.6000254e+00 3.2966018e-01 0.0000000e+00 
1.7996057e+00 6.7296129e-01 0.0000000e+00 
1.2000000e+00 3.2679492e-01 0.0000000e+00 
1.0000000e+00 3.2679492e-01 0.0000000e+00 
8.0000001e-01 3.2679492e-01 0.0000000e+00 
6.0786384e-01 3.2318488e-01 0.0000000e+00 
2.2982483e+00 4.9884883e-01 0.0000000e+00 
2.9000001e+00 5.0003433e-01 0.0000000e+00 
3.0999999e+00 4.9996570e-01 0.0000000e+00 
2.0000000e+00 6.7323941e-01 0.0000000e+00 
1.4641017e-01 8.5358983e-01 0.0000000e+00 
3.8535898e+00 8.5358983e-01 0.0000000e+00 
3.8535898e+00 1.4641017e-01 0.0000000e+00 
1.4641017e-01 1.4641017e-01 0.0000000e+00 
3.5479531e+00 6.8622428e-01 0.0000000e+00 
4.4691527e-01 3.0861655e-01 0.0000000e+00 
3.0925509e-01 5.4205400e-01 0.0000000e+00 
3.6897502e+00 4.5812324e-01 0.0000000e+00 

CELLS 248 992
3 0 145 49
3 1 144 22
3 2 143 26
3 3 142 45
3 4 145 0
3 5 120 4
3 6 58 5
3 6 103 58
3 7 103 6
3 8 62 7
3 8 107 62
3 9 107 8
3 10 63 9
3 10 86 63
3 11 86 10
3 12 64 11
3 12 84 64
3 13 84 12
3 14 59 13
3 14 81 59
3 15 81 14
3 16 75 15
3 17 51 16
3 17 111 51
3 18 111 17
3 19 61 18
3 19 116 61
3 20 116 19
3 21 57 20
3 21 76 57
3 22 76 21
3 22 144 76
3 23 144 1
3 24 118 23
3 25 65 24
3 25 119 65
3 26 119 25
3 26 143 119
3 27 143 2
3 28 67 27
3 28 105 67
3 29 105 28
3 30 52 29
3 30 113 52
3 31 113 30
3 32 60 31
3 32 85 60
3 33 85 32
3 34 69 33
3 35 50 34
3 35 108 50
3 36 108 35
3 37 56 36
3 37 104 56
3 38 104 37
3 39 53 38
3 39 88 53
3 40 88 39
3 41 55 40
3 41 109 55
3 42 109 41
3 43 54 42
3 43 106 54
3 44 106 43
3 45 68 44
3 45 142 68
3 46 142 3
3 47 121 46
3 48 66 47
3 48 110 66
3 49 110 48
3 49 145 110
3 50 69 34
3 50 70 69
3 50 72 70
3 50 108 72
3 51 75 16
3 51 132 75
3 52 105 29
3 52 130 105
3 53 104 38
3 53 131 104
3 54 96 94
3 54 106 96
3 54 109 42
3 55 88 40
3 55 89 88
3 55 90 89
3 55 109 90
3 56 108 36
3 56 141 108
3 57 116 20
3 58 120 5
3 58 147 120
3 59 84 13
3 60 113 31
3 60 114 113
3 60 115 114
3 61 111 18
3 61 112 111
3 61 117 112
3 62 103 7
3 62 136 103
3 63 107 9
3 63 134 107
3 64 86 11
3 64 87 86
3 64 99 87
3 65 118 24
3 65 149 118
3 66 121 47
3 66 148 121
3 67 123 119
3 67 143 27
3 67 146 123
3 68 106 44
3 68 121 98
3 68 142 121
3 69 85 33
3 70 71 69
3 70 73 71
3 70 138 73
3 71 85 69
3 71 115 85
3 72 138 70
3 72 141 127
3 73 74 71
3 73 132 74
3 73 138 124
3 74 115 71
3 74 132 125
3 74 139 115
3 75 81 15
3 75 124 81
3 75 132 124
3 76 77 57
3 76 118 77
3 76 144 118
3 77 78 57
3 77 79 78
3 77 149 79
3 78 116 57
3 78 117 116
3 79 80 78
3 79 130 80
3 79 146 130
3 79 149 123
3 80 117 78
3 80 130 126
3 80 140 117
3 81 82 59
3 81 124 82
3 82 83 59
3 82 127 83
3 82 138 127
3 83 84 59
3 83 99 84
3 83 102 99
3 83 127 102
3 84 99 64
3 85 115 60
3 86 128 63
3 87 128 86
3 88 129 53
3 89 129 88
3 90 91 89
3 90 92 91
3 90 94 92
3 90 109 94
3 91 93 89
3 91 134 93
3 91 135 134
3 92 135 91
3 92 136 135
3 93 128 101
3 93 129 89
3 93 134 128
3 94 95 92
3 94 96 95
3 94 109 54
3 95 136 92
3 95 137 136
3 96 97 95
3 96 98 97
3 96 106 98
3 97 137 95
3 97 147 137
3 97 148 122
3 98 106 68
3 98 148 97
3 99 100 87
3 99 102 100
3 100 101 87
3 100 131 101
3 100 133 131
3 101 128 87
3 101 129 93
3 101 131 129
3 102 133 100
3 102 141 133
3 103 137 58
3 104 133 56
3 105 146 67
3 107 135 62
3 108 141 72
3 110 122 66
3 110 145 120
3 111 125 51
3 112 125 111
3 112 139 125
3 112 140 139
3 113 126 52
3 114 126 113
3 114 140 126
3 115 139 114
3 116 117 61
3 117 140 112
3 118 144 23
3 118 149 77
3 119 123 65
3 119 143 67
3 120 122 110
3 120 145 4
3 120 147 122
3 121 142 46
3 121 148 98
3 122 147 97
3 122 148 66
3 123 146 79
3 123 149 65
3 124 132 73
3 124 138 82
3 125 132 51
3 125 139 74
3 126 130 52
3 126 140 80
3 127 138 72
3 127 141 102
3 128 134 63
3 129 131 53
3 130 146 105
3 131 133 104
3 133 141 56
3 134 135 107
3 135 136 62
3 136 137 103
3 137 147 58
3 139 140 114

CELL_TYPES 248
5
5
5
5
5
5
5
5
5
5
5
5
5
5
5
5
5
5
5
5
5
5
5
5
5
5
5
5
5
5
5
5
5
5
5
5
5
5
5
5
5
5
5
5
5
5
5
5
5
5
5
5
5
5
5
5
5
5
5
5
5
5
5
5
5
5
5
5
5
5
5
5
5
5
5
5
5
5
5
5
5
5
5
5
5
5
5
5
5
5
5
5
5
5
5
5
5
5
5
5
5
5
5
5
5
5
5
5
5
5
5
5
5
5
5
5
5
5
5
5
5
5
5
5
5
5
5
5
5
5
5
5
5
5
5
5
5
5
5
5
5
5
5
5
5
5
5
5
5
5
5
5
5
5
5
5
5
5
5
5
5
5
5
5
5
5
5
5
5
5
5
5
5
5
5
5
5
5
5
5
5
5
5
5
5
5
5
5
5
5
5
5
5
5
5
5
5
5
5
5
5
5
5
5
5
5
5
5
5
5
5
5
5
5
5
5
5
5
5
5
5
5
5
5
5
5
5
5
5
5
5
5
5
5
5
5
5
5
5
5
5
5
5
5
5
5
5
5
POINT_DATA 150
FIELD FieldData 3
HEIGHT 1 150  float
1.0000000e+00
1.0000000e+00
1.0000000e+00
1.0000000e+00
1.0000000e+00
1.0000000e+00
1.0000000e+00
1.0000000e+00
1.0000000e+00
1.0000000e+00
1.0000000e+00
1.0000000e+00
1.0000000e+00
1.0000000e+00
1.0000000e+00
1.0000000e+00
1.0000000e+00
1.0000000e+00
1.0000000e+00
1.0000000e+00
1.0000000e+00
1.0000000e+00
1.0000000e+00
1.0000000e+00
1.0000000e+00
1.0000000e+00
1.0000000e+00
1.0000000e+00
1.0000000e+00
1.0000000e+00
1.0000000e+00
1.0000000e+00
1.0000000e+00
1.0000000e+00
1.0000000e+00
1.0000000e+00
1.0000000e+00
1.0000000e+00
1.0000000e+00
1.0000000e+00
1.0000000e+00
1.0000000e+00
1.0000000e+00
1.0000000e+00
1.0000000e+00
1.0000000e+00
1.0000000e+00
1.0000000e+00
1.0000000e+00
1.0000000e+00
1.0000000e+00
1.0000000e+00
1.0000000e+00
1.0000000e+00
1.0000000e+00
1.0000000e+00
1.0000000e+00
1.0000000e+00
1.0000000e+00
1.0000000e+00
1.0000000e+00
1.0000000e+00
1.0000000e+00
1.0000000e+00
1.0000000e+00
1.0000000e+00
1.0000000e+00
1.0000000e+00
1.0000000e+00
1.0000000e+00
1.0000000e+00
1.0000000e+00
1.0000000e+00
1.0000000e+00
1.0000000e+00
1.0000000e+00
1.0000000e+00
1.0000000e+00
1.0000000e+00
1.0000000e+00
1.0000000e+00
1.0000000e+00
1.0000000e+00
1.0000000e+00
1.0000000e+00
1.0000000e+00
1.0000000e+00
1.0000000e+00
1.0000000e+00
1.0000000e+00
1.0000000e+00
1.0000000e+00
1.0000000e+00
1.0000000e+00
1.0000000e+00
1.0000000e+00
1.0000000e+00
1.0000000e+00
1.0000000e+00
1.0000000e+00
1.0000000e+00
1.0000000e+00
1.0000000e+00
1.0000000e+00
1.0000000e+00
1.0000000e+00
1.0000000e+00
1.0000000e+00
1.0000000e+00
1.0000000e+00
1.0000000e+00
1.0000000e+00
1.0000000e+00
1.0000000e+00
1.0000000e+00
1.0000000e+00
1.0000000e+00
1.0000000e+00
1.0000000e+00
1.0000000e+00
1.0000000e+00
1.0000000e+00
1.0000000e+00
1.0000000e+00
1.0000000e+00
1.0000000e+00
1.0000000e+00
1.0000000e+00
1.0000000e+00
1.0000000e+00
1.0000000e+00
1.0000000e+00
1.0000000e+00
1.0000000e+00
1.0000000e+00
1.0000000e+00
1.0000000e+00
1.0000000e+00
1.0000000e+00
1.0000000e+00
1.0000000e+00
1.0000000e+00
1.0000000e+00
1.0000000e+00
1.0000000e+00
1.0000000e+00
1.0000000e+00
1.0000000e+00
1.0000000e+00
1.0000000e+00
MOMENTUM 3 150  float
-3.9088707e-16 3.9088707e-16 0.0000000e+00 
4.7871893e-16 4.7871893e-16 0.0000000e+00 
-5.6229362e-17 5.6229362e-17 0.0000000e+00 
8.0422655e-16 8.0422655e-16 0.0000000e+00 
-3.2268054e-16 0.0000000e+00 0.0000000e+00 
-9.4515071e-18 0.0000000e+00 0.0000000e+00 
1.8417321e-16 0.0000000e+00 0.0000000e+00 
-2.1803913e-16 0.0000000e+00 0.0000000e+00 
2.8375585e-16 0.0000000e+00 0.0000000e+00 
3.2931524e-16 0.0000000e+00 0.0000000e+00 
4.2581749e-16 0.0000000e+00 0.0000000e+00 
5.2320537e-16 0.0000000e+00 0.0000000e+00 
-5.0575501e-16 0.0000000e+00 0.0000000e+00 
7.9631136e-17 0.0000000e+00 0.0000000e+00 
1.7292605e-16 0.0000000e+00 0.0000000e+00 
-7.6377845e-16 0.0000000e+00 0.0000000e+00 
5.4581554e-16 0.0000000e+00 0.0000000e+00 
7.7977954e-16 0.0000000e+00 0.0000000e+00 
4.2219465e-16 0.0000000e+00 0.0000000e+00 
-8.0468707e-16 0.0000000e+00 0.0000000e+00 
7.0538405e-16 0.0000000e+00 0.0000000e+00 
-8.0747741e-16 0.0000000e+00 0.0000000e+00 
9.1867362e-16 0.0000000e+00 0.0000000e+00 
0.0000000e+00 -9.5600109e-16 0.0000000e+00 
0.0000000e+00 -6.0330192e-16 0.0000000e+00 
0.0000000e+00 6.0057288e-16 0.0000000e+00 
0.0000000e+00 3.4705497e-16 0.0000000e+00 
-5.8006844e-16 0.0000000e+00 0.0000000e+00 
1.6754039e-16 0.0000000e+00 0.0000000e+00 
4.1508617e-16 0.0000000e+00 0.0000000e+00 
-3.3454407e-17 0.0000000e+00 0.0000000e+00 
6.2434857e-16 0.0000000e+00 0.0000000e+00 
3.9730816e-16 0.0000000e+00 0.0000000e+00 
-8.5347252e-17 0.0000000e+00 0.0000000e+00 
-2.0567061e-16 0.0000000e+00 0.0000000e+00 
3.9662792e-16 0.0000000e+00 0.0000000e+00 
-1.2798917e-16 0.0000000e+00 0.0000000e+00 
-1.3625359e-17 0.0000000e+00 0.0000000e+00 
-1.6123623e-15 0.0000000e+00 0.0000000e+00 
-4.2327189e-16 0.0000000e+00 0.0000000e+00 
1.9185564e-17 0.0000000e+00 0.0000000e+00 
-1.9806431e-16 0.0000000e+00 0.0000000e+00 
-5.1952067e-16 0.0000000e+00 0.0000000e+00 
1.4696046e-17 0.0000000e+00 0.0000000e+00 
-2.6885474e-16 0.0000000e+00 0.0000000e+00 
-4.2421109e-16 0.0000000e+00 0.0000000e+00 
0.0000000e+00 4.3792588e-16 0.0000000e+00 
0.0000000e+00 -9.4944463e-16 0.0000000e+00 
0.0000000e+00 4.9516874e-16 0.0000000e+00 
0.0000000e+00 -1.1606656e-15 0.0000000e+00 
2.0354010e-16 3.4672079e-16 0.0000000e+00 
-1.0570307e-15 3.1046505e-16 0.0000000e+00 
-3.1637022e-16 1.8947652e-16 0.0000000e+00 
9.1169957e-16 1.4009415e-16 0.0000000e+00 
1.7615401e-16 -3.2104208e-16 0.0000000e+00 
2.4238832e-16 -3.9340916e-16 0.0000000e+00 
3.8267477e-16 2.8898522e-16 0.0000000e+00 
3.4244030e-17 -8.0159053e-16 0.0000000e+00 
-3.9162690e-16 6.2678887e-16 0.0000000e+00 
-3.3056318e-16 -2.0471189e-16 0.0000000e+00 
-5.3749979e-16 -5.0263517e-17 0.0000000e+00 
6.4489303e-16 -3.3017283e-16 0.0000000e+00 
2.1669831e-16 3.0902742e-16 0.0000000e+00 
8.1774011e-16 2.5212304e-16 0.0000000e+00 
-5.2217659e-16 -5.3593188e-16 0.0000000e+00 
5.8508060e-16 -4.7691428e-16 0.0000000e+00 
-4.6621752e-16 -7.3958814e-17 0.0000000e+00 
5.4353654e-16 -1.0159006e-15 0.0000000e+00 
3.4387899e-16 5.4629438e-16 0.0000000e+00 
-3.4660930e-16 2.9586006e-16 0.0000000e+00 
1.6301714e-16 -2.6828310e-16 0.0000000e+00 
-4.6883475e-16 -1.1977825e-15 0.0000000e+00 
3.2950093e-16 5.8575240e-16 0.0000000e+00 
2.7787599e-16 1.2397758e-15 0.0000000e+00 
8.2518622e-16 1.3550302e-16 0.0000000e+00 
1.0018907e-15 2.3908302e-17 0.0000000e+00 
3.7067017e-16 9.0283918e-16 0.0000000e+00 
7.7581293e-16 -7.7996700e-16 0.0000000e+00 
3.6321835e-17 -6.4577194e-16 0.0000000e+00 
-9.0488096e-16 2.9685206e-17 0.0000000e+00 
2.2079841e-18 -2.4341120e-16 0.0000000e+00 
3.5784003e-16 -1.7416513e-19 0.0000000e+00 
-1.6301558e-16 6.5749508e-16 0.0000000e+00 
1.2157419e-16 -5.1783931e-16 0.0000000e+00 
-5.5611849e-17 7.7782030e-16 0.0000000e+00 
1.2142891e-16 4.3322183e-16 0.0000000e+00 
-1.0987843e-15 1.5361718e-16 0.0000000e+00 
1.1497628e-15 4.8499455e-16 0.0000000e+00 
-9.8834663e-16 2.3554067e-16 0.0000000e+00 
-2.3282643e-16 3.4018220e-16 0.0000000e+00 
-4.7918318e-17 -1.1856073e-15 0.0000000e+00 
6.4139659e-16 1.1447288e-16 0.0000000e+00 
6.7489288e-16 2.8690425e-17 0.0000000e+00 
6.3052471e-16 7.0423357e-16 0.0000000e+00 
6.1599433e-16 8.5247100e-16 0.0000000e+00 
1.4782914e-16 -6.8583855e-16 0.0000000e+00 
9.9888044e-16 -1.2466185e-15 0.0000000e+00 
-1.2357031e-16 3.7477102e-16 0.0000000e+00 
-5.5536266e-16 1.0690138e-16 0.0000000e+00 
3.9359517e-16 -5.9232776e-17 0.0000000e+00 
-1.8237945e-16 -5.8957294e-16 0.0000000e+00 
-4.4385908e-16 -4.7966867e-16 0.0000000e+00 
-5.0785147e-16 4.3607323e-16 0.0000000e+00 
-1.5841609e-16 -1.9696454e-16 0.0000000e+00 
7.9318675e-16 7.4813682e-16 0.0000000e+00 
-2.3023989e-16 5.5548417e-18 0.0000000e+00 
3.3589207e-17 -4.2945020e-17 0.0000000e+00 
-9.4230065e-16 -4.2914686e-16 0.0000000e+00 
-2.9029558e-16 -4.8406059e-16 0.0000000e+00 
5.1526814e-16 5.3084921e-16 0.0000000e+00 
-1.2011410e-16 -4.5470195e-16 0.0000000e+00 
2.3762416e-16 -5.5565859e-16 0.0000000e+00 
-5.5386532e-17 2.8871166e-16 0.0000000e+00 
9.3363561e-16 -3.4367517e-16 0.0000000e+00 
-1.2703656e-16 -8.8183610e-16 0.0000000e+00 
-1.1322795e-18 -1.9722841e-16 0.0000000e+00 
-8.7369496e-17 9.9691320e-16 0.0000000e+00 
-6.6109603e-16 4.6915111e-16 0.0000000e+00 
-2.3302418e-18 1.4565960e-15 0.0000000e+00 
-2.0958061e-16 4.4199751e-16 0.0000000e+00 
4.9957876e-16 5.2574991e-16 0.0000000e+00 
-4.3994807e-16 1.6890721e-16 0.0000000e+00 
-1.4843221e-16 -7.3404489e-16 0.0000000e+00 
7.9424220e-16 -2.4526353e-16 0.0000000e+00 
-5.2630202e-16 -3.2055308e-16 0.0000000e+00 
2.4087031e-16 -1.8703853e-15 0.0000000e+00 
-7.0055522e-16 2.0298713e-16 0.0000000e+00 
-1.4077772e-16 6.1716192e-16 0.0000000e+00 
-6.3625065e-16 1.4827568e-16 0.0000000e+00 
-1.1918458e-16 9.2344453e-16 0.0000000e+00 
9.8068416e-16 -3.5260479e-17 0.0000000e+00 
-7.1486636e-17 9.5762676e-16 0.0000000e+00 
1.3532512e-16 -2.4135762e-16 0.0000000e+00 
4.2420522e-16 -4.9594563e-16 0.0000000e+00 
-7.5100487e-16 2.7279678e-16 0.0000000e+00 
2.1698346e-16 -7.4264556e-16 0.0000000e+00 
-5.8881437e-16 4.6520966e-16 0.0000000e+00 
1.3222454e-15 -2.0044073e-16 0.0000000e+00 
-7.6267528e-17 -2.9243694e-15 0.0000000e+00 
2.4734259e-16 -8.4855268e-16 0.0000000e+00 
6.4599862e-16 -4.2852723e-16 0.0000000e+00 
6.6134093e-16 -3.9246917e-16 0.0000000e+00 
-5.5826300e-16 -8.0248711e-16 0.0000000e+00 
3.0583477e-16 -3.2319516e-16 0.0000000e+00 
-1.8456096e-16 5.2329437e-17 0.0000000e+00 
3.4089243e-16 3.5450288e-16 0.0000000e+00 
2.6066761e-17 6.4444469e-16 0.0000000e+00 
4.6410333e-16 6.8672053e-16 0.0000000e+00 
7.7472317e-16 4.7888543e-16 0.0000000e+00 
-7.6605437e-16 1.7706555e-16 0.0000000e+00 
VELOCITY 3 150  float
-1.5055549e-16 1.3898605e-16 0.0000000e+00 
3.0805344e-16 1.3294170e-16 0.0000000e+00 
-2.4164540e-17 -9.3022358e-18 0.0000000e+00 
2.0952114e-16 2.5623223e-16 0.0000000e+00 
-5.4623282e-17 1.7928272e-16 0.0000000e+00 
1.7239432e-18 1.9208980e-16 0.0000000e+00 
-1.8544781e-17 7.1637395e-17 0.0000000e+00 
-6.0311770e-17 1.8677149e-17 0.0000000e+00 
3.0217212e-17 -2.0019903e-17 0.0000000e+00 
2.0302865e-16 -2.9503971e-17 0.0000000e+00 
2.3711144e-16 6.7623372e-17 0.0000000e+00 
-1.5218904e-17 -6.3719119e-17 0.0000000e+00 
-2.9893921e-16 4.0314735e-17 0.0000000e+00 
-5.2282685e-17 9.5518072e-17 0.0000000e+00 
3.3996895e-17 -3.4147677e-17 0.0000000e+00 
-9.5372303e-17 3.9556894e-18 0.0000000e+00 
2.6505119e-16 5.5728892e-17 0.0000000e+00 
3.3398954e-16 -4.0865594e-17 0.0000000e+00 
3.5610790e-16 -1.4763857e-16 0.0000000e+00 
-2.1545806e-16 1.1112339e-16 0.0000000e+00 
2.0949074e-16 3.2553772e-17 0.0000000e+00 
-2.0091487e-16 1.6874777e-17 0.0000000e+00 
4.6295846e-16 1.9908801e-16 0.0000000e+00 
8.7447119e-18 -2.3689487e-16 0.0000000e+00 
9.7125059e-17 -1.6798969e-16 0.0000000e+00 
6.2583334e-17 2.7311307e-16 0.0000000e+00 
1.1356583e-17 2.4806141e-16 0.0000000e+00 
-1.3919640e-16 -2.1849685e-16 0.0000000e+00 
1.2223779e-16 -1.6839096e-16 0.0000000e+00 
1.2761523e-16 3.2505227e-17 0.0000000e+00 
1.7276993e-16 -2.5699777e-17 0.0000000e+00 
4.0851806e-16 -6.5656449e-17 0.0000000e+00 
1.7422572e-16 6.3826388e-17 0.0000000e+00 
-6.4233897e-17 1.2151365e-16 0.0000000e+00 
-1.0074012e-16 1.0709681e-16 0.0000000e+00 
1.5604973e-16 -2.2889965e-17 0.0000000e+00 
-1.6681176e-17 -3.2512559e-17 0.0000000e+00 
4.4134956e-17 1.7285367e-16 0.0000000e+00 
-5.5844152e-16 1.4803849e-16 0.0000000e+00 
-3.5717519e-16 6.2605807e-17 0.0000000e+00 
-1.6651162e-16 -2.6311411e-17 0.0000000e+00 
-1.4450663e-17 2.2906679e-17 0.0000000e+00 
-1.5980399e-16 3.4967856e-17 0.0000000e+00 
-2.3392722e-17 -6.0664520e-17 0.0000000e+00 
-1.0564225e-16 8.3891559e-17 0.0000000e+00 
-2.0322189e-16 2.4320088e-17 0.0000000e+00 
-9.9349633e-17 1.0126479e-16 0.0000000e+00 
-1.5102759e-16 -3.8113971e-16 0.0000000e+00 
-9.7721933e-17 -1.6368268e-17 0.0000000e+00 
4.2224688e-18 -5.2319468e-16 0.0000000e+00 
1.0565092e-16 1.8413280e-16 0.0000000e+00 
-2.8340661e-16 -6.5058576e-17 0.0000000e+00 
-4.4422067e-17 8.0538784e-17 0.0000000e+00 
2.5406102e-16 3.0877615e-16 0.0000000e+00 
2.2631932e-16 -1.5270798e-16 0.0000000e+00 
4.3469003e-17 -2.0329083e-16 0.0000000e+00 
3.1190593e-16 9.2464406e-17 0.0000000e+00 
9.9900522e-17 -3.6129415e-16 0.0000000e+00 
-3.9606946e-18 3.8131655e-16 0.0000000e+00 
-1.2250292e-16 -2.5914119e-17 0.0000000e+00 
-1.0637052e-16 -1.0759158e-16 0.0000000e+00 
2.4338647e-16 -6.5159968e-17 0.0000000e+00 
-8.8867545e-18 7.9218114e-17 0.0000000e+00 
1.8610275e-16 1.3819008e-16 0.0000000e+00 
-2.2722061e-16 -1.5486601e-16 0.0000000e+00 
2.7723005e-16 -8.6151602e-17 0.0000000e+00 
-2.2758968e-16 -1.1991525e-16 0.0000000e+00 
2.9132507e-16 -4.7055470e-16 0.0000000e+00 
-1.2481363e-17 2.2567856e-16 0.0000000e+00 
-1.9596019e-16 9.0753122e-17 0.0000000e+00 
7.4775691e-17 -2.7197844e-16 0.0000000e+00 
-1.4777015e-16 -4.6232048e-16 0.0000000e+00 
2.0813024e-16 3.4101262e-17 0.0000000e+00 
1.4328167e-16 2.1848434e-16 0.0000000e+00 
4.4854704e-16 -1.9187604e-16 0.0000000e+00 
3.9193445e-16 -9.0141676e-18 0.0000000e+00 
2.4653193e-16 4.4536691e-16 0.0000000e+00 
2.8523734e-16 -2.9674820e-16 0.0000000e+00 
-5.1929208e-17 -3.5032092e-16 0.0000000e+00 
-3.2034892e-16 -6.5740530e-17 0.0000000e+00 
-4.9189973e-17 -1.5568361e-16 0.0000000e+00 
1.2818314e-16 1.2924451e-17 0.0000000e+00 
-1.3104914e-16 4.9540383e-17 0.0000000e+00 
-6.2316214e-18 -7.3535834e-17 0.0000000e+00 
-9.1447120e-17 2.7910051e-16 0.0000000e+00 
-2.6128473e-17 1.2082639e-16 0.0000000e+00 
-4.0288392e-16 1.0593037e-16 0.0000000e+00 
3.6739350e-16 1.2895449e-16 0.0000000e+00 
-4.6100742e-16 2.0196299e-16 0.0000000e+00 
-8.6508203e-17 2.0331405e-16 0.0000000e+00 
1.8080033e-16 -4.7003224e-16 0.0000000e+00 
3.6158590e-16 8.7072911e-18 0.0000000e+00 
4.1956901e-16 -8.4149600e-17 0.0000000e+00 
1.8678494e-16 4.6207543e-16 0.0000000e+00 
5.1342272e-16 1.8627162e-16 0.0000000e+00 
3.1555027e-16 -3.2007903e-16 0.0000000e+00 
5.2399306e-16 -5.9961611e-16 0.0000000e+00 
1.5278531e-16 7.3497274e-17 0.0000000e+00 
-1.4538521e-16 7.6725237e-17 0.0000000e+00 
1.9707405e-16 -2.4987730e-17 0.0000000e+00 
-1.2492565e-17 -2.2446585e-16 0.0000000e+00 
-1.5768069e-16 -2.0750815e-17 0.0000000e+00 
-1.4746253e-16 9.8211796e-17 0.0000000e+00 
-3.5488331e-17 1.5665054e-18 0.0000000e+00 
3.9835216e-16 4.4829843e-16 0.0000000e+00 
3.6258704e-17 -1.5325900e-17 0.0000000e+00 
7.5910616e-17 -9.7677914e-17 0.0000000e+00 
-3.7835964e-16 -2.0696496e-16 0.0000000e+00 
8.6601600e-18 -1.7294785e-16 0.0000000e+00 
2.8005352e-16 1.7812566e-16 0.0000000e+00 
-4.1238593e-17 -2.7678829e-16 0.0000000e+00 
2.0008877e-16 -4.1127775e-16 0.0000000e+00 
8.5276121e-17 -1.5265630e-16 0.0000000e+00 
3.7593718e-16 -2.1680725e-16 0.0000000e+00 
-1.4535815e-17 -5.7968971e-16 0.0000000e+00 
4.4827478e-18 -2.9942337e-16 0.0000000e+00 
-4.7429765e-17 3.8942456e-16 0.0000000e+00 
-2.3165925e-16 2.0438736e-16 0.0000000e+00 
5.4616906e-17 6.0801587e-16 0.0000000e+00 
8.0934210e-17 1.2819496e-16 0.0000000e+00 
2.3641012e-16 2.9710821e-16 0.0000000e+00 
-2.5291983e-16 6.6176216e-17 0.0000000e+00 
1.1492503e-17 -2.3890027e-16 0.0000000e+00 
3.3663509e-16 -1.3926692e-16 0.0000000e+00 
-1.3534696e-16 -2.6400336e-16 0.0000000e+00 
1.4819023e-16 -1.0111001e-15 0.0000000e+00 
-1.7368430e-16 -4.3775907e-17 0.0000000e+00 
-3.9948741e-17 1.2896789e-16 0.0000000e+00 
-2.9276037e-16 1.8981255e-16 0.0000000e+00 
-7.5783495e-17 6.1988968e-16 0.0000000e+00 
3.1336111e-16 5.1431192e-17 0.0000000e+00 
7.9562380e-17 4.9935409e-16 0.0000000e+00 
1.3120342e-16 -1.6078599e-16 0.0000000e+00 
3.0172634e-16 -1.2724114e-16 0.0000000e+00 
-3.1482796e-16 1.4034112e-16 0.0000000e+00 
4.6064057e-17 -3.0790190e-16 0.0000000e+00 
-9.2721090e-17 1.0859054e-16 0.0000000e+00 
6.0691478e-16 5.6702259e-18 0.0000000e+00 
-4.3108872e-17 -1.2529055e-15 0.0000000e+00 
2.5104627e-16 -6.7042319e-16 0.0000000e+00 
2.1512233e-16 -2.9867613e-16 0.0000000e+00 
3.4712514e-16 -1.1723735e-16 0.0000000e+00 
-2.5073687e-16 -2.0550815e-16 0.0000000e+00 
1.2268321e-16 -1.7865945e-16 0.0000000e+00 
8.4292768e-17 2.1438003e-16 0.0000000e+00 
1.3703593e-16 1.0737839e-16 0.0000000e+00 
1.3136758e-16 1.9610389e-16 0.0000000e+00 
3.4787114e-16 4.0264270e-16 0.0000000e+00 
2.1400851e-16 2.2370032e-16 0.0000000e+00 
-2.5823472e-16 8.6946423e-17 0.0000000e+00 
CELL_DATA 248
FIELD FieldData 0
