# vtk DataFile Version 4.0
vtk output
ASCII
DATASET UNSTRUCTURED_GRID
POINTS 150 float
0.0000000e+00 0.0000000e+00 0.0000000e+00 
4.0000000e+00 0.0000000e+00 0.0000000e+00 
4.0000000e+00 1.0000000e+00 0.0000000e+00 
0.0000000e+00 1.0000000e+00 0.0000000e+00 
2.0000000e-01 0.0000000e+00 0.0000000e+00 
4.0000001e-01 0.0000000e+00 0.0000000e+00 
6.0000002e-01 0.0000000e+00 0.0000000e+00 
8.0000001e-01 0.0000000e+00 0.0000000e+00 
1.0000000e+00 0.0000000e+00 0.0000000e+00 
1.2000000e+00 0.0000000e+00 0.0000000e+00 
1.4000000e+00 0.0000000e+00 0.0000000e+00 
1.6000000e+00 0.0000000e+00 0.0000000e+00 
1.8000000e+00 0.0000000e+00 0.0000000e+00 
2.0000000e+00 0.0000000e+00 0.0000000e+00 
2.2000000e+00 0.0000000e+00 0.0000000e+00 
2.4000001e+00 0.0000000e+00 0.0000000e+00 
2.5999999e+00 0.0000000e+00 0.0000000e+00 
2.8000000e+00 0.0000000e+00 0.0000000e+00 
3.0000000e+00 0.0000000e+00 0.0000000e+00 
3.2000000e+00 0.0000000e+00 0.0000000e+00 
3.4000001e+00 0.0000000e+00 0.0000000e+00 
3.5999999e+00 0.0000000e+00 0.0000000e+00 
3.8000000e+00 0.0000000e+00 0.0000000e+00 
4.0000000e+00 2.0000000e-01 0.0000000e+00 
4.0000000e+00 4.0000001e-01 0.0000000e+00 
4.0000000e+00 6.0000002e-01 0.0000000e+00 
4.0000000e+00 8.0000001e-01 0.0000000e+00 
3.8000000e+00 1.0000000e+00 0.0000000e+00 
3.5999999e+00 1.0000000e+00 0.0000000e+00 
3.4000001e+00 1.0000000e+00 0.0000000e+00 
3.2000000e+00 1.0000000e+00 0.0000000e+00 
3.0000000e+00 1.0000000e+00 0.0000000e+00 
2.8000000e+00 1.0000000e+00 0.0000000e+00 
2.5999999e+00 1.0000000e+00 0.0000000e+00 
2.4000001e+00 1.0000000e+00 0.0000000e+00 
2.2000000e+00 1.0000000e+00 0.0000000e+00 
2.0000000e+00 1.0000000e+00 0.0000000e+00 
1.8000000e+00 1.0000000e+00 0.0000000e+00 
1.6000000e+00 1.0000000e+00 0.0000000e+00 
1.4000000e+00 1.0000000e+00 0.0000000e+00 
1.2000000e+00 1.0000000e+00 0.0000000e+00 
1.0000000e+00 1.0000000e+00 0.0000000e+00 
8.0000001e-01 1.0000000e+00 0.0000000e+00 
6.0000002e-01 1.0000000e+00 0.0000000e+00 
4.0000001e-01 1.0000000e+00 0.0000000e+00 
2.0000000e-01 1.0000000e+00 0.0000000e+00 
0.0000000e+00 8.0000001e-01 0.0000000e+00 
0.0000000e+00 6.0000002e-01 0.0000000e+00 
0.0000000e+00 4.0000001e-01 0.0000000e+00 
0.0000000e+00 2.0000000e-01 0.0000000e+00 
2.3000000e+00 8.2679492e-01 0.0000000e+00 
2.7026613e+00 1.6839938e-01 0.0000000e+00 
3.2973387e+00 8.3160061e-01 0.0000000e+00 
1.4973388e+00 8.3160061e-01 0.0000000e+00 
6.9999999e-01 8.2679492e-01 0.0000000e+00 
1.1000000e+00 8.2679492e-01 0.0000000e+00 
1.9000000e+00 8.2679492e-01 0.0000000e+00 
3.5000000e+00 1.7320508e-01 0.0000000e+00 
5.1031393e-01 1.6354993e-01 0.0000000e+00 
2.0999999e+00 1.7320508e-01 0.0000000e+00 
2.9000001e+00 8.2679492e-01 0.0000000e+00 
3.0999999e+00 1.7320508e-01 0.0000000e+00 
8.9999998e-01 1.7320508e-01 0.0000000e+00 
1.3026613e+00 1.6839938e-01 0.0000000e+00 
1.7000000e+00 1.7320508e-01 0.0000000e+00 
3.8372447e+00 5.0966793e-01 0.0000000e+00 
1.6370662e-01 4.8866507e-01 0.0000000e+00 
3.6861150e+00 8.0809796e-01 0.0000000e+00 
3.0084747e-01 8.3064556e-01 0.0000000e+00 
2.5000000e+00 8.2679492e-01 0.0000000e+00 
2.4000001e+00 6.5686476e-01 0.0000000e+00 
2.5999999e+00 6.5413564e-01 0.0000000e+00 
2.1973388e+00 6.6568744e-01 0.0000000e+00 
2.4980991e+00 4.8908678e-01 0.0000000e+00 
2.7023444e+00 4.9347213e-01 0.0000000e+00 
2.4977822e+00 1.6759844e-01 0.0000000e+00 
3.6991525e+00 1.6935441e-01 0.0000000e+00 
3.6035600e+00 3.2941929e-01 0.0000000e+00 
3.4005933e+00 3.4357834e-01 0.0000000e+00 
3.5158086e+00 5.1572138e-01 0.0000000e+00 
3.3000517e+00 5.1056737e-01 0.0000000e+00 
2.2969692e+00 1.7073415e-01 0.0000000e+00 
2.1941724e+00 3.3966187e-01 0.0000000e+00 
1.9963675e+00 3.4374896e-01 0.0000000e+00 
1.8993946e+00 1.7276154e-01 0.0000000e+00 
2.7000000e+00 8.2688588e-01 0.0000000e+00 
1.5031048e+00 1.7086764e-01 0.0000000e+00 
1.6031787e+00 3.4448409e-01 0.0000000e+00 
1.2968951e+00 8.2913238e-01 0.0000000e+00 
1.1968212e+00 6.5551591e-01 0.0000000e+00 
9.9947023e-01 6.5391088e-01 0.0000000e+00 
1.1000000e+00 4.8038477e-01 0.0000000e+00 
8.9999998e-01 4.8038477e-01 0.0000000e+00 
1.2996216e+00 4.9228978e-01 0.0000000e+00 
7.9991168e-01 6.5364337e-01 0.0000000e+00 
6.9999999e-01 4.8038477e-01 0.0000000e+00 
5.9998530e-01 6.5359873e-01 0.0000000e+00 
4.8479331e-01 4.8141763e-01 0.0000000e+00 
3.9391196e-01 6.7074126e-01 0.0000000e+00 
1.8000000e+00 3.4641016e-01 0.0000000e+00 
1.7000000e+00 5.1961523e-01 0.0000000e+00 
1.5003334e+00 5.0912750e-01 0.0000000e+00 
1.8991497e+00 5.1739931e-01 0.0000000e+00 
6.9999999e-01 1.7320508e-01 0.0000000e+00 
1.6998384e+00 8.2946962e-01 0.0000000e+00 
3.4885678e+00 8.3318800e-01 0.0000000e+00 
4.9912411e-01 8.3029675e-01 0.0000000e+00 
1.1001617e+00 1.7053038e-01 0.0000000e+00 
2.0998845e+00 8.2817227e-01 0.0000000e+00 
8.9989698e-01 8.2685733e-01 0.0000000e+00 
1.6938214e-01 3.0011359e-01 0.0000000e+00 
2.9031048e+00 1.7086764e-01 0.0000000e+00 
3.0008276e+00 3.4420678e-01 0.0000000e+00 
3.0968952e+00 8.2913238e-01 0.0000000e+00 
2.9991724e+00 6.5579319e-01 0.0000000e+00 
2.8001289e+00 6.5661508e-01 0.0000000e+00 
3.3000989e+00 1.7273311e-01 0.0000000e+00 
3.2002618e+00 3.4070939e-01 0.0000000e+00 
3.8118997e+00 3.1613928e-01 0.0000000e+00 
3.8409591e+00 6.9520664e-01 0.0000000e+00 
3.1562445e-01 1.8911865e-01 0.0000000e+00 
1.8788275e-01 6.8363428e-01 0.0000000e+00 
3.1598091e-01 3.8581166e-01 0.0000000e+00 
3.6863050e+00 6.1217356e-01 0.0000000e+00 
2.3978372e+00 3.3231843e-01 0.0000000e+00 
2.8014896e+00 3.3396253e-01 0.0000000e+00 
3.1989098e+00 6.6671073e-01 0.0000000e+00 
2.0978379e+00 5.0662857e-01 0.0000000e+00 
1.4056216e+00 3.3585981e-01 0.0000000e+00 
1.3943676e+00 6.6447765e-01 0.0000000e+00 
3.3914382e+00 6.7400205e-01 0.0000000e+00 
1.5986463e+00 6.7124927e-01 0.0000000e+00 
2.6000254e+00 3.2966018e-01 0.0000000e+00 
1.7996057e+00 6.7296129e-01 0.0000000e+00 
1.2000000e+00 3.2679492e-01 0.0000000e+00 
1.0000000e+00 3.2679492e-01 0.0000000e+00 
8.0000001e-01 3.2679492e-01 0.0000000e+00 
6.0786384e-01 3.2318488e-01 0.0000000e+00 
2.2982483e+00 4.9884883e-01 0.0000000e+00 
2.9000001e+00 5.0003433e-01 0.0000000e+00 
3.0999999e+00 4.9996570e-01 0.0000000e+00 
2.0000000e+00 6.7323941e-01 0.0000000e+00 
1.4641017e-01 8.5358983e-01 0.0000000e+00 
3.8535898e+00 8.5358983e-01 0.0000000e+00 
3.8535898e+00 1.4641017e-01 0.0000000e+00 
1.4641017e-01 1.4641017e-01 0.0000000e+00 
3.5479531e+00 6.8622428e-01 0.0000000e+00 
4.4691527e-01 3.0861655e-01 0.0000000e+00 
3.0925509e-01 5.4205400e-01 0.0000000e+00 
3.6897502e+00 4.5812324e-01 0.0000000e+00 

CELLS 248 992
3 0 145 49
3 1 144 22
3 2 143 26
3 3 142 45
3 4 145 0
3 5 120 4
3 6 58 5
3 6 103 58
3 7 103 6
3 8 62 7
3 8 107 62
3 9 107 8
3 10 63 9
3 10 86 63
3 11 86 10
3 12 64 11
3 12 84 64
3 13 84 12
3 14 59 13
3 14 81 59
3 15 81 14
3 16 75 15
3 17 51 16
3 17 111 51
3 18 111 17
3 19 61 18
3 19 116 61
3 20 116 19
3 21 57 20
3 21 76 57
3 22 76 21
3 22 144 76
3 23 144 1
3 24 118 23
3 25 65 24
3 25 119 65
3 26 119 25
3 26 143 119
3 27 143 2
3 28 67 27
3 28 105 67
3 29 105 28
3 30 52 29
3 30 113 52
3 31 113 30
3 32 60 31
3 32 85 60
3 33 85 32
3 34 69 33
3 35 50 34
3 35 108 50
3 36 108 35
3 37 56 36
3 37 104 56
3 38 104 37
3 39 53 38
3 39 88 53
3 40 88 39
3 41 55 40
3 41 109 55
3 42 109 41
3 43 54 42
3 43 106 54
3 44 106 43
3 45 68 44
3 45 142 68
3 46 142 3
3 47 121 46
3 48 66 47
3 48 110 66
3 49 110 48
3 49 145 110
3 50 69 34
3 50 70 69
3 50 72 70
3 50 108 72
3 51 75 16
3 51 132 75
3 52 105 29
3 52 130 105
3 53 104 38
3 53 131 104
3 54 96 94
3 54 106 96
3 54 109 42
3 55 88 40
3 55 89 88
3 55 90 89
3 55 109 90
3 56 108 36
3 56 141 108
3 57 116 20
3 58 120 5
3 58 147 120
3 59 84 13
3 60 113 31
3 60 114 113
3 60 115 114
3 61 111 18
3 61 112 111
3 61 117 112
3 62 103 7
3 62 136 103
3 63 107 9
3 63 134 107
3 64 86 11
3 64 87 86
3 64 99 87
3 65 118 24
3 65 149 118
3 66 121 47
3 66 148 121
3 67 123 119
3 67 143 27
3 67 146 123
3 68 106 44
3 68 121 98
3 68 142 121
3 69 85 33
3 70 71 69
3 70 73 71
3 70 138 73
3 71 85 69
3 71 115 85
3 72 138 70
3 72 141 127
3 73 74 71
3 73 132 74
3 73 138 124
3 74 115 71
3 74 132 125
3 74 139 115
3 75 81 15
3 75 124 81
3 75 132 124
3 76 77 57
3 76 118 77
3 76 144 118
3 77 78 57
3 77 79 78
3 77 149 79
3 78 116 57
3 78 117 116
3 79 80 78
3 79 130 80
3 79 146 130
3 79 149 123
3 80 117 78
3 80 130 126
3 80 140 117
3 81 82 59
3 81 124 82
3 82 83 59
3 82 127 83
3 82 138 127
3 83 84 59
3 83 99 84
3 83 102 99
3 83 127 102
3 84 99 64
3 85 115 60
3 86 128 63
3 87 128 86
3 88 129 53
3 89 129 88
3 90 91 89
3 90 92 91
3 90 94 92
3 90 109 94
3 91 93 89
3 91 134 93
3 91 135 134
3 92 135 91
3 92 136 135
3 93 128 101
3 93 129 89
3 93 134 128
3 94 95 92
3 94 96 95
3 94 109 54
3 95 136 92
3 95 137 136
3 96 97 95
3 96 98 97
3 96 106 98
3 97 137 95
3 97 147 137
3 97 148 122
3 98 106 68
3 98 148 97
3 99 100 87
3 99 102 100
3 100 101 87
3 100 131 101
3 100 133 131
3 101 128 87
3 101 129 93
3 101 131 129
3 102 133 100
3 102 141 133
3 103 137 58
3 104 133 56
3 105 146 67
3 107 135 62
3 108 141 72
3 110 122 66
3 110 145 120
3 111 125 51
3 112 125 111
3 112 139 125
3 112 140 139
3 113 126 52
3 114 126 113
3 114 140 126
3 115 139 114
3 116 117 61
3 117 140 112
3 118 144 23
3 118 149 77
3 119 123 65
3 119 143 67
3 120 122 110
3 120 145 4
3 120 147 122
3 121 142 46
3 121 148 98
3 122 147 97
3 122 148 66
3 123 146 79
3 123 149 65
3 124 132 73
3 124 138 82
3 125 132 51
3 125 139 74
3 126 130 52
3 126 140 80
3 127 138 72
3 127 141 102
3 128 134 63
3 129 131 53
3 130 146 105
3 131 133 104
3 133 141 56
3 134 135 107
3 135 136 62
3 136 137 103
3 137 147 58
3 139 140 114

CELL_TYPES 248
5
5
5
5
5
5
5
5
5
5
5
5
5
5
5
5
5
5
5
5
5
5
5
5
5
5
5
5
5
5
5
5
5
5
5
5
5
5
5
5
5
5
5
5
5
5
5
5
5
5
5
5
5
5
5
5
5
5
5
5
5
5
5
5
5
5
5
5
5
5
5
5
5
5
5
5
5
5
5
5
5
5
5
5
5
5
5
5
5
5
5
5
5
5
5
5
5
5
5
5
5
5
5
5
5
5
5
5
5
5
5
5
5
5
5
5
5
5
5
5
5
5
5
5
5
5
5
5
5
5
5
5
5
5
5
5
5
5
5
5
5
5
5
5
5
5
5
5
5
5
5
5
5
5
5
5
5
5
5
5
5
5
5
5
5
5
5
5
5
5
5
5
5
5
5
5
5
5
5
5
5
5
5
5
5
5
5
5
5
5
5
5
5
5
5
5
5
5
5
5
5
5
5
5
5
5
5
5
5
5
5
5
5
5
5
5
5
5
5
5
5
5
5
5
5
5
5
5
5
5
5
5
5
5
5
5
5
5
5
5
5
5
5
5
5
5
5
5
POINT_DATA 150
FIELD FieldData 3
HEIGHT 1 150  float
1.0000000e+00
1.0000000e+00
1.0000000e+00
1.0000000e+00
1.0000000e+00
1.0000000e+00
1.0000000e+00
1.0000000e+00
1.0000000e+00
1.0000000e+00
1.0000000e+00
1.0000000e+00
1.0000000e+00
1.0000000e+00
1.0000000e+00
1.0000000e+00
1.0000000e+00
1.0000000e+00
1.0000000e+00
1.0000000e+00
1.0000000e+00
1.0000000e+00
1.0000000e+00
1.0000000e+00
1.0000000e+00
1.0000000e+00
1.0000000e+00
1.0000000e+00
1.0000000e+00
1.0000000e+00
1.0000000e+00
1.0000000e+00
1.0000000e+00
1.0000000e+00
1.0000000e+00
1.0000000e+00
1.0000000e+00
1.0000000e+00
1.0000000e+00
1.0000000e+00
1.0000000e+00
1.0000000e+00
1.0000000e+00
1.0000000e+00
1.0000000e+00
1.0000000e+00
1.0000000e+00
1.0000000e+00
1.0000000e+00
1.0000000e+00
1.0000000e+00
1.0000000e+00
1.0000000e+00
1.0000000e+00
1.0000000e+00
1.0000000e+00
1.0000000e+00
1.0000000e+00
1.0000000e+00
1.0000000e+00
1.0000000e+00
1.0000000e+00
1.0000000e+00
1.0000000e+00
1.0000000e+00
1.0000000e+00
1.0000000e+00
1.0000000e+00
1.0000000e+00
1.0000000e+00
1.0000000e+00
1.0000000e+00
1.0000000e+00
1.0000000e+00
1.0000000e+00
1.0000000e+00
1.0000000e+00
1.0000000e+00
1.0000000e+00
1.0000000e+00
1.0000000e+00
1.0000000e+00
1.0000000e+00
1.0000000e+00
1.0000000e+00
1.0000000e+00
1.0000000e+00
1.0000000e+00
1.0000000e+00
1.0000000e+00
1.0000000e+00
1.0000000e+00
1.0000000e+00
1.0000000e+00
1.0000000e+00
1.0000000e+00
1.0000000e+00
1.0000000e+00
1.0000000e+00
1.0000000e+00
1.0000000e+00
1.0000000e+00
1.0000000e+00
1.0000000e+00
1.0000000e+00
1.0000000e+00
1.0000000e+00
1.0000000e+00
1.0000000e+00
1.0000000e+00
1.0000000e+00
1.0000000e+00
1.0000000e+00
1.0000000e+00
1.0000000e+00
1.0000000e+00
1.0000000e+00
1.0000000e+00
1.0000000e+00
1.0000000e+00
1.0000000e+00
1.0000000e+00
1.0000000e+00
1.0000000e+00
1.0000000e+00
1.0000000e+00
1.0000000e+00
1.0000000e+00
1.0000000e+00
1.0000000e+00
1.0000000e+00
1.0000000e+00
1.0000000e+00
1.0000000e+00
1.0000000e+00
1.0000000e+00
1.0000000e+00
1.0000000e+00
1.0000000e+00
1.0000000e+00
1.0000000e+00
1.0000000e+00
1.0000000e+00
1.0000000e+00
1.0000000e+00
1.0000000e+00
1.0000000e+00
1.0000000e+00
1.0000000e+00
1.0000000e+00
MOMENTUM 3 150  float
-4.1013825e-16 4.1013825e-16 0.0000000e+00 
2.4424878e-16 2.4424878e-16 0.0000000e+00 
-1.1315988e-16 1.1315988e-16 0.0000000e+00 
6.6996606e-16 6.6996606e-16 0.0000000e+00 
-3.4092070e-16 0.0000000e+00 0.0000000e+00 
6.7929495e-17 0.0000000e+00 0.0000000e+00 
1.6387258e-16 0.0000000e+00 0.0000000e+00 
-1.9167604e-16 0.0000000e+00 0.0000000e+00 
2.6712002e-16 0.0000000e+00 0.0000000e+00 
2.6373334e-16 0.0000000e+00 0.0000000e+00 
3.5106935e-16 0.0000000e+00 0.0000000e+00 
4.3285671e-16 0.0000000e+00 0.0000000e+00 
-4.4233739e-16 0.0000000e+00 0.0000000e+00 
7.9870548e-17 0.0000000e+00 0.0000000e+00 
1.3751843e-16 0.0000000e+00 0.0000000e+00 
-6.5677924e-16 0.0000000e+00 0.0000000e+00 
4.7597407e-16 0.0000000e+00 0.0000000e+00 
6.6817871e-16 0.0000000e+00 0.0000000e+00 
3.7815574e-16 0.0000000e+00 0.0000000e+00 
-7.1971564e-16 0.0000000e+00 0.0000000e+00 
6.3455881e-16 0.0000000e+00 0.0000000e+00 
-8.1579808e-16 0.0000000e+00 0.0000000e+00 
9.5517343e-16 0.0000000e+00 0.0000000e+00 
0.0000000e+00 -8.1671118e-16 0.0000000e+00 
0.0000000e+00 -4.6560718e-16 0.0000000e+00 
0.0000000e+00 5.7828030e-16 0.0000000e+00 
0.0000000e+00 3.2581916e-16 0.0000000e+00 
-5.7086093e-16 0.0000000e+00 0.0000000e+00 
1.5475146e-16 0.0000000e+00 0.0000000e+00 
3.2332680e-16 0.0000000e+00 0.0000000e+00 
-2.9083418e-18 0.0000000e+00 0.0000000e+00 
5.8084030e-16 0.0000000e+00 0.0000000e+00 
1.7237162e-16 0.0000000e+00 0.0000000e+00 
-3.8290720e-17 0.0000000e+00 0.0000000e+00 
-1.2431795e-16 0.0000000e+00 0.0000000e+00 
3.6887583e-16 0.0000000e+00 0.0000000e+00 
-1.6654582e-16 0.0000000e+00 0.0000000e+00 
-3.8598004e-17 0.0000000e+00 0.0000000e+00 
-1.3886838e-15 0.0000000e+00 0.0000000e+00 
-3.4225645e-16 0.0000000e+00 0.0000000e+00 
4.7577526e-18 0.0000000e+00 0.0000000e+00 
-1.4689873e-16 0.0000000e+00 0.0000000e+00 
-4.6761687e-16 0.0000000e+00 0.0000000e+00 
7.6203278e-18 0.0000000e+00 0.0000000e+00 
-2.3225577e-16 0.0000000e+00 0.0000000e+00 
-3.5391186e-16 0.0000000e+00 0.0000000e+00 
0.0000000e+00 3.7161882e-16 0.0000000e+00 
0.0000000e+00 -8.0221252e-16 0.0000000e+00 
0.0000000e+00 4.4640807e-16 0.0000000e+00 
0.0000000e+00 -1.0414628e-15 0.0000000e+00 
2.1188550e-16 2.3929763e-16 0.0000000e+00 
-8.8038212e-16 2.0024404e-16 0.0000000e+00 
-3.0761733e-16 1.8650297e-16 0.0000000e+00 
7.2918642e-16 1.7941436e-16 0.0000000e+00 
2.1680919e-16 -2.2701735e-16 0.0000000e+00 
2.1016028e-16 -3.4398019e-16 0.0000000e+00 
3.1724899e-16 2.8087369e-16 0.0000000e+00 
4.4297265e-17 -6.9694946e-16 0.0000000e+00 
-3.5155393e-16 5.4050168e-16 0.0000000e+00 
-2.7372780e-16 -1.7058381e-16 0.0000000e+00 
-3.8922993e-16 -2.1557189e-18 0.0000000e+00 
5.4742495e-16 -2.8881769e-16 0.0000000e+00 
2.1525914e-16 2.8941520e-16 0.0000000e+00 
8.2600345e-16 1.7588941e-16 0.0000000e+00 
-4.2301551e-16 -4.6147218e-16 0.0000000e+00 
5.2555250e-16 -5.8860357e-16 0.0000000e+00 
-4.1982682e-16 -5.0701467e-17 0.0000000e+00 
5.5972001e-16 -7.9650992e-16 0.0000000e+00 
3.0483083e-16 4.5702356e-16 0.0000000e+00 
-3.2931918e-16 2.7221678e-16 0.0000000e+00 
1.5608530e-16 -2.2482457e-16 0.0000000e+00 
-3.7240177e-16 -1.0340502e-15 0.0000000e+00 
2.6075862e-16 5.4837834e-16 0.0000000e+00 
1.9457302e-16 1.0847292e-15 0.0000000e+00 
7.5056463e-16 2.1148651e-16 0.0000000e+00 
8.4719018e-16 -5.4837682e-18 0.0000000e+00 
3.0286730e-16 8.5583616e-16 0.0000000e+00 
6.9235483e-16 -6.8975629e-16 0.0000000e+00 
2.0415125e-17 -5.5082087e-16 0.0000000e+00 
-7.9664121e-16 1.3505555e-17 0.0000000e+00 
-1.9524243e-17 -2.2475924e-16 0.0000000e+00 
3.1219959e-16 2.1172968e-17 0.0000000e+00 
-1.2593221e-16 5.7774661e-16 0.0000000e+00 
1.1426125e-16 -4.4643782e-16 0.0000000e+00 
-6.0431777e-17 6.7671971e-16 0.0000000e+00 
6.2125393e-17 3.9148484e-16 0.0000000e+00 
-9.5732521e-16 1.4016900e-16 0.0000000e+00 
9.7720508e-16 4.1827591e-16 0.0000000e+00 
-8.2695287e-16 2.2381991e-16 0.0000000e+00 
-2.0827079e-16 2.7099811e-16 0.0000000e+00 
-2.1207764e-17 -1.0026708e-15 0.0000000e+00 
4.8335252e-16 1.3439774e-16 0.0000000e+00 
5.7374200e-16 2.8634104e-17 0.0000000e+00 
5.7963042e-16 7.8174704e-16 0.0000000e+00 
5.7115437e-16 7.2290641e-16 0.0000000e+00 
1.6694769e-16 -6.3555053e-16 0.0000000e+00 
9.1206390e-16 -1.0599315e-15 0.0000000e+00 
-1.0007528e-16 2.9417661e-16 0.0000000e+00 
-5.6750816e-16 1.3408393e-16 0.0000000e+00 
3.1841734e-16 -3.6342392e-17 0.0000000e+00 
-2.1442298e-17 -5.9258414e-16 0.0000000e+00 
-3.4559085e-16 -4.8700472e-16 0.0000000e+00 
-4.7037317e-16 3.8815015e-16 0.0000000e+00 
-1.3977069e-16 -1.5499225e-16 0.0000000e+00 
7.7277738e-16 6.5854631e-16 0.0000000e+00 
-2.0998679e-16 -1.9205363e-16 0.0000000e+00 
1.2914296e-17 2.7786324e-17 0.0000000e+00 
-9.0416320e-16 -4.8264461e-16 0.0000000e+00 
-2.9116498e-16 -5.9979139e-16 0.0000000e+00 
4.2262714e-16 4.3730906e-16 0.0000000e+00 
-9.5760761e-17 -4.3675735e-16 0.0000000e+00 
1.7585149e-16 -4.7189900e-16 0.0000000e+00 
-3.4649980e-17 2.6765995e-16 0.0000000e+00 
8.5928067e-16 -4.1079211e-16 0.0000000e+00 
-4.3785772e-18 -7.9846170e-16 0.0000000e+00 
-1.0940747e-16 -3.1042304e-16 0.0000000e+00 
-7.1819593e-17 8.6097246e-16 0.0000000e+00 
-5.7720526e-16 4.1740000e-16 0.0000000e+00 
-6.5504029e-17 1.3127211e-15 0.0000000e+00 
-2.8585419e-16 5.4102620e-16 0.0000000e+00 
4.4437519e-16 5.2489869e-16 0.0000000e+00 
-3.8135443e-16 1.4563212e-16 0.0000000e+00 
-1.2514249e-16 -6.4145593e-16 0.0000000e+00 
7.7803550e-16 -2.5144657e-16 0.0000000e+00 
-5.3859082e-16 -2.8804059e-16 0.0000000e+00 
3.0569618e-16 -1.6006925e-15 0.0000000e+00 
-6.2152742e-16 1.9084464e-16 0.0000000e+00 
-1.1778591e-16 4.9617406e-16 0.0000000e+00 
-5.5136583e-16 -3.1007077e-17 0.0000000e+00 
-1.7963730e-16 6.7064247e-16 0.0000000e+00 
8.6556936e-16 -1.8907231e-17 0.0000000e+00 
-6.4805849e-17 9.5655039e-16 0.0000000e+00 
1.1123305e-16 -2.0297775e-16 0.0000000e+00 
4.6542184e-16 -5.0923647e-16 0.0000000e+00 
-6.3961507e-16 2.7149333e-16 0.0000000e+00 
1.3138769e-16 -6.4611483e-16 0.0000000e+00 
-5.1907836e-16 3.9642116e-16 0.0000000e+00 
1.1375685e-15 -1.4801706e-16 0.0000000e+00 
-4.9923245e-17 -2.5316203e-15 0.0000000e+00 
2.0028093e-16 -7.1707856e-16 0.0000000e+00 
5.4893235e-16 -3.9403790e-16 0.0000000e+00 
5.5942593e-16 -2.9570386e-16 0.0000000e+00 
-4.9587230e-16 -6.8909476e-16 0.0000000e+00 
2.4201738e-16 -5.9830326e-16 0.0000000e+00 
-2.7510677e-16 8.5187103e-17 0.0000000e+00 
2.6642529e-16 4.3968159e-16 0.0000000e+00 
-9.5073651e-17 6.7437656e-16 0.0000000e+00 
3.9636526e-16 5.5754551e-16 0.0000000e+00 
6.8942076e-16 4.0763257e-16 0.0000000e+00 
-7.1123207e-16 6.6855060e-17 0.0000000e+00 
VELOCITY 3 150  float
-1.8107790e-16 1.8480668e-16 0.0000000e+00 
1.7274438e-16 4.1332263e-17 0.0000000e+00 
-6.7433213e-17 -5.2268481e-17 0.0000000e+00 
1.6677598e-16 2.0916170e-16 0.0000000e+00 
-8.0510998e-17 1.9494158e-16 0.0000000e+00 
3.4680950e-17 1.7756673e-16 0.0000000e+00 
-1.0263361e-17 6.4251578e-17 0.0000000e+00 
-4.7340562e-17 2.2403825e-17 0.0000000e+00 
2.4747447e-17 -3.2204904e-17 0.0000000e+00 
1.7035584e-16 -5.1125870e-17 0.0000000e+00 
2.1169689e-16 5.2676400e-17 0.0000000e+00 
-2.1234100e-17 -5.3550528e-17 0.0000000e+00 
-2.5901598e-16 3.5874588e-17 0.0000000e+00 
-4.1159568e-17 8.4355978e-17 0.0000000e+00 
2.7095459e-17 -2.4901806e-17 0.0000000e+00 
-8.4033616e-17 2.6148668e-18 0.0000000e+00 
2.3340498e-16 3.2460046e-17 0.0000000e+00 
2.8784506e-16 -4.5275827e-17 0.0000000e+00 
3.0532920e-16 -1.2678612e-16 0.0000000e+00 
-1.9619738e-16 9.5359128e-17 0.0000000e+00 
1.8473287e-16 2.7337168e-17 0.0000000e+00 
-2.1756060e-16 2.6481114e-17 0.0000000e+00 
4.3458439e-16 1.7719127e-16 0.0000000e+00 
-3.6414406e-17 -1.9381742e-16 0.0000000e+00 
7.6674746e-17 -1.3198657e-16 0.0000000e+00 
3.9949720e-17 2.6956159e-16 0.0000000e+00 
-1.6736129e-17 2.1098341e-16 0.0000000e+00 
-1.4834159e-16 -2.2303886e-16 0.0000000e+00 
1.1503676e-16 -1.6476060e-16 0.0000000e+00 
8.8049637e-17 -9.2511042e-19 0.0000000e+00 
1.6583698e-16 -3.7381519e-17 0.0000000e+00 
3.8288388e-16 -6.8824636e-17 0.0000000e+00 
7.6880853e-17 6.4888190e-17 0.0000000e+00 
-5.9673187e-17 1.1061694e-16 0.0000000e+00 
-5.4182497e-17 8.5252404e-17 0.0000000e+00 
1.4698602e-16 -6.0082297e-17 0.0000000e+00 
-5.1402419e-17 -5.3152955e-17 0.0000000e+00 
3.2769594e-17 1.5657000e-16 0.0000000e+00 
-4.7575247e-16 1.3966012e-16 0.0000000e+00 
-3.0274980e-16 6.7205712e-17 0.0000000e+00 
-1.4118282e-16 -2.0026714e-17 0.0000000e+00 
-6.5563882e-18 1.5554812e-17 0.0000000e+00 
-1.3884225e-16 3.5048619e-17 0.0000000e+00 
-1.6225311e-17 -3.3205171e-17 0.0000000e+00 
-9.2027992e-17 8.0801643e-17 0.0000000e+00 
-1.7232032e-16 1.7151969e-17 0.0000000e+00 
-9.0373949e-17 8.4211764e-17 0.0000000e+00 
-1.3353020e-16 -3.1711558e-16 0.0000000e+00 
-8.5931268e-17 -1.1678712e-17 0.0000000e+00 
-5.7340991e-18 -4.4886515e-16 0.0000000e+00 
1.0935255e-16 1.1931375e-16 0.0000000e+00 
-2.2484741e-16 -8.9965732e-17 0.0000000e+00 
-5.2662477e-17 5.7342463e-17 0.0000000e+00 
1.9546329e-16 2.9883709e-16 0.0000000e+00 
2.2996817e-16 -1.0283615e-16 0.0000000e+00 
4.0418037e-17 -1.7786874e-16 0.0000000e+00 
2.6706753e-16 7.8254720e-17 0.0000000e+00 
8.5696831e-17 -3.0878877e-16 0.0000000e+00 
-3.2486025e-18 3.3520376e-16 0.0000000e+00 
-9.8740086e-17 -1.6191784e-17 0.0000000e+00 
-6.4545631e-17 -9.5093855e-17 0.0000000e+00 
2.0293054e-16 -5.4897737e-17 0.0000000e+00 
-5.3854806e-18 7.0763389e-17 0.0000000e+00 
2.0986284e-16 7.9445589e-17 0.0000000e+00 
-1.8914235e-16 -1.3083423e-16 0.0000000e+00 
2.3906335e-16 -1.4581605e-16 0.0000000e+00 
-2.0264983e-16 -9.8746823e-17 0.0000000e+00 
2.8079063e-16 -3.8585501e-16 0.0000000e+00 
-1.5750272e-17 1.9671240e-16 0.0000000e+00 
-1.7340244e-16 8.3767370e-17 0.0000000e+00 
7.1007063e-17 -2.3083297e-16 0.0000000e+00 
-1.2581575e-16 -3.9830261e-16 0.0000000e+00 
1.6942286e-16 3.1150140e-17 0.0000000e+00 
1.0203377e-16 2.0319571e-16 0.0000000e+00 
4.0278015e-16 -1.2596448e-16 0.0000000e+00 
3.2556630e-16 -2.5208662e-17 0.0000000e+00 
1.9605170e-16 4.2885162e-16 0.0000000e+00 
2.4569429e-16 -2.6144919e-16 0.0000000e+00 
-5.0503956e-17 -3.0204268e-16 0.0000000e+00 
-2.8899599e-16 -6.4279974e-17 0.0000000e+00 
-5.6466876e-17 -1.4088093e-16 0.0000000e+00 
1.0523967e-16 2.0056354e-17 0.0000000e+00 
-1.0909669e-16 4.5595347e-17 0.0000000e+00 
-3.6888409e-18 -6.2230220e-17 0.0000000e+00 
-8.2426854e-17 2.4545683e-16 0.0000000e+00 
-5.7793759e-17 1.0620808e-16 0.0000000e+00 
-3.4426648e-16 7.8558335e-17 0.0000000e+00 
3.2357566e-16 8.6784494e-17 0.0000000e+00 
-3.9564811e-16 1.7666618e-16 0.0000000e+00 
-8.3689959e-17 1.7416207e-16 0.0000000e+00 
1.6045991e-16 -3.9714662e-16 0.0000000e+00 
2.7631514e-16 4.2539454e-17 0.0000000e+00 
3.5458401e-16 -7.1567177e-17 0.0000000e+00 
1.6972125e-16 4.6000019e-16 0.0000000e+00 
4.7482571e-16 1.5651763e-16 0.0000000e+00 
2.9808844e-16 -2.9825944e-16 0.0000000e+00 
4.8105214e-16 -5.0360032e-16 0.0000000e+00 
1.3637061e-16 4.8110234e-17 0.0000000e+00 
-1.6393739e-16 8.9735266e-17 0.0000000e+00 
1.6889229e-16 -1.9616894e-17 0.0000000e+00 
6.2635042e-17 -2.3542600e-16 0.0000000e+00 
-1.1116341e-16 -5.9866972e-17 0.0000000e+00 
-1.2532841e-16 7.8730852e-17 0.0000000e+00 
-3.2019357e-17 1.2363958e-17 0.0000000e+00 
3.8803614e-16 4.0490666e-16 0.0000000e+00 
2.0062993e-17 -9.2238288e-17 0.0000000e+00 
5.9920507e-17 -4.4093624e-17 0.0000000e+00 
-3.6342422e-16 -2.3376540e-16 0.0000000e+00 
-1.6278403e-17 -2.3549189e-16 0.0000000e+00 
2.4151360e-16 1.4775771e-16 0.0000000e+00 
-3.4061114e-17 -2.4526466e-16 0.0000000e+00 
1.6996104e-16 -3.5441669e-16 0.0000000e+00 
8.2756727e-17 -1.2076383e-16 0.0000000e+00 
3.6757191e-16 -2.4066853e-16 0.0000000e+00 
3.8504808e-17 -5.3620108e-16 0.0000000e+00 
-3.4123679e-17 -3.1760940e-16 0.0000000e+00 
-4.0095195e-17 3.3722057e-16 0.0000000e+00 
-2.0603775e-16 1.8121639e-16 0.0000000e+00 
5.4219687e-18 5.4544628e-16 0.0000000e+00 
3.2516682e-17 1.5961611e-16 0.0000000e+00 
2.0914061e-16 2.9527190e-16 0.0000000e+00 
-2.2560262e-16 6.0555352e-17 0.0000000e+00 
1.3636950e-17 -2.1266176e-16 0.0000000e+00 
3.2205701e-16 -1.3316913e-16 0.0000000e+00 
-1.6185037e-16 -2.3205638e-16 0.0000000e+00 
1.7975625e-16 -8.5972664e-16 0.0000000e+00 
-1.4890851e-16 -4.2948945e-17 0.0000000e+00 
-3.4874858e-17 1.0146312e-16 0.0000000e+00 
-2.3899061e-16 9.2877295e-17 0.0000000e+00 
-1.0121895e-16 4.9578167e-16 0.0000000e+00 
2.6192045e-16 4.4581124e-17 0.0000000e+00 
8.5990004e-17 4.7158999e-16 0.0000000e+00 
1.1220411e-16 -1.3463529e-16 0.0000000e+00 
3.2378014e-16 -1.3829885e-16 0.0000000e+00 
-2.7273712e-16 1.3010230e-16 0.0000000e+00 
-1.8140254e-19 -2.6991433e-16 0.0000000e+00 
-8.5777988e-17 9.2658463e-17 0.0000000e+00 
5.2318716e-16 9.1666526e-18 0.0000000e+00 
-3.9202620e-17 -1.0829632e-15 0.0000000e+00 
2.2153689e-16 -5.7724501e-16 0.0000000e+00 
1.8638245e-16 -2.6905186e-16 0.0000000e+00 
2.9338842e-16 -9.7472905e-17 0.0000000e+00 
-2.2398309e-16 -1.8012333e-16 0.0000000e+00 
7.9993189e-17 -2.8080209e-16 0.0000000e+00 
6.1251579e-18 2.0220303e-16 0.0000000e+00 
9.2968199e-17 1.6552248e-16 0.0000000e+00 
7.2132856e-17 2.1264711e-16 0.0000000e+00 
2.9869982e-16 3.3578316e-16 0.0000000e+00 
1.8531967e-16 1.9198981e-16 0.0000000e+00 
-2.4223628e-16 1.3069553e-17 0.0000000e+00 
CELL_DATA 248
FIELD FieldData 0
