# vtk DataFile Version 4.0
vtk output
ASCII
DATASET UNSTRUCTURED_GRID
POINTS 150 float
0.0000000e+00 0.0000000e+00 0.0000000e+00 
4.0000000e+00 0.0000000e+00 0.0000000e+00 
4.0000000e+00 1.0000000e+00 0.0000000e+00 
0.0000000e+00 1.0000000e+00 0.0000000e+00 
2.0000000e-01 0.0000000e+00 0.0000000e+00 
4.0000001e-01 0.0000000e+00 0.0000000e+00 
6.0000002e-01 0.0000000e+00 0.0000000e+00 
8.0000001e-01 0.0000000e+00 0.0000000e+00 
1.0000000e+00 0.0000000e+00 0.0000000e+00 
1.2000000e+00 0.0000000e+00 0.0000000e+00 
1.4000000e+00 0.0000000e+00 0.0000000e+00 
1.6000000e+00 0.0000000e+00 0.0000000e+00 
1.8000000e+00 0.0000000e+00 0.0000000e+00 
2.0000000e+00 0.0000000e+00 0.0000000e+00 
2.2000000e+00 0.0000000e+00 0.0000000e+00 
2.4000001e+00 0.0000000e+00 0.0000000e+00 
2.5999999e+00 0.0000000e+00 0.0000000e+00 
2.8000000e+00 0.0000000e+00 0.0000000e+00 
3.0000000e+00 0.0000000e+00 0.0000000e+00 
3.2000000e+00 0.0000000e+00 0.0000000e+00 
3.4000001e+00 0.0000000e+00 0.0000000e+00 
3.5999999e+00 0.0000000e+00 0.0000000e+00 
3.8000000e+00 0.0000000e+00 0.0000000e+00 
4.0000000e+00 2.0000000e-01 0.0000000e+00 
4.0000000e+00 4.0000001e-01 0.0000000e+00 
4.0000000e+00 6.0000002e-01 0.0000000e+00 
4.0000000e+00 8.0000001e-01 0.0000000e+00 
3.8000000e+00 1.0000000e+00 0.0000000e+00 
3.5999999e+00 1.0000000e+00 0.0000000e+00 
3.4000001e+00 1.0000000e+00 0.0000000e+00 
3.2000000e+00 1.0000000e+00 0.0000000e+00 
3.0000000e+00 1.0000000e+00 0.0000000e+00 
2.8000000e+00 1.0000000e+00 0.0000000e+00 
2.5999999e+00 1.0000000e+00 0.0000000e+00 
2.4000001e+00 1.0000000e+00 0.0000000e+00 
2.2000000e+00 1.0000000e+00 0.0000000e+00 
2.0000000e+00 1.0000000e+00 0.0000000e+00 
1.8000000e+00 1.0000000e+00 0.0000000e+00 
1.6000000e+00 1.0000000e+00 0.0000000e+00 
1.4000000e+00 1.0000000e+00 0.0000000e+00 
1.2000000e+00 1.0000000e+00 0.0000000e+00 
1.0000000e+00 1.0000000e+00 0.0000000e+00 
8.0000001e-01 1.0000000e+00 0.0000000e+00 
6.0000002e-01 1.0000000e+00 0.0000000e+00 
4.0000001e-01 1.0000000e+00 0.0000000e+00 
2.0000000e-01 1.0000000e+00 0.0000000e+00 
0.0000000e+00 8.0000001e-01 0.0000000e+00 
0.0000000e+00 6.0000002e-01 0.0000000e+00 
0.0000000e+00 4.0000001e-01 0.0000000e+00 
0.0000000e+00 2.0000000e-01 0.0000000e+00 
2.3000000e+00 8.2679492e-01 0.0000000e+00 
2.7026613e+00 1.6839938e-01 0.0000000e+00 
3.2973387e+00 8.3160061e-01 0.0000000e+00 
1.4973388e+00 8.3160061e-01 0.0000000e+00 
6.9999999e-01 8.2679492e-01 0.0000000e+00 
1.1000000e+00 8.2679492e-01 0.0000000e+00 
1.9000000e+00 8.2679492e-01 0.0000000e+00 
3.5000000e+00 1.7320508e-01 0.0000000e+00 
5.1031393e-01 1.6354993e-01 0.0000000e+00 
2.0999999e+00 1.7320508e-01 0.0000000e+00 
2.9000001e+00 8.2679492e-01 0.0000000e+00 
3.0999999e+00 1.7320508e-01 0.0000000e+00 
8.9999998e-01 1.7320508e-01 0.0000000e+00 
1.3026613e+00 1.6839938e-01 0.0000000e+00 
1.7000000e+00 1.7320508e-01 0.0000000e+00 
3.8372447e+00 5.0966793e-01 0.0000000e+00 
1.6370662e-01 4.8866507e-01 0.0000000e+00 
3.6861150e+00 8.0809796e-01 0.0000000e+00 
3.0084747e-01 8.3064556e-01 0.0000000e+00 
2.5000000e+00 8.2679492e-01 0.0000000e+00 
2.4000001e+00 6.5686476e-01 0.0000000e+00 
2.5999999e+00 6.5413564e-01 0.0000000e+00 
2.1973388e+00 6.6568744e-01 0.0000000e+00 
2.4980991e+00 4.8908678e-01 0.0000000e+00 
2.7023444e+00 4.9347213e-01 0.0000000e+00 
2.4977822e+00 1.6759844e-01 0.0000000e+00 
3.6991525e+00 1.6935441e-01 0.0000000e+00 
3.6035600e+00 3.2941929e-01 0.0000000e+00 
3.4005933e+00 3.4357834e-01 0.0000000e+00 
3.5158086e+00 5.1572138e-01 0.0000000e+00 
3.3000517e+00 5.1056737e-01 0.0000000e+00 
2.2969692e+00 1.7073415e-01 0.0000000e+00 
2.1941724e+00 3.3966187e-01 0.0000000e+00 
1.9963675e+00 3.4374896e-01 0.0000000e+00 
1.8993946e+00 1.7276154e-01 0.0000000e+00 
2.7000000e+00 8.2688588e-01 0.0000000e+00 
1.5031048e+00 1.7086764e-01 0.0000000e+00 
1.6031787e+00 3.4448409e-01 0.0000000e+00 
1.2968951e+00 8.2913238e-01 0.0000000e+00 
1.1968212e+00 6.5551591e-01 0.0000000e+00 
9.9947023e-01 6.5391088e-01 0.0000000e+00 
1.1000000e+00 4.8038477e-01 0.0000000e+00 
8.9999998e-01 4.8038477e-01 0.0000000e+00 
1.2996216e+00 4.9228978e-01 0.0000000e+00 
7.9991168e-01 6.5364337e-01 0.0000000e+00 
6.9999999e-01 4.8038477e-01 0.0000000e+00 
5.9998530e-01 6.5359873e-01 0.0000000e+00 
4.8479331e-01 4.8141763e-01 0.0000000e+00 
3.9391196e-01 6.7074126e-01 0.0000000e+00 
1.8000000e+00 3.4641016e-01 0.0000000e+00 
1.7000000e+00 5.1961523e-01 0.0000000e+00 
1.5003334e+00 5.0912750e-01 0.0000000e+00 
1.8991497e+00 5.1739931e-01 0.0000000e+00 
6.9999999e-01 1.7320508e-01 0.0000000e+00 
1.6998384e+00 8.2946962e-01 0.0000000e+00 
3.4885678e+00 8.3318800e-01 0.0000000e+00 
4.9912411e-01 8.3029675e-01 0.0000000e+00 
1.1001617e+00 1.7053038e-01 0.0000000e+00 
2.0998845e+00 8.2817227e-01 0.0000000e+00 
8.9989698e-01 8.2685733e-01 0.0000000e+00 
1.6938214e-01 3.0011359e-01 0.0000000e+00 
2.9031048e+00 1.7086764e-01 0.0000000e+00 
3.0008276e+00 3.4420678e-01 0.0000000e+00 
3.0968952e+00 8.2913238e-01 0.0000000e+00 
2.9991724e+00 6.5579319e-01 0.0000000e+00 
2.8001289e+00 6.5661508e-01 0.0000000e+00 
3.3000989e+00 1.7273311e-01 0.0000000e+00 
3.2002618e+00 3.4070939e-01 0.0000000e+00 
3.8118997e+00 3.1613928e-01 0.0000000e+00 
3.8409591e+00 6.9520664e-01 0.0000000e+00 
3.1562445e-01 1.8911865e-01 0.0000000e+00 
1.8788275e-01 6.8363428e-01 0.0000000e+00 
3.1598091e-01 3.8581166e-01 0.0000000e+00 
3.6863050e+00 6.1217356e-01 0.0000000e+00 
2.3978372e+00 3.3231843e-01 0.0000000e+00 
2.8014896e+00 3.3396253e-01 0.0000000e+00 
3.1989098e+00 6.6671073e-01 0.0000000e+00 
2.0978379e+00 5.0662857e-01 0.0000000e+00 
1.4056216e+00 3.3585981e-01 0.0000000e+00 
1.3943676e+00 6.6447765e-01 0.0000000e+00 
3.3914382e+00 6.7400205e-01 0.0000000e+00 
1.5986463e+00 6.7124927e-01 0.0000000e+00 
2.6000254e+00 3.2966018e-01 0.0000000e+00 
1.7996057e+00 6.7296129e-01 0.0000000e+00 
1.2000000e+00 3.2679492e-01 0.0000000e+00 
1.0000000e+00 3.2679492e-01 0.0000000e+00 
8.0000001e-01 3.2679492e-01 0.0000000e+00 
6.0786384e-01 3.2318488e-01 0.0000000e+00 
2.2982483e+00 4.9884883e-01 0.0000000e+00 
2.9000001e+00 5.0003433e-01 0.0000000e+00 
3.0999999e+00 4.9996570e-01 0.0000000e+00 
2.0000000e+00 6.7323941e-01 0.0000000e+00 
1.4641017e-01 8.5358983e-01 0.0000000e+00 
3.8535898e+00 8.5358983e-01 0.0000000e+00 
3.8535898e+00 1.4641017e-01 0.0000000e+00 
1.4641017e-01 1.4641017e-01 0.0000000e+00 
3.5479531e+00 6.8622428e-01 0.0000000e+00 
4.4691527e-01 3.0861655e-01 0.0000000e+00 
3.0925509e-01 5.4205400e-01 0.0000000e+00 
3.6897502e+00 4.5812324e-01 0.0000000e+00 

CELLS 248 992
3 0 145 49
3 1 144 22
3 2 143 26
3 3 142 45
3 4 145 0
3 5 120 4
3 6 58 5
3 6 103 58
3 7 103 6
3 8 62 7
3 8 107 62
3 9 107 8
3 10 63 9
3 10 86 63
3 11 86 10
3 12 64 11
3 12 84 64
3 13 84 12
3 14 59 13
3 14 81 59
3 15 81 14
3 16 75 15
3 17 51 16
3 17 111 51
3 18 111 17
3 19 61 18
3 19 116 61
3 20 116 19
3 21 57 20
3 21 76 57
3 22 76 21
3 22 144 76
3 23 144 1
3 24 118 23
3 25 65 24
3 25 119 65
3 26 119 25
3 26 143 119
3 27 143 2
3 28 67 27
3 28 105 67
3 29 105 28
3 30 52 29
3 30 113 52
3 31 113 30
3 32 60 31
3 32 85 60
3 33 85 32
3 34 69 33
3 35 50 34
3 35 108 50
3 36 108 35
3 37 56 36
3 37 104 56
3 38 104 37
3 39 53 38
3 39 88 53
3 40 88 39
3 41 55 40
3 41 109 55
3 42 109 41
3 43 54 42
3 43 106 54
3 44 106 43
3 45 68 44
3 45 142 68
3 46 142 3
3 47 121 46
3 48 66 47
3 48 110 66
3 49 110 48
3 49 145 110
3 50 69 34
3 50 70 69
3 50 72 70
3 50 108 72
3 51 75 16
3 51 132 75
3 52 105 29
3 52 130 105
3 53 104 38
3 53 131 104
3 54 96 94
3 54 106 96
3 54 109 42
3 55 88 40
3 55 89 88
3 55 90 89
3 55 109 90
3 56 108 36
3 56 141 108
3 57 116 20
3 58 120 5
3 58 147 120
3 59 84 13
3 60 113 31
3 60 114 113
3 60 115 114
3 61 111 18
3 61 112 111
3 61 117 112
3 62 103 7
3 62 136 103
3 63 107 9
3 63 134 107
3 64 86 11
3 64 87 86
3 64 99 87
3 65 118 24
3 65 149 118
3 66 121 47
3 66 148 121
3 67 123 119
3 67 143 27
3 67 146 123
3 68 106 44
3 68 121 98
3 68 142 121
3 69 85 33
3 70 71 69
3 70 73 71
3 70 138 73
3 71 85 69
3 71 115 85
3 72 138 70
3 72 141 127
3 73 74 71
3 73 132 74
3 73 138 124
3 74 115 71
3 74 132 125
3 74 139 115
3 75 81 15
3 75 124 81
3 75 132 124
3 76 77 57
3 76 118 77
3 76 144 118
3 77 78 57
3 77 79 78
3 77 149 79
3 78 116 57
3 78 117 116
3 79 80 78
3 79 130 80
3 79 146 130
3 79 149 123
3 80 117 78
3 80 130 126
3 80 140 117
3 81 82 59
3 81 124 82
3 82 83 59
3 82 127 83
3 82 138 127
3 83 84 59
3 83 99 84
3 83 102 99
3 83 127 102
3 84 99 64
3 85 115 60
3 86 128 63
3 87 128 86
3 88 129 53
3 89 129 88
3 90 91 89
3 90 92 91
3 90 94 92
3 90 109 94
3 91 93 89
3 91 134 93
3 91 135 134
3 92 135 91
3 92 136 135
3 93 128 101
3 93 129 89
3 93 134 128
3 94 95 92
3 94 96 95
3 94 109 54
3 95 136 92
3 95 137 136
3 96 97 95
3 96 98 97
3 96 106 98
3 97 137 95
3 97 147 137
3 97 148 122
3 98 106 68
3 98 148 97
3 99 100 87
3 99 102 100
3 100 101 87
3 100 131 101
3 100 133 131
3 101 128 87
3 101 129 93
3 101 131 129
3 102 133 100
3 102 141 133
3 103 137 58
3 104 133 56
3 105 146 67
3 107 135 62
3 108 141 72
3 110 122 66
3 110 145 120
3 111 125 51
3 112 125 111
3 112 139 125
3 112 140 139
3 113 126 52
3 114 126 113
3 114 140 126
3 115 139 114
3 116 117 61
3 117 140 112
3 118 144 23
3 118 149 77
3 119 123 65
3 119 143 67
3 120 122 110
3 120 145 4
3 120 147 122
3 121 142 46
3 121 148 98
3 122 147 97
3 122 148 66
3 123 146 79
3 123 149 65
3 124 132 73
3 124 138 82
3 125 132 51
3 125 139 74
3 126 130 52
3 126 140 80
3 127 138 72
3 127 141 102
3 128 134 63
3 129 131 53
3 130 146 105
3 131 133 104
3 133 141 56
3 134 135 107
3 135 136 62
3 136 137 103
3 137 147 58
3 139 140 114

CELL_TYPES 248
5
5
5
5
5
5
5
5
5
5
5
5
5
5
5
5
5
5
5
5
5
5
5
5
5
5
5
5
5
5
5
5
5
5
5
5
5
5
5
5
5
5
5
5
5
5
5
5
5
5
5
5
5
5
5
5
5
5
5
5
5
5
5
5
5
5
5
5
5
5
5
5
5
5
5
5
5
5
5
5
5
5
5
5
5
5
5
5
5
5
5
5
5
5
5
5
5
5
5
5
5
5
5
5
5
5
5
5
5
5
5
5
5
5
5
5
5
5
5
5
5
5
5
5
5
5
5
5
5
5
5
5
5
5
5
5
5
5
5
5
5
5
5
5
5
5
5
5
5
5
5
5
5
5
5
5
5
5
5
5
5
5
5
5
5
5
5
5
5
5
5
5
5
5
5
5
5
5
5
5
5
5
5
5
5
5
5
5
5
5
5
5
5
5
5
5
5
5
5
5
5
5
5
5
5
5
5
5
5
5
5
5
5
5
5
5
5
5
5
5
5
5
5
5
5
5
5
5
5
5
5
5
5
5
5
5
5
5
5
5
5
5
5
5
5
5
5
5
POINT_DATA 150
FIELD FieldData 3
HEIGHT 1 150  float
1.0000000e+00
1.0000000e+00
1.0000000e+00
1.0000000e+00
1.0000000e+00
1.0000000e+00
1.0000000e+00
1.0000000e+00
1.0000000e+00
1.0000000e+00
1.0000000e+00
1.0000000e+00
1.0000000e+00
1.0000000e+00
1.0000000e+00
1.0000000e+00
1.0000000e+00
1.0000000e+00
1.0000000e+00
1.0000000e+00
1.0000000e+00
1.0000000e+00
1.0000000e+00
1.0000000e+00
1.0000000e+00
1.0000000e+00
1.0000000e+00
1.0000000e+00
1.0000000e+00
1.0000000e+00
1.0000000e+00
1.0000000e+00
1.0000000e+00
1.0000000e+00
1.0000000e+00
1.0000000e+00
1.0000000e+00
1.0000000e+00
1.0000000e+00
1.0000000e+00
1.0000000e+00
1.0000000e+00
1.0000000e+00
1.0000000e+00
1.0000000e+00
1.0000000e+00
1.0000000e+00
1.0000000e+00
1.0000000e+00
1.0000000e+00
1.0000000e+00
1.0000000e+00
1.0000000e+00
1.0000000e+00
1.0000000e+00
1.0000000e+00
1.0000000e+00
1.0000000e+00
1.0000000e+00
1.0000000e+00
1.0000000e+00
1.0000000e+00
1.0000000e+00
1.0000000e+00
1.0000000e+00
1.0000000e+00
1.0000000e+00
1.0000000e+00
1.0000000e+00
1.0000000e+00
1.0000000e+00
1.0000000e+00
1.0000000e+00
1.0000000e+00
1.0000000e+00
1.0000000e+00
1.0000000e+00
1.0000000e+00
1.0000000e+00
1.0000000e+00
1.0000000e+00
1.0000000e+00
1.0000000e+00
1.0000000e+00
1.0000000e+00
1.0000000e+00
1.0000000e+00
1.0000000e+00
1.0000000e+00
1.0000000e+00
1.0000000e+00
1.0000000e+00
1.0000000e+00
1.0000000e+00
1.0000000e+00
1.0000000e+00
1.0000000e+00
1.0000000e+00
1.0000000e+00
1.0000000e+00
1.0000000e+00
1.0000000e+00
1.0000000e+00
1.0000000e+00
1.0000000e+00
1.0000000e+00
1.0000000e+00
1.0000000e+00
1.0000000e+00
1.0000000e+00
1.0000000e+00
1.0000000e+00
1.0000000e+00
1.0000000e+00
1.0000000e+00
1.0000000e+00
1.0000000e+00
1.0000000e+00
1.0000000e+00
1.0000000e+00
1.0000000e+00
1.0000000e+00
1.0000000e+00
1.0000000e+00
1.0000000e+00
1.0000000e+00
1.0000000e+00
1.0000000e+00
1.0000000e+00
1.0000000e+00
1.0000000e+00
1.0000000e+00
1.0000000e+00
1.0000000e+00
1.0000000e+00
1.0000000e+00
1.0000000e+00
1.0000000e+00
1.0000000e+00
1.0000000e+00
1.0000000e+00
1.0000000e+00
1.0000000e+00
1.0000000e+00
1.0000000e+00
1.0000000e+00
1.0000000e+00
1.0000000e+00
1.0000000e+00
1.0000000e+00
MOMENTUM 3 150  float
-1.5527199e-16 1.5527199e-16 0.0000000e+00 
-1.0573893e-16 -1.0573893e-16 0.0000000e+00 
-5.9657573e-18 5.9657573e-18 0.0000000e+00 
1.7033782e-16 1.7033782e-16 0.0000000e+00 
-1.2558448e-16 0.0000000e+00 0.0000000e+00 
4.8784138e-17 0.0000000e+00 0.0000000e+00 
4.7577364e-17 0.0000000e+00 0.0000000e+00 
-4.2589449e-17 0.0000000e+00 0.0000000e+00 
7.7098454e-17 0.0000000e+00 0.0000000e+00 
7.4053788e-17 0.0000000e+00 0.0000000e+00 
1.1970751e-16 0.0000000e+00 0.0000000e+00 
1.0072824e-16 0.0000000e+00 0.0000000e+00 
-1.4060899e-16 0.0000000e+00 0.0000000e+00 
4.2052440e-17 0.0000000e+00 0.0000000e+00 
3.5197759e-17 0.0000000e+00 0.0000000e+00 
-2.0260557e-16 0.0000000e+00 0.0000000e+00 
1.4492128e-16 0.0000000e+00 0.0000000e+00 
1.9852099e-16 0.0000000e+00 0.0000000e+00 
1.4157879e-16 0.0000000e+00 0.0000000e+00 
-2.5876602e-16 0.0000000e+00 0.0000000e+00 
2.1717894e-16 0.0000000e+00 0.0000000e+00 
-2.9351365e-16 0.0000000e+00 0.0000000e+00 
3.9211919e-16 0.0000000e+00 0.0000000e+00 
0.0000000e+00 -2.0736744e-16 0.0000000e+00 
0.0000000e+00 -6.8113513e-17 0.0000000e+00 
0.0000000e+00 1.8292796e-16 0.0000000e+00 
0.0000000e+00 9.6663903e-17 0.0000000e+00 
-1.9492669e-16 0.0000000e+00 0.0000000e+00 
9.7709115e-17 0.0000000e+00 0.0000000e+00 
1.7757015e-16 0.0000000e+00 0.0000000e+00 
-1.0306214e-16 0.0000000e+00 0.0000000e+00 
2.0116706e-16 0.0000000e+00 0.0000000e+00 
1.4306319e-17 0.0000000e+00 0.0000000e+00 
-1.2165119e-17 0.0000000e+00 0.0000000e+00 
-1.1134816e-17 0.0000000e+00 0.0000000e+00 
1.7924796e-16 0.0000000e+00 0.0000000e+00 
-1.0393530e-16 0.0000000e+00 0.0000000e+00 
-2.5555992e-17 0.0000000e+00 0.0000000e+00 
-4.0622310e-16 0.0000000e+00 0.0000000e+00 
-8.9111757e-17 0.0000000e+00 0.0000000e+00 
2.9649588e-18 0.0000000e+00 0.0000000e+00 
-3.5592338e-17 0.0000000e+00 0.0000000e+00 
-1.5757730e-16 0.0000000e+00 0.0000000e+00 
1.0043844e-17 0.0000000e+00 0.0000000e+00 
-7.1096008e-17 0.0000000e+00 0.0000000e+00 
-8.6090510e-17 0.0000000e+00 0.0000000e+00 
0.0000000e+00 1.0891778e-16 0.0000000e+00 
0.0000000e+00 -2.2356241e-16 0.0000000e+00 
0.0000000e+00 1.4888224e-16 0.0000000e+00 
0.0000000e+00 -3.3510879e-16 0.0000000e+00 
8.4170564e-17 7.9033918e-17 0.0000000e+00 
-2.7257878e-16 7.5453596e-17 0.0000000e+00 
-1.7512517e-16 1.1900911e-17 0.0000000e+00 
2.1277321e-16 6.7852878e-17 0.0000000e+00 
9.4509144e-17 -5.0441080e-17 0.0000000e+00 
7.2766331e-17 -1.2168839e-16 0.0000000e+00 
1.2163917e-16 7.9433903e-17 0.0000000e+00 
1.2595780e-17 -1.9407677e-16 0.0000000e+00 
-1.1353434e-16 1.7517222e-16 0.0000000e+00 
-7.4792797e-17 -3.8988996e-17 0.0000000e+00 
-1.2301285e-16 6.7663788e-18 0.0000000e+00 
1.5292980e-16 -1.0051970e-16 0.0000000e+00 
9.3284824e-17 1.0119096e-16 0.0000000e+00 
3.0642036e-16 4.0238522e-17 0.0000000e+00 
-1.0475574e-16 -1.3130932e-16 0.0000000e+00 
1.8170084e-16 -2.6139717e-16 0.0000000e+00 
-1.6102262e-16 -9.9861015e-18 0.0000000e+00 
1.9333753e-16 -1.7154114e-16 0.0000000e+00 
9.6647889e-17 1.3984337e-16 0.0000000e+00 
-1.3532275e-16 1.0791020e-16 0.0000000e+00 
6.0818494e-17 -6.6369631e-17 0.0000000e+00 
-9.7035552e-17 -3.3321321e-16 0.0000000e+00 
5.8622766e-17 2.0159350e-16 0.0000000e+00 
4.5435804e-17 3.4004826e-16 0.0000000e+00 
2.3241192e-16 1.0218710e-16 0.0000000e+00 
2.8986873e-16 6.1633695e-18 0.0000000e+00 
7.8604929e-17 2.9027758e-16 0.0000000e+00 
2.3347317e-16 -2.2086158e-16 0.0000000e+00 
1.5117467e-17 -1.8743451e-16 0.0000000e+00 
-2.5311915e-16 1.1264644e-17 0.0000000e+00 
-5.0377576e-17 -8.0943957e-17 0.0000000e+00 
8.3031060e-17 1.6562035e-17 0.0000000e+00 
-2.3868163e-17 1.9692567e-16 0.0000000e+00 
4.1252523e-17 -1.4524941e-16 0.0000000e+00 
-3.4891706e-17 2.2247958e-16 0.0000000e+00 
2.6118785e-17 1.3065224e-16 0.0000000e+00 
-3.0865875e-16 5.1904554e-17 0.0000000e+00 
2.9903196e-16 6.0529894e-17 0.0000000e+00 
-2.4720707e-16 5.6913791e-17 0.0000000e+00 
-5.7688205e-17 6.1306577e-17 0.0000000e+00 
1.8574877e-17 -2.9044410e-16 0.0000000e+00 
1.4414697e-16 8.5557541e-17 0.0000000e+00 
1.6971022e-16 -3.9213167e-18 0.0000000e+00 
7.0737210e-17 2.9770678e-16 0.0000000e+00 
1.7615161e-16 2.2304545e-16 0.0000000e+00 
4.1384273e-17 -2.2334774e-16 0.0000000e+00 
2.7710683e-16 -3.3370610e-16 0.0000000e+00 
-1.4690379e-17 7.9193378e-17 0.0000000e+00 
-1.8630858e-16 1.9846271e-17 0.0000000e+00 
8.5700345e-17 8.9394393e-18 0.0000000e+00 
1.0984853e-16 -2.0687877e-16 0.0000000e+00 
-6.6259841e-17 -1.5210929e-16 0.0000000e+00 
-1.6356938e-16 1.1990927e-16 0.0000000e+00 
-5.2644057e-17 -2.1504841e-17 0.0000000e+00 
2.2128803e-16 2.2897360e-16 0.0000000e+00 
-2.8332547e-17 -2.7891281e-16 0.0000000e+00 
-1.1367635e-17 4.0300656e-17 0.0000000e+00 
-3.1719576e-16 -1.7946935e-16 0.0000000e+00 
-1.3449247e-16 -2.6135771e-16 0.0000000e+00 
1.1359403e-16 1.1711607e-16 0.0000000e+00 
-2.1117296e-17 -1.6671162e-16 0.0000000e+00 
3.9953108e-17 -1.4932552e-16 0.0000000e+00 
1.9009393e-17 1.1572005e-16 0.0000000e+00 
3.1799134e-16 -1.0197115e-16 0.0000000e+00 
9.2655023e-18 -2.6301707e-16 0.0000000e+00 
-5.7395125e-17 -1.2128634e-16 0.0000000e+00 
-8.6047281e-18 2.6317168e-16 0.0000000e+00 
-1.9664922e-16 1.5341379e-16 0.0000000e+00 
-9.0839142e-17 4.8509079e-16 0.0000000e+00 
-3.9055161e-17 2.2384537e-16 0.0000000e+00 
1.2344180e-16 1.8666890e-16 0.0000000e+00 
-1.3023703e-16 5.4069587e-17 0.0000000e+00 
-2.8904311e-17 -2.2198490e-16 0.0000000e+00 
2.6862234e-16 -8.7881654e-17 0.0000000e+00 
-1.9447059e-16 -6.7854043e-17 0.0000000e+00 
8.9331920e-17 -4.9307355e-16 0.0000000e+00 
-1.8928918e-16 5.2331171e-17 0.0000000e+00 
-3.6433266e-17 1.2580182e-16 0.0000000e+00 
-1.7663475e-16 -1.4043628e-16 0.0000000e+00 
-1.1184112e-16 2.2880726e-16 0.0000000e+00 
3.0045863e-16 3.6598206e-17 0.0000000e+00 
2.2929858e-18 3.6111881e-16 0.0000000e+00 
3.5847692e-17 -1.1039007e-16 0.0000000e+00 
1.6079061e-16 -1.6975668e-16 0.0000000e+00 
-1.6798848e-16 9.1001911e-17 0.0000000e+00 
-5.8395725e-18 -1.8475841e-16 0.0000000e+00 
-1.6158364e-16 1.1735303e-16 0.0000000e+00 
3.5017663e-16 -2.0736837e-17 0.0000000e+00 
-1.2076838e-17 -8.1156974e-16 0.0000000e+00 
7.6446887e-17 -2.1834819e-16 0.0000000e+00 
1.6743767e-16 -1.4575198e-16 0.0000000e+00 
1.6080914e-16 -6.2244289e-17 0.0000000e+00 
-1.8088704e-16 -2.1515299e-16 0.0000000e+00 
3.8565751e-17 -2.9320623e-16 0.0000000e+00 
-1.6061561e-16 -8.6598233e-17 0.0000000e+00 
7.6628688e-17 1.6028273e-16 0.0000000e+00 
-1.5471585e-16 3.1516831e-16 0.0000000e+00 
1.3124375e-16 1.4352697e-16 0.0000000e+00 
2.3439757e-16 1.4912327e-16 0.0000000e+00 
-2.2755485e-16 -1.0707886e-16 0.0000000e+00 
VELOCITY 3 150  float
-7.4176879e-17 7.5818078e-17 0.0000000e+00 
-4.4008470e-17 -1.0043995e-16 0.0000000e+00 
-1.7707277e-17 -5.8235692e-17 0.0000000e+00 
2.9185840e-17 4.4995386e-17 0.0000000e+00 
-3.8321147e-17 7.0764607e-17 0.0000000e+00 
1.9542719e-17 6.0306853e-17 0.0000000e+00 
-3.3914935e-18 2.5611231e-17 0.0000000e+00 
-4.1316133e-18 1.3281021e-17 0.0000000e+00 
3.8527645e-18 -1.3046399e-17 0.0000000e+00 
5.1631492e-17 -2.3205139e-17 0.0000000e+00 
7.4045860e-17 1.5357179e-17 0.0000000e+00 
-2.0280086e-17 -1.3234129e-17 0.0000000e+00 
-8.1680678e-17 1.5195045e-17 0.0000000e+00 
-6.0387998e-18 3.0581767e-17 0.0000000e+00 
5.5924957e-18 -3.7378265e-18 0.0000000e+00 
-2.4142901e-17 3.7875674e-18 0.0000000e+00 
7.5001922e-17 1.3602827e-17 0.0000000e+00 
8.4364561e-17 -1.2311987e-17 0.0000000e+00 
9.7916129e-17 -4.1640871e-17 0.0000000e+00 
-7.5432360e-17 2.7108664e-17 0.0000000e+00 
6.3231334e-17 1.1515819e-17 0.0000000e+00 
-8.0781870e-17 1.6033470e-17 0.0000000e+00 
1.4912010e-16 2.5134983e-17 0.0000000e+00 
-5.0720703e-17 -5.1755999e-17 0.0000000e+00 
1.5143616e-17 1.1888874e-18 0.0000000e+00 
2.3774279e-17 8.7584543e-17 0.0000000e+00 
-5.7871448e-19 5.2512952e-17 0.0000000e+00 
-5.1167517e-17 -7.6960745e-17 0.0000000e+00 
7.4909013e-17 -7.5075660e-17 0.0000000e+00 
5.4429371e-17 -4.4501986e-17 0.0000000e+00 
3.8413908e-18 -1.5011707e-17 0.0000000e+00 
1.2568362e-16 -1.5867462e-17 0.0000000e+00 
6.7543102e-18 2.2903104e-17 0.0000000e+00 
-2.4018928e-17 3.9760408e-17 0.0000000e+00 
-1.6920151e-19 3.1157353e-17 0.0000000e+00 
7.1647817e-17 -3.0387297e-17 0.0000000e+00 
-4.1302207e-17 -3.0320633e-17 0.0000000e+00 
1.8633377e-18 5.1401248e-17 0.0000000e+00 
-1.4032366e-16 4.9471078e-17 0.0000000e+00 
-8.3899699e-17 2.0794445e-17 0.0000000e+00 
-3.7982982e-17 -1.0795767e-17 0.0000000e+00 
3.7952879e-19 -7.6205415e-19 0.0000000e+00 
-4.6233828e-17 1.1112497e-17 0.0000000e+00 
-1.7726871e-19 -1.6900709e-18 0.0000000e+00 
-2.7671852e-17 3.0024003e-17 0.0000000e+00 
-4.8814959e-17 1.6432161e-18 0.0000000e+00 
-3.7659191e-17 2.3176274e-17 0.0000000e+00 
-4.8543276e-17 -8.2950625e-17 0.0000000e+00 
-3.0356652e-17 -1.5644324e-18 0.0000000e+00 
-3.6874334e-18 -1.4327969e-16 0.0000000e+00 
4.3563546e-17 3.7998322e-17 0.0000000e+00 
-6.9752409e-17 -2.4492017e-17 0.0000000e+00 
-4.7951230e-17 -1.8379095e-17 0.0000000e+00 
5.3819772e-17 1.0691090e-16 0.0000000e+00 
8.1250524e-17 -2.1324200e-17 0.0000000e+00 
1.9270354e-17 -6.5436505e-17 0.0000000e+00 
8.4061588e-17 1.7684862e-17 0.0000000e+00 
2.6485900e-17 -8.4942284e-17 0.0000000e+00 
-2.7188655e-18 1.1158230e-16 0.0000000e+00 
-2.5498572e-17 4.7319934e-18 0.0000000e+00 
-1.8885270e-17 -2.6252004e-17 0.0000000e+00 
5.4508340e-17 -1.8344851e-17 0.0000000e+00 
4.7462416e-18 2.8230516e-17 0.0000000e+00 
8.8483815e-17 5.3693311e-18 0.0000000e+00 
-5.2269447e-17 -3.7000206e-17 0.0000000e+00 
8.3448184e-17 -7.8299415e-17 0.0000000e+00 
-7.5999733e-17 -2.6675038e-17 0.0000000e+00 
9.5802126e-17 -9.4412496e-17 0.0000000e+00 
-7.1749555e-18 6.1510315e-17 0.0000000e+00 
-6.3430347e-17 3.8130376e-17 0.0000000e+00 
2.5725411e-17 -6.7867906e-17 0.0000000e+00 
-3.4178851e-17 -1.2551146e-16 0.0000000e+00 
3.9544352e-17 1.7737947e-17 0.0000000e+00 
2.4842495e-17 6.2756658e-17 0.0000000e+00 
1.2392526e-16 -2.6928377e-17 0.0000000e+00 
1.1111313e-16 -4.1040223e-18 0.0000000e+00 
4.7070772e-17 1.4376832e-16 0.0000000e+00 
7.7970336e-17 -8.5593884e-17 0.0000000e+00 
-1.4331410e-17 -9.9386604e-17 0.0000000e+00 
-9.9057909e-17 -1.8112967e-17 0.0000000e+00 
-3.8192438e-17 -4.7103535e-17 0.0000000e+00 
2.7292980e-17 1.6301518e-17 0.0000000e+00 
-2.8058241e-17 2.1687974e-17 0.0000000e+00 
-2.8320419e-20 -1.9702471e-17 0.0000000e+00 
-3.0041870e-17 8.5689109e-17 0.0000000e+00 
-2.1159364e-17 3.7007538e-17 0.0000000e+00 
-1.0895458e-16 1.1704178e-17 0.0000000e+00 
1.1111929e-16 -1.7225859e-17 0.0000000e+00 
-1.2111491e-16 4.8146756e-17 0.0000000e+00 
-3.3246000e-17 5.2057695e-17 0.0000000e+00 
6.0844183e-17 -1.1510406e-16 0.0000000e+00 
7.4365655e-17 4.0353057e-17 0.0000000e+00 
1.0259132e-16 -2.4676846e-17 0.0000000e+00 
-9.8684736e-19 1.6336403e-16 0.0000000e+00 
1.4764909e-16 4.6127370e-17 0.0000000e+00 
8.7098075e-17 -1.0657157e-16 0.0000000e+00 
1.4685996e-16 -1.5946997e-16 0.0000000e+00 
5.1161680e-17 4.7910409e-18 0.0000000e+00 
-5.5499514e-17 2.0658483e-17 0.0000000e+00 
5.5093187e-17 -2.2401757e-18 0.0000000e+00 
8.1423160e-17 -8.4386762e-17 0.0000000e+00 
-1.7010351e-17 -2.5984006e-17 0.0000000e+00 
-3.8287368e-17 2.2505644e-17 0.0000000e+00 
-1.1877746e-17 2.0329194e-17 0.0000000e+00 
1.1612042e-16 1.4270754e-16 0.0000000e+00 
2.2436594e-17 -1.2344588e-16 0.0000000e+00 
1.2724777e-17 1.4455333e-18 0.0000000e+00 
-1.2717877e-16 -8.5761927e-17 0.0000000e+00 
-2.5533378e-17 -1.0586076e-16 0.0000000e+00 
7.0866376e-17 3.8597356e-17 0.0000000e+00 
-9.7133511e-18 -8.9292969e-17 0.0000000e+00 
4.7375899e-17 -1.0819773e-16 0.0000000e+00 
3.6958876e-17 -2.1607066e-17 0.0000000e+00 
1.2732426e-16 -6.6987124e-17 0.0000000e+00 
2.0647646e-17 -1.7553021e-16 0.0000000e+00 
-1.8348004e-17 -1.0855757e-16 0.0000000e+00 
-9.1018033e-18 1.0420107e-16 0.0000000e+00 
-7.3698603e-17 6.5393690e-17 0.0000000e+00 
-3.7876107e-17 1.9532117e-16 0.0000000e+00 
3.7324626e-17 6.7386500e-17 0.0000000e+00 
5.9400627e-17 9.9783406e-17 0.0000000e+00 
-7.9202286e-17 2.4822593e-17 0.0000000e+00 
9.9022478e-18 -7.9174552e-17 0.0000000e+00 
1.0936062e-16 -4.3085730e-17 0.0000000e+00 
-6.2382097e-17 -6.4115398e-17 0.0000000e+00 
5.5590144e-17 -2.6192869e-16 0.0000000e+00 
-4.7173727e-17 -1.9099835e-17 0.0000000e+00 
-1.3119129e-17 2.1181329e-17 0.0000000e+00 
-7.7210501e-17 -3.7778775e-17 0.0000000e+00 
-6.3033201e-17 1.7213610e-16 0.0000000e+00 
7.9316026e-17 2.0866456e-17 0.0000000e+00 
4.5029780e-17 1.8030016e-16 0.0000000e+00 
3.3757099e-17 -5.8284642e-17 0.0000000e+00 
1.1808768e-16 -4.1518964e-17 0.0000000e+00 
-8.2191366e-17 3.8737520e-17 0.0000000e+00 
-2.2888609e-17 -7.4736476e-17 0.0000000e+00 
-3.1119127e-17 2.9253328e-17 0.0000000e+00 
1.6093629e-16 1.2164332e-17 0.0000000e+00 
-1.3529666e-17 -3.4493940e-16 0.0000000e+00 
7.6561885e-17 -1.7627591e-16 0.0000000e+00 
5.6085989e-17 -9.2946341e-17 0.0000000e+00 
8.0951025e-17 -2.3153467e-17 0.0000000e+00 
-8.5377698e-17 -6.0259638e-17 0.0000000e+00 
1.4621870e-17 -1.3110972e-16 0.0000000e+00 
-5.2893201e-17 2.9270849e-18 0.0000000e+00 
2.0461148e-17 6.4153409e-17 0.0000000e+00 
-2.9261246e-17 1.0853688e-16 0.0000000e+00 
9.7270815e-17 9.1594761e-17 0.0000000e+00 
6.5082498e-17 6.6675456e-17 0.0000000e+00 
-7.9793614e-17 -6.0917928e-17 0.0000000e+00 
CELL_DATA 248
FIELD FieldData 0
