# vtk DataFile Version 4.0
vtk output
ASCII
DATASET UNSTRUCTURED_GRID
POINTS 150 float
0.0000000e+00 0.0000000e+00 0.0000000e+00 
4.0000000e+00 0.0000000e+00 0.0000000e+00 
4.0000000e+00 1.0000000e+00 0.0000000e+00 
0.0000000e+00 1.0000000e+00 0.0000000e+00 
2.0000000e-01 0.0000000e+00 0.0000000e+00 
4.0000001e-01 0.0000000e+00 0.0000000e+00 
6.0000002e-01 0.0000000e+00 0.0000000e+00 
8.0000001e-01 0.0000000e+00 0.0000000e+00 
1.0000000e+00 0.0000000e+00 0.0000000e+00 
1.2000000e+00 0.0000000e+00 0.0000000e+00 
1.4000000e+00 0.0000000e+00 0.0000000e+00 
1.6000000e+00 0.0000000e+00 0.0000000e+00 
1.8000000e+00 0.0000000e+00 0.0000000e+00 
2.0000000e+00 0.0000000e+00 0.0000000e+00 
2.2000000e+00 0.0000000e+00 0.0000000e+00 
2.4000001e+00 0.0000000e+00 0.0000000e+00 
2.5999999e+00 0.0000000e+00 0.0000000e+00 
2.8000000e+00 0.0000000e+00 0.0000000e+00 
3.0000000e+00 0.0000000e+00 0.0000000e+00 
3.2000000e+00 0.0000000e+00 0.0000000e+00 
3.4000001e+00 0.0000000e+00 0.0000000e+00 
3.5999999e+00 0.0000000e+00 0.0000000e+00 
3.8000000e+00 0.0000000e+00 0.0000000e+00 
4.0000000e+00 2.0000000e-01 0.0000000e+00 
4.0000000e+00 4.0000001e-01 0.0000000e+00 
4.0000000e+00 6.0000002e-01 0.0000000e+00 
4.0000000e+00 8.0000001e-01 0.0000000e+00 
3.8000000e+00 1.0000000e+00 0.0000000e+00 
3.5999999e+00 1.0000000e+00 0.0000000e+00 
3.4000001e+00 1.0000000e+00 0.0000000e+00 
3.2000000e+00 1.0000000e+00 0.0000000e+00 
3.0000000e+00 1.0000000e+00 0.0000000e+00 
2.8000000e+00 1.0000000e+00 0.0000000e+00 
2.5999999e+00 1.0000000e+00 0.0000000e+00 
2.4000001e+00 1.0000000e+00 0.0000000e+00 
2.2000000e+00 1.0000000e+00 0.0000000e+00 
2.0000000e+00 1.0000000e+00 0.0000000e+00 
1.8000000e+00 1.0000000e+00 0.0000000e+00 
1.6000000e+00 1.0000000e+00 0.0000000e+00 
1.4000000e+00 1.0000000e+00 0.0000000e+00 
1.2000000e+00 1.0000000e+00 0.0000000e+00 
1.0000000e+00 1.0000000e+00 0.0000000e+00 
8.0000001e-01 1.0000000e+00 0.0000000e+00 
6.0000002e-01 1.0000000e+00 0.0000000e+00 
4.0000001e-01 1.0000000e+00 0.0000000e+00 
2.0000000e-01 1.0000000e+00 0.0000000e+00 
0.0000000e+00 8.0000001e-01 0.0000000e+00 
0.0000000e+00 6.0000002e-01 0.0000000e+00 
0.0000000e+00 4.0000001e-01 0.0000000e+00 
0.0000000e+00 2.0000000e-01 0.0000000e+00 
2.3000000e+00 8.2679492e-01 0.0000000e+00 
2.7026613e+00 1.6839938e-01 0.0000000e+00 
3.2973387e+00 8.3160061e-01 0.0000000e+00 
1.4973388e+00 8.3160061e-01 0.0000000e+00 
6.9999999e-01 8.2679492e-01 0.0000000e+00 
1.1000000e+00 8.2679492e-01 0.0000000e+00 
1.9000000e+00 8.2679492e-01 0.0000000e+00 
3.5000000e+00 1.7320508e-01 0.0000000e+00 
5.1031393e-01 1.6354993e-01 0.0000000e+00 
2.0999999e+00 1.7320508e-01 0.0000000e+00 
2.9000001e+00 8.2679492e-01 0.0000000e+00 
3.0999999e+00 1.7320508e-01 0.0000000e+00 
8.9999998e-01 1.7320508e-01 0.0000000e+00 
1.3026613e+00 1.6839938e-01 0.0000000e+00 
1.7000000e+00 1.7320508e-01 0.0000000e+00 
3.8372447e+00 5.0966793e-01 0.0000000e+00 
1.6370662e-01 4.8866507e-01 0.0000000e+00 
3.6861150e+00 8.0809796e-01 0.0000000e+00 
3.0084747e-01 8.3064556e-01 0.0000000e+00 
2.5000000e+00 8.2679492e-01 0.0000000e+00 
2.4000001e+00 6.5686476e-01 0.0000000e+00 
2.5999999e+00 6.5413564e-01 0.0000000e+00 
2.1973388e+00 6.6568744e-01 0.0000000e+00 
2.4980991e+00 4.8908678e-01 0.0000000e+00 
2.7023444e+00 4.9347213e-01 0.0000000e+00 
2.4977822e+00 1.6759844e-01 0.0000000e+00 
3.6991525e+00 1.6935441e-01 0.0000000e+00 
3.6035600e+00 3.2941929e-01 0.0000000e+00 
3.4005933e+00 3.4357834e-01 0.0000000e+00 
3.5158086e+00 5.1572138e-01 0.0000000e+00 
3.3000517e+00 5.1056737e-01 0.0000000e+00 
2.2969692e+00 1.7073415e-01 0.0000000e+00 
2.1941724e+00 3.3966187e-01 0.0000000e+00 
1.9963675e+00 3.4374896e-01 0.0000000e+00 
1.8993946e+00 1.7276154e-01 0.0000000e+00 
2.7000000e+00 8.2688588e-01 0.0000000e+00 
1.5031048e+00 1.7086764e-01 0.0000000e+00 
1.6031787e+00 3.4448409e-01 0.0000000e+00 
1.2968951e+00 8.2913238e-01 0.0000000e+00 
1.1968212e+00 6.5551591e-01 0.0000000e+00 
9.9947023e-01 6.5391088e-01 0.0000000e+00 
1.1000000e+00 4.8038477e-01 0.0000000e+00 
8.9999998e-01 4.8038477e-01 0.0000000e+00 
1.2996216e+00 4.9228978e-01 0.0000000e+00 
7.9991168e-01 6.5364337e-01 0.0000000e+00 
6.9999999e-01 4.8038477e-01 0.0000000e+00 
5.9998530e-01 6.5359873e-01 0.0000000e+00 
4.8479331e-01 4.8141763e-01 0.0000000e+00 
3.9391196e-01 6.7074126e-01 0.0000000e+00 
1.8000000e+00 3.4641016e-01 0.0000000e+00 
1.7000000e+00 5.1961523e-01 0.0000000e+00 
1.5003334e+00 5.0912750e-01 0.0000000e+00 
1.8991497e+00 5.1739931e-01 0.0000000e+00 
6.9999999e-01 1.7320508e-01 0.0000000e+00 
1.6998384e+00 8.2946962e-01 0.0000000e+00 
3.4885678e+00 8.3318800e-01 0.0000000e+00 
4.9912411e-01 8.3029675e-01 0.0000000e+00 
1.1001617e+00 1.7053038e-01 0.0000000e+00 
2.0998845e+00 8.2817227e-01 0.0000000e+00 
8.9989698e-01 8.2685733e-01 0.0000000e+00 
1.6938214e-01 3.0011359e-01 0.0000000e+00 
2.9031048e+00 1.7086764e-01 0.0000000e+00 
3.0008276e+00 3.4420678e-01 0.0000000e+00 
3.0968952e+00 8.2913238e-01 0.0000000e+00 
2.9991724e+00 6.5579319e-01 0.0000000e+00 
2.8001289e+00 6.5661508e-01 0.0000000e+00 
3.3000989e+00 1.7273311e-01 0.0000000e+00 
3.2002618e+00 3.4070939e-01 0.0000000e+00 
3.8118997e+00 3.1613928e-01 0.0000000e+00 
3.8409591e+00 6.9520664e-01 0.0000000e+00 
3.1562445e-01 1.8911865e-01 0.0000000e+00 
1.8788275e-01 6.8363428e-01 0.0000000e+00 
3.1598091e-01 3.8581166e-01 0.0000000e+00 
3.6863050e+00 6.1217356e-01 0.0000000e+00 
2.3978372e+00 3.3231843e-01 0.0000000e+00 
2.8014896e+00 3.3396253e-01 0.0000000e+00 
3.1989098e+00 6.6671073e-01 0.0000000e+00 
2.0978379e+00 5.0662857e-01 0.0000000e+00 
1.4056216e+00 3.3585981e-01 0.0000000e+00 
1.3943676e+00 6.6447765e-01 0.0000000e+00 
3.3914382e+00 6.7400205e-01 0.0000000e+00 
1.5986463e+00 6.7124927e-01 0.0000000e+00 
2.6000254e+00 3.2966018e-01 0.0000000e+00 
1.7996057e+00 6.7296129e-01 0.0000000e+00 
1.2000000e+00 3.2679492e-01 0.0000000e+00 
1.0000000e+00 3.2679492e-01 0.0000000e+00 
8.0000001e-01 3.2679492e-01 0.0000000e+00 
6.0786384e-01 3.2318488e-01 0.0000000e+00 
2.2982483e+00 4.9884883e-01 0.0000000e+00 
2.9000001e+00 5.0003433e-01 0.0000000e+00 
3.0999999e+00 4.9996570e-01 0.0000000e+00 
2.0000000e+00 6.7323941e-01 0.0000000e+00 
1.4641017e-01 8.5358983e-01 0.0000000e+00 
3.8535898e+00 8.5358983e-01 0.0000000e+00 
3.8535898e+00 1.4641017e-01 0.0000000e+00 
1.4641017e-01 1.4641017e-01 0.0000000e+00 
3.5479531e+00 6.8622428e-01 0.0000000e+00 
4.4691527e-01 3.0861655e-01 0.0000000e+00 
3.0925509e-01 5.4205400e-01 0.0000000e+00 
3.6897502e+00 4.5812324e-01 0.0000000e+00 

CELLS 248 992
3 0 145 49
3 1 144 22
3 2 143 26
3 3 142 45
3 4 145 0
3 5 120 4
3 6 58 5
3 6 103 58
3 7 103 6
3 8 62 7
3 8 107 62
3 9 107 8
3 10 63 9
3 10 86 63
3 11 86 10
3 12 64 11
3 12 84 64
3 13 84 12
3 14 59 13
3 14 81 59
3 15 81 14
3 16 75 15
3 17 51 16
3 17 111 51
3 18 111 17
3 19 61 18
3 19 116 61
3 20 116 19
3 21 57 20
3 21 76 57
3 22 76 21
3 22 144 76
3 23 144 1
3 24 118 23
3 25 65 24
3 25 119 65
3 26 119 25
3 26 143 119
3 27 143 2
3 28 67 27
3 28 105 67
3 29 105 28
3 30 52 29
3 30 113 52
3 31 113 30
3 32 60 31
3 32 85 60
3 33 85 32
3 34 69 33
3 35 50 34
3 35 108 50
3 36 108 35
3 37 56 36
3 37 104 56
3 38 104 37
3 39 53 38
3 39 88 53
3 40 88 39
3 41 55 40
3 41 109 55
3 42 109 41
3 43 54 42
3 43 106 54
3 44 106 43
3 45 68 44
3 45 142 68
3 46 142 3
3 47 121 46
3 48 66 47
3 48 110 66
3 49 110 48
3 49 145 110
3 50 69 34
3 50 70 69
3 50 72 70
3 50 108 72
3 51 75 16
3 51 132 75
3 52 105 29
3 52 130 105
3 53 104 38
3 53 131 104
3 54 96 94
3 54 106 96
3 54 109 42
3 55 88 40
3 55 89 88
3 55 90 89
3 55 109 90
3 56 108 36
3 56 141 108
3 57 116 20
3 58 120 5
3 58 147 120
3 59 84 13
3 60 113 31
3 60 114 113
3 60 115 114
3 61 111 18
3 61 112 111
3 61 117 112
3 62 103 7
3 62 136 103
3 63 107 9
3 63 134 107
3 64 86 11
3 64 87 86
3 64 99 87
3 65 118 24
3 65 149 118
3 66 121 47
3 66 148 121
3 67 123 119
3 67 143 27
3 67 146 123
3 68 106 44
3 68 121 98
3 68 142 121
3 69 85 33
3 70 71 69
3 70 73 71
3 70 138 73
3 71 85 69
3 71 115 85
3 72 138 70
3 72 141 127
3 73 74 71
3 73 132 74
3 73 138 124
3 74 115 71
3 74 132 125
3 74 139 115
3 75 81 15
3 75 124 81
3 75 132 124
3 76 77 57
3 76 118 77
3 76 144 118
3 77 78 57
3 77 79 78
3 77 149 79
3 78 116 57
3 78 117 116
3 79 80 78
3 79 130 80
3 79 146 130
3 79 149 123
3 80 117 78
3 80 130 126
3 80 140 117
3 81 82 59
3 81 124 82
3 82 83 59
3 82 127 83
3 82 138 127
3 83 84 59
3 83 99 84
3 83 102 99
3 83 127 102
3 84 99 64
3 85 115 60
3 86 128 63
3 87 128 86
3 88 129 53
3 89 129 88
3 90 91 89
3 90 92 91
3 90 94 92
3 90 109 94
3 91 93 89
3 91 134 93
3 91 135 134
3 92 135 91
3 92 136 135
3 93 128 101
3 93 129 89
3 93 134 128
3 94 95 92
3 94 96 95
3 94 109 54
3 95 136 92
3 95 137 136
3 96 97 95
3 96 98 97
3 96 106 98
3 97 137 95
3 97 147 137
3 97 148 122
3 98 106 68
3 98 148 97
3 99 100 87
3 99 102 100
3 100 101 87
3 100 131 101
3 100 133 131
3 101 128 87
3 101 129 93
3 101 131 129
3 102 133 100
3 102 141 133
3 103 137 58
3 104 133 56
3 105 146 67
3 107 135 62
3 108 141 72
3 110 122 66
3 110 145 120
3 111 125 51
3 112 125 111
3 112 139 125
3 112 140 139
3 113 126 52
3 114 126 113
3 114 140 126
3 115 139 114
3 116 117 61
3 117 140 112
3 118 144 23
3 118 149 77
3 119 123 65
3 119 143 67
3 120 122 110
3 120 145 4
3 120 147 122
3 121 142 46
3 121 148 98
3 122 147 97
3 122 148 66
3 123 146 79
3 123 149 65
3 124 132 73
3 124 138 82
3 125 132 51
3 125 139 74
3 126 130 52
3 126 140 80
3 127 138 72
3 127 141 102
3 128 134 63
3 129 131 53
3 130 146 105
3 131 133 104
3 133 141 56
3 134 135 107
3 135 136 62
3 136 137 103
3 137 147 58
3 139 140 114

CELL_TYPES 248
5
5
5
5
5
5
5
5
5
5
5
5
5
5
5
5
5
5
5
5
5
5
5
5
5
5
5
5
5
5
5
5
5
5
5
5
5
5
5
5
5
5
5
5
5
5
5
5
5
5
5
5
5
5
5
5
5
5
5
5
5
5
5
5
5
5
5
5
5
5
5
5
5
5
5
5
5
5
5
5
5
5
5
5
5
5
5
5
5
5
5
5
5
5
5
5
5
5
5
5
5
5
5
5
5
5
5
5
5
5
5
5
5
5
5
5
5
5
5
5
5
5
5
5
5
5
5
5
5
5
5
5
5
5
5
5
5
5
5
5
5
5
5
5
5
5
5
5
5
5
5
5
5
5
5
5
5
5
5
5
5
5
5
5
5
5
5
5
5
5
5
5
5
5
5
5
5
5
5
5
5
5
5
5
5
5
5
5
5
5
5
5
5
5
5
5
5
5
5
5
5
5
5
5
5
5
5
5
5
5
5
5
5
5
5
5
5
5
5
5
5
5
5
5
5
5
5
5
5
5
5
5
5
5
5
5
5
5
5
5
5
5
5
5
5
5
5
5
POINT_DATA 150
FIELD FieldData 3
HEIGHT 1 150  float
1.0000000e+00
1.0000000e+00
1.0000000e+00
1.0000000e+00
1.0000000e+00
1.0000000e+00
1.0000000e+00
1.0000000e+00
1.0000000e+00
1.0000000e+00
1.0000000e+00
1.0000000e+00
1.0000000e+00
1.0000000e+00
1.0000000e+00
1.0000000e+00
1.0000000e+00
1.0000000e+00
1.0000000e+00
1.0000000e+00
1.0000000e+00
1.0000000e+00
1.0000000e+00
1.0000000e+00
1.0000000e+00
1.0000000e+00
1.0000000e+00
1.0000000e+00
1.0000000e+00
1.0000000e+00
1.0000000e+00
1.0000000e+00
1.0000000e+00
1.0000000e+00
1.0000000e+00
1.0000000e+00
1.0000000e+00
1.0000000e+00
1.0000000e+00
1.0000000e+00
1.0000000e+00
1.0000000e+00
1.0000000e+00
1.0000000e+00
1.0000000e+00
1.0000000e+00
1.0000000e+00
1.0000000e+00
1.0000000e+00
1.0000000e+00
1.0000000e+00
1.0000000e+00
1.0000000e+00
1.0000000e+00
1.0000000e+00
1.0000000e+00
1.0000000e+00
1.0000000e+00
1.0000000e+00
1.0000000e+00
1.0000000e+00
1.0000000e+00
1.0000000e+00
1.0000000e+00
1.0000000e+00
1.0000000e+00
1.0000000e+00
1.0000000e+00
1.0000000e+00
1.0000000e+00
1.0000000e+00
1.0000000e+00
1.0000000e+00
1.0000000e+00
1.0000000e+00
1.0000000e+00
1.0000000e+00
1.0000000e+00
1.0000000e+00
1.0000000e+00
1.0000000e+00
1.0000000e+00
1.0000000e+00
1.0000000e+00
1.0000000e+00
1.0000000e+00
1.0000000e+00
1.0000000e+00
1.0000000e+00
1.0000000e+00
1.0000000e+00
1.0000000e+00
1.0000000e+00
1.0000000e+00
1.0000000e+00
1.0000000e+00
1.0000000e+00
1.0000000e+00
1.0000000e+00
1.0000000e+00
1.0000000e+00
1.0000000e+00
1.0000000e+00
1.0000000e+00
1.0000000e+00
1.0000000e+00
1.0000000e+00
1.0000000e+00
1.0000000e+00
1.0000000e+00
1.0000000e+00
1.0000000e+00
1.0000000e+00
1.0000000e+00
1.0000000e+00
1.0000000e+00
1.0000000e+00
1.0000000e+00
1.0000000e+00
1.0000000e+00
1.0000000e+00
1.0000000e+00
1.0000000e+00
1.0000000e+00
1.0000000e+00
1.0000000e+00
1.0000000e+00
1.0000000e+00
1.0000000e+00
1.0000000e+00
1.0000000e+00
1.0000000e+00
1.0000000e+00
1.0000000e+00
1.0000000e+00
1.0000000e+00
1.0000000e+00
1.0000000e+00
1.0000000e+00
1.0000000e+00
1.0000000e+00
1.0000000e+00
1.0000000e+00
1.0000000e+00
1.0000000e+00
1.0000000e+00
1.0000000e+00
1.0000000e+00
1.0000000e+00
1.0000000e+00
MOMENTUM 3 150  float
-3.6253860e-16 3.6253860e-16 0.0000000e+00 
4.9691615e-17 4.9691615e-17 0.0000000e+00 
-9.0027195e-17 9.0027195e-17 0.0000000e+00 
5.4007355e-16 5.4007355e-16 0.0000000e+00 
-2.9089099e-16 0.0000000e+00 0.0000000e+00 
6.4431924e-17 0.0000000e+00 0.0000000e+00 
1.4683605e-16 0.0000000e+00 0.0000000e+00 
-1.5834161e-16 0.0000000e+00 0.0000000e+00 
2.2956268e-16 0.0000000e+00 0.0000000e+00 
2.1217979e-16 0.0000000e+00 0.0000000e+00 
2.9013314e-16 0.0000000e+00 0.0000000e+00 
3.3853173e-16 0.0000000e+00 0.0000000e+00 
-3.7424928e-16 0.0000000e+00 0.0000000e+00 
7.4920891e-17 0.0000000e+00 0.0000000e+00 
1.1296492e-16 0.0000000e+00 0.0000000e+00 
-5.4587504e-16 0.0000000e+00 0.0000000e+00 
3.9710750e-16 0.0000000e+00 0.0000000e+00 
5.5602033e-16 0.0000000e+00 0.0000000e+00 
3.2549414e-16 0.0000000e+00 0.0000000e+00 
-6.2425756e-16 0.0000000e+00 0.0000000e+00 
5.4325152e-16 0.0000000e+00 0.0000000e+00 
-7.1687792e-16 0.0000000e+00 0.0000000e+00 
8.7727875e-16 0.0000000e+00 0.0000000e+00 
0.0000000e+00 -6.6271535e-16 0.0000000e+00 
0.0000000e+00 -3.2480598e-16 0.0000000e+00 
0.0000000e+00 5.1323966e-16 0.0000000e+00 
0.0000000e+00 2.3949865e-16 0.0000000e+00 
-5.1310196e-16 0.0000000e+00 0.0000000e+00 
1.6051908e-16 0.0000000e+00 0.0000000e+00 
3.3386751e-16 0.0000000e+00 0.0000000e+00 
-7.9878059e-17 0.0000000e+00 0.0000000e+00 
4.9464014e-16 0.0000000e+00 0.0000000e+00 
1.2251528e-16 0.0000000e+00 0.0000000e+00 
-3.5805529e-17 0.0000000e+00 0.0000000e+00 
-4.9287802e-17 0.0000000e+00 0.0000000e+00 
3.9808301e-16 0.0000000e+00 0.0000000e+00 
-2.1111313e-16 0.0000000e+00 0.0000000e+00 
-3.9840284e-17 0.0000000e+00 0.0000000e+00 
-1.1377519e-15 0.0000000e+00 0.0000000e+00 
-2.7585693e-16 0.0000000e+00 0.0000000e+00 
2.5879154e-18 0.0000000e+00 0.0000000e+00 
-1.0969980e-16 0.0000000e+00 0.0000000e+00 
-3.9705254e-16 0.0000000e+00 0.0000000e+00 
1.1493921e-17 0.0000000e+00 0.0000000e+00 
-1.9729066e-16 0.0000000e+00 0.0000000e+00 
-2.8048040e-16 0.0000000e+00 0.0000000e+00 
0.0000000e+00 3.0149661e-16 0.0000000e+00 
0.0000000e+00 -6.5303270e-16 0.0000000e+00 
0.0000000e+00 3.7833200e-16 0.0000000e+00 
0.0000000e+00 -8.7050428e-16 0.0000000e+00 
2.0843598e-16 1.8252988e-16 0.0000000e+00 
-7.3411546e-16 1.7270717e-16 0.0000000e+00 
-3.1206428e-16 1.2206040e-16 0.0000000e+00 
5.9016359e-16 1.5052290e-16 0.0000000e+00 
1.9295740e-16 -1.7565929e-16 0.0000000e+00 
1.7820857e-16 -2.9230218e-16 0.0000000e+00 
2.9111546e-16 2.4825408e-16 0.0000000e+00 
3.7742233e-17 -5.7431010e-16 0.0000000e+00 
-2.9567750e-16 4.5737667e-16 0.0000000e+00 
-2.1965969e-16 -1.3324572e-16 0.0000000e+00 
-3.2465087e-16 4.3947370e-18 0.0000000e+00 
4.4413278e-16 -2.4884012e-16 0.0000000e+00 
2.0113137e-16 2.4698750e-16 0.0000000e+00 
7.6754065e-16 1.1197952e-16 0.0000000e+00 
-3.2474386e-16 -3.7376941e-16 0.0000000e+00 
4.7027703e-16 -5.8153153e-16 0.0000000e+00 
-3.7365890e-16 -3.7371041e-17 0.0000000e+00 
5.3529062e-16 -5.6847483e-16 0.0000000e+00 
2.6166367e-16 3.8306599e-16 0.0000000e+00 
-3.0544074e-16 2.4118527e-16 0.0000000e+00 
1.3869651e-16 -1.8354352e-16 0.0000000e+00 
-2.9962173e-16 -8.7209046e-16 0.0000000e+00 
2.0592023e-16 4.9112146e-16 0.0000000e+00 
1.5221557e-16 9.0873654e-16 0.0000000e+00 
6.2847881e-16 2.0229827e-16 0.0000000e+00 
7.1946476e-16 -3.0633321e-18 0.0000000e+00 
2.4160638e-16 7.3238211e-16 0.0000000e+00 
5.9953511e-16 -5.8559798e-16 0.0000000e+00 
1.2220192e-17 -4.6612451e-16 0.0000000e+00 
-6.6887476e-16 1.4940675e-17 0.0000000e+00 
-4.4017662e-17 -1.9723214e-16 0.0000000e+00 
2.5360908e-16 2.7718584e-17 0.0000000e+00 
-9.2330098e-17 4.8956847e-16 0.0000000e+00 
1.0097770e-16 -3.7681923e-16 0.0000000e+00 
-6.0592409e-17 5.7013952e-16 0.0000000e+00 
5.7935247e-17 3.3394967e-16 0.0000000e+00 
-8.1859715e-16 1.4104713e-16 0.0000000e+00 
7.8734651e-16 2.6673872e-16 0.0000000e+00 
-6.8357586e-16 1.9127222e-16 0.0000000e+00 
-1.6985900e-16 1.9944383e-16 0.0000000e+00 
-2.1892088e-18 -8.2448514e-16 0.0000000e+00 
3.7838230e-16 1.6116475e-16 0.0000000e+00 
4.7791383e-16 1.5645986e-17 0.0000000e+00 
3.7863622e-16 7.4770272e-16 0.0000000e+00 
4.7892397e-16 5.9776666e-16 0.0000000e+00 
1.3166125e-16 -5.4685495e-16 0.0000000e+00 
7.5722554e-16 -8.8321772e-16 0.0000000e+00 
-7.1300838e-17 2.3547897e-16 0.0000000e+00 
-4.8100254e-16 1.0096532e-16 0.0000000e+00 
2.4724016e-16 -1.3324652e-17 0.0000000e+00 
1.2191078e-16 -5.0813120e-16 0.0000000e+00 
-2.9723898e-16 -3.8470619e-16 0.0000000e+00 
-4.1199325e-16 3.2431197e-16 0.0000000e+00 
-1.2284834e-16 -1.1369695e-16 0.0000000e+00 
6.3105755e-16 5.5640419e-16 0.0000000e+00 
-1.7535731e-16 -3.4679588e-16 0.0000000e+00 
1.6344226e-18 4.0990803e-17 0.0000000e+00 
-8.1075633e-16 -4.6429687e-16 0.0000000e+00 
-3.2513444e-16 -6.3634266e-16 0.0000000e+00 
3.4265940e-16 3.5193361e-16 0.0000000e+00 
-7.6537295e-17 -3.8763155e-16 0.0000000e+00 
1.3680277e-16 -3.9835110e-16 0.0000000e+00 
-1.2776334e-17 2.4657722e-16 0.0000000e+00 
7.4945825e-16 -3.2748266e-16 0.0000000e+00 
-3.6362027e-19 -6.7108652e-16 0.0000000e+00 
-1.0477851e-16 -2.8030824e-16 0.0000000e+00 
-4.7299091e-17 7.1609812e-16 0.0000000e+00 
-4.9163910e-16 3.6555758e-16 0.0000000e+00 
-9.8812150e-17 1.1562306e-15 0.0000000e+00 
-2.2636569e-16 4.6604097e-16 0.0000000e+00 
3.5867197e-16 4.5183681e-16 0.0000000e+00 
-3.2663774e-16 1.2293623e-16 0.0000000e+00 
-9.6300096e-17 -5.5197294e-16 0.0000000e+00 
7.1037810e-16 -2.3776360e-16 0.0000000e+00 
-4.6980735e-16 -2.3132242e-16 0.0000000e+00 
2.5609697e-16 -1.3319447e-15 0.0000000e+00 
-5.1864214e-16 1.5489950e-16 0.0000000e+00 
-9.8649428e-17 3.9426231e-16 0.0000000e+00 
-4.1255184e-16 -1.9590175e-16 0.0000000e+00 
-1.6118607e-16 5.6443332e-16 0.0000000e+00 
7.4690344e-16 5.2909516e-18 0.0000000e+00 
-1.6939979e-17 8.9919493e-16 0.0000000e+00 
9.5535198e-17 -1.9866691e-16 0.0000000e+00 
3.8191339e-16 -4.4368030e-16 0.0000000e+00 
-5.1179446e-16 2.2621410e-16 0.0000000e+00 
5.6708221e-17 -4.9953795e-16 0.0000000e+00 
-4.3708279e-16 3.2197641e-16 0.0000000e+00 
9.5219156e-16 -1.0608714e-16 0.0000000e+00 
-3.9249240e-17 -2.1279805e-15 0.0000000e+00 
1.7133788e-16 -5.9772765e-16 0.0000000e+00 
4.6020565e-16 -3.5042510e-16 0.0000000e+00 
4.7080505e-16 -2.1938193e-16 0.0000000e+00 
-4.3163272e-16 -5.7013068e-16 0.0000000e+00 
1.1584969e-16 -6.0412751e-16 0.0000000e+00 
-3.3090224e-16 -2.1321120e-18 0.0000000e+00 
2.2655371e-16 3.8292295e-16 0.0000000e+00 
-1.8389554e-16 6.6177191e-16 0.0000000e+00 
3.3110555e-16 4.4361897e-16 0.0000000e+00 
5.8801583e-16 3.5670140e-16 0.0000000e+00 
-6.4524979e-16 -3.3446469e-17 0.0000000e+00 
VELOCITY 3 150  float
-1.6099224e-16 1.6818701e-16 0.0000000e+00 
5.1780090e-17 -5.8526641e-17 0.0000000e+00 
-8.0188920e-17 -7.6080949e-17 0.0000000e+00 
1.2706853e-16 1.6519118e-16 0.0000000e+00 
-7.2750105e-17 1.6933818e-16 0.0000000e+00 
3.0710460e-17 1.5153558e-16 0.0000000e+00 
-4.1620879e-18 5.7279955e-17 0.0000000e+00 
-3.4757071e-17 2.2215092e-17 0.0000000e+00 
1.7663699e-17 -3.6218232e-17 0.0000000e+00 
1.4219529e-16 -5.8719560e-17 0.0000000e+00 
1.8244979e-16 4.2171107e-17 0.0000000e+00 
-2.8300645e-17 -3.8787048e-17 0.0000000e+00 
-2.1689298e-16 3.2728354e-17 0.0000000e+00 
-3.1021936e-17 7.2815637e-17 0.0000000e+00 
2.2894511e-17 -1.7587857e-17 0.0000000e+00 
-6.8252512e-17 4.1092087e-18 0.0000000e+00 
1.9695741e-16 2.8273973e-17 0.0000000e+00 
2.3867485e-16 -3.7607320e-17 0.0000000e+00 
2.5388322e-16 -1.0786521e-16 0.0000000e+00 
-1.7359437e-16 7.7876335e-17 0.0000000e+00 
1.5827164e-16 2.3631339e-17 0.0000000e+00 
-1.9350334e-16 2.6345339e-17 0.0000000e+00 
3.6815787e-16 1.2584930e-16 0.0000000e+00 
-6.7478099e-17 -1.6193413e-16 0.0000000e+00 
6.1910809e-17 -7.9076131e-17 0.0000000e+00 
4.0651887e-17 2.3026247e-16 0.0000000e+00 
-2.5921600e-17 1.4700713e-16 0.0000000e+00 
-1.4215328e-16 -1.8793145e-16 0.0000000e+00 
1.2531222e-16 -1.5254511e-16 0.0000000e+00 
9.2416913e-17 -3.7455916e-17 0.0000000e+00 
1.0200227e-16 -3.4237042e-17 0.0000000e+00 
3.2167439e-16 -5.3847985e-17 0.0000000e+00 
5.5041253e-17 5.6390735e-17 0.0000000e+00 
-5.3051391e-17 9.5855827e-17 0.0000000e+00 
-1.0621571e-17 7.0619195e-17 0.0000000e+00 
1.5789168e-16 -7.5635463e-17 0.0000000e+00 
-8.1372841e-17 -6.4681434e-17 0.0000000e+00 
2.1369941e-17 1.3410972e-16 0.0000000e+00 
-3.9164718e-16 1.1782118e-16 0.0000000e+00 
-2.4809418e-16 5.6965851e-17 0.0000000e+00 
-1.1506366e-16 -1.6838323e-17 0.0000000e+00 
-9.1062515e-19 9.9385751e-18 0.0000000e+00 
-1.1744063e-16 2.9379053e-17 0.0000000e+00 
-1.1349670e-17 -2.2444747e-17 0.0000000e+00 
-7.7177857e-17 7.0676131e-17 0.0000000e+00 
-1.4000314e-16 1.3828683e-17 0.0000000e+00 
-8.1372285e-17 6.6802636e-17 0.0000000e+00 
-1.1671611e-16 -2.5560312e-16 0.0000000e+00 
-7.5032700e-17 -8.6291779e-18 0.0000000e+00 
-5.2088150e-18 -3.7429769e-16 0.0000000e+00 
1.0945438e-16 8.3966654e-17 0.0000000e+00 
-1.8697209e-16 -7.4648584e-17 0.0000000e+00 
-6.8002836e-17 1.8189526e-17 0.0000000e+00 
1.5806070e-16 2.5953685e-16 0.0000000e+00 
1.9605242e-16 -7.8873531e-17 0.0000000e+00 
3.7431240e-17 -1.5297071e-16 0.0000000e+00 
2.2119841e-16 6.2210308e-17 0.0000000e+00 
7.1574132e-17 -2.5409191e-16 0.0000000e+00 
-3.6396940e-18 2.8499432e-16 0.0000000e+00 
-7.7367341e-17 -7.4055809e-18 0.0000000e+00 
-5.2374869e-17 -7.6546612e-17 0.0000000e+00 
1.6259347e-16 -4.6929910e-17 0.0000000e+00 
-2.9974883e-18 6.0530801e-17 0.0000000e+00 
2.1282144e-16 3.1578308e-17 0.0000000e+00 
-1.5239863e-16 -1.0650131e-16 0.0000000e+00 
2.1346771e-16 -1.6247451e-16 0.0000000e+00 
-1.7945106e-16 -7.9907818e-17 0.0000000e+00 
2.5964718e-16 -2.8858555e-16 0.0000000e+00 
-1.2118974e-17 1.6609646e-16 0.0000000e+00 
-1.5102432e-16 7.5663104e-17 0.0000000e+00 
6.2869922e-17 -1.8981325e-16 0.0000000e+00 
-1.0255196e-16 -3.3418541e-16 0.0000000e+00 
1.3253548e-16 2.9689349e-17 0.0000000e+00 
8.0610465e-17 1.7009278e-16 0.0000000e+00 
3.3680484e-16 -9.6517651e-17 0.0000000e+00 
2.7610354e-16 -2.0661964e-17 0.0000000e+00 
1.5146684e-16 3.6570692e-16 0.0000000e+00 
2.0632023e-16 -2.2365963e-16 0.0000000e+00 
-4.5102678e-17 -2.5477422e-16 0.0000000e+00 
-2.4901781e-16 -5.3465510e-17 0.0000000e+00 
-6.0327725e-17 -1.2160447e-16 0.0000000e+00 
8.5534333e-17 2.4020710e-17 0.0000000e+00 
-8.5563291e-17 4.0835323e-17 0.0000000e+00 
-2.5098790e-18 -5.2433622e-17 0.0000000e+00 
-7.1589048e-17 2.1030651e-16 0.0000000e+00 
-5.0014218e-17 9.1406608e-17 0.0000000e+00 
-2.8877722e-16 5.4610821e-17 0.0000000e+00 
2.7000819e-16 2.2137188e-17 0.0000000e+00 
-3.2811642e-16 1.4747759e-16 0.0000000e+00 
-7.7573163e-17 1.4537072e-16 0.0000000e+00 
1.3942448e-16 -3.2610485e-16 0.0000000e+00 
2.0830912e-16 6.9330997e-17 0.0000000e+00 
2.8949058e-16 -5.8007860e-17 0.0000000e+00 
9.1464113e-17 4.2140535e-16 0.0000000e+00 
3.9781434e-16 1.2699688e-16 0.0000000e+00 
2.4565324e-16 -2.5829722e-16 0.0000000e+00 
3.9968557e-16 -4.2055157e-16 0.0000000e+00 
1.2027080e-16 3.2964693e-17 0.0000000e+00 
-1.3961786e-16 7.1812300e-17 0.0000000e+00 
1.4136220e-16 -1.4789794e-17 0.0000000e+00 
1.1848272e-16 -2.0002106e-16 0.0000000e+00 
-9.0518189e-17 -4.4516697e-17 0.0000000e+00 
-1.0398015e-16 6.4899737e-17 0.0000000e+00 
-2.7336083e-17 1.9839312e-17 0.0000000e+00 
3.2125048e-16 3.4939307e-16 0.0000000e+00 
1.9039746e-17 -1.5501058e-16 0.0000000e+00 
4.6237821e-17 -2.7408408e-17 0.0000000e+00 
-3.2576747e-16 -2.2501152e-16 0.0000000e+00 
-4.8963338e-17 -2.5962772e-16 0.0000000e+00 
1.9975873e-16 1.1807682e-16 0.0000000e+00 
-2.8663092e-17 -2.1437881e-16 0.0000000e+00 
1.3797243e-16 -2.9596723e-16 0.0000000e+00 
7.5023250e-17 -9.0188978e-17 0.0000000e+00 
3.1298257e-16 -1.9621898e-16 0.0000000e+00 
3.5895711e-17 -4.5193072e-16 0.0000000e+00 
-3.2962949e-17 -2.7350929e-16 0.0000000e+00 
-3.0195378e-17 2.8107264e-16 0.0000000e+00 
-1.7811409e-16 1.5778326e-16 0.0000000e+00 
-2.5458474e-17 4.7398333e-16 0.0000000e+00 
3.9466772e-17 1.2975722e-16 0.0000000e+00 
1.6952779e-16 2.5051227e-16 0.0000000e+00 
-1.9450563e-16 5.3017748e-17 0.0000000e+00 
1.4874646e-17 -1.8743367e-16 0.0000000e+00 
2.9528754e-16 -1.2227341e-16 0.0000000e+00 
-1.4413323e-16 -1.9096847e-16 0.0000000e+00 
1.5182040e-16 -7.1373590e-16 0.0000000e+00 
-1.2597760e-16 -4.0789838e-17 0.0000000e+00 
-2.9813846e-17 7.8866172e-17 0.0000000e+00 
-1.8078485e-16 -5.5362086e-18 0.0000000e+00 
-9.7160866e-17 4.3250251e-16 0.0000000e+00 
2.1488073e-16 3.6782512e-17 0.0000000e+00 
9.7081702e-17 4.4416772e-16 0.0000000e+00 
9.3795379e-17 -1.2288250e-16 0.0000000e+00 
2.8145301e-16 -1.1345248e-16 0.0000000e+00 
-2.2606730e-16 1.0153292e-16 0.0000000e+00 
-3.0163058e-17 -2.0746132e-16 0.0000000e+00 
-7.7144902e-17 7.7359585e-17 0.0000000e+00 
4.3741721e-16 1.3448022e-17 0.0000000e+00 
-3.3287501e-17 -9.0825501e-16 0.0000000e+00 
1.8790752e-16 -4.8093790e-16 0.0000000e+00 
1.5542774e-16 -2.3346354e-16 0.0000000e+00 
2.3900019e-16 -7.8197063e-17 0.0000000e+00 
-1.9635445e-16 -1.5030810e-16 0.0000000e+00 
2.8504419e-17 -2.7935456e-16 0.0000000e+00 
-5.8474661e-17 1.2649284e-16 0.0000000e+00 
7.6147362e-17 1.4708543e-16 0.0000000e+00 
2.2886235e-17 2.1760568e-16 0.0000000e+00 
2.5031129e-16 2.7047273e-16 0.0000000e+00 
1.5911791e-16 1.6535436e-16 0.0000000e+00 
-2.2137458e-16 -4.0095423e-17 0.0000000e+00 
CELL_DATA 248
FIELD FieldData 0
