# vtk DataFile Version 4.0
vtk output
ASCII
DATASET UNSTRUCTURED_GRID
POINTS 150 float
0.0000000e+00 0.0000000e+00 0.0000000e+00 
4.0000000e+00 0.0000000e+00 0.0000000e+00 
4.0000000e+00 1.0000000e+00 0.0000000e+00 
0.0000000e+00 1.0000000e+00 0.0000000e+00 
2.0000000e-01 0.0000000e+00 0.0000000e+00 
4.0000001e-01 0.0000000e+00 0.0000000e+00 
6.0000002e-01 0.0000000e+00 0.0000000e+00 
8.0000001e-01 0.0000000e+00 0.0000000e+00 
1.0000000e+00 0.0000000e+00 0.0000000e+00 
1.2000000e+00 0.0000000e+00 0.0000000e+00 
1.4000000e+00 0.0000000e+00 0.0000000e+00 
1.6000000e+00 0.0000000e+00 0.0000000e+00 
1.8000000e+00 0.0000000e+00 0.0000000e+00 
2.0000000e+00 0.0000000e+00 0.0000000e+00 
2.2000000e+00 0.0000000e+00 0.0000000e+00 
2.4000001e+00 0.0000000e+00 0.0000000e+00 
2.5999999e+00 0.0000000e+00 0.0000000e+00 
2.8000000e+00 0.0000000e+00 0.0000000e+00 
3.0000000e+00 0.0000000e+00 0.0000000e+00 
3.2000000e+00 0.0000000e+00 0.0000000e+00 
3.4000001e+00 0.0000000e+00 0.0000000e+00 
3.5999999e+00 0.0000000e+00 0.0000000e+00 
3.8000000e+00 0.0000000e+00 0.0000000e+00 
4.0000000e+00 2.0000000e-01 0.0000000e+00 
4.0000000e+00 4.0000001e-01 0.0000000e+00 
4.0000000e+00 6.0000002e-01 0.0000000e+00 
4.0000000e+00 8.0000001e-01 0.0000000e+00 
3.8000000e+00 1.0000000e+00 0.0000000e+00 
3.5999999e+00 1.0000000e+00 0.0000000e+00 
3.4000001e+00 1.0000000e+00 0.0000000e+00 
3.2000000e+00 1.0000000e+00 0.0000000e+00 
3.0000000e+00 1.0000000e+00 0.0000000e+00 
2.8000000e+00 1.0000000e+00 0.0000000e+00 
2.5999999e+00 1.0000000e+00 0.0000000e+00 
2.4000001e+00 1.0000000e+00 0.0000000e+00 
2.2000000e+00 1.0000000e+00 0.0000000e+00 
2.0000000e+00 1.0000000e+00 0.0000000e+00 
1.8000000e+00 1.0000000e+00 0.0000000e+00 
1.6000000e+00 1.0000000e+00 0.0000000e+00 
1.4000000e+00 1.0000000e+00 0.0000000e+00 
1.2000000e+00 1.0000000e+00 0.0000000e+00 
1.0000000e+00 1.0000000e+00 0.0000000e+00 
8.0000001e-01 1.0000000e+00 0.0000000e+00 
6.0000002e-01 1.0000000e+00 0.0000000e+00 
4.0000001e-01 1.0000000e+00 0.0000000e+00 
2.0000000e-01 1.0000000e+00 0.0000000e+00 
0.0000000e+00 8.0000001e-01 0.0000000e+00 
0.0000000e+00 6.0000002e-01 0.0000000e+00 
0.0000000e+00 4.0000001e-01 0.0000000e+00 
0.0000000e+00 2.0000000e-01 0.0000000e+00 
2.3000000e+00 8.2679492e-01 0.0000000e+00 
2.7026613e+00 1.6839938e-01 0.0000000e+00 
3.2973387e+00 8.3160061e-01 0.0000000e+00 
1.4973388e+00 8.3160061e-01 0.0000000e+00 
6.9999999e-01 8.2679492e-01 0.0000000e+00 
1.1000000e+00 8.2679492e-01 0.0000000e+00 
1.9000000e+00 8.2679492e-01 0.0000000e+00 
3.5000000e+00 1.7320508e-01 0.0000000e+00 
5.1031393e-01 1.6354993e-01 0.0000000e+00 
2.0999999e+00 1.7320508e-01 0.0000000e+00 
2.9000001e+00 8.2679492e-01 0.0000000e+00 
3.0999999e+00 1.7320508e-01 0.0000000e+00 
8.9999998e-01 1.7320508e-01 0.0000000e+00 
1.3026613e+00 1.6839938e-01 0.0000000e+00 
1.7000000e+00 1.7320508e-01 0.0000000e+00 
3.8372447e+00 5.0966793e-01 0.0000000e+00 
1.6370662e-01 4.8866507e-01 0.0000000e+00 
3.6861150e+00 8.0809796e-01 0.0000000e+00 
3.0084747e-01 8.3064556e-01 0.0000000e+00 
2.5000000e+00 8.2679492e-01 0.0000000e+00 
2.4000001e+00 6.5686476e-01 0.0000000e+00 
2.5999999e+00 6.5413564e-01 0.0000000e+00 
2.1973388e+00 6.6568744e-01 0.0000000e+00 
2.4980991e+00 4.8908678e-01 0.0000000e+00 
2.7023444e+00 4.9347213e-01 0.0000000e+00 
2.4977822e+00 1.6759844e-01 0.0000000e+00 
3.6991525e+00 1.6935441e-01 0.0000000e+00 
3.6035600e+00 3.2941929e-01 0.0000000e+00 
3.4005933e+00 3.4357834e-01 0.0000000e+00 
3.5158086e+00 5.1572138e-01 0.0000000e+00 
3.3000517e+00 5.1056737e-01 0.0000000e+00 
2.2969692e+00 1.7073415e-01 0.0000000e+00 
2.1941724e+00 3.3966187e-01 0.0000000e+00 
1.9963675e+00 3.4374896e-01 0.0000000e+00 
1.8993946e+00 1.7276154e-01 0.0000000e+00 
2.7000000e+00 8.2688588e-01 0.0000000e+00 
1.5031048e+00 1.7086764e-01 0.0000000e+00 
1.6031787e+00 3.4448409e-01 0.0000000e+00 
1.2968951e+00 8.2913238e-01 0.0000000e+00 
1.1968212e+00 6.5551591e-01 0.0000000e+00 
9.9947023e-01 6.5391088e-01 0.0000000e+00 
1.1000000e+00 4.8038477e-01 0.0000000e+00 
8.9999998e-01 4.8038477e-01 0.0000000e+00 
1.2996216e+00 4.9228978e-01 0.0000000e+00 
7.9991168e-01 6.5364337e-01 0.0000000e+00 
6.9999999e-01 4.8038477e-01 0.0000000e+00 
5.9998530e-01 6.5359873e-01 0.0000000e+00 
4.8479331e-01 4.8141763e-01 0.0000000e+00 
3.9391196e-01 6.7074126e-01 0.0000000e+00 
1.8000000e+00 3.4641016e-01 0.0000000e+00 
1.7000000e+00 5.1961523e-01 0.0000000e+00 
1.5003334e+00 5.0912750e-01 0.0000000e+00 
1.8991497e+00 5.1739931e-01 0.0000000e+00 
6.9999999e-01 1.7320508e-01 0.0000000e+00 
1.6998384e+00 8.2946962e-01 0.0000000e+00 
3.4885678e+00 8.3318800e-01 0.0000000e+00 
4.9912411e-01 8.3029675e-01 0.0000000e+00 
1.1001617e+00 1.7053038e-01 0.0000000e+00 
2.0998845e+00 8.2817227e-01 0.0000000e+00 
8.9989698e-01 8.2685733e-01 0.0000000e+00 
1.6938214e-01 3.0011359e-01 0.0000000e+00 
2.9031048e+00 1.7086764e-01 0.0000000e+00 
3.0008276e+00 3.4420678e-01 0.0000000e+00 
3.0968952e+00 8.2913238e-01 0.0000000e+00 
2.9991724e+00 6.5579319e-01 0.0000000e+00 
2.8001289e+00 6.5661508e-01 0.0000000e+00 
3.3000989e+00 1.7273311e-01 0.0000000e+00 
3.2002618e+00 3.4070939e-01 0.0000000e+00 
3.8118997e+00 3.1613928e-01 0.0000000e+00 
3.8409591e+00 6.9520664e-01 0.0000000e+00 
3.1562445e-01 1.8911865e-01 0.0000000e+00 
1.8788275e-01 6.8363428e-01 0.0000000e+00 
3.1598091e-01 3.8581166e-01 0.0000000e+00 
3.6863050e+00 6.1217356e-01 0.0000000e+00 
2.3978372e+00 3.3231843e-01 0.0000000e+00 
2.8014896e+00 3.3396253e-01 0.0000000e+00 
3.1989098e+00 6.6671073e-01 0.0000000e+00 
2.0978379e+00 5.0662857e-01 0.0000000e+00 
1.4056216e+00 3.3585981e-01 0.0000000e+00 
1.3943676e+00 6.6447765e-01 0.0000000e+00 
3.3914382e+00 6.7400205e-01 0.0000000e+00 
1.5986463e+00 6.7124927e-01 0.0000000e+00 
2.6000254e+00 3.2966018e-01 0.0000000e+00 
1.7996057e+00 6.7296129e-01 0.0000000e+00 
1.2000000e+00 3.2679492e-01 0.0000000e+00 
1.0000000e+00 3.2679492e-01 0.0000000e+00 
8.0000001e-01 3.2679492e-01 0.0000000e+00 
6.0786384e-01 3.2318488e-01 0.0000000e+00 
2.2982483e+00 4.9884883e-01 0.0000000e+00 
2.9000001e+00 5.0003433e-01 0.0000000e+00 
3.0999999e+00 4.9996570e-01 0.0000000e+00 
2.0000000e+00 6.7323941e-01 0.0000000e+00 
1.4641017e-01 8.5358983e-01 0.0000000e+00 
3.8535898e+00 8.5358983e-01 0.0000000e+00 
3.8535898e+00 1.4641017e-01 0.0000000e+00 
1.4641017e-01 1.4641017e-01 0.0000000e+00 
3.5479531e+00 6.8622428e-01 0.0000000e+00 
4.4691527e-01 3.0861655e-01 0.0000000e+00 
3.0925509e-01 5.4205400e-01 0.0000000e+00 
3.6897502e+00 4.5812324e-01 0.0000000e+00 

CELLS 248 992
3 0 145 49
3 1 144 22
3 2 143 26
3 3 142 45
3 4 145 0
3 5 120 4
3 6 58 5
3 6 103 58
3 7 103 6
3 8 62 7
3 8 107 62
3 9 107 8
3 10 63 9
3 10 86 63
3 11 86 10
3 12 64 11
3 12 84 64
3 13 84 12
3 14 59 13
3 14 81 59
3 15 81 14
3 16 75 15
3 17 51 16
3 17 111 51
3 18 111 17
3 19 61 18
3 19 116 61
3 20 116 19
3 21 57 20
3 21 76 57
3 22 76 21
3 22 144 76
3 23 144 1
3 24 118 23
3 25 65 24
3 25 119 65
3 26 119 25
3 26 143 119
3 27 143 2
3 28 67 27
3 28 105 67
3 29 105 28
3 30 52 29
3 30 113 52
3 31 113 30
3 32 60 31
3 32 85 60
3 33 85 32
3 34 69 33
3 35 50 34
3 35 108 50
3 36 108 35
3 37 56 36
3 37 104 56
3 38 104 37
3 39 53 38
3 39 88 53
3 40 88 39
3 41 55 40
3 41 109 55
3 42 109 41
3 43 54 42
3 43 106 54
3 44 106 43
3 45 68 44
3 45 142 68
3 46 142 3
3 47 121 46
3 48 66 47
3 48 110 66
3 49 110 48
3 49 145 110
3 50 69 34
3 50 70 69
3 50 72 70
3 50 108 72
3 51 75 16
3 51 132 75
3 52 105 29
3 52 130 105
3 53 104 38
3 53 131 104
3 54 96 94
3 54 106 96
3 54 109 42
3 55 88 40
3 55 89 88
3 55 90 89
3 55 109 90
3 56 108 36
3 56 141 108
3 57 116 20
3 58 120 5
3 58 147 120
3 59 84 13
3 60 113 31
3 60 114 113
3 60 115 114
3 61 111 18
3 61 112 111
3 61 117 112
3 62 103 7
3 62 136 103
3 63 107 9
3 63 134 107
3 64 86 11
3 64 87 86
3 64 99 87
3 65 118 24
3 65 149 118
3 66 121 47
3 66 148 121
3 67 123 119
3 67 143 27
3 67 146 123
3 68 106 44
3 68 121 98
3 68 142 121
3 69 85 33
3 70 71 69
3 70 73 71
3 70 138 73
3 71 85 69
3 71 115 85
3 72 138 70
3 72 141 127
3 73 74 71
3 73 132 74
3 73 138 124
3 74 115 71
3 74 132 125
3 74 139 115
3 75 81 15
3 75 124 81
3 75 132 124
3 76 77 57
3 76 118 77
3 76 144 118
3 77 78 57
3 77 79 78
3 77 149 79
3 78 116 57
3 78 117 116
3 79 80 78
3 79 130 80
3 79 146 130
3 79 149 123
3 80 117 78
3 80 130 126
3 80 140 117
3 81 82 59
3 81 124 82
3 82 83 59
3 82 127 83
3 82 138 127
3 83 84 59
3 83 99 84
3 83 102 99
3 83 127 102
3 84 99 64
3 85 115 60
3 86 128 63
3 87 128 86
3 88 129 53
3 89 129 88
3 90 91 89
3 90 92 91
3 90 94 92
3 90 109 94
3 91 93 89
3 91 134 93
3 91 135 134
3 92 135 91
3 92 136 135
3 93 128 101
3 93 129 89
3 93 134 128
3 94 95 92
3 94 96 95
3 94 109 54
3 95 136 92
3 95 137 136
3 96 97 95
3 96 98 97
3 96 106 98
3 97 137 95
3 97 147 137
3 97 148 122
3 98 106 68
3 98 148 97
3 99 100 87
3 99 102 100
3 100 101 87
3 100 131 101
3 100 133 131
3 101 128 87
3 101 129 93
3 101 131 129
3 102 133 100
3 102 141 133
3 103 137 58
3 104 133 56
3 105 146 67
3 107 135 62
3 108 141 72
3 110 122 66
3 110 145 120
3 111 125 51
3 112 125 111
3 112 139 125
3 112 140 139
3 113 126 52
3 114 126 113
3 114 140 126
3 115 139 114
3 116 117 61
3 117 140 112
3 118 144 23
3 118 149 77
3 119 123 65
3 119 143 67
3 120 122 110
3 120 145 4
3 120 147 122
3 121 142 46
3 121 148 98
3 122 147 97
3 122 148 66
3 123 146 79
3 123 149 65
3 124 132 73
3 124 138 82
3 125 132 51
3 125 139 74
3 126 130 52
3 126 140 80
3 127 138 72
3 127 141 102
3 128 134 63
3 129 131 53
3 130 146 105
3 131 133 104
3 133 141 56
3 134 135 107
3 135 136 62
3 136 137 103
3 137 147 58
3 139 140 114

CELL_TYPES 248
5
5
5
5
5
5
5
5
5
5
5
5
5
5
5
5
5
5
5
5
5
5
5
5
5
5
5
5
5
5
5
5
5
5
5
5
5
5
5
5
5
5
5
5
5
5
5
5
5
5
5
5
5
5
5
5
5
5
5
5
5
5
5
5
5
5
5
5
5
5
5
5
5
5
5
5
5
5
5
5
5
5
5
5
5
5
5
5
5
5
5
5
5
5
5
5
5
5
5
5
5
5
5
5
5
5
5
5
5
5
5
5
5
5
5
5
5
5
5
5
5
5
5
5
5
5
5
5
5
5
5
5
5
5
5
5
5
5
5
5
5
5
5
5
5
5
5
5
5
5
5
5
5
5
5
5
5
5
5
5
5
5
5
5
5
5
5
5
5
5
5
5
5
5
5
5
5
5
5
5
5
5
5
5
5
5
5
5
5
5
5
5
5
5
5
5
5
5
5
5
5
5
5
5
5
5
5
5
5
5
5
5
5
5
5
5
5
5
5
5
5
5
5
5
5
5
5
5
5
5
5
5
5
5
5
5
5
5
5
5
5
5
5
5
5
5
5
5
POINT_DATA 150
FIELD FieldData 3
HEIGHT 1 150  float
1.0000000e+00
1.0000000e+00
1.0000000e+00
1.0000000e+00
1.0000000e+00
1.0000000e+00
1.0000000e+00
1.0000000e+00
1.0000000e+00
1.0000000e+00
1.0000000e+00
1.0000000e+00
1.0000000e+00
1.0000000e+00
1.0000000e+00
1.0000000e+00
1.0000000e+00
1.0000000e+00
1.0000000e+00
1.0000000e+00
1.0000000e+00
1.0000000e+00
1.0000000e+00
1.0000000e+00
1.0000000e+00
1.0000000e+00
1.0000000e+00
1.0000000e+00
1.0000000e+00
1.0000000e+00
1.0000000e+00
1.0000000e+00
1.0000000e+00
1.0000000e+00
1.0000000e+00
1.0000000e+00
1.0000000e+00
1.0000000e+00
1.0000000e+00
1.0000000e+00
1.0000000e+00
1.0000000e+00
1.0000000e+00
1.0000000e+00
1.0000000e+00
1.0000000e+00
1.0000000e+00
1.0000000e+00
1.0000000e+00
1.0000000e+00
1.0000000e+00
1.0000000e+00
1.0000000e+00
1.0000000e+00
1.0000000e+00
1.0000000e+00
1.0000000e+00
1.0000000e+00
1.0000000e+00
1.0000000e+00
1.0000000e+00
1.0000000e+00
1.0000000e+00
1.0000000e+00
1.0000000e+00
1.0000000e+00
1.0000000e+00
1.0000000e+00
1.0000000e+00
1.0000000e+00
1.0000000e+00
1.0000000e+00
1.0000000e+00
1.0000000e+00
1.0000000e+00
1.0000000e+00
1.0000000e+00
1.0000000e+00
1.0000000e+00
1.0000000e+00
1.0000000e+00
1.0000000e+00
1.0000000e+00
1.0000000e+00
1.0000000e+00
1.0000000e+00
1.0000000e+00
1.0000000e+00
1.0000000e+00
1.0000000e+00
1.0000000e+00
1.0000000e+00
1.0000000e+00
1.0000000e+00
1.0000000e+00
1.0000000e+00
1.0000000e+00
1.0000000e+00
1.0000000e+00
1.0000000e+00
1.0000000e+00
1.0000000e+00
1.0000000e+00
1.0000000e+00
1.0000000e+00
1.0000000e+00
1.0000000e+00
1.0000000e+00
1.0000000e+00
1.0000000e+00
1.0000000e+00
1.0000000e+00
1.0000000e+00
1.0000000e+00
1.0000000e+00
1.0000000e+00
1.0000000e+00
1.0000000e+00
1.0000000e+00
1.0000000e+00
1.0000000e+00
1.0000000e+00
1.0000000e+00
1.0000000e+00
1.0000000e+00
1.0000000e+00
1.0000000e+00
1.0000000e+00
1.0000000e+00
1.0000000e+00
1.0000000e+00
1.0000000e+00
1.0000000e+00
1.0000000e+00
1.0000000e+00
1.0000000e+00
1.0000000e+00
1.0000000e+00
1.0000000e+00
1.0000000e+00
1.0000000e+00
1.0000000e+00
1.0000000e+00
1.0000000e+00
1.0000000e+00
1.0000000e+00
1.0000000e+00
1.0000000e+00
1.0000000e+00
1.0000000e+00
MOMENTUM 3 150  float
-3.0069175e-16 3.0069175e-16 0.0000000e+00 
-9.1731001e-17 -9.1731001e-17 0.0000000e+00 
-5.3767451e-17 5.3767451e-17 0.0000000e+00 
4.0960541e-16 4.0960541e-16 0.0000000e+00 
-2.4046702e-16 0.0000000e+00 0.0000000e+00 
6.3594327e-17 0.0000000e+00 0.0000000e+00 
1.1290299e-16 0.0000000e+00 0.0000000e+00 
-1.1060620e-16 0.0000000e+00 0.0000000e+00 
1.7442611e-16 0.0000000e+00 0.0000000e+00 
1.6434835e-16 0.0000000e+00 0.0000000e+00 
2.4112124e-16 0.0000000e+00 0.0000000e+00 
2.4560729e-16 0.0000000e+00 0.0000000e+00 
-3.0161091e-16 0.0000000e+00 0.0000000e+00 
7.1157802e-17 0.0000000e+00 0.0000000e+00 
8.5559155e-17 0.0000000e+00 0.0000000e+00 
-4.3008545e-16 0.0000000e+00 0.0000000e+00 
3.0830144e-16 0.0000000e+00 0.0000000e+00 
4.3914254e-16 0.0000000e+00 0.0000000e+00 
2.7395505e-16 0.0000000e+00 0.0000000e+00 
-5.2018331e-16 0.0000000e+00 0.0000000e+00 
4.4631818e-16 0.0000000e+00 0.0000000e+00 
-5.9439907e-16 0.0000000e+00 0.0000000e+00 
7.6608444e-16 0.0000000e+00 0.0000000e+00 
0.0000000e+00 -5.0396523e-16 0.0000000e+00 
0.0000000e+00 -2.1899439e-16 0.0000000e+00 
0.0000000e+00 4.0479874e-16 0.0000000e+00 
0.0000000e+00 1.9440187e-16 0.0000000e+00 
-4.0643455e-16 0.0000000e+00 0.0000000e+00 
1.5860474e-16 0.0000000e+00 0.0000000e+00 
3.2907307e-16 0.0000000e+00 0.0000000e+00 
-1.2636302e-16 0.0000000e+00 0.0000000e+00 
4.0215322e-16 0.0000000e+00 0.0000000e+00 
8.2119818e-17 0.0000000e+00 0.0000000e+00 
-3.0844109e-17 0.0000000e+00 0.0000000e+00 
-3.0443436e-17 0.0000000e+00 0.0000000e+00 
3.3746566e-16 0.0000000e+00 0.0000000e+00 
-1.8584399e-16 0.0000000e+00 0.0000000e+00 
-3.9731156e-17 0.0000000e+00 0.0000000e+00 
-8.9613894e-16 0.0000000e+00 0.0000000e+00 
-2.1210629e-16 0.0000000e+00 0.0000000e+00 
3.0277244e-18 0.0000000e+00 0.0000000e+00 
-8.0221213e-17 0.0000000e+00 0.0000000e+00 
-3.2411141e-16 0.0000000e+00 0.0000000e+00 
1.2007973e-17 0.0000000e+00 0.0000000e+00 
-1.5739724e-16 0.0000000e+00 0.0000000e+00 
-2.0764622e-16 0.0000000e+00 0.0000000e+00 
0.0000000e+00 2.3250938e-16 0.0000000e+00 
0.0000000e+00 -5.0369667e-16 0.0000000e+00 
0.0000000e+00 3.0245958e-16 0.0000000e+00 
0.0000000e+00 -6.9263763e-16 0.0000000e+00 
1.7409612e-16 1.5194164e-16 0.0000000e+00 
-5.8394324e-16 1.4961961e-16 0.0000000e+00 
-2.9060996e-16 7.2717329e-17 0.0000000e+00 
4.6894724e-16 1.2113994e-16 0.0000000e+00 
1.6545811e-16 -1.3057736e-16 0.0000000e+00 
1.4373113e-16 -2.4054428e-16 0.0000000e+00 
2.4249460e-16 1.8815847e-16 0.0000000e+00 
3.1173258e-17 -4.4484503e-16 0.0000000e+00 
-2.3719228e-16 3.7019924e-16 0.0000000e+00 
-1.7628589e-16 -9.9400825e-17 0.0000000e+00 
-2.6344599e-16 7.2244598e-18 0.0000000e+00 
3.4735633e-16 -2.0294793e-16 0.0000000e+00 
1.7618030e-16 1.9892217e-16 0.0000000e+00 
6.3046865e-16 9.4997657e-17 0.0000000e+00 
-2.4898766e-16 -2.8742795e-16 0.0000000e+00 
3.8130062e-16 -5.0004309e-16 0.0000000e+00 
-3.1889131e-16 -2.9289529e-17 0.0000000e+00 
4.3745093e-16 -3.7940985e-16 0.0000000e+00 
2.0748841e-16 3.0608819e-16 0.0000000e+00 
-2.5999756e-16 2.0074777e-16 0.0000000e+00 
1.2086725e-16 -1.4426099e-16 0.0000000e+00 
-2.3111162e-16 -6.9872097e-16 0.0000000e+00 
1.4954588e-16 3.9932212e-16 0.0000000e+00 
1.0923155e-16 7.2696439e-16 0.0000000e+00 
5.0367994e-16 1.8234481e-16 0.0000000e+00 
5.8729696e-16 -8.1369080e-19 0.0000000e+00 
1.8175759e-16 5.9583045e-16 0.0000000e+00 
4.9132003e-16 -4.6907636e-16 0.0000000e+00 
1.5333803e-17 -3.8202470e-16 0.0000000e+00 
-5.4954111e-16 3.2002265e-17 0.0000000e+00 
-5.6576917e-17 -1.6545719e-16 0.0000000e+00 
1.9769663e-16 2.3904605e-17 0.0000000e+00 
-6.6533214e-17 4.0268971e-16 0.0000000e+00 
8.5398530e-17 -3.0670393e-16 0.0000000e+00 
-5.1356577e-17 4.6112108e-16 0.0000000e+00 
5.0851795e-17 2.6789196e-16 0.0000000e+00 
-6.4683809e-16 1.2199373e-16 0.0000000e+00 
6.4213748e-16 1.4081092e-16 0.0000000e+00 
-5.3753526e-16 1.4705377e-16 0.0000000e+00 
-1.2146852e-16 1.4692520e-16 0.0000000e+00 
6.8280534e-18 -6.4494539e-16 0.0000000e+00 
3.0880680e-16 1.4430249e-16 0.0000000e+00 
3.7703768e-16 9.4625516e-18 0.0000000e+00 
1.8475843e-16 6.1751126e-16 0.0000000e+00 
3.8159038e-16 4.7497748e-16 0.0000000e+00 
9.8272167e-17 -4.4977259e-16 0.0000000e+00 
6.0077760e-16 -7.0460197e-16 0.0000000e+00 
-4.5981872e-17 1.7988781e-16 0.0000000e+00 
-3.8669828e-16 7.0449140e-17 0.0000000e+00 
1.7974288e-16 4.9389618e-18 0.0000000e+00 
1.9212021e-16 -4.1815970e-16 0.0000000e+00 
-1.3629436e-16 -3.1202881e-16 0.0000000e+00 
-3.3933823e-16 2.5741617e-16 0.0000000e+00 
-1.0428192e-16 -7.3207814e-17 0.0000000e+00 
4.9159325e-16 4.5278263e-16 0.0000000e+00 
-1.3165794e-16 -4.3629598e-16 0.0000000e+00 
-5.5204475e-18 5.0546225e-17 0.0000000e+00 
-6.6310790e-16 -3.7902038e-16 0.0000000e+00 
-2.7233060e-16 -5.2543730e-16 0.0000000e+00 
2.6699686e-16 2.6847188e-16 0.0000000e+00 
-5.7768415e-17 -3.2839883e-16 0.0000000e+00 
9.9482160e-17 -3.1738711e-16 0.0000000e+00 
5.2382482e-18 2.1290271e-16 0.0000000e+00 
6.2535384e-16 -2.4482090e-16 0.0000000e+00 
-1.1129825e-19 -5.4299931e-16 0.0000000e+00 
-9.3697673e-17 -2.3582792e-16 0.0000000e+00 
-3.1627310e-17 5.7138249e-16 0.0000000e+00 
-4.0181999e-16 3.0268622e-16 0.0000000e+00 
-1.1425601e-16 9.7529523e-16 0.0000000e+00 
-9.3079425e-17 4.1646667e-16 0.0000000e+00 
2.7567164e-16 3.7193137e-16 0.0000000e+00 
-2.6933387e-16 1.0701943e-16 0.0000000e+00 
-7.0710939e-17 -4.5712192e-16 0.0000000e+00 
5.6323016e-16 -2.2679770e-16 0.0000000e+00 
-3.8615499e-16 -1.6941694e-16 0.0000000e+00 
2.0061773e-16 -1.0599036e-15 0.0000000e+00 
-4.1118603e-16 1.1718705e-16 0.0000000e+00 
-7.6927228e-17 3.0273458e-16 0.0000000e+00 
-3.9279922e-16 -2.7373918e-16 0.0000000e+00 
-1.8523359e-16 4.7404908e-16 0.0000000e+00 
6.2193950e-16 2.5186551e-17 0.0000000e+00 
2.3579790e-18 7.7378646e-16 0.0000000e+00 
7.7414967e-17 -1.8732094e-16 0.0000000e+00 
3.0672439e-16 -3.5914043e-16 0.0000000e+00 
-3.7335778e-16 1.9462306e-16 0.0000000e+00 
2.1957488e-17 -3.9804688e-16 0.0000000e+00 
-3.4939778e-16 2.5279886e-16 0.0000000e+00 
7.5575069e-16 -7.4225802e-17 0.0000000e+00 
-2.9359641e-17 -1.7067514e-15 0.0000000e+00 
1.4020591e-16 -4.7269304e-16 0.0000000e+00 
3.6838270e-16 -2.9183162e-16 0.0000000e+00 
3.6925658e-16 -1.5987935e-16 0.0000000e+00 
-3.5580985e-16 -4.5601639e-16 0.0000000e+00 
7.2365737e-17 -5.3967121e-16 0.0000000e+00 
-3.3056551e-16 -7.3790910e-17 0.0000000e+00 
1.8075160e-16 3.1838658e-16 0.0000000e+00 
-2.8122717e-16 6.1381746e-16 0.0000000e+00 
2.6979389e-16 3.3556343e-16 0.0000000e+00 
4.8110254e-16 2.9637257e-16 0.0000000e+00 
-5.3425523e-16 -1.3902975e-16 0.0000000e+00 
VELOCITY 3 150  float
-1.3521634e-16 1.4336281e-16 0.0000000e+00 
-3.2746324e-17 -1.2730888e-16 0.0000000e+00 
-5.9596610e-17 -8.3733846e-17 0.0000000e+00 
8.9894462e-17 1.1986227e-16 0.0000000e+00 
-6.3921077e-17 1.4011064e-16 0.0000000e+00 
2.7580059e-17 1.2368844e-16 0.0000000e+00 
-4.3785234e-18 4.9498574e-17 0.0000000e+00 
-1.9375946e-17 2.0952394e-17 0.0000000e+00 
1.0536962e-17 -3.0016366e-17 0.0000000e+00 
1.1136323e-16 -4.7337121e-17 0.0000000e+00 
1.5199535e-16 3.6165230e-17 0.0000000e+00 
-3.1541449e-17 -2.7572372e-17 0.0000000e+00 
-1.7446575e-16 2.8948850e-17 0.0000000e+00 
-2.0365820e-17 6.0286703e-17 0.0000000e+00 
1.6437397e-17 -1.2582703e-17 0.0000000e+00 
-5.1388751e-17 3.8484855e-18 0.0000000e+00 
1.5546443e-16 2.4800987e-17 0.0000000e+00 
1.8734913e-16 -2.7961249e-17 0.0000000e+00 
2.0469720e-16 -8.6722509e-17 0.0000000e+00 
-1.4744739e-16 6.1405759e-17 0.0000000e+00 
1.3020154e-16 2.1089580e-17 0.0000000e+00 
-1.6067752e-16 2.5164237e-17 0.0000000e+00 
3.0106338e-16 7.9362335e-17 0.0000000e+00 
-8.1781170e-17 -1.2762568e-16 0.0000000e+00 
4.4507436e-17 -3.8552377e-17 0.0000000e+00 
4.8036866e-17 1.8642058e-16 0.0000000e+00 
-7.9329028e-18 1.1488070e-16 0.0000000e+00 
-1.0951138e-16 -1.4869956e-16 0.0000000e+00 
1.2382108e-16 -1.3595097e-16 0.0000000e+00 
9.6845353e-17 -6.0596439e-17 0.0000000e+00 
5.3544662e-17 -2.8683927e-17 0.0000000e+00 
2.5770766e-16 -3.9599406e-17 0.0000000e+00 
3.6569969e-17 4.5852736e-17 0.0000000e+00 
-4.5973315e-17 7.8106622e-17 0.0000000e+00 
-3.9868277e-18 5.8781565e-17 0.0000000e+00 
1.3433646e-16 -6.2249278e-17 0.0000000e+00 
-7.3083452e-17 -5.6213136e-17 0.0000000e+00 
1.2317154e-17 1.0682352e-16 0.0000000e+00 
-3.0896586e-16 9.5653763e-17 0.0000000e+00 
-1.9191042e-16 4.4698951e-17 0.0000000e+00 
-8.8480784e-17 -1.5581753e-17 0.0000000e+00 
1.5870830e-18 4.6546003e-18 0.0000000e+00 
-9.5664318e-17 2.2982424e-17 0.0000000e+00 
-7.4654564e-18 -1.3338521e-17 0.0000000e+00 
-6.1340478e-17 5.9439068e-17 0.0000000e+00 
-1.0752601e-16 9.1457473e-18 0.0000000e+00 
-7.0056838e-17 5.0247589e-17 0.0000000e+00 
-9.8037526e-17 -1.9431261e-16 0.0000000e+00 
-6.2776616e-17 -8.0794610e-18 0.0000000e+00 
-4.5604469e-18 -2.9772493e-16 0.0000000e+00 
9.0806994e-17 7.0168454e-17 0.0000000e+00 
-1.4928364e-16 -5.5642302e-17 0.0000000e+00 
-6.9708363e-17 -8.5366073e-18 0.0000000e+00 
1.2305172e-16 2.1454263e-16 0.0000000e+00 
1.6037413e-16 -5.7839208e-17 0.0000000e+00 
3.3334538e-17 -1.2714669e-16 0.0000000e+00 
1.7705301e-16 4.4773033e-17 0.0000000e+00 
5.7978565e-17 -1.9607984e-16 0.0000000e+00 
-4.1435007e-18 2.3177140e-16 0.0000000e+00 
-6.1316080e-17 -1.2827923e-18 0.0000000e+00 
-4.2833851e-17 -5.9367447e-17 0.0000000e+00 
1.2576523e-16 -3.7341940e-17 0.0000000e+00 
2.1726333e-18 4.9671405e-17 0.0000000e+00 
1.7601488e-16 1.9486931e-17 0.0000000e+00 
-1.1885366e-16 -8.2975255e-17 0.0000000e+00 
1.7578694e-16 -1.4904332e-16 0.0000000e+00 
-1.5250487e-16 -6.3258584e-17 0.0000000e+00 
2.1028272e-16 -2.0202498e-16 0.0000000e+00 
-1.1456285e-17 1.3404396e-16 0.0000000e+00 
-1.2554745e-16 6.5111522e-17 0.0000000e+00 
5.3134016e-17 -1.4933853e-16 0.0000000e+00 
-7.9644543e-17 -2.6620546e-16 0.0000000e+00 
9.8573148e-17 2.6189989e-17 0.0000000e+00 
5.9227098e-17 1.3647166e-16 0.0000000e+00 
2.6872838e-16 -6.9452764e-17 0.0000000e+00 
2.2558428e-16 -1.5674651e-17 0.0000000e+00 
1.1165856e-16 2.9688047e-16 0.0000000e+00 
1.6484438e-16 -1.8143579e-16 0.0000000e+00 
-3.5422435e-17 -2.0545464e-16 0.0000000e+00 
-2.1621597e-16 -3.7097558e-17 0.0000000e+00 
-5.8029387e-17 -9.9128114e-17 0.0000000e+00 
6.6664696e-17 2.3040491e-17 0.0000000e+00 
-6.5402656e-17 3.8375367e-17 0.0000000e+00 
-1.5255904e-18 -4.2560325e-17 0.0000000e+00 
-5.8227056e-17 1.7317771e-16 0.0000000e+00 
-4.0988864e-17 7.3397920e-17 0.0000000e+00 
-2.3029007e-16 3.3883651e-17 0.0000000e+00 
2.3331403e-16 -2.6629786e-17 0.0000000e+00 
-2.6069281e-16 1.1532438e-16 0.0000000e+00 
-6.7287960e-17 1.1491484e-16 0.0000000e+00 
1.1647189e-16 -2.5550640e-16 0.0000000e+00 
1.6238301e-16 6.5945406e-17 0.0000000e+00 
2.2752361e-16 -4.6992557e-17 0.0000000e+00 
1.7350325e-17 3.3993330e-16 0.0000000e+00 
3.1707606e-16 9.9825162e-17 0.0000000e+00 
1.9245081e-16 -2.1336138e-16 0.0000000e+00 
3.1764882e-16 -3.3600841e-16 0.0000000e+00 
1.0188676e-16 1.9705542e-17 0.0000000e+00 
-1.1263810e-16 5.4833925e-17 0.0000000e+00 
1.1320258e-16 -1.0275804e-17 0.0000000e+00 
1.5067095e-16 -1.6693124e-16 0.0000000e+00 
-3.1202080e-17 -4.6492825e-17 0.0000000e+00 
-8.1642839e-17 5.0690601e-17 0.0000000e+00 
-2.3171147e-17 2.5703968e-17 0.0000000e+00 
2.5285114e-16 2.8672002e-16 0.0000000e+00 
1.5440287e-17 -1.9045536e-16 0.0000000e+00 
3.4042827e-17 -1.2947054e-17 0.0000000e+00 
-2.6538535e-16 -1.8196886e-16 0.0000000e+00 
-4.5580729e-17 -2.1442341e-16 0.0000000e+00 
1.5793801e-16 8.9145149e-17 0.0000000e+00 
-2.3315790e-17 -1.7972205e-16 0.0000000e+00 
1.0660497e-16 -2.3372098e-16 0.0000000e+00 
6.5471193e-17 -6.3721726e-17 0.0000000e+00 
2.5521333e-16 -1.5123298e-16 0.0000000e+00 
3.0412083e-17 -3.6489647e-16 0.0000000e+00 
-3.0176445e-17 -2.2265995e-16 0.0000000e+00 
-2.2632136e-17 2.2509697e-16 0.0000000e+00 
-1.4690110e-16 1.2984510e-16 0.0000000e+00 
-4.3588180e-17 3.9414267e-16 0.0000000e+00 
7.4655909e-17 1.2100656e-16 0.0000000e+00 
1.3126447e-16 2.0301058e-16 0.0000000e+00 
-1.6129612e-16 4.7539479e-17 0.0000000e+00 
1.4971737e-17 -1.5972206e-16 0.0000000e+00 
2.2833578e-16 -1.0974854e-16 0.0000000e+00 
-1.2009855e-16 -1.4648575e-16 0.0000000e+00 
1.2048203e-16 -5.6599626e-16 0.0000000e+00 
-9.9894864e-17 -3.7006903e-17 0.0000000e+00 
-2.4382788e-17 5.8541736e-17 0.0000000e+00 
-1.7132675e-16 -6.5377265e-17 0.0000000e+00 
-1.0421967e-16 3.6155686e-16 0.0000000e+00 
1.6756982e-16 3.2090856e-17 0.0000000e+00 
9.6000418e-17 3.8344679e-16 0.0000000e+00 
7.4601481e-17 -1.0792758e-16 0.0000000e+00 
2.3323590e-16 -8.8394823e-17 0.0000000e+00 
-1.7917186e-16 8.1145280e-17 0.0000000e+00 
-3.2674478e-17 -1.6393271e-16 0.0000000e+00 
-6.4289192e-17 6.0827077e-17 0.0000000e+00 
3.4714303e-16 1.4176178e-17 0.0000000e+00 
-2.7177385e-17 -7.2687296e-16 0.0000000e+00 
1.5211210e-16 -3.8095609e-16 0.0000000e+00 
1.2383718e-16 -1.9161360e-16 0.0000000e+00 
1.8547569e-16 -5.8018541e-17 0.0000000e+00 
-1.6389356e-16 -1.2248597e-16 0.0000000e+00 
2.4599822e-17 -2.4131299e-16 0.0000000e+00 
-9.1097255e-17 6.0647486e-17 0.0000000e+00 
5.8050252e-17 1.2435195e-16 0.0000000e+00 
-4.6471437e-17 2.0837727e-16 0.0000000e+00 
2.0265066e-16 2.0684878e-16 0.0000000e+00 
1.3138965e-16 1.3528078e-16 0.0000000e+00 
-1.8992224e-16 -8.8376837e-17 0.0000000e+00 
CELL_DATA 248
FIELD FieldData 0
