# vtk DataFile Version 4.0
vtk output
ASCII
DATASET UNSTRUCTURED_GRID
POINTS 150 float
0.0000000e+00 0.0000000e+00 0.0000000e+00 
4.0000000e+00 0.0000000e+00 0.0000000e+00 
4.0000000e+00 1.0000000e+00 0.0000000e+00 
0.0000000e+00 1.0000000e+00 0.0000000e+00 
2.0000000e-01 0.0000000e+00 0.0000000e+00 
4.0000001e-01 0.0000000e+00 0.0000000e+00 
6.0000002e-01 0.0000000e+00 0.0000000e+00 
8.0000001e-01 0.0000000e+00 0.0000000e+00 
1.0000000e+00 0.0000000e+00 0.0000000e+00 
1.2000000e+00 0.0000000e+00 0.0000000e+00 
1.4000000e+00 0.0000000e+00 0.0000000e+00 
1.6000000e+00 0.0000000e+00 0.0000000e+00 
1.8000000e+00 0.0000000e+00 0.0000000e+00 
2.0000000e+00 0.0000000e+00 0.0000000e+00 
2.2000000e+00 0.0000000e+00 0.0000000e+00 
2.4000001e+00 0.0000000e+00 0.0000000e+00 
2.5999999e+00 0.0000000e+00 0.0000000e+00 
2.8000000e+00 0.0000000e+00 0.0000000e+00 
3.0000000e+00 0.0000000e+00 0.0000000e+00 
3.2000000e+00 0.0000000e+00 0.0000000e+00 
3.4000001e+00 0.0000000e+00 0.0000000e+00 
3.5999999e+00 0.0000000e+00 0.0000000e+00 
3.8000000e+00 0.0000000e+00 0.0000000e+00 
4.0000000e+00 2.0000000e-01 0.0000000e+00 
4.0000000e+00 4.0000001e-01 0.0000000e+00 
4.0000000e+00 6.0000002e-01 0.0000000e+00 
4.0000000e+00 8.0000001e-01 0.0000000e+00 
3.8000000e+00 1.0000000e+00 0.0000000e+00 
3.5999999e+00 1.0000000e+00 0.0000000e+00 
3.4000001e+00 1.0000000e+00 0.0000000e+00 
3.2000000e+00 1.0000000e+00 0.0000000e+00 
3.0000000e+00 1.0000000e+00 0.0000000e+00 
2.8000000e+00 1.0000000e+00 0.0000000e+00 
2.5999999e+00 1.0000000e+00 0.0000000e+00 
2.4000001e+00 1.0000000e+00 0.0000000e+00 
2.2000000e+00 1.0000000e+00 0.0000000e+00 
2.0000000e+00 1.0000000e+00 0.0000000e+00 
1.8000000e+00 1.0000000e+00 0.0000000e+00 
1.6000000e+00 1.0000000e+00 0.0000000e+00 
1.4000000e+00 1.0000000e+00 0.0000000e+00 
1.2000000e+00 1.0000000e+00 0.0000000e+00 
1.0000000e+00 1.0000000e+00 0.0000000e+00 
8.0000001e-01 1.0000000e+00 0.0000000e+00 
6.0000002e-01 1.0000000e+00 0.0000000e+00 
4.0000001e-01 1.0000000e+00 0.0000000e+00 
2.0000000e-01 1.0000000e+00 0.0000000e+00 
0.0000000e+00 8.0000001e-01 0.0000000e+00 
0.0000000e+00 6.0000002e-01 0.0000000e+00 
0.0000000e+00 4.0000001e-01 0.0000000e+00 
0.0000000e+00 2.0000000e-01 0.0000000e+00 
2.3000000e+00 8.2679492e-01 0.0000000e+00 
2.7026613e+00 1.6839938e-01 0.0000000e+00 
3.2973387e+00 8.3160061e-01 0.0000000e+00 
1.4973388e+00 8.3160061e-01 0.0000000e+00 
6.9999999e-01 8.2679492e-01 0.0000000e+00 
1.1000000e+00 8.2679492e-01 0.0000000e+00 
1.9000000e+00 8.2679492e-01 0.0000000e+00 
3.5000000e+00 1.7320508e-01 0.0000000e+00 
5.1031393e-01 1.6354993e-01 0.0000000e+00 
2.0999999e+00 1.7320508e-01 0.0000000e+00 
2.9000001e+00 8.2679492e-01 0.0000000e+00 
3.0999999e+00 1.7320508e-01 0.0000000e+00 
8.9999998e-01 1.7320508e-01 0.0000000e+00 
1.3026613e+00 1.6839938e-01 0.0000000e+00 
1.7000000e+00 1.7320508e-01 0.0000000e+00 
3.8372447e+00 5.0966793e-01 0.0000000e+00 
1.6370662e-01 4.8866507e-01 0.0000000e+00 
3.6861150e+00 8.0809796e-01 0.0000000e+00 
3.0084747e-01 8.3064556e-01 0.0000000e+00 
2.5000000e+00 8.2679492e-01 0.0000000e+00 
2.4000001e+00 6.5686476e-01 0.0000000e+00 
2.5999999e+00 6.5413564e-01 0.0000000e+00 
2.1973388e+00 6.6568744e-01 0.0000000e+00 
2.4980991e+00 4.8908678e-01 0.0000000e+00 
2.7023444e+00 4.9347213e-01 0.0000000e+00 
2.4977822e+00 1.6759844e-01 0.0000000e+00 
3.6991525e+00 1.6935441e-01 0.0000000e+00 
3.6035600e+00 3.2941929e-01 0.0000000e+00 
3.4005933e+00 3.4357834e-01 0.0000000e+00 
3.5158086e+00 5.1572138e-01 0.0000000e+00 
3.3000517e+00 5.1056737e-01 0.0000000e+00 
2.2969692e+00 1.7073415e-01 0.0000000e+00 
2.1941724e+00 3.3966187e-01 0.0000000e+00 
1.9963675e+00 3.4374896e-01 0.0000000e+00 
1.8993946e+00 1.7276154e-01 0.0000000e+00 
2.7000000e+00 8.2688588e-01 0.0000000e+00 
1.5031048e+00 1.7086764e-01 0.0000000e+00 
1.6031787e+00 3.4448409e-01 0.0000000e+00 
1.2968951e+00 8.2913238e-01 0.0000000e+00 
1.1968212e+00 6.5551591e-01 0.0000000e+00 
9.9947023e-01 6.5391088e-01 0.0000000e+00 
1.1000000e+00 4.8038477e-01 0.0000000e+00 
8.9999998e-01 4.8038477e-01 0.0000000e+00 
1.2996216e+00 4.9228978e-01 0.0000000e+00 
7.9991168e-01 6.5364337e-01 0.0000000e+00 
6.9999999e-01 4.8038477e-01 0.0000000e+00 
5.9998530e-01 6.5359873e-01 0.0000000e+00 
4.8479331e-01 4.8141763e-01 0.0000000e+00 
3.9391196e-01 6.7074126e-01 0.0000000e+00 
1.8000000e+00 3.4641016e-01 0.0000000e+00 
1.7000000e+00 5.1961523e-01 0.0000000e+00 
1.5003334e+00 5.0912750e-01 0.0000000e+00 
1.8991497e+00 5.1739931e-01 0.0000000e+00 
6.9999999e-01 1.7320508e-01 0.0000000e+00 
1.6998384e+00 8.2946962e-01 0.0000000e+00 
3.4885678e+00 8.3318800e-01 0.0000000e+00 
4.9912411e-01 8.3029675e-01 0.0000000e+00 
1.1001617e+00 1.7053038e-01 0.0000000e+00 
2.0998845e+00 8.2817227e-01 0.0000000e+00 
8.9989698e-01 8.2685733e-01 0.0000000e+00 
1.6938214e-01 3.0011359e-01 0.0000000e+00 
2.9031048e+00 1.7086764e-01 0.0000000e+00 
3.0008276e+00 3.4420678e-01 0.0000000e+00 
3.0968952e+00 8.2913238e-01 0.0000000e+00 
2.9991724e+00 6.5579319e-01 0.0000000e+00 
2.8001289e+00 6.5661508e-01 0.0000000e+00 
3.3000989e+00 1.7273311e-01 0.0000000e+00 
3.2002618e+00 3.4070939e-01 0.0000000e+00 
3.8118997e+00 3.1613928e-01 0.0000000e+00 
3.8409591e+00 6.9520664e-01 0.0000000e+00 
3.1562445e-01 1.8911865e-01 0.0000000e+00 
1.8788275e-01 6.8363428e-01 0.0000000e+00 
3.1598091e-01 3.8581166e-01 0.0000000e+00 
3.6863050e+00 6.1217356e-01 0.0000000e+00 
2.3978372e+00 3.3231843e-01 0.0000000e+00 
2.8014896e+00 3.3396253e-01 0.0000000e+00 
3.1989098e+00 6.6671073e-01 0.0000000e+00 
2.0978379e+00 5.0662857e-01 0.0000000e+00 
1.4056216e+00 3.3585981e-01 0.0000000e+00 
1.3943676e+00 6.6447765e-01 0.0000000e+00 
3.3914382e+00 6.7400205e-01 0.0000000e+00 
1.5986463e+00 6.7124927e-01 0.0000000e+00 
2.6000254e+00 3.2966018e-01 0.0000000e+00 
1.7996057e+00 6.7296129e-01 0.0000000e+00 
1.2000000e+00 3.2679492e-01 0.0000000e+00 
1.0000000e+00 3.2679492e-01 0.0000000e+00 
8.0000001e-01 3.2679492e-01 0.0000000e+00 
6.0786384e-01 3.2318488e-01 0.0000000e+00 
2.2982483e+00 4.9884883e-01 0.0000000e+00 
2.9000001e+00 5.0003433e-01 0.0000000e+00 
3.0999999e+00 4.9996570e-01 0.0000000e+00 
2.0000000e+00 6.7323941e-01 0.0000000e+00 
1.4641017e-01 8.5358983e-01 0.0000000e+00 
3.8535898e+00 8.5358983e-01 0.0000000e+00 
3.8535898e+00 1.4641017e-01 0.0000000e+00 
1.4641017e-01 1.4641017e-01 0.0000000e+00 
3.5479531e+00 6.8622428e-01 0.0000000e+00 
4.4691527e-01 3.0861655e-01 0.0000000e+00 
3.0925509e-01 5.4205400e-01 0.0000000e+00 
3.6897502e+00 4.5812324e-01 0.0000000e+00 

CELLS 248 992
3 0 145 49
3 1 144 22
3 2 143 26
3 3 142 45
3 4 145 0
3 5 120 4
3 6 58 5
3 6 103 58
3 7 103 6
3 8 62 7
3 8 107 62
3 9 107 8
3 10 63 9
3 10 86 63
3 11 86 10
3 12 64 11
3 12 84 64
3 13 84 12
3 14 59 13
3 14 81 59
3 15 81 14
3 16 75 15
3 17 51 16
3 17 111 51
3 18 111 17
3 19 61 18
3 19 116 61
3 20 116 19
3 21 57 20
3 21 76 57
3 22 76 21
3 22 144 76
3 23 144 1
3 24 118 23
3 25 65 24
3 25 119 65
3 26 119 25
3 26 143 119
3 27 143 2
3 28 67 27
3 28 105 67
3 29 105 28
3 30 52 29
3 30 113 52
3 31 113 30
3 32 60 31
3 32 85 60
3 33 85 32
3 34 69 33
3 35 50 34
3 35 108 50
3 36 108 35
3 37 56 36
3 37 104 56
3 38 104 37
3 39 53 38
3 39 88 53
3 40 88 39
3 41 55 40
3 41 109 55
3 42 109 41
3 43 54 42
3 43 106 54
3 44 106 43
3 45 68 44
3 45 142 68
3 46 142 3
3 47 121 46
3 48 66 47
3 48 110 66
3 49 110 48
3 49 145 110
3 50 69 34
3 50 70 69
3 50 72 70
3 50 108 72
3 51 75 16
3 51 132 75
3 52 105 29
3 52 130 105
3 53 104 38
3 53 131 104
3 54 96 94
3 54 106 96
3 54 109 42
3 55 88 40
3 55 89 88
3 55 90 89
3 55 109 90
3 56 108 36
3 56 141 108
3 57 116 20
3 58 120 5
3 58 147 120
3 59 84 13
3 60 113 31
3 60 114 113
3 60 115 114
3 61 111 18
3 61 112 111
3 61 117 112
3 62 103 7
3 62 136 103
3 63 107 9
3 63 134 107
3 64 86 11
3 64 87 86
3 64 99 87
3 65 118 24
3 65 149 118
3 66 121 47
3 66 148 121
3 67 123 119
3 67 143 27
3 67 146 123
3 68 106 44
3 68 121 98
3 68 142 121
3 69 85 33
3 70 71 69
3 70 73 71
3 70 138 73
3 71 85 69
3 71 115 85
3 72 138 70
3 72 141 127
3 73 74 71
3 73 132 74
3 73 138 124
3 74 115 71
3 74 132 125
3 74 139 115
3 75 81 15
3 75 124 81
3 75 132 124
3 76 77 57
3 76 118 77
3 76 144 118
3 77 78 57
3 77 79 78
3 77 149 79
3 78 116 57
3 78 117 116
3 79 80 78
3 79 130 80
3 79 146 130
3 79 149 123
3 80 117 78
3 80 130 126
3 80 140 117
3 81 82 59
3 81 124 82
3 82 83 59
3 82 127 83
3 82 138 127
3 83 84 59
3 83 99 84
3 83 102 99
3 83 127 102
3 84 99 64
3 85 115 60
3 86 128 63
3 87 128 86
3 88 129 53
3 89 129 88
3 90 91 89
3 90 92 91
3 90 94 92
3 90 109 94
3 91 93 89
3 91 134 93
3 91 135 134
3 92 135 91
3 92 136 135
3 93 128 101
3 93 129 89
3 93 134 128
3 94 95 92
3 94 96 95
3 94 109 54
3 95 136 92
3 95 137 136
3 96 97 95
3 96 98 97
3 96 106 98
3 97 137 95
3 97 147 137
3 97 148 122
3 98 106 68
3 98 148 97
3 99 100 87
3 99 102 100
3 100 101 87
3 100 131 101
3 100 133 131
3 101 128 87
3 101 129 93
3 101 131 129
3 102 133 100
3 102 141 133
3 103 137 58
3 104 133 56
3 105 146 67
3 107 135 62
3 108 141 72
3 110 122 66
3 110 145 120
3 111 125 51
3 112 125 111
3 112 139 125
3 112 140 139
3 113 126 52
3 114 126 113
3 114 140 126
3 115 139 114
3 116 117 61
3 117 140 112
3 118 144 23
3 118 149 77
3 119 123 65
3 119 143 67
3 120 122 110
3 120 145 4
3 120 147 122
3 121 142 46
3 121 148 98
3 122 147 97
3 122 148 66
3 123 146 79
3 123 149 65
3 124 132 73
3 124 138 82
3 125 132 51
3 125 139 74
3 126 130 52
3 126 140 80
3 127 138 72
3 127 141 102
3 128 134 63
3 129 131 53
3 130 146 105
3 131 133 104
3 133 141 56
3 134 135 107
3 135 136 62
3 136 137 103
3 137 147 58
3 139 140 114

CELL_TYPES 248
5
5
5
5
5
5
5
5
5
5
5
5
5
5
5
5
5
5
5
5
5
5
5
5
5
5
5
5
5
5
5
5
5
5
5
5
5
5
5
5
5
5
5
5
5
5
5
5
5
5
5
5
5
5
5
5
5
5
5
5
5
5
5
5
5
5
5
5
5
5
5
5
5
5
5
5
5
5
5
5
5
5
5
5
5
5
5
5
5
5
5
5
5
5
5
5
5
5
5
5
5
5
5
5
5
5
5
5
5
5
5
5
5
5
5
5
5
5
5
5
5
5
5
5
5
5
5
5
5
5
5
5
5
5
5
5
5
5
5
5
5
5
5
5
5
5
5
5
5
5
5
5
5
5
5
5
5
5
5
5
5
5
5
5
5
5
5
5
5
5
5
5
5
5
5
5
5
5
5
5
5
5
5
5
5
5
5
5
5
5
5
5
5
5
5
5
5
5
5
5
5
5
5
5
5
5
5
5
5
5
5
5
5
5
5
5
5
5
5
5
5
5
5
5
5
5
5
5
5
5
5
5
5
5
5
5
5
5
5
5
5
5
5
5
5
5
5
5
POINT_DATA 150
FIELD FieldData 3
HEIGHT 1 150  float
1.0000000e+00
1.0000000e+00
1.0000000e+00
1.0000000e+00
1.0000000e+00
1.0000000e+00
1.0000000e+00
1.0000000e+00
1.0000000e+00
1.0000000e+00
1.0000000e+00
1.0000000e+00
1.0000000e+00
1.0000000e+00
1.0000000e+00
1.0000000e+00
1.0000000e+00
1.0000000e+00
1.0000000e+00
1.0000000e+00
1.0000000e+00
1.0000000e+00
1.0000000e+00
1.0000000e+00
1.0000000e+00
1.0000000e+00
1.0000000e+00
1.0000000e+00
1.0000000e+00
1.0000000e+00
1.0000000e+00
1.0000000e+00
1.0000000e+00
1.0000000e+00
1.0000000e+00
1.0000000e+00
1.0000000e+00
1.0000000e+00
1.0000000e+00
1.0000000e+00
1.0000000e+00
1.0000000e+00
1.0000000e+00
1.0000000e+00
1.0000000e+00
1.0000000e+00
1.0000000e+00
1.0000000e+00
1.0000000e+00
1.0000000e+00
1.0000000e+00
1.0000000e+00
1.0000000e+00
1.0000000e+00
1.0000000e+00
1.0000000e+00
1.0000000e+00
1.0000000e+00
1.0000000e+00
1.0000000e+00
1.0000000e+00
1.0000000e+00
1.0000000e+00
1.0000000e+00
1.0000000e+00
1.0000000e+00
1.0000000e+00
1.0000000e+00
1.0000000e+00
1.0000000e+00
1.0000000e+00
1.0000000e+00
1.0000000e+00
1.0000000e+00
1.0000000e+00
1.0000000e+00
1.0000000e+00
1.0000000e+00
1.0000000e+00
1.0000000e+00
1.0000000e+00
1.0000000e+00
1.0000000e+00
1.0000000e+00
1.0000000e+00
1.0000000e+00
1.0000000e+00
1.0000000e+00
1.0000000e+00
1.0000000e+00
1.0000000e+00
1.0000000e+00
1.0000000e+00
1.0000000e+00
1.0000000e+00
1.0000000e+00
1.0000000e+00
1.0000000e+00
1.0000000e+00
1.0000000e+00
1.0000000e+00
1.0000000e+00
1.0000000e+00
1.0000000e+00
1.0000000e+00
1.0000000e+00
1.0000000e+00
1.0000000e+00
1.0000000e+00
1.0000000e+00
1.0000000e+00
1.0000000e+00
1.0000000e+00
1.0000000e+00
1.0000000e+00
1.0000000e+00
1.0000000e+00
1.0000000e+00
1.0000000e+00
1.0000000e+00
1.0000000e+00
1.0000000e+00
1.0000000e+00
1.0000000e+00
1.0000000e+00
1.0000000e+00
1.0000000e+00
1.0000000e+00
1.0000000e+00
1.0000000e+00
1.0000000e+00
1.0000000e+00
1.0000000e+00
1.0000000e+00
1.0000000e+00
1.0000000e+00
1.0000000e+00
1.0000000e+00
1.0000000e+00
1.0000000e+00
1.0000000e+00
1.0000000e+00
1.0000000e+00
1.0000000e+00
1.0000000e+00
1.0000000e+00
1.0000000e+00
1.0000000e+00
1.0000000e+00
1.0000000e+00
MOMENTUM 3 150  float
-6.2108797e-17 6.2108797e-17 0.0000000e+00 
-4.2295571e-17 -4.2295571e-17 0.0000000e+00 
-2.3863030e-18 2.3863030e-18 0.0000000e+00 
6.8135125e-17 6.8135125e-17 0.0000000e+00 
-5.0233792e-17 0.0000000e+00 0.0000000e+00 
1.9513656e-17 0.0000000e+00 0.0000000e+00 
1.9030944e-17 0.0000000e+00 0.0000000e+00 
-1.7035780e-17 0.0000000e+00 0.0000000e+00 
3.0839381e-17 0.0000000e+00 0.0000000e+00 
2.9621513e-17 0.0000000e+00 0.0000000e+00 
4.7883004e-17 0.0000000e+00 0.0000000e+00 
4.0291296e-17 0.0000000e+00 0.0000000e+00 
-5.6243597e-17 0.0000000e+00 0.0000000e+00 
1.6820976e-17 0.0000000e+00 0.0000000e+00 
1.4079104e-17 0.0000000e+00 0.0000000e+00 
-8.1042233e-17 0.0000000e+00 0.0000000e+00 
5.7968513e-17 0.0000000e+00 0.0000000e+00 
7.9408399e-17 0.0000000e+00 0.0000000e+00 
5.6631518e-17 0.0000000e+00 0.0000000e+00 
-1.0350641e-16 0.0000000e+00 0.0000000e+00 
8.6871573e-17 0.0000000e+00 0.0000000e+00 
-1.1740546e-16 0.0000000e+00 0.0000000e+00 
1.5684767e-16 0.0000000e+00 0.0000000e+00 
0.0000000e+00 -8.2946979e-17 0.0000000e+00 
0.0000000e+00 -2.7245404e-17 0.0000000e+00 
0.0000000e+00 7.3171179e-17 0.0000000e+00 
0.0000000e+00 3.8665558e-17 0.0000000e+00 
-7.7970673e-17 0.0000000e+00 0.0000000e+00 
3.9083645e-17 0.0000000e+00 0.0000000e+00 
7.1028060e-17 0.0000000e+00 0.0000000e+00 
-4.1224855e-17 0.0000000e+00 0.0000000e+00 
8.0466826e-17 0.0000000e+00 0.0000000e+00 
5.7225277e-18 0.0000000e+00 0.0000000e+00 
-4.8660475e-18 0.0000000e+00 0.0000000e+00 
-4.4539259e-18 0.0000000e+00 0.0000000e+00 
7.1699182e-17 0.0000000e+00 0.0000000e+00 
-4.1574124e-17 0.0000000e+00 0.0000000e+00 
-1.0222396e-17 0.0000000e+00 0.0000000e+00 
-1.6248924e-16 0.0000000e+00 0.0000000e+00 
-3.5644702e-17 0.0000000e+00 0.0000000e+00 
1.1859835e-18 0.0000000e+00 0.0000000e+00 
-1.4236935e-17 0.0000000e+00 0.0000000e+00 
-6.3030918e-17 0.0000000e+00 0.0000000e+00 
4.0175377e-18 0.0000000e+00 0.0000000e+00 
-2.8438403e-17 0.0000000e+00 0.0000000e+00 
-3.4436204e-17 0.0000000e+00 0.0000000e+00 
0.0000000e+00 4.3567113e-17 0.0000000e+00 
0.0000000e+00 -8.9424967e-17 0.0000000e+00 
0.0000000e+00 5.9552895e-17 0.0000000e+00 
0.0000000e+00 -1.3404352e-16 0.0000000e+00 
3.3668226e-17 3.1613566e-17 0.0000000e+00 
-1.0903150e-16 3.0181438e-17 0.0000000e+00 
-7.0050068e-17 4.7603645e-18 0.0000000e+00 
8.5109282e-17 2.7141151e-17 0.0000000e+00 
3.7803656e-17 -2.0176432e-17 0.0000000e+00 
2.9106530e-17 -4.8675357e-17 0.0000000e+00 
4.8655667e-17 3.1773559e-17 0.0000000e+00 
5.0383120e-18 -7.7630709e-17 0.0000000e+00 
-4.5413734e-17 7.0068888e-17 0.0000000e+00 
-2.9917118e-17 -1.5595599e-17 0.0000000e+00 
-4.9205140e-17 2.7065515e-18 0.0000000e+00 
6.1171919e-17 -4.0207883e-17 0.0000000e+00 
3.7313929e-17 4.0476386e-17 0.0000000e+00 
1.2256814e-16 1.6095409e-17 0.0000000e+00 
-4.1902296e-17 -5.2523729e-17 0.0000000e+00 
7.2680330e-17 -1.0455887e-16 0.0000000e+00 
-6.4409047e-17 -3.9944407e-18 0.0000000e+00 
7.7335015e-17 -6.8616452e-17 0.0000000e+00 
3.8659153e-17 5.5937348e-17 0.0000000e+00 
-5.4129098e-17 4.3164081e-17 0.0000000e+00 
2.4327397e-17 -2.6547854e-17 0.0000000e+00 
-3.8814223e-17 -1.3328529e-16 0.0000000e+00 
2.3449106e-17 8.0637398e-17 0.0000000e+00 
1.8174321e-17 1.3601930e-16 0.0000000e+00 
9.2964764e-17 4.0874839e-17 0.0000000e+00 
1.1594749e-16 2.4653477e-18 0.0000000e+00 
3.1441969e-17 1.1611104e-16 0.0000000e+00 
9.3389267e-17 -8.8344630e-17 0.0000000e+00 
6.0469868e-18 -7.4973804e-17 0.0000000e+00 
-1.0124766e-16 4.5058575e-18 0.0000000e+00 
-2.0151031e-17 -3.2377583e-17 0.0000000e+00 
3.3212423e-17 6.6248138e-18 0.0000000e+00 
-9.5472649e-18 7.8770266e-17 0.0000000e+00 
1.6501009e-17 -5.8099763e-17 0.0000000e+00 
-1.3956683e-17 8.8991836e-17 0.0000000e+00 
1.0447514e-17 5.2260897e-17 0.0000000e+00 
-1.2346351e-16 2.0761821e-17 0.0000000e+00 
1.1961278e-16 2.4211957e-17 0.0000000e+00 
-9.8882825e-17 2.2765518e-17 0.0000000e+00 
-2.3075282e-17 2.4522631e-17 0.0000000e+00 
7.4299505e-18 -1.1617765e-16 0.0000000e+00 
5.7658783e-17 3.4223016e-17 0.0000000e+00 
6.7884086e-17 -1.5685267e-18 0.0000000e+00 
2.8294884e-17 1.1908271e-16 0.0000000e+00 
7.0460647e-17 8.9218179e-17 0.0000000e+00 
1.6553709e-17 -8.9339093e-17 0.0000000e+00 
1.1084274e-16 -1.3348244e-16 0.0000000e+00 
-5.8761513e-18 3.1677351e-17 0.0000000e+00 
-7.4523428e-17 7.9385086e-18 0.0000000e+00 
3.4280138e-17 3.5757756e-18 0.0000000e+00 
4.3939414e-17 -8.2751506e-17 0.0000000e+00 
-2.6503936e-17 -6.0843720e-17 0.0000000e+00 
-6.5427756e-17 4.7963707e-17 0.0000000e+00 
-2.1057623e-17 -8.6019372e-18 0.0000000e+00 
8.8515214e-17 9.1589441e-17 0.0000000e+00 
-1.1333020e-17 -1.1156513e-16 0.0000000e+00 
-4.5470540e-18 1.6120263e-17 0.0000000e+00 
-1.2687831e-16 -7.1787743e-17 0.0000000e+00 
-5.3796988e-17 -1.0454308e-16 0.0000000e+00 
4.5437610e-17 4.6846428e-17 0.0000000e+00 
-8.4469186e-18 -6.6684647e-17 0.0000000e+00 
1.5981244e-17 -5.9730209e-17 0.0000000e+00 
7.6037577e-18 4.6288025e-17 0.0000000e+00 
1.2719653e-16 -4.0788458e-17 0.0000000e+00 
3.7062009e-18 -1.0520683e-16 0.0000000e+00 
-2.2958049e-17 -4.8514537e-17 0.0000000e+00 
-3.4418911e-18 1.0526867e-16 0.0000000e+00 
-7.8659688e-17 6.1365512e-17 0.0000000e+00 
-3.6335655e-17 1.9403631e-16 0.0000000e+00 
-1.5622064e-17 8.9538152e-17 0.0000000e+00 
4.9376720e-17 7.4667562e-17 0.0000000e+00 
-5.2094813e-17 2.1627835e-17 0.0000000e+00 
-1.1561724e-17 -8.8793961e-17 0.0000000e+00 
1.0744894e-16 -3.5152661e-17 0.0000000e+00 
-7.7788230e-17 -2.7141617e-17 0.0000000e+00 
3.5732766e-17 -1.9722941e-16 0.0000000e+00 
-7.5715673e-17 2.0932469e-17 0.0000000e+00 
-1.4573306e-17 5.0320729e-17 0.0000000e+00 
-7.0653897e-17 -5.6174510e-17 0.0000000e+00 
-4.4736445e-17 9.1522903e-17 0.0000000e+00 
1.2018345e-16 1.4639282e-17 0.0000000e+00 
9.1719430e-19 1.4444753e-16 0.0000000e+00 
1.4339077e-17 -4.4156026e-17 0.0000000e+00 
6.4316244e-17 -6.7902674e-17 0.0000000e+00 
-6.7195395e-17 3.6400764e-17 0.0000000e+00 
-2.3358290e-18 -7.3903367e-17 0.0000000e+00 
-6.4633458e-17 4.6941209e-17 0.0000000e+00 
1.4007065e-16 -8.2947347e-18 0.0000000e+00 
-4.8307352e-18 -3.2462789e-16 0.0000000e+00 
3.0578753e-17 -8.7339274e-17 0.0000000e+00 
6.6975067e-17 -5.8300795e-17 0.0000000e+00 
6.4323656e-17 -2.4897715e-17 0.0000000e+00 
-7.2354812e-17 -8.6061194e-17 0.0000000e+00 
1.5426301e-17 -1.1728248e-16 0.0000000e+00 
-6.4246245e-17 -3.4639293e-17 0.0000000e+00 
3.0651475e-17 6.4113088e-17 0.0000000e+00 
-6.1886338e-17 1.2606731e-16 0.0000000e+00 
5.2497497e-17 5.7410788e-17 0.0000000e+00 
9.3759036e-17 5.9649311e-17 0.0000000e+00 
-9.1021936e-17 -4.2831544e-17 0.0000000e+00 
VELOCITY 3 150  float
-2.9670754e-17 3.0327231e-17 0.0000000e+00 
-1.7603388e-17 -4.0175980e-17 0.0000000e+00 
-7.0829110e-18 -2.3294276e-17 0.0000000e+00 
1.1674336e-17 1.7998155e-17 0.0000000e+00 
-1.5328459e-17 2.8305843e-17 0.0000000e+00 
7.8170876e-18 2.4122742e-17 0.0000000e+00 
-1.3565974e-18 1.0244492e-17 0.0000000e+00 
-1.6526452e-18 5.3124083e-18 0.0000000e+00 
1.5411057e-18 -5.2185592e-18 0.0000000e+00 
2.0652597e-17 -9.2820559e-18 0.0000000e+00 
2.9618343e-17 6.1428719e-18 0.0000000e+00 
-8.1120345e-18 -5.2936515e-18 0.0000000e+00 
-3.2672271e-17 6.0780181e-18 0.0000000e+00 
-2.4155198e-18 1.2232707e-17 0.0000000e+00 
2.2369983e-18 -1.4951307e-18 0.0000000e+00 
-9.6571599e-18 1.5150270e-18 0.0000000e+00 
3.0000769e-17 5.4411308e-18 0.0000000e+00 
3.3745822e-17 -4.9247947e-18 0.0000000e+00 
3.9166453e-17 -1.6656349e-17 0.0000000e+00 
-3.0172945e-17 1.0843465e-17 0.0000000e+00 
2.5292534e-17 4.6063277e-18 0.0000000e+00 
-3.2312745e-17 6.4133881e-18 0.0000000e+00 
5.9648040e-17 1.0053993e-17 0.0000000e+00 
-2.0288280e-17 -2.0702400e-17 0.0000000e+00 
6.0574461e-18 4.7555497e-19 0.0000000e+00 
9.5097117e-18 3.5033819e-17 0.0000000e+00 
-2.3148580e-19 2.1005181e-17 0.0000000e+00 
-2.0467006e-17 -3.0784297e-17 0.0000000e+00 
2.9963605e-17 -3.0030263e-17 0.0000000e+00 
2.1771748e-17 -1.7800794e-17 0.0000000e+00 
1.5365563e-18 -6.0046823e-18 0.0000000e+00 
5.0273450e-17 -6.3469846e-18 0.0000000e+00 
2.7017241e-18 9.1612412e-18 0.0000000e+00 
-9.6075713e-18 1.5904164e-17 0.0000000e+00 
-6.7680603e-20 1.2462941e-17 0.0000000e+00 
2.8659128e-17 -1.2154919e-17 0.0000000e+00 
-1.6520883e-17 -1.2128253e-17 0.0000000e+00 
7.4533507e-19 2.0560501e-17 0.0000000e+00 
-5.6129465e-17 1.9788432e-17 0.0000000e+00 
-3.3559879e-17 8.3177783e-18 0.0000000e+00 
-1.5193194e-17 -4.3183067e-18 0.0000000e+00 
1.5181151e-19 -3.0482167e-19 0.0000000e+00 
-1.8493532e-17 4.4449990e-18 0.0000000e+00 
-7.0907480e-20 -6.7602835e-19 0.0000000e+00 
-1.1068740e-17 1.2009602e-17 0.0000000e+00 
-1.9525984e-17 6.5728645e-19 0.0000000e+00 
-1.5063677e-17 9.2705101e-18 0.0000000e+00 
-1.9417310e-17 -3.3180249e-17 0.0000000e+00 
-1.2142661e-17 -6.2577299e-19 0.0000000e+00 
-1.4749734e-18 -5.7311877e-17 0.0000000e+00 
1.7425418e-17 1.5199328e-17 0.0000000e+00 
-2.7900961e-17 -9.7968071e-18 0.0000000e+00 
-1.9180492e-17 -7.3516380e-18 0.0000000e+00 
2.1527908e-17 4.2764358e-17 0.0000000e+00 
3.2500208e-17 -8.5296797e-18 0.0000000e+00 
7.7081413e-18 -2.6174600e-17 0.0000000e+00 
3.3624634e-17 7.0739444e-18 0.0000000e+00 
1.0594360e-17 -3.3976913e-17 0.0000000e+00 
-1.0875462e-18 4.4632919e-17 0.0000000e+00 
-1.0199429e-17 1.8927975e-18 0.0000000e+00 
-7.5541078e-18 -1.0500801e-17 0.0000000e+00 
2.1803336e-17 -7.3379407e-18 0.0000000e+00 
1.8984966e-18 1.1292207e-17 0.0000000e+00 
3.5393526e-17 2.1477323e-18 0.0000000e+00 
-2.0907779e-17 -1.4800083e-17 0.0000000e+00 
3.3379272e-17 -3.1319768e-17 0.0000000e+00 
-3.0399893e-17 -1.0670014e-17 0.0000000e+00 
3.8320849e-17 -3.7764997e-17 0.0000000e+00 
-2.8699823e-18 2.4604125e-17 0.0000000e+00 
-2.5372137e-17 1.5252150e-17 0.0000000e+00 
1.0290165e-17 -2.7147163e-17 0.0000000e+00 
-1.3671540e-17 -5.0204582e-17 0.0000000e+00 
1.5817740e-17 7.0951781e-18 0.0000000e+00 
9.9369976e-18 2.5102663e-17 0.0000000e+00 
4.9570105e-17 -1.0771351e-17 0.0000000e+00 
4.4445251e-17 -1.6416089e-18 0.0000000e+00 
1.8828310e-17 5.7507323e-17 0.0000000e+00 
3.1188137e-17 -3.4237551e-17 0.0000000e+00 
-5.7325639e-18 -3.9754641e-17 0.0000000e+00 
-3.9623162e-17 -7.2451865e-18 0.0000000e+00 
-1.5276974e-17 -1.8841414e-17 0.0000000e+00 
1.0917192e-17 6.5206069e-18 0.0000000e+00 
-1.1223296e-17 8.6751899e-18 0.0000000e+00 
-1.1328168e-20 -7.8809881e-18 0.0000000e+00 
-1.2016749e-17 3.4275642e-17 0.0000000e+00 
-8.4637459e-18 1.4803016e-17 0.0000000e+00 
-4.3581834e-17 4.6816715e-18 0.0000000e+00 
4.4447716e-17 -6.8903438e-18 0.0000000e+00 
-4.8445963e-17 1.9258702e-17 0.0000000e+00 
-1.3298401e-17 2.0823077e-17 0.0000000e+00 
2.4337674e-17 -4.6041624e-17 0.0000000e+00 
2.9746262e-17 1.6141224e-17 0.0000000e+00 
4.1036529e-17 -9.8707380e-18 0.0000000e+00 
-3.9473894e-19 6.5345614e-17 0.0000000e+00 
5.9059637e-17 1.8450948e-17 0.0000000e+00 
3.4839229e-17 -4.2628627e-17 0.0000000e+00 
5.8743985e-17 -6.3787987e-17 0.0000000e+00 
2.0464673e-17 1.9164164e-18 0.0000000e+00 
-2.2199805e-17 8.2633929e-18 0.0000000e+00 
2.2037274e-17 -8.9607028e-19 0.0000000e+00 
3.2569264e-17 -3.3754706e-17 0.0000000e+00 
-6.8041404e-18 -1.0393602e-17 0.0000000e+00 
-1.5314948e-17 9.0022579e-18 0.0000000e+00 
-4.7510984e-18 8.1316776e-18 0.0000000e+00 
4.6448170e-17 5.7083019e-17 0.0000000e+00 
8.9746375e-18 -4.9378355e-17 0.0000000e+00 
5.0899107e-18 5.7821331e-19 0.0000000e+00 
-5.0871505e-17 -3.4304771e-17 0.0000000e+00 
-1.0213351e-17 -4.2344305e-17 0.0000000e+00 
2.8346550e-17 1.5438942e-17 0.0000000e+00 
-3.8853405e-18 -3.5717189e-17 0.0000000e+00 
1.8950359e-17 -4.3279089e-17 0.0000000e+00 
1.4783551e-17 -8.6428264e-18 0.0000000e+00 
5.0929706e-17 -2.6794850e-17 0.0000000e+00 
8.2590576e-18 -7.0212083e-17 0.0000000e+00 
-7.3392013e-18 -4.3423028e-17 0.0000000e+00 
-3.6407213e-18 4.1680430e-17 0.0000000e+00 
-2.9479443e-17 2.6157478e-17 0.0000000e+00 
-1.5150443e-17 7.8128466e-17 0.0000000e+00 
1.4929849e-17 2.6954598e-17 0.0000000e+00 
2.3760250e-17 3.9913364e-17 0.0000000e+00 
-3.1680915e-17 9.9290377e-18 0.0000000e+00 
3.9608989e-18 -3.1669821e-17 0.0000000e+00 
4.3744246e-17 -1.7234292e-17 0.0000000e+00 
-2.4952840e-17 -2.5646158e-17 0.0000000e+00 
2.2236057e-17 -1.0477148e-16 0.0000000e+00 
-1.8869490e-17 -7.6399336e-18 0.0000000e+00 
-5.2476520e-18 8.4725314e-18 0.0000000e+00 
-3.0884201e-17 -1.5111509e-17 0.0000000e+00 
-2.5213279e-17 6.8854435e-17 0.0000000e+00 
3.1726410e-17 8.3465824e-18 0.0000000e+00 
1.8011912e-17 7.2120064e-17 0.0000000e+00 
1.3502839e-17 -2.3313856e-17 0.0000000e+00 
4.7235070e-17 -1.6607585e-17 0.0000000e+00 
-3.2876548e-17 1.5495009e-17 0.0000000e+00 
-9.1554435e-18 -2.9894589e-17 0.0000000e+00 
-1.2447650e-17 1.1701332e-17 0.0000000e+00 
6.4374511e-17 4.8657328e-18 0.0000000e+00 
-5.4118660e-18 -1.3797576e-16 0.0000000e+00 
3.0624754e-17 -7.0510364e-17 0.0000000e+00 
2.2434394e-17 -3.7178536e-17 0.0000000e+00 
3.2380409e-17 -9.2613871e-18 0.0000000e+00 
-3.4151078e-17 -2.4103854e-17 0.0000000e+00 
5.8487476e-18 -5.2443889e-17 0.0000000e+00 
-2.1157280e-17 1.1708339e-18 0.0000000e+00 
8.1844592e-18 2.5661364e-17 0.0000000e+00 
-1.1704498e-17 4.3414750e-17 0.0000000e+00 
3.8908326e-17 3.6637904e-17 0.0000000e+00 
2.6033000e-17 2.6670184e-17 0.0000000e+00 
-3.1917446e-17 -2.4367171e-17 0.0000000e+00 
CELL_DATA 248
FIELD FieldData 0
