# vtk DataFile Version 4.0
vtk output
ASCII
DATASET UNSTRUCTURED_GRID
POINTS 55 float
0.0000000e+00 0.0000000e+00 0.0000000e+00 
1.0000000e-01 0.0000000e+00 0.0000000e+00 
2.0000000e-01 0.0000000e+00 0.0000000e+00 
3.0000001e-01 0.0000000e+00 0.0000000e+00 
4.0000001e-01 0.0000000e+00 0.0000000e+00 
5.0000000e-01 0.0000000e+00 0.0000000e+00 
6.0000002e-01 0.0000000e+00 0.0000000e+00 
6.9999999e-01 0.0000000e+00 0.0000000e+00 
8.0000001e-01 0.0000000e+00 0.0000000e+00 
8.9999998e-01 0.0000000e+00 0.0000000e+00 
1.0000000e+00 0.0000000e+00 0.0000000e+00 
0.0000000e+00 5.0000001e-02 0.0000000e+00 
1.0000000e-01 5.0000001e-02 0.0000000e+00 
2.0000000e-01 5.0000001e-02 0.0000000e+00 
3.0000001e-01 5.0000001e-02 0.0000000e+00 
4.0000001e-01 5.0000001e-02 0.0000000e+00 
5.0000000e-01 5.0000001e-02 0.0000000e+00 
6.0000002e-01 5.0000001e-02 0.0000000e+00 
6.9999999e-01 5.0000001e-02 0.0000000e+00 
8.0000001e-01 5.0000001e-02 0.0000000e+00 
8.9999998e-01 5.0000001e-02 0.0000000e+00 
1.0000000e+00 5.0000001e-02 0.0000000e+00 
0.0000000e+00 1.0000000e-01 0.0000000e+00 
1.0000000e-01 1.0000000e-01 0.0000000e+00 
2.0000000e-01 1.0000000e-01 0.0000000e+00 
3.0000001e-01 1.0000000e-01 0.0000000e+00 
4.0000001e-01 1.0000000e-01 0.0000000e+00 
5.0000000e-01 1.0000000e-01 0.0000000e+00 
6.0000002e-01 1.0000000e-01 0.0000000e+00 
6.9999999e-01 1.0000000e-01 0.0000000e+00 
8.0000001e-01 1.0000000e-01 0.0000000e+00 
8.9999998e-01 1.0000000e-01 0.0000000e+00 
1.0000000e+00 1.0000000e-01 0.0000000e+00 
0.0000000e+00 1.5000001e-01 0.0000000e+00 
1.0000000e-01 1.5000001e-01 0.0000000e+00 
2.0000000e-01 1.5000001e-01 0.0000000e+00 
3.0000001e-01 1.5000001e-01 0.0000000e+00 
4.0000001e-01 1.5000001e-01 0.0000000e+00 
5.0000000e-01 1.5000001e-01 0.0000000e+00 
6.0000002e-01 1.5000001e-01 0.0000000e+00 
6.9999999e-01 1.5000001e-01 0.0000000e+00 
8.0000001e-01 1.5000001e-01 0.0000000e+00 
8.9999998e-01 1.5000001e-01 0.0000000e+00 
1.0000000e+00 1.5000001e-01 0.0000000e+00 
0.0000000e+00 2.0000000e-01 0.0000000e+00 
1.0000000e-01 2.0000000e-01 0.0000000e+00 
2.0000000e-01 2.0000000e-01 0.0000000e+00 
3.0000001e-01 2.0000000e-01 0.0000000e+00 
4.0000001e-01 2.0000000e-01 0.0000000e+00 
5.0000000e-01 2.0000000e-01 0.0000000e+00 
6.0000002e-01 2.0000000e-01 0.0000000e+00 
6.9999999e-01 2.0000000e-01 0.0000000e+00 
8.0000001e-01 2.0000000e-01 0.0000000e+00 
8.9999998e-01 2.0000000e-01 0.0000000e+00 
1.0000000e+00 2.0000000e-01 0.0000000e+00 

CELLS 40 200
4 0 1 12 11
4 1 2 13 12
4 2 3 14 13
4 3 4 15 14
4 4 5 16 15
4 5 6 17 16
4 6 7 18 17
4 7 8 19 18
4 8 9 20 19
4 9 10 21 20
4 11 12 23 22
4 12 13 24 23
4 13 14 25 24
4 14 15 26 25
4 15 16 27 26
4 16 17 28 27
4 17 18 29 28
4 18 19 30 29
4 19 20 31 30
4 20 21 32 31
4 22 23 34 33
4 23 24 35 34
4 24 25 36 35
4 25 26 37 36
4 26 27 38 37
4 27 28 39 38
4 28 29 40 39
4 29 30 41 40
4 30 31 42 41
4 31 32 43 42
4 33 34 45 44
4 34 35 46 45
4 35 36 47 46
4 36 37 48 47
4 37 38 49 48
4 38 39 50 49
4 39 40 51 50
4 40 41 52 51
4 41 42 53 52
4 42 43 54 53

CELL_TYPES 40
9
9
9
9
9
9
9
9
9
9
9
9
9
9
9
9
9
9
9
9
9
9
9
9
9
9
9
9
9
9
9
9
9
9
9
9
9
9
9
9
POINT_DATA 55
FIELD FieldData 2
DISPLACEMENT 3 55  float
0.0000000e+00 0.0000000e+00 0.0000000e+00 
-1.0690733e-05 -8.2709230e-06 0.0000000e+00 
-2.0693094e-05 -2.4744901e-05 0.0000000e+00 
-2.9552581e-05 -5.0984636e-05 0.0000000e+00 
-3.7224636e-05 -8.5448708e-05 0.0000000e+00 
-4.3714426e-05 -1.2699922e-04 0.0000000e+00 
-4.9025391e-05 -1.7444888e-04 0.0000000e+00 
-5.3156004e-05 -2.2661957e-04 0.0000000e+00 
-5.6104800e-05 -2.8233233e-04 0.0000000e+00 
-5.7878038e-05 -3.4038242e-04 0.0000000e+00 
-5.8523048e-05 -3.9978517e-04 0.0000000e+00 
0.0000000e+00 0.0000000e+00 0.0000000e+00 
-4.9614641e-06 -6.2307577e-06 0.0000000e+00 
-1.0202676e-05 -2.3278240e-05 0.0000000e+00 
-1.4595395e-05 -4.9648479e-05 0.0000000e+00 
-1.8432482e-05 -8.4312604e-05 0.0000000e+00 
-2.1678356e-05 -1.2605041e-04 0.0000000e+00 
-2.4333503e-05 -1.7369032e-04 0.0000000e+00 
-2.6398486e-05 -2.2605082e-04 0.0000000e+00 
-2.7876898e-05 -2.8195037e-04 0.0000000e+00 
-2.8744658e-05 -3.4021356e-04 0.0000000e+00 
-2.9060524e-05 -3.9967091e-04 0.0000000e+00 
0.0000000e+00 0.0000000e+00 0.0000000e+00 
-3.6715096e-20 -5.6014073e-06 0.0000000e+00 
-7.8327839e-20 -2.2752500e-05 0.0000000e+00 
-1.3182142e-19 -4.9216014e-05 0.0000000e+00 
-1.7815666e-19 -8.3930514e-05 0.0000000e+00 
-2.0746712e-19 -1.2573488e-04 0.0000000e+00 
-2.5020688e-19 -1.7343742e-04 0.0000000e+00 
-3.6936884e-19 -2.2586089e-04 0.0000000e+00 
-4.6500139e-19 -2.8182304e-04 0.0000000e+00 
-5.0276436e-19 -3.4016461e-04 0.0000000e+00 
-4.5471023e-19 -3.9960170e-04 0.0000000e+00 
0.0000000e+00 0.0000000e+00 0.0000000e+00 
4.9614641e-06 -6.2307577e-06 0.0000000e+00 
1.0202676e-05 -2.3278240e-05 0.0000000e+00 
1.4595395e-05 -4.9648479e-05 0.0000000e+00 
1.8432482e-05 -8.4312604e-05 0.0000000e+00 
2.1678356e-05 -1.2605041e-04 0.0000000e+00 
2.4333503e-05 -1.7369032e-04 0.0000000e+00 
2.6398486e-05 -2.2605082e-04 0.0000000e+00 
2.7876898e-05 -2.8195037e-04 0.0000000e+00 
2.8744658e-05 -3.4021356e-04 0.0000000e+00 
2.9060524e-05 -3.9967091e-04 0.0000000e+00 
0.0000000e+00 0.0000000e+00 0.0000000e+00 
1.0690733e-05 -8.2709230e-06 0.0000000e+00 
2.0693094e-05 -2.4744901e-05 0.0000000e+00 
2.9552581e-05 -5.0984636e-05 0.0000000e+00 
3.7224636e-05 -8.5448708e-05 0.0000000e+00 
4.3714426e-05 -1.2699922e-04 0.0000000e+00 
4.9025391e-05 -1.7444888e-04 0.0000000e+00 
5.3156004e-05 -2.2661957e-04 0.0000000e+00 
5.6104800e-05 -2.8233233e-04 0.0000000e+00 
5.7878038e-05 -3.4038242e-04 0.0000000e+00 
5.8523048e-05 -3.9978517e-04 0.0000000e+00 
REACTION 3 55  float
6.9735800e+05 3.1942456e+05 0.0000000e+00 
-1.1641532e-10 -4.0745363e-10 0.0000000e+00 
-1.5133992e-09 3.4597178e-09 0.0000000e+00 
-6.9849193e-10 -1.4715624e-09 0.0000000e+00 
1.8044375e-09 4.5401976e-09 0.0000000e+00 
-9.8953024e-10 3.5652192e-09 0.0000000e+00 
-3.7252903e-09 -6.5792847e-09 0.0000000e+00 
5.8207661e-10 -6.4092092e-09 0.0000000e+00 
-6.1118044e-10 -2.2047061e-08 0.0000000e+00 
-3.6525307e-09 -7.2487637e-08 0.0000000e+00 
-1.8458195e-09 6.1463393e-02 0.0000000e+00 
6.0528400e+05 -1.4561155e+05 0.0000000e+00 
4.6566129e-10 -8.3673513e-10 0.0000000e+00 
1.8044375e-09 -1.1641532e-09 0.0000000e+00 
-1.6880222e-09 3.2741809e-11 0.0000000e+00 
2.6193447e-09 6.5010681e-09 0.0000000e+00 
1.8917490e-09 -8.9494279e-09 0.0000000e+00 
-1.7171260e-09 -3.2239768e-08 0.0000000e+00 
-5.7916623e-09 -2.5265763e-08 0.0000000e+00 
5.6170393e-09 1.9597792e-08 0.0000000e+00 
-1.5686965e-08 1.2729288e-08 0.0000000e+00 
-4.5620254e-09 1.0029224e-01 0.0000000e+00 
4.2127795e-09 -1.4762602e+05 0.0000000e+00 
8.7311491e-11 -1.5133992e-09 0.0000000e+00 
1.4551915e-11 -3.8489816e-09 0.0000000e+00 
-2.2118911e-09 -1.3606041e-09 0.0000000e+00 
-5.2386895e-10 1.0164513e-08 0.0000000e+00 
-1.4479156e-09 6.2573235e-09 0.0000000e+00 
-1.9135769e-09 8.6438376e-09 0.0000000e+00 
-9.0149115e-09 -2.3974280e-08 0.0000000e+00 
8.8766683e-10 1.0644726e-08 0.0000000e+00 
7.1304385e-09 -5.0124072e-08 0.0000000e+00 
9.7788870e-09 8.4451549e-03 0.0000000e+00 
-6.0528400e+05 -1.4561155e+05 0.0000000e+00 
1.7462298e-10 9.8953024e-10 0.0000000e+00 
1.5133992e-09 -3.7543941e-09 0.0000000e+00 
2.9103830e-11 1.0513759e-08 0.0000000e+00 
-1.5425030e-09 -7.1413524e-09 0.0000000e+00 
4.1472958e-09 -4.1512976e-08 0.0000000e+00 
8.1054168e-09 -3.6270649e-08 0.0000000e+00 
-5.5006240e-09 -1.0943040e-08 0.0000000e+00 
-1.9499566e-09 4.9010850e-08 0.0000000e+00 
-1.3646059e-08 -2.4559995e-08 0.0000000e+00 
8.9785317e-09 -8.3166711e-02 0.0000000e+00 
-6.9735800e+05 3.1942456e+05 0.0000000e+00 
-6.9849193e-10 8.7311491e-11 0.0000000e+00 
-8.1490725e-10 3.1686795e-09 0.0000000e+00 
3.3178367e-09 -7.2723196e-09 0.0000000e+00 
-6.9849193e-10 1.0604708e-08 0.0000000e+00 
6.1700121e-09 4.7657522e-09 0.0000000e+00 
3.0267984e-09 9.2659320e-09 0.0000000e+00 
1.5133992e-09 1.9297659e-08 0.0000000e+00 
4.2782631e-09 1.0831172e-08 0.0000000e+00 
-4.8166839e-09 -3.1170202e-08 0.0000000e+00 
-5.8807927e-09 -5.2783024e-02 0.0000000e+00 
CELL_DATA 40
FIELD FieldData 0
