# vtk DataFile Version 4.0
vtk output
ASCII
DATASET UNSTRUCTURED_GRID
POINTS 150 float
0.0000000e+00 0.0000000e+00 0.0000000e+00 
4.0000000e+00 0.0000000e+00 0.0000000e+00 
4.0000000e+00 1.0000000e+00 0.0000000e+00 
0.0000000e+00 1.0000000e+00 0.0000000e+00 
2.0000000e-01 0.0000000e+00 0.0000000e+00 
4.0000001e-01 0.0000000e+00 0.0000000e+00 
6.0000002e-01 0.0000000e+00 0.0000000e+00 
8.0000001e-01 0.0000000e+00 0.0000000e+00 
1.0000000e+00 0.0000000e+00 0.0000000e+00 
1.2000000e+00 0.0000000e+00 0.0000000e+00 
1.4000000e+00 0.0000000e+00 0.0000000e+00 
1.6000000e+00 0.0000000e+00 0.0000000e+00 
1.8000000e+00 0.0000000e+00 0.0000000e+00 
2.0000000e+00 0.0000000e+00 0.0000000e+00 
2.2000000e+00 0.0000000e+00 0.0000000e+00 
2.4000001e+00 0.0000000e+00 0.0000000e+00 
2.5999999e+00 0.0000000e+00 0.0000000e+00 
2.8000000e+00 0.0000000e+00 0.0000000e+00 
3.0000000e+00 0.0000000e+00 0.0000000e+00 
3.2000000e+00 0.0000000e+00 0.0000000e+00 
3.4000001e+00 0.0000000e+00 0.0000000e+00 
3.5999999e+00 0.0000000e+00 0.0000000e+00 
3.8000000e+00 0.0000000e+00 0.0000000e+00 
4.0000000e+00 2.0000000e-01 0.0000000e+00 
4.0000000e+00 4.0000001e-01 0.0000000e+00 
4.0000000e+00 6.0000002e-01 0.0000000e+00 
4.0000000e+00 8.0000001e-01 0.0000000e+00 
3.8000000e+00 1.0000000e+00 0.0000000e+00 
3.5999999e+00 1.0000000e+00 0.0000000e+00 
3.4000001e+00 1.0000000e+00 0.0000000e+00 
3.2000000e+00 1.0000000e+00 0.0000000e+00 
3.0000000e+00 1.0000000e+00 0.0000000e+00 
2.8000000e+00 1.0000000e+00 0.0000000e+00 
2.5999999e+00 1.0000000e+00 0.0000000e+00 
2.4000001e+00 1.0000000e+00 0.0000000e+00 
2.2000000e+00 1.0000000e+00 0.0000000e+00 
2.0000000e+00 1.0000000e+00 0.0000000e+00 
1.8000000e+00 1.0000000e+00 0.0000000e+00 
1.6000000e+00 1.0000000e+00 0.0000000e+00 
1.4000000e+00 1.0000000e+00 0.0000000e+00 
1.2000000e+00 1.0000000e+00 0.0000000e+00 
1.0000000e+00 1.0000000e+00 0.0000000e+00 
8.0000001e-01 1.0000000e+00 0.0000000e+00 
6.0000002e-01 1.0000000e+00 0.0000000e+00 
4.0000001e-01 1.0000000e+00 0.0000000e+00 
2.0000000e-01 1.0000000e+00 0.0000000e+00 
0.0000000e+00 8.0000001e-01 0.0000000e+00 
0.0000000e+00 6.0000002e-01 0.0000000e+00 
0.0000000e+00 4.0000001e-01 0.0000000e+00 
0.0000000e+00 2.0000000e-01 0.0000000e+00 
2.3000000e+00 8.2679492e-01 0.0000000e+00 
2.7026613e+00 1.6839938e-01 0.0000000e+00 
3.2973387e+00 8.3160061e-01 0.0000000e+00 
1.4973388e+00 8.3160061e-01 0.0000000e+00 
6.9999999e-01 8.2679492e-01 0.0000000e+00 
1.1000000e+00 8.2679492e-01 0.0000000e+00 
1.9000000e+00 8.2679492e-01 0.0000000e+00 
3.5000000e+00 1.7320508e-01 0.0000000e+00 
5.1031393e-01 1.6354993e-01 0.0000000e+00 
2.0999999e+00 1.7320508e-01 0.0000000e+00 
2.9000001e+00 8.2679492e-01 0.0000000e+00 
3.0999999e+00 1.7320508e-01 0.0000000e+00 
8.9999998e-01 1.7320508e-01 0.0000000e+00 
1.3026613e+00 1.6839938e-01 0.0000000e+00 
1.7000000e+00 1.7320508e-01 0.0000000e+00 
3.8372447e+00 5.0966793e-01 0.0000000e+00 
1.6370662e-01 4.8866507e-01 0.0000000e+00 
3.6861150e+00 8.0809796e-01 0.0000000e+00 
3.0084747e-01 8.3064556e-01 0.0000000e+00 
2.5000000e+00 8.2679492e-01 0.0000000e+00 
2.4000001e+00 6.5686476e-01 0.0000000e+00 
2.5999999e+00 6.5413564e-01 0.0000000e+00 
2.1973388e+00 6.6568744e-01 0.0000000e+00 
2.4980991e+00 4.8908678e-01 0.0000000e+00 
2.7023444e+00 4.9347213e-01 0.0000000e+00 
2.4977822e+00 1.6759844e-01 0.0000000e+00 
3.6991525e+00 1.6935441e-01 0.0000000e+00 
3.6035600e+00 3.2941929e-01 0.0000000e+00 
3.4005933e+00 3.4357834e-01 0.0000000e+00 
3.5158086e+00 5.1572138e-01 0.0000000e+00 
3.3000517e+00 5.1056737e-01 0.0000000e+00 
2.2969692e+00 1.7073415e-01 0.0000000e+00 
2.1941724e+00 3.3966187e-01 0.0000000e+00 
1.9963675e+00 3.4374896e-01 0.0000000e+00 
1.8993946e+00 1.7276154e-01 0.0000000e+00 
2.7000000e+00 8.2688588e-01 0.0000000e+00 
1.5031048e+00 1.7086764e-01 0.0000000e+00 
1.6031787e+00 3.4448409e-01 0.0000000e+00 
1.2968951e+00 8.2913238e-01 0.0000000e+00 
1.1968212e+00 6.5551591e-01 0.0000000e+00 
9.9947023e-01 6.5391088e-01 0.0000000e+00 
1.1000000e+00 4.8038477e-01 0.0000000e+00 
8.9999998e-01 4.8038477e-01 0.0000000e+00 
1.2996216e+00 4.9228978e-01 0.0000000e+00 
7.9991168e-01 6.5364337e-01 0.0000000e+00 
6.9999999e-01 4.8038477e-01 0.0000000e+00 
5.9998530e-01 6.5359873e-01 0.0000000e+00 
4.8479331e-01 4.8141763e-01 0.0000000e+00 
3.9391196e-01 6.7074126e-01 0.0000000e+00 
1.8000000e+00 3.4641016e-01 0.0000000e+00 
1.7000000e+00 5.1961523e-01 0.0000000e+00 
1.5003334e+00 5.0912750e-01 0.0000000e+00 
1.8991497e+00 5.1739931e-01 0.0000000e+00 
6.9999999e-01 1.7320508e-01 0.0000000e+00 
1.6998384e+00 8.2946962e-01 0.0000000e+00 
3.4885678e+00 8.3318800e-01 0.0000000e+00 
4.9912411e-01 8.3029675e-01 0.0000000e+00 
1.1001617e+00 1.7053038e-01 0.0000000e+00 
2.0998845e+00 8.2817227e-01 0.0000000e+00 
8.9989698e-01 8.2685733e-01 0.0000000e+00 
1.6938214e-01 3.0011359e-01 0.0000000e+00 
2.9031048e+00 1.7086764e-01 0.0000000e+00 
3.0008276e+00 3.4420678e-01 0.0000000e+00 
3.0968952e+00 8.2913238e-01 0.0000000e+00 
2.9991724e+00 6.5579319e-01 0.0000000e+00 
2.8001289e+00 6.5661508e-01 0.0000000e+00 
3.3000989e+00 1.7273311e-01 0.0000000e+00 
3.2002618e+00 3.4070939e-01 0.0000000e+00 
3.8118997e+00 3.1613928e-01 0.0000000e+00 
3.8409591e+00 6.9520664e-01 0.0000000e+00 
3.1562445e-01 1.8911865e-01 0.0000000e+00 
1.8788275e-01 6.8363428e-01 0.0000000e+00 
3.1598091e-01 3.8581166e-01 0.0000000e+00 
3.6863050e+00 6.1217356e-01 0.0000000e+00 
2.3978372e+00 3.3231843e-01 0.0000000e+00 
2.8014896e+00 3.3396253e-01 0.0000000e+00 
3.1989098e+00 6.6671073e-01 0.0000000e+00 
2.0978379e+00 5.0662857e-01 0.0000000e+00 
1.4056216e+00 3.3585981e-01 0.0000000e+00 
1.3943676e+00 6.6447765e-01 0.0000000e+00 
3.3914382e+00 6.7400205e-01 0.0000000e+00 
1.5986463e+00 6.7124927e-01 0.0000000e+00 
2.6000254e+00 3.2966018e-01 0.0000000e+00 
1.7996057e+00 6.7296129e-01 0.0000000e+00 
1.2000000e+00 3.2679492e-01 0.0000000e+00 
1.0000000e+00 3.2679492e-01 0.0000000e+00 
8.0000001e-01 3.2679492e-01 0.0000000e+00 
6.0786384e-01 3.2318488e-01 0.0000000e+00 
2.2982483e+00 4.9884883e-01 0.0000000e+00 
2.9000001e+00 5.0003433e-01 0.0000000e+00 
3.0999999e+00 4.9996570e-01 0.0000000e+00 
2.0000000e+00 6.7323941e-01 0.0000000e+00 
1.4641017e-01 8.5358983e-01 0.0000000e+00 
3.8535898e+00 8.5358983e-01 0.0000000e+00 
3.8535898e+00 1.4641017e-01 0.0000000e+00 
1.4641017e-01 1.4641017e-01 0.0000000e+00 
3.5479531e+00 6.8622428e-01 0.0000000e+00 
4.4691527e-01 3.0861655e-01 0.0000000e+00 
3.0925509e-01 5.4205400e-01 0.0000000e+00 
3.6897502e+00 4.5812324e-01 0.0000000e+00 

CELLS 248 992
3 0 145 49
3 1 144 22
3 2 143 26
3 3 142 45
3 4 145 0
3 5 120 4
3 6 58 5
3 6 103 58
3 7 103 6
3 8 62 7
3 8 107 62
3 9 107 8
3 10 63 9
3 10 86 63
3 11 86 10
3 12 64 11
3 12 84 64
3 13 84 12
3 14 59 13
3 14 81 59
3 15 81 14
3 16 75 15
3 17 51 16
3 17 111 51
3 18 111 17
3 19 61 18
3 19 116 61
3 20 116 19
3 21 57 20
3 21 76 57
3 22 76 21
3 22 144 76
3 23 144 1
3 24 118 23
3 25 65 24
3 25 119 65
3 26 119 25
3 26 143 119
3 27 143 2
3 28 67 27
3 28 105 67
3 29 105 28
3 30 52 29
3 30 113 52
3 31 113 30
3 32 60 31
3 32 85 60
3 33 85 32
3 34 69 33
3 35 50 34
3 35 108 50
3 36 108 35
3 37 56 36
3 37 104 56
3 38 104 37
3 39 53 38
3 39 88 53
3 40 88 39
3 41 55 40
3 41 109 55
3 42 109 41
3 43 54 42
3 43 106 54
3 44 106 43
3 45 68 44
3 45 142 68
3 46 142 3
3 47 121 46
3 48 66 47
3 48 110 66
3 49 110 48
3 49 145 110
3 50 69 34
3 50 70 69
3 50 72 70
3 50 108 72
3 51 75 16
3 51 132 75
3 52 105 29
3 52 130 105
3 53 104 38
3 53 131 104
3 54 96 94
3 54 106 96
3 54 109 42
3 55 88 40
3 55 89 88
3 55 90 89
3 55 109 90
3 56 108 36
3 56 141 108
3 57 116 20
3 58 120 5
3 58 147 120
3 59 84 13
3 60 113 31
3 60 114 113
3 60 115 114
3 61 111 18
3 61 112 111
3 61 117 112
3 62 103 7
3 62 136 103
3 63 107 9
3 63 134 107
3 64 86 11
3 64 87 86
3 64 99 87
3 65 118 24
3 65 149 118
3 66 121 47
3 66 148 121
3 67 123 119
3 67 143 27
3 67 146 123
3 68 106 44
3 68 121 98
3 68 142 121
3 69 85 33
3 70 71 69
3 70 73 71
3 70 138 73
3 71 85 69
3 71 115 85
3 72 138 70
3 72 141 127
3 73 74 71
3 73 132 74
3 73 138 124
3 74 115 71
3 74 132 125
3 74 139 115
3 75 81 15
3 75 124 81
3 75 132 124
3 76 77 57
3 76 118 77
3 76 144 118
3 77 78 57
3 77 79 78
3 77 149 79
3 78 116 57
3 78 117 116
3 79 80 78
3 79 130 80
3 79 146 130
3 79 149 123
3 80 117 78
3 80 130 126
3 80 140 117
3 81 82 59
3 81 124 82
3 82 83 59
3 82 127 83
3 82 138 127
3 83 84 59
3 83 99 84
3 83 102 99
3 83 127 102
3 84 99 64
3 85 115 60
3 86 128 63
3 87 128 86
3 88 129 53
3 89 129 88
3 90 91 89
3 90 92 91
3 90 94 92
3 90 109 94
3 91 93 89
3 91 134 93
3 91 135 134
3 92 135 91
3 92 136 135
3 93 128 101
3 93 129 89
3 93 134 128
3 94 95 92
3 94 96 95
3 94 109 54
3 95 136 92
3 95 137 136
3 96 97 95
3 96 98 97
3 96 106 98
3 97 137 95
3 97 147 137
3 97 148 122
3 98 106 68
3 98 148 97
3 99 100 87
3 99 102 100
3 100 101 87
3 100 131 101
3 100 133 131
3 101 128 87
3 101 129 93
3 101 131 129
3 102 133 100
3 102 141 133
3 103 137 58
3 104 133 56
3 105 146 67
3 107 135 62
3 108 141 72
3 110 122 66
3 110 145 120
3 111 125 51
3 112 125 111
3 112 139 125
3 112 140 139
3 113 126 52
3 114 126 113
3 114 140 126
3 115 139 114
3 116 117 61
3 117 140 112
3 118 144 23
3 118 149 77
3 119 123 65
3 119 143 67
3 120 122 110
3 120 145 4
3 120 147 122
3 121 142 46
3 121 148 98
3 122 147 97
3 122 148 66
3 123 146 79
3 123 149 65
3 124 132 73
3 124 138 82
3 125 132 51
3 125 139 74
3 126 130 52
3 126 140 80
3 127 138 72
3 127 141 102
3 128 134 63
3 129 131 53
3 130 146 105
3 131 133 104
3 133 141 56
3 134 135 107
3 135 136 62
3 136 137 103
3 137 147 58
3 139 140 114

CELL_TYPES 248
5
5
5
5
5
5
5
5
5
5
5
5
5
5
5
5
5
5
5
5
5
5
5
5
5
5
5
5
5
5
5
5
5
5
5
5
5
5
5
5
5
5
5
5
5
5
5
5
5
5
5
5
5
5
5
5
5
5
5
5
5
5
5
5
5
5
5
5
5
5
5
5
5
5
5
5
5
5
5
5
5
5
5
5
5
5
5
5
5
5
5
5
5
5
5
5
5
5
5
5
5
5
5
5
5
5
5
5
5
5
5
5
5
5
5
5
5
5
5
5
5
5
5
5
5
5
5
5
5
5
5
5
5
5
5
5
5
5
5
5
5
5
5
5
5
5
5
5
5
5
5
5
5
5
5
5
5
5
5
5
5
5
5
5
5
5
5
5
5
5
5
5
5
5
5
5
5
5
5
5
5
5
5
5
5
5
5
5
5
5
5
5
5
5
5
5
5
5
5
5
5
5
5
5
5
5
5
5
5
5
5
5
5
5
5
5
5
5
5
5
5
5
5
5
5
5
5
5
5
5
5
5
5
5
5
5
5
5
5
5
5
5
5
5
5
5
5
5
POINT_DATA 150
FIELD FieldData 2
VELOCITY_POTENTIAL 1 150  float
1.0000000e+00
4.1799999e+01
4.1799999e+01
1.0000000e+00
3.0400000e+00
5.0799999e+00
7.1199999e+00
9.1599998e+00
1.1200000e+01
1.3240000e+01
1.5280000e+01
1.7320000e+01
1.9360001e+01
2.1400000e+01
2.3440001e+01
2.5480000e+01
2.7520000e+01
2.9559999e+01
3.1600000e+01
3.3639999e+01
3.5680000e+01
3.7720001e+01
3.9759998e+01
4.1799999e+01
4.1799999e+01
4.1799999e+01
4.1799999e+01
3.9759998e+01
3.7720001e+01
3.5680000e+01
3.3639999e+01
3.1600000e+01
2.9559999e+01
2.7520000e+01
2.5480000e+01
2.3440001e+01
2.1400000e+01
1.9360001e+01
1.7320000e+01
1.5280000e+01
1.3240000e+01
1.1200000e+01
9.1599998e+00
7.1199999e+00
5.0799999e+00
3.0400000e+00
1.0000000e+00
1.0000000e+00
1.0000000e+00
1.0000000e+00
2.4459999e+01
2.8567144e+01
3.4632854e+01
1.6272856e+01
8.1400003e+00
1.2220000e+01
2.0379999e+01
3.6700001e+01
6.2052021e+00
2.2420000e+01
3.0580000e+01
3.2619999e+01
1.0180000e+01
1.4287145e+01
1.8340000e+01
4.0139896e+01
2.6698074e+00
3.8598373e+01
4.0686440e+00
2.6500000e+01
2.5480000e+01
2.7520000e+01
2.3412855e+01
2.6480610e+01
2.8563913e+01
2.6477379e+01
3.8731358e+01
3.7756313e+01
3.5686050e+01
3.6861248e+01
3.4660526e+01
2.4429085e+01
2.3380558e+01
2.1362947e+01
2.0373825e+01
2.8540001e+01
1.6331669e+01
1.7352423e+01
1.4228331e+01
1.3207577e+01
1.1194596e+01
1.2220000e+01
1.0180000e+01
1.4256140e+01
9.1590996e+00
8.1400003e+00
7.1198497e+00
5.9448915e+00
5.0179019e+00
1.9360001e+01
1.8340000e+01
1.6303400e+01
2.0371326e+01
8.1400003e+00
1.8338350e+01
3.6583393e+01
6.0910659e+00
1.2221649e+01
2.2418823e+01
1.0178949e+01
2.7276978e+00
3.0611670e+01
3.1608440e+01
3.2588329e+01
3.1591560e+01
2.9561316e+01
3.4661007e+01
3.3642670e+01
3.9881378e+01
4.0177780e+01
4.2193694e+00
2.9164040e+00
4.2230053e+00
3.8600311e+01
2.5457939e+01
2.9575195e+01
3.3628880e+01
2.2397947e+01
1.5337341e+01
1.5222549e+01
3.5592670e+01
1.7306192e+01
2.7520260e+01
1.9355978e+01
1.3240000e+01
1.1200000e+01
9.1599998e+00
7.2002110e+00
2.4442133e+01
3.0580000e+01
3.2619999e+01
2.1400000e+01
2.4933836e+00
4.0306618e+01
4.0306618e+01
2.4933836e+00
3.7189121e+01
5.5585361e+00
4.1544023e+00
3.8635452e+01
AUXILIARY_VELOCITY_POTENTIAL 1 150  float
1.0000000e+00
4.1799999e+01
4.1799999e+01
1.0000000e+00
3.0400000e+00
5.0799999e+00
7.1199999e+00
9.1599998e+00
1.1200000e+01
1.3240000e+01
1.5280000e+01
1.7320000e+01
1.9360001e+01
2.1400000e+01
2.3440001e+01
2.5480000e+01
2.7520000e+01
2.9559999e+01
3.1600000e+01
3.3639999e+01
3.5680000e+01
3.7720001e+01
3.9759998e+01
4.1799999e+01
4.1799999e+01
4.1799999e+01
4.1799999e+01
3.9759998e+01
3.7720001e+01
3.5680000e+01
3.3639999e+01
3.1600000e+01
2.9559999e+01
2.7520000e+01
2.5480000e+01
2.3440001e+01
2.1400000e+01
1.9360001e+01
1.7320000e+01
1.5280000e+01
1.3240000e+01
1.1200000e+01
9.1599998e+00
7.1199999e+00
5.0799999e+00
3.0400000e+00
1.0000000e+00
1.0000000e+00
1.0000000e+00
1.0000000e+00
2.4459999e+01
2.8567144e+01
3.4632854e+01
1.6272856e+01
8.1400003e+00
1.2220000e+01
2.0379999e+01
3.6700001e+01
6.2052021e+00
2.2420000e+01
3.0580000e+01
3.2619999e+01
1.0180000e+01
1.4287145e+01
1.8340000e+01
4.0139896e+01
2.6698074e+00
3.8598373e+01
4.0686440e+00
2.6500000e+01
2.5480000e+01
2.7520000e+01
2.3412855e+01
2.6480610e+01
2.8563913e+01
2.6477379e+01
3.8731358e+01
3.7756313e+01
3.5686050e+01
3.6861248e+01
3.4660526e+01
2.4429085e+01
2.3380558e+01
2.1362947e+01
2.0373825e+01
2.8540001e+01
1.6331669e+01
1.7352423e+01
1.4228331e+01
1.3207577e+01
1.1194596e+01
1.2220000e+01
1.0180000e+01
1.4256140e+01
9.1590996e+00
8.1400003e+00
7.1198497e+00
5.9448915e+00
5.0179019e+00
1.9360001e+01
1.8340000e+01
1.6303400e+01
2.0371326e+01
8.1400003e+00
1.8338350e+01
3.6583393e+01
6.0910659e+00
1.2221649e+01
2.2418823e+01
1.0178949e+01
2.7276978e+00
3.0611670e+01
3.1608440e+01
3.2588329e+01
3.1591560e+01
2.9561316e+01
3.4661007e+01
3.3642670e+01
3.9881378e+01
4.0177780e+01
4.2193694e+00
2.9164040e+00
4.2230053e+00
3.8600311e+01
2.5457939e+01
2.9575195e+01
3.3628880e+01
2.2397947e+01
1.5337341e+01
1.5222549e+01
3.5592670e+01
1.7306192e+01
2.7520260e+01
1.9355978e+01
1.3240000e+01
1.1200000e+01
9.1599998e+00
7.2002110e+00
2.4442133e+01
3.0580000e+01
3.2619999e+01
2.1400000e+01
2.4933836e+00
4.0306618e+01
4.0306618e+01
2.4933836e+00
3.7189121e+01
5.5585361e+00
4.1544023e+00
3.8635452e+01
CELL_DATA 248
FIELD FieldData 0
