# vtk DataFile Version 4.0
vtk output
ASCII
DATASET UNSTRUCTURED_GRID
POINTS 10 float
0.0000000e+00 0.0000000e+00 0.0000000e+00 
2.5000000e-01 0.0000000e+00 0.0000000e+00 
5.0000000e-01 0.0000000e+00 0.0000000e+00 
7.5000000e-01 0.0000000e+00 0.0000000e+00 
1.0000000e+00 0.0000000e+00 0.0000000e+00 
0.0000000e+00 2.0000000e-01 0.0000000e+00 
2.5000000e-01 2.0000000e-01 0.0000000e+00 
5.0000000e-01 2.0000000e-01 0.0000000e+00 
7.5000000e-01 2.0000000e-01 0.0000000e+00 
1.0000000e+00 2.0000000e-01 0.0000000e+00 

CELLS 4 20
4 0 1 6 5
4 1 2 7 6
4 2 3 8 7
4 3 4 9 8

CELL_TYPES 4
9
9
9
9
POINT_DATA 10
FIELD FieldData 2
DISPLACEMENT 3 10  float
0.0000000e+00 0.0000000e+00 0.0000000e+00 
-1.6049382e-05 -2.3156967e-05 0.0000000e+00 
-2.7513228e-05 -8.0705468e-05 0.0000000e+00 
-3.4391534e-05 -1.6118166e-04 0.0000000e+00 
-3.6684305e-05 -2.5312169e-04 0.0000000e+00 
0.0000000e+00 0.0000000e+00 0.0000000e+00 
1.6049382e-05 -2.3156967e-05 0.0000000e+00 
2.7513228e-05 -8.0705468e-05 0.0000000e+00 
3.4391534e-05 -1.6118166e-04 0.0000000e+00 
3.6684305e-05 -2.5312169e-04 0.0000000e+00 
REACTION 3 10  float
1.0000000e+06 1.0000000e+05 0.0000000e+00 
5.8207661e-10 -4.8021320e-10 0.0000000e+00 
9.8953024e-10 -1.1641532e-10 0.0000000e+00 
3.7252903e-09 3.7834980e-09 0.0000000e+00 
1.1568773e-09 6.7286985e-03 0.0000000e+00 
-1.0000000e+06 1.0000000e+05 0.0000000e+00 
5.8207661e-10 1.0622898e-09 0.0000000e+00 
1.4551915e-09 2.0227162e-09 0.0000000e+00 
-2.4156179e-09 -6.1845640e-09 0.0000000e+00 
-5.3114491e-10 6.7286924e-03 0.0000000e+00 
CELL_DATA 4
FIELD FieldData 0
